<?xml version="1.0" standalone="no"?>
<!DOCTYPE svg PUBLIC "-//W3C//DTD SVG 1.1//EN" "http://www.w3.org/Graphics/SVG/1.1/DTD/svg11.dtd" >
<svg xmlns="http://www.w3.org/2000/svg" xmlns:xlink="http://www.w3.org/1999/xlink" version="1.1">
<metadata></metadata>
<defs>
<font id="bariolthin" horiz-adv-x="508" >
<font-face units-per-em="1000" ascent="787" descent="-213" />
<missing-glyph horiz-adv-x="250" />
<glyph unicode="&#x2e;&#x2e;&#x2e;" horiz-adv-x="733" d="M70 -8c-11 0 -17 6 -17 19s6 20 17 20s17 -7 17 -20s-6 -19 -17 -19zM366 -8c-11 0 -17 6 -17 19s6 20 17 20s17 -7 17 -20s-6 -19 -17 -19zM662 -8c-11 0 -17 6 -17 19s6 20 17 20s17 -7 17 -20s-6 -19 -17 -19z" />
<glyph unicode="ffi" horiz-adv-x="703" d="M516 669c-96 0 -142 -56 -142 -151v-64h240c5 0 9 -4 9 -9v-444c0 -5 -4 -9 -9 -9s-9 4 -9 9v437h-231v-437c0 -5 -4 -9 -9 -9s-9 4 -9 9v437h-237v-437c0 -5 -4 -9 -9 -9s-9 4 -9 9v437h-63c-4 0 -8 4 -8 8s4 8 8 8h63v64c0 97 50 167 160 167c5 0 8 -4 8 -8 s-3 -8 -8 -8c-96 0 -142 -56 -142 -151v-64h237v64c0 97 50 167 160 167c37 0 79 -12 100 -23c4 -2 6 -4 6 -8c0 -3 -3 -8 -8 -8c-3 0 -6 2 -11 4c-28 12 -60 19 -87 19z" />
<glyph unicode="ffl" horiz-adv-x="728" d="M688 -8c-68 0 -83 45 -83 108v338h-231v-437c0 -5 -4 -9 -9 -9s-9 4 -9 9v437h-237v-437c0 -5 -4 -9 -9 -9s-9 4 -9 9v437h-63c-4 0 -8 4 -8 8s4 8 8 8h63v64c0 97 50 167 160 167c5 0 8 -4 8 -8s-3 -8 -8 -8c-96 0 -142 -56 -142 -151v-64h237v64c0 97 50 167 160 167 c37 0 81 -12 100 -23c5 -3 7 -6 7 -12v-550c0 -55 10 -92 65 -92c5 0 8 -4 8 -8s-3 -8 -8 -8zM516 669c-96 0 -142 -56 -142 -151v-64h231v195c-16 8 -56 20 -89 20z" />
<glyph unicode="ff" horiz-adv-x="529" d="M498 438h-124v-437c0 -5 -4 -9 -9 -9s-9 4 -9 9v437h-237v-437c0 -5 -4 -9 -9 -9s-9 4 -9 9v437h-63c-4 0 -8 4 -8 8s4 8 8 8h63v64c0 97 50 167 160 167c5 0 8 -4 8 -8s-3 -8 -8 -8c-96 0 -142 -56 -142 -151v-64h237v64c0 97 50 167 160 167c5 0 8 -4 8 -8s-3 -8 -8 -8 c-96 0 -142 -56 -142 -151v-64h124c4 0 8 -4 8 -8s-4 -8 -8 -8z" />
<glyph unicode="fj" horiz-adv-x="448" d="M241 -185c68 0 109 54 109 127v57v2v437h-231v-437c0 -5 -4 -9 -9 -9s-9 4 -9 9v437h-63c-4 0 -8 4 -8 8s4 8 8 8h63v64c0 97 50 167 160 167c37 0 79 -12 100 -23c4 -2 6 -4 6 -8c0 -3 -3 -8 -8 -8c-3 0 -6 2 -11 4c-28 12 -60 19 -87 19c-96 0 -142 -56 -142 -151v-64 h240c5 0 9 -4 9 -9v-503c0 -80 -46 -143 -127 -143c-5 0 -8 4 -8 8s3 8 8 8z" />
<glyph unicode="fb" horiz-adv-x="775" d="M119 438v-437c0 -5 -4 -9 -9 -9s-9 4 -9 9v437h-63c-4 0 -8 4 -8 8s4 8 8 8h63v64c0 97 50 167 160 167c37 0 80 -11 102 -24c3 -2 5 -4 5 -8v-285s44 100 172 100s190 -76 190 -240s-62 -241 -190 -241c-112 0 -190 64 -190 194v468c-15 7 -55 20 -89 20 c-96 0 -142 -56 -142 -151v-64h124c4 0 8 -4 8 -8s-4 -8 -8 -8h-124zM368 335v-154c0 -117 69 -178 172 -178c115 0 172 75 172 225c0 148 -57 224 -172 224c-131 0 -172 -117 -172 -117z" />
<glyph unicode="ffb" horiz-adv-x="1030" d="M374 438v-437c0 -5 -4 -9 -9 -9s-9 4 -9 9v437h-237v-437c0 -5 -4 -9 -9 -9s-9 4 -9 9v437h-63c-4 0 -8 4 -8 8s4 8 8 8h63v64c0 97 50 167 160 167c5 0 8 -4 8 -8s-3 -8 -8 -8c-96 0 -142 -56 -142 -151v-64h237v64c0 97 50 167 160 167c37 0 80 -11 102 -24 c3 -2 5 -4 5 -8v-285s44 100 172 100s190 -76 190 -240s-62 -241 -190 -241c-112 0 -190 64 -190 194v468c-23 12 -55 20 -89 20c-96 0 -142 -56 -142 -151v-64h124c4 0 8 -4 8 -8s-4 -8 -8 -8h-124zM623 335v-154c0 -117 69 -178 172 -178c115 0 172 75 172 225 c0 148 -57 224 -172 224c-131 0 -172 -117 -172 -117z" />
<glyph unicode="fh" horiz-adv-x="770" d="M350 1v648c-15 7 -55 20 -89 20c-96 0 -142 -56 -142 -151v-64h124c4 0 8 -4 8 -8s-4 -8 -8 -8h-124v-437c0 -5 -4 -9 -9 -9s-9 4 -9 9v437h-63c-4 0 -8 4 -8 8s4 8 8 8h63v64c0 97 50 167 160 167c37 0 80 -11 102 -24c3 -2 5 -4 5 -8v-290c14 45 65 105 162 105 c141 0 170 -85 170 -177v-290c0 -5 -4 -9 -9 -9s-9 4 -9 9v299c0 81 -30 151 -152 151c-109 0 -162 -79 -162 -155v-295c0 -5 -4 -9 -9 -9s-9 4 -9 9z" />
<glyph unicode="ffh" horiz-adv-x="1025" d="M605 1v648c-23 12 -55 20 -89 20c-96 0 -142 -56 -142 -151v-64h124c4 0 8 -4 8 -8s-4 -8 -8 -8h-124v-437c0 -5 -4 -9 -9 -9s-9 4 -9 9v437h-237v-437c0 -5 -4 -9 -9 -9s-9 4 -9 9v437h-63c-4 0 -8 4 -8 8s4 8 8 8h63v64c0 97 50 167 160 167c5 0 8 -4 8 -8s-3 -8 -8 -8 c-96 0 -142 -56 -142 -151v-64h237v64c0 97 50 167 160 167c37 0 80 -11 102 -24c3 -2 5 -4 5 -8v-290c14 45 65 105 162 105c141 0 170 -85 170 -177v-290c0 -5 -4 -9 -9 -9s-9 4 -9 9v299c0 81 -30 151 -152 151c-109 0 -162 -79 -162 -155v-295c0 -5 -4 -9 -9 -9 s-9 4 -9 9z" />
<glyph unicode="fk" horiz-adv-x="704" d="M368 653v-437l290 243c2 2 4 3 7 3c5 0 9 -4 9 -9c0 -2 -1 -5 -4 -7l-206 -173l215 -264c3 -3 4 -6 4 -8c0 -5 -4 -9 -9 -9c-2 0 -5 0 -8 4l-216 265l-82 -68v-192c0 -5 -4 -9 -9 -9s-9 4 -9 9v648c-17 9 -52 20 -89 20c-96 0 -142 -56 -142 -151v-64h124c4 0 8 -4 8 -8 s-4 -8 -8 -8h-124v-437c0 -5 -4 -9 -9 -9s-9 4 -9 9v437h-63c-4 0 -8 4 -8 8s4 8 8 8h63v64c0 97 50 167 160 167c37 0 80 -11 102 -24c3 -2 5 -4 5 -8z" />
<glyph unicode="ffk" horiz-adv-x="959" d="M623 653v-437l290 243c2 2 4 3 7 3c5 0 9 -4 9 -9c0 -2 -1 -5 -4 -7l-206 -173l215 -264c3 -3 4 -6 4 -8c0 -5 -4 -9 -9 -9c-2 0 -5 0 -8 4l-216 265l-82 -68v-192c0 -5 -4 -9 -9 -9s-9 4 -9 9v648c-17 9 -52 20 -89 20c-96 0 -142 -56 -142 -151v-64h124c4 0 8 -4 8 -8 s-4 -8 -8 -8h-124v-437c0 -5 -4 -9 -9 -9s-9 4 -9 9v437h-237v-437c0 -5 -4 -9 -9 -9s-9 4 -9 9v437h-63c-4 0 -8 4 -8 8s4 8 8 8h63v64c0 97 50 167 160 167c5 0 8 -4 8 -8s-3 -8 -8 -8c-96 0 -142 -56 -142 -151v-64h237v64c0 97 50 167 160 167c37 0 80 -11 102 -24 c3 -2 5 -4 5 -8z" />
<glyph unicode="ffj" horiz-adv-x="703" d="M496 -185c68 0 109 54 109 127v496h-231v-437c0 -5 -4 -9 -9 -9s-9 4 -9 9v437h-237v-437c0 -5 -4 -9 -9 -9s-9 4 -9 9v437h-63c-4 0 -8 4 -8 8s4 8 8 8h63v64c0 97 50 167 160 167c5 0 8 -4 8 -8s-3 -8 -8 -8c-96 0 -142 -56 -142 -151v-64h237v64c0 97 50 167 160 167 c37 0 79 -12 100 -23c4 -2 6 -4 6 -8c0 -3 -3 -8 -8 -8c-3 0 -6 2 -11 4c-28 12 -60 19 -87 19c-96 0 -142 -56 -142 -151v-64h240c5 0 9 -4 9 -9v-503c0 -80 -46 -143 -127 -143c-5 0 -8 4 -8 8s3 8 8 8z" />
<glyph unicode="fl" horiz-adv-x="473" d="M433 -8c-68 0 -83 45 -83 108v338h-231v-437c0 -5 -4 -9 -9 -9s-9 4 -9 9v437h-63c-4 0 -8 4 -8 8s4 8 8 8h63v64c0 97 50 167 160 167c37 0 81 -12 100 -23c5 -3 7 -6 7 -12v-550c0 -55 10 -92 65 -92c5 0 8 -4 8 -8s-3 -8 -8 -8zM261 669c-96 0 -142 -56 -142 -151v-64 h231v195c-16 8 -56 20 -89 20z" />
<glyph unicode="fi" horiz-adv-x="448" d="M261 669c-96 0 -142 -56 -142 -151v-64h240c5 0 9 -4 9 -9v-444c0 -5 -4 -9 -9 -9s-9 4 -9 9v437h-231v-437c0 -5 -4 -9 -9 -9s-9 4 -9 9v437h-63c-4 0 -8 4 -8 8s4 8 8 8h63v64c0 97 50 167 160 167c37 0 79 -12 100 -23c4 -2 6 -4 6 -8c0 -3 -3 -8 -8 -8 c-3 0 -6 2 -11 4c-28 12 -60 19 -87 19z" />
<glyph unicode=" "  horiz-adv-x="250" />
<glyph unicode="&#x09;" horiz-adv-x="250" />
<glyph unicode="&#xa0;" horiz-adv-x="250" />
<glyph unicode="#" horiz-adv-x="519" d="M53 244h89l26 168h-88c-5 0 -8 4 -8 8s3 8 8 8h91l34 216c1 6 6 8 9 8c4 0 8 -3 8 -8c0 -2 0 -3 -1 -9l-33 -207h176l34 216c1 6 6 8 9 8c4 0 8 -3 8 -8c0 -2 0 -3 -1 -9l-33 -207h85c5 0 8 -4 8 -8s-3 -8 -8 -8h-87l-26 -168h86c5 0 8 -4 8 -8s-3 -8 -8 -8h-89l-35 -228 c-1 -6 -6 -8 -9 -8c-4 0 -8 3 -8 8c0 2 0 3 1 9l34 219h-176l-35 -228c-1 -6 -6 -8 -9 -8c-4 0 -8 3 -8 8c0 2 0 3 1 9l34 219h-87c-5 0 -8 4 -8 8s3 8 8 8zM186 412l-26 -168h175l26 168h-175z" />
<glyph unicode="%" horiz-adv-x="746" d="M188 376c91 0 118 63 118 148s-27 148 -118 148s-118 -63 -118 -148s27 -148 118 -148zM188 361c-102 0 -134 72 -134 163s32 163 134 163s134 -72 134 -163s-32 -163 -134 -163zM558 2c91 0 118 63 118 148s-27 148 -118 148s-118 -63 -118 -148s27 -148 118 -148z M558 -13c-102 0 -134 72 -134 163s32 163 134 163s134 -72 134 -163s-32 -163 -134 -163zM196 7l337 666c2 5 5 8 10 8s8 -4 8 -8c0 -2 -1 -5 -2 -7l-337 -666c-2 -5 -5 -8 -10 -8s-8 4 -8 8c0 3 1 5 2 7z" />
<glyph unicode="&#x26;" horiz-adv-x="600" d="M183 367c82 58 158 123 158 199c0 67 -41 105 -102 105c-71 0 -111 -55 -111 -126c0 -66 27 -131 55 -178zM178 342c-54 -38 -115 -93 -115 -172c0 -109 85 -168 182 -168c81 0 145 46 178 82c-109 84 -185 156 -245 258zM436 74c-39 -41 -99 -88 -191 -88 c-117 0 -200 69 -200 184c0 82 53 136 123 187c-25 43 -58 115 -58 188c0 78 43 142 129 142c70 0 120 -41 120 -121c0 -77 -60 -137 -167 -214c56 -98 138 -179 241 -255c32 38 59 89 68 137c1 6 5 8 9 8c3 0 7 -2 7 -7c0 -2 0 -4 -1 -9c-10 -49 -39 -100 -69 -139 c43 -30 93 -60 140 -79c5 -2 7 -5 7 -8c0 -4 -3 -8 -8 -8c-2 0 -5 1 -8 2c-49 21 -106 54 -142 80z" />
<glyph unicode="&#x2019;" horiz-adv-x="137" d="M93 658c0 -40 -11 -85 -27 -109c-2 -3 -4 -4 -7 -4s-6 3 -6 6s1 4 2 6c10 15 14 37 14 52c0 27 -10 34 -10 52c0 13 6 20 17 20s17 -10 17 -23z" />
<glyph unicode="(" horiz-adv-x="303" d="M80 296c0 157 6 365 159 440c2 1 5 2 7 2c4 0 8 -3 8 -7c0 -5 -2 -7 -7 -10c-146 -73 -149 -293 -149 -425s3 -352 149 -425c5 -3 7 -5 7 -10c0 -4 -4 -7 -8 -7c-2 0 -5 1 -7 2c-153 75 -159 283 -159 440z" />
<glyph unicode=")" horiz-adv-x="303" d="M223 296c0 -157 -6 -365 -159 -440c-2 -1 -5 -2 -7 -2c-4 0 -8 3 -8 7c0 5 2 7 7 10c146 73 149 293 149 425s-3 352 -149 425c-5 3 -7 5 -7 10c0 4 4 7 8 7c2 0 5 -1 7 -2c153 -75 159 -283 159 -440z" />
<glyph unicode="*" horiz-adv-x="357" d="M178 546l-74 -111c-3 -4 -4 -6 -8 -6c-5 0 -9 4 -9 8c0 3 1 5 3 8l80 107l-126 28c-5 1 -8 3 -8 8c0 7 4 9 8 9c3 0 6 -1 10 -2l119 -34l-3 128c0 6 2 10 8 10s8 -4 8 -10l-3 -128l119 34c4 1 7 2 10 2c4 0 8 -2 8 -9c0 -5 -3 -7 -8 -8l-126 -28l80 -107c2 -3 3 -5 3 -8 c0 -4 -4 -8 -9 -8c-4 0 -5 2 -8 6z" />
<glyph unicode="+" horiz-adv-x="444" d="M230 437v-211h206c5 0 8 -4 8 -8s-3 -8 -8 -8h-206v-210c0 -5 -4 -8 -8 -8s-8 3 -8 8v210h-206c-5 0 -8 4 -8 8s3 8 8 8h206v211c0 5 4 8 8 8s8 -3 8 -8z" />
<glyph unicode="," horiz-adv-x="141" d="M87 8c0 -40 -11 -85 -27 -109c-2 -3 -4 -4 -7 -4s-6 3 -6 6s1 4 2 6c10 15 14 37 14 52c0 27 -10 34 -10 52c0 13 6 20 17 20s17 -10 17 -23z" />
<glyph unicode="-" horiz-adv-x="282" d="M232 244h-183c-5 0 -8 4 -8 8s3 8 8 8h183c5 0 8 -4 8 -8s-3 -8 -8 -8z" />
<glyph unicode="." horiz-adv-x="141" d="M70 -8c-11 0 -17 6 -17 19s6 20 17 20s17 -7 17 -20s-6 -19 -17 -19z" />
<glyph unicode="/" horiz-adv-x="407" d="M58 -81l274 825c2 6 6 7 9 7c5 0 9 -4 9 -9c0 -2 -1 -5 -2 -8l-274 -825c-2 -6 -6 -7 -9 -7c-5 0 -9 4 -9 9c0 2 1 5 2 8z" />
<glyph unicode="0" horiz-adv-x="590" d="M295 2c158 0 218 98 218 335c0 236 -60 334 -218 334s-218 -98 -218 -334c0 -237 60 -335 218 -335zM295 -14c-169 0 -236 103 -236 351c0 247 67 350 236 350s236 -103 236 -350c0 -248 -67 -351 -236 -351z" />
<glyph unicode="1" horiz-adv-x="343" d="M243 672v-671c0 -5 -4 -9 -9 -9s-9 4 -9 9v654l-160 -113c-3 -2 -5 -3 -7 -3c-5 0 -9 4 -9 9c0 3 2 6 5 8l172 122c3 2 5 3 8 3c5 0 9 -4 9 -9z" />
<glyph unicode="2" horiz-adv-x="524" d="M74 18h399c5 0 9 -4 9 -9s-4 -9 -9 -9h-409c-5 0 -9 4 -9 9c0 239 399 240 399 486c0 98 -71 176 -184 176c-100 0 -147 -42 -171 -112c-2 -6 -6 -7 -10 -7s-8 3 -8 8c0 1 0 2 1 5c26 79 84 122 188 122c123 0 202 -82 202 -192c0 -253 -398 -269 -398 -477z" />
<glyph unicode="3" horiz-adv-x="532" d="M421 655h-327c-5 0 -9 4 -9 9s4 9 9 9h346c5 0 9 -4 9 -9c0 -2 -1 -5 -3 -7l-230 -267h52c143 0 206 -83 206 -198c0 -128 -73 -206 -220 -206c-110 0 -180 44 -211 107c-1 2 -2 5 -2 7c0 4 3 7 8 7c4 0 7 -2 10 -8c30 -64 103 -97 195 -97c136 0 201 70 201 190 c0 100 -53 181 -187 181h-70c-5 0 -9 4 -9 9c0 4 2 7 5 10z" />
<glyph unicode="4" horiz-adv-x="522" d="M392 672v-491h82c5 0 9 -3 9 -8s-4 -9 -9 -9h-82v-163c0 -5 -4 -9 -9 -9s-9 4 -9 9v163h-336c-5 0 -9 4 -9 9c0 3 1 5 3 8l342 494c2 3 5 6 9 6c5 0 9 -4 9 -9zM55 181h319v463z" />
<glyph unicode="5" horiz-adv-x="550" d="M459 657h-310l-58 -300c39 45 93 73 182 73c132 0 219 -78 219 -219c0 -154 -92 -225 -219 -225c-106 0 -176 45 -217 125c-1 2 -1 4 -1 5c0 5 4 8 8 8s6 -2 8 -6c37 -73 105 -116 202 -116c114 0 200 67 200 209c0 138 -86 203 -200 203c-77 0 -127 -19 -181 -77 c-3 -3 -6 -4 -9 -4c-5 0 -11 3 -11 11c0 2 0 3 1 8l60 310c1 6 6 11 13 11h313c5 0 8 -4 8 -8s-3 -8 -8 -8z" />
<glyph unicode="6" horiz-adv-x="566" d="M284 421c133 0 222 -74 222 -216c0 -155 -89 -219 -222 -219c-158 0 -224 132 -224 334c0 260 82 367 240 367c77 0 133 -28 157 -52c3 -3 4 -5 4 -8c0 -5 -4 -8 -8 -8c-3 0 -5 1 -8 4c-37 33 -86 48 -145 48c-153 0 -223 -118 -223 -334v-46c35 71 101 130 207 130z M284 2c117 0 204 53 204 203c0 138 -85 200 -204 200c-98 0 -162 -54 -203 -135c0 -144 57 -268 203 -268z" />
<glyph unicode="7" horiz-adv-x="480" d="M429 657h-387c-4 0 -8 3 -8 8s4 8 8 8h397c5 0 8 -4 8 -8c0 -221 -297 -293 -297 -664c0 -5 -4 -9 -9 -9s-9 4 -9 9c0 372 297 459 297 656z" />
<glyph unicode="8" horiz-adv-x="550" d="M275 -14c-136 0 -223 63 -223 193c0 105 58 171 156 188c-70 15 -124 69 -124 155c0 109 77 165 191 165s191 -56 191 -165c0 -86 -54 -140 -124 -155c98 -17 156 -83 156 -188c0 -130 -87 -193 -223 -193zM275 671c-104 0 -173 -50 -173 -149c0 -97 72 -148 173 -148 s173 51 173 148c0 99 -69 149 -173 149zM275 358c-129 0 -205 -59 -205 -179c0 -119 84 -177 205 -177s205 58 205 177c0 120 -76 179 -205 179z" />
<glyph unicode="9" horiz-adv-x="566" d="M282 252c-133 0 -222 74 -222 216c0 155 89 219 222 219c158 0 224 -132 224 -334c0 -260 -82 -367 -240 -367c-77 0 -133 28 -157 52c-3 3 -4 5 -4 8c0 5 4 8 8 8c3 0 5 -1 8 -4c37 -33 86 -48 145 -48c153 0 223 118 223 334v46c-35 -71 -101 -130 -207 -130zM282 671 c-117 0 -204 -53 -204 -203c0 -138 85 -200 204 -200c98 0 162 54 203 135c0 144 -57 268 -203 268z" />
<glyph unicode=":" horiz-adv-x="141" d="M70 -8c-11 0 -17 6 -17 19s6 20 17 20s17 -7 17 -20s-6 -19 -17 -19zM70 417c-11 0 -17 6 -17 19s6 20 17 20s17 -7 17 -20s-6 -19 -17 -19z" />
<glyph unicode=";" horiz-adv-x="141" d="M70 417c-11 0 -17 6 -17 19s6 20 17 20s17 -7 17 -20s-6 -19 -17 -19zM87 8c0 -40 -11 -85 -27 -109c-2 -3 -4 -4 -7 -4s-6 3 -6 6s1 4 2 6c10 15 14 37 14 52c0 27 -10 34 -10 52c0 13 6 20 17 20s17 -10 17 -23z" />
<glyph unicode="&#x3c;" horiz-adv-x="344" d="M11 235c0 3 2 6 5 8l302 240c3 2 4 2 6 2c5 0 8 -4 8 -8c0 -3 -1 -5 -4 -7l-295 -235l295 -235c3 -2 4 -4 4 -7c0 -4 -3 -8 -8 -8c-2 0 -3 0 -6 2l-302 240c-3 2 -5 5 -5 8z" />
<glyph unicode="=" horiz-adv-x="444" d="M8 303h428c5 0 8 -4 8 -8s-3 -8 -8 -8h-428c-5 0 -8 4 -8 8s3 8 8 8zM8 150h428c5 0 8 -4 8 -8s-3 -8 -8 -8h-428c-5 0 -8 4 -8 8s3 8 8 8z" />
<glyph unicode="&#x3e;" horiz-adv-x="344" d="M333 235c0 -3 -2 -6 -5 -8l-302 -240c-3 -2 -4 -2 -6 -2c-5 0 -8 4 -8 8c0 3 1 5 4 7l295 235l-295 235c-3 2 -4 4 -4 7c0 4 3 8 8 8c2 0 3 0 6 -2l302 -240c3 -2 5 -5 5 -8z" />
<glyph unicode="?" horiz-adv-x="461" d="M64 513c0 -5 -4 -9 -9 -9s-9 4 -9 9c0 105 54 174 180 174c120 0 188 -68 188 -172c0 -198 -224 -195 -224 -321c0 -25 6 -44 25 -63c3 -3 4 -6 4 -9c0 -5 -4 -9 -9 -9c-3 0 -6 2 -9 5c-21 21 -29 51 -29 76c0 138 224 134 224 321c0 92 -58 156 -170 156 s-162 -59 -162 -158zM202 -8c-11 0 -17 6 -17 19s6 20 17 20s17 -7 17 -20s-6 -19 -17 -19z" />
<glyph unicode="@" horiz-adv-x="802" d="M389 359c65 0 126 -31 126 -116v-172c0 -50 40 -67 81 -67c120 0 143 112 143 191c0 222 -137 324 -339 324c-219 0 -337 -118 -337 -347c0 -240 130 -346 337 -346c86 0 169 13 239 65c4 3 6 4 10 4s8 -3 8 -8c0 -3 -2 -7 -8 -11c-71 -51 -141 -66 -249 -66 c-219 0 -355 115 -355 362c0 243 130 363 355 363c209 0 356 -111 356 -340c0 -86 -29 -207 -160 -207c-44 0 -85 20 -94 61c-19 -34 -55 -61 -125 -61c-94 0 -135 48 -135 105c0 70 54 105 149 105h107v52c0 59 -44 93 -109 93c-43 0 -75 -15 -97 -45c-3 -4 -6 -5 -9 -5 s-7 2 -7 7c0 3 1 5 3 8c14 21 46 51 110 51zM498 181h-107c-88 0 -131 -32 -131 -88c0 -46 30 -89 117 -89c88 0 121 42 121 91v86z" />
<glyph unicode="A" horiz-adv-x="604" d="M468 222h-332l-87 -223c-2 -5 -4 -7 -9 -7c-4 0 -9 3 -9 8c0 1 0 3 1 5l263 671c1 3 4 5 7 5s6 -2 7 -5l263 -671c1 -2 1 -4 1 -5c0 -5 -5 -8 -9 -8c-5 0 -7 2 -9 7zM462 238l-160 411l-160 -411h320z" />
<glyph unicode="B" horiz-adv-x="546" d="M113 657v-294h165c104 0 172 53 172 147c0 89 -45 147 -172 147h-165zM113 347v-331h199c120 0 172 63 172 166c0 106 -67 165 -174 165h-197zM312 0h-208c-5 0 -9 4 -9 9v655c0 5 4 9 9 9h174c136 0 190 -61 190 -163c0 -99 -71 -143 -128 -152c85 -4 160 -62 160 -176 c0 -113 -59 -182 -188 -182z" />
<glyph unicode="C" horiz-adv-x="629" d="M350 -14c-193 0 -301 114 -301 350c0 237 108 351 301 351c95 0 177 -39 222 -102c2 -3 2 -5 2 -6c0 -5 -4 -9 -9 -9c-3 0 -6 1 -8 4c-38 56 -120 97 -207 97c-185 0 -283 -113 -283 -335c0 -221 98 -334 283 -334c87 0 174 40 212 97c2 3 5 4 8 4c5 0 9 -4 9 -9 c0 -1 0 -3 -2 -6c-45 -63 -132 -102 -227 -102z" />
<glyph unicode="D" horiz-adv-x="603" d="M113 657v-641h138c179 0 285 85 285 320c0 233 -106 321 -285 321h-138zM251 0h-147c-5 0 -9 4 -9 9v655c0 5 4 9 9 9h147c191 0 303 -90 303 -337s-112 -336 -303 -336z" />
<glyph unicode="E" d="M113 331v-315h344c5 0 8 -4 8 -8s-3 -8 -8 -8h-354c-5 0 -8 4 -8 9v655c0 5 3 9 8 9h342c5 0 8 -4 8 -8s-3 -8 -8 -8h-332v-310h261c5 0 8 -4 8 -8s-3 -8 -8 -8h-261z" />
<glyph unicode="F" d="M113 321v-320c0 -5 -4 -9 -9 -9s-9 4 -9 9v663c0 5 3 9 8 9h342c5 0 8 -4 8 -8s-3 -8 -8 -8h-332v-320h261c5 0 8 -4 8 -8s-3 -8 -8 -8h-261z" />
<glyph unicode="G" horiz-adv-x="670" d="M350 -14c-193 0 -301 114 -301 350c0 237 108 351 301 351c95 0 177 -39 222 -102c2 -3 2 -5 2 -6c0 -5 -4 -9 -9 -9c-3 0 -6 1 -8 4c-38 56 -120 97 -207 97c-185 0 -283 -113 -283 -335c0 -221 98 -334 283 -334c95 0 183 47 222 109v183h-196c-5 0 -8 4 -8 8s3 8 8 8 h200c7 0 14 -6 14 -13v-180c0 -8 -3 -14 -8 -21c-48 -65 -134 -110 -232 -110z" />
<glyph unicode="H" horiz-adv-x="640" d="M527 355v317c0 5 4 9 9 9s9 -4 9 -9v-671c0 -5 -4 -9 -9 -9s-9 4 -9 9v338h-414v-338c0 -5 -4 -9 -9 -9s-9 4 -9 9v671c0 5 4 9 9 9s9 -4 9 -9v-317h414z" />
<glyph unicode="I" horiz-adv-x="208" d="M113 672v-671c0 -5 -4 -9 -9 -9s-9 4 -9 9v671c0 5 4 9 9 9s9 -4 9 -9z" />
<glyph unicode="J" horiz-adv-x="398" d="M285 189v483c0 5 4 9 9 9s9 -4 9 -9v-483c0 -118 -36 -203 -168 -203c-37 0 -77 8 -103 22c-2 1 -5 3 -5 8c0 4 3 8 8 8c3 0 5 -1 11 -4c25 -12 58 -17 89 -17c119 0 150 76 150 186z" />
<glyph unicode="K" horiz-adv-x="541" d="M113 672v-406l357 412c3 3 5 3 7 3c5 0 9 -4 9 -9c0 -2 -1 -5 -3 -7l-238 -272l275 -386c2 -3 2 -5 2 -7c0 -3 -3 -8 -8 -8c-4 0 -6 1 -8 4l-273 383l-120 -139v-239c0 -5 -4 -9 -9 -9s-9 4 -9 9v671c0 5 4 9 9 9s9 -4 9 -9z" />
<glyph unicode="L" horiz-adv-x="468" d="M113 672v-656h319c5 0 8 -4 8 -8s-3 -8 -8 -8h-329c-5 0 -8 4 -8 9v663c0 5 4 9 9 9s9 -4 9 -9z" />
<glyph unicode="M" horiz-adv-x="763" d="M650 633l-264 -515c-2 -4 -5 -6 -10 -6c-4 0 -7 2 -9 6l-264 515v-632c0 -5 -4 -9 -9 -9s-9 4 -9 9v671c0 5 4 9 9 9c3 0 6 -2 7 -4l275 -539l274 537c2 4 5 6 9 6c5 0 9 -4 9 -9v-671c0 -5 -4 -9 -9 -9s-9 4 -9 9v632z" />
<glyph unicode="N" horiz-adv-x="619" d="M516 32v640c0 5 4 9 9 9s9 -4 9 -9v-671c0 -5 -4 -9 -9 -9c-4 0 -7 2 -9 5l-413 644v-640c0 -5 -4 -9 -9 -9s-9 4 -9 9v671c0 5 4 9 9 9c4 0 6 -2 8 -5z" />
<glyph unicode="O" horiz-adv-x="700" d="M350 2c185 0 283 113 283 334c0 222 -98 335 -283 335s-283 -113 -283 -335c0 -221 98 -334 283 -334zM350 687c193 0 301 -114 301 -351c0 -236 -108 -350 -301 -350s-301 114 -301 350c0 237 108 351 301 351z" />
<glyph unicode="P" horiz-adv-x="534" d="M113 657v-344h193c101 0 161 67 161 172c0 107 -59 172 -161 172h-193zM113 297v-296c0 -5 -4 -9 -9 -9s-9 4 -9 9v663c0 5 4 9 9 9h202c106 0 179 -61 179 -188c0 -125 -73 -188 -179 -188h-193z" />
<glyph unicode="Q" horiz-adv-x="700" d="M350 687c193 0 301 -114 301 -351c0 -199 -77 -311 -216 -341c47 -10 96 -43 131 -82c3 -3 4 -5 4 -7c0 -4 -4 -8 -8 -8c-2 0 -4 1 -7 4c-44 47 -99 84 -175 84h-30c-193 0 -301 114 -301 350c0 237 108 351 301 351zM350 2c185 0 283 113 283 334 c0 222 -98 335 -283 335s-283 -113 -283 -335c0 -221 98 -334 283 -334z" />
<glyph unicode="R" horiz-adv-x="544" d="M268 309h-155v-308c0 -5 -4 -9 -9 -9s-9 4 -9 9v663c0 5 4 9 9 9h205c106 0 183 -80 183 -182s-77 -182 -183 -182h-21s221 -304 218 -300c0 0 3 -4 3 -8s-3 -9 -9 -9c-4 0 -7 2 -9 5zM113 657v-332h196c101 0 165 77 165 166s-64 166 -165 166h-196z" />
<glyph unicode="S" horiz-adv-x="545" d="M458 580c-36 54 -98 91 -188 91c-137 0 -179 -74 -179 -145c0 -196 397 -122 397 -354c0 -116 -74 -186 -226 -186c-110 0 -179 53 -219 115c-2 3 -3 6 -3 9c0 5 4 9 9 9s7 -3 10 -8c36 -60 102 -109 203 -109c139 0 208 63 208 170c0 217 -397 142 -397 354 c0 86 54 161 197 161c96 0 157 -35 202 -97c2 -3 2 -4 2 -6c0 -5 -4 -8 -8 -8c-3 0 -6 1 -8 4z" />
<glyph unicode="T" horiz-adv-x="538" d="M278 657v-656c0 -5 -4 -9 -9 -9s-9 4 -9 9v656h-214c-5 0 -8 4 -8 8s3 8 8 8h446c5 0 8 -4 8 -8s-3 -8 -8 -8h-214z" />
<glyph unicode="U" horiz-adv-x="625" d="M522 186v486c0 5 4 9 9 9s9 -4 9 -9v-486c0 -106 -37 -200 -221 -200s-224 94 -224 200v486c0 5 4 9 9 9s9 -4 9 -9v-486c0 -100 36 -184 206 -184s203 84 203 184z" />
<glyph unicode="V" horiz-adv-x="576" d="M48 674l240 -653l240 653c2 6 6 7 9 7c5 0 9 -4 9 -9c0 -2 -1 -4 -2 -7l-247 -666c-2 -5 -5 -7 -9 -7s-7 2 -9 7l-247 666c-1 3 -2 5 -2 7c0 5 4 9 9 9c3 0 7 -1 9 -7z" />
<glyph unicode="W" horiz-adv-x="826" d="M592 -1l-179 645l-179 -645c-2 -5 -5 -7 -9 -7s-8 2 -9 7l-184 667c-1 4 -1 5 -1 6c0 5 4 9 9 9s8 -3 9 -8l176 -649l179 650c1 4 4 7 9 7s8 -3 9 -7l179 -650l176 649c1 5 4 8 9 8s9 -4 9 -9c0 -1 0 -2 -1 -6l-184 -667c-1 -5 -5 -7 -9 -7s-7 2 -9 7z" />
<glyph unicode="X" horiz-adv-x="486" d="M243 363l199 312c3 5 6 6 9 6c5 0 9 -4 9 -9c0 -2 0 -3 -2 -6l-205 -320l218 -339c2 -3 2 -5 2 -6c0 -5 -4 -9 -9 -9c-3 0 -5 1 -8 5l-213 331l-213 -331c-3 -4 -5 -5 -8 -5c-5 0 -9 4 -9 9c0 1 0 3 2 6l218 339l-205 320c-2 3 -2 4 -2 6c0 5 4 9 9 9c3 0 6 -1 9 -6z" />
<glyph unicode="Y" d="M254 344l209 332c2 3 4 5 8 5c5 0 9 -4 9 -9c0 -1 0 -3 -2 -6l-215 -341v-324c0 -5 -4 -9 -9 -9s-9 4 -9 9v324l-215 341c-2 3 -2 5 -2 6c0 5 4 9 9 9c4 0 6 -2 8 -5z" />
<glyph unicode="Z" horiz-adv-x="497" d="M469 0h-445c-5 0 -8 4 -8 8c0 3 1 5 3 8l418 641h-390c-5 0 -8 4 -8 8s3 8 8 8h406c5 0 8 -4 8 -8c0 -2 -1 -4 -3 -7l-417 -642h428c5 0 8 -4 8 -8s-3 -8 -8 -8z" />
<glyph unicode="[" horiz-adv-x="233" d="M93 -130h75c5 0 8 -4 8 -8s-3 -8 -8 -8h-84c-5 0 -9 4 -9 9v866c0 5 4 9 9 9h84c5 0 8 -4 8 -8s-3 -8 -8 -8h-75v-852z" />
<glyph unicode="\" horiz-adv-x="407" d="M75 744l274 -825c1 -3 2 -6 2 -8c0 -5 -4 -9 -9 -9c-3 0 -7 1 -9 7l-274 825c-1 3 -2 6 -2 8c0 5 4 9 9 9c3 0 7 -1 9 -7z" />
<glyph unicode="]" horiz-adv-x="234" d="M65 -130h75v852h-75c-5 0 -8 4 -8 8s3 8 8 8h84c5 0 9 -4 9 -9v-866c0 -5 -4 -9 -9 -9h-84c-5 0 -8 4 -8 8s3 8 8 8z" />
<glyph unicode="^" horiz-adv-x="468" d="M410 373l-176 300l-176 -300c-2 -3 -4 -4 -7 -4c-4 0 -7 3 -7 7c0 2 0 3 3 8l176 300c3 5 6 7 11 7s8 -2 11 -7l176 -300c3 -5 3 -6 3 -8c0 -4 -3 -7 -7 -7c-3 0 -5 1 -7 4z" />
<glyph unicode="_" horiz-adv-x="406" d="M-8 -61h422c5 0 8 -4 8 -8s-3 -8 -8 -8h-422c-5 0 -8 4 -8 8s3 8 8 8z" />
<glyph unicode="&#x2018;" horiz-adv-x="137" d="M53 568c0 40 11 85 27 109c2 3 4 4 7 4s6 -3 6 -6s-1 -4 -2 -6c-10 -15 -14 -37 -14 -52c0 -27 10 -34 10 -52c0 -13 -6 -20 -17 -20s-17 10 -17 23z" />
<glyph unicode="a" horiz-adv-x="462" d="M392 311v-310c0 -5 -4 -8 -9 -8s-8 3 -8 8v73c-27 -59 -95 -86 -169 -86c-112 0 -166 57 -166 136c0 88 67 135 168 135h167v52c0 91 -57 141 -149 141c-81 0 -120 -33 -143 -72c-2 -4 -5 -6 -9 -6s-8 4 -8 8c0 3 1 5 3 8c26 42 73 78 157 78c111 0 166 -63 166 -157z M206 4c87 0 169 40 169 134v106h-167c-89 0 -150 -43 -150 -120c0 -73 51 -120 148 -120z" />
<glyph unicode="b" horiz-adv-x="505" d="M98 335v-154c0 -117 69 -178 172 -178c115 0 172 75 172 225c0 148 -57 224 -172 224c-131 0 -172 -117 -172 -117zM80 181v522c0 5 4 9 9 9s9 -4 9 -9v-335s44 100 172 100s190 -76 190 -240s-62 -241 -190 -241c-112 0 -190 64 -190 194z" />
<glyph unicode="c" horiz-adv-x="443" d="M244 452c-120 0 -181 -72 -181 -225c0 -152 61 -224 181 -224c69 0 113 31 137 50c3 2 4 3 7 3c5 0 8 -4 8 -8c0 -2 -1 -5 -5 -8c-14 -11 -66 -53 -147 -53c-128 0 -199 76 -199 240s71 241 199 241c81 0 125 -36 141 -54c3 -3 4 -5 4 -7c0 -4 -3 -8 -8 -8 c-3 0 -5 1 -7 3c-25 25 -61 50 -130 50z" />
<glyph unicode="d" horiz-adv-x="500" d="M407 181v154s-41 117 -172 117c-115 0 -172 -76 -172 -224c0 -150 57 -225 172 -225c103 0 172 61 172 178zM425 703v-522c0 -130 -78 -194 -190 -194c-128 0 -190 77 -190 241s62 240 190 240s172 -100 172 -100v335c0 5 4 9 9 9s9 -4 9 -9z" />
<glyph unicode="e" horiz-adv-x="466" d="M45 228c0 164 71 240 199 240c166 0 183 -124 183 -191c0 -12 -1 -27 -3 -39c-2 -10 -7 -12 -16 -12h-345c0 -151 61 -223 181 -223c78 0 123 28 152 49c3 2 5 4 8 4c4 0 8 -3 8 -8c0 -3 -1 -4 -3 -6c-26 -21 -78 -55 -165 -55c-128 0 -199 76 -199 241zM410 277 c0 80 -28 175 -166 175c-120 0 -180 -75 -180 -210h345s1 27 1 35z" />
<glyph unicode="f" horiz-adv-x="274" d="M243 438h-124v-437c0 -5 -4 -9 -9 -9s-9 4 -9 9v437h-63c-4 0 -8 4 -8 8s4 8 8 8h63v64c0 97 50 167 160 167c5 0 8 -4 8 -8s-3 -8 -8 -8c-96 0 -142 -56 -142 -151v-64h124c4 0 8 -4 8 -8s-4 -8 -8 -8z" />
<glyph unicode="g" horiz-adv-x="466" d="M62 306c0 99 60 162 172 162c47 0 85 -12 113 -32c15 42 44 61 92 61c4 0 8 -4 8 -8s-4 -8 -8 -8c-44 0 -67 -16 -80 -55c31 -28 47 -70 47 -120c0 -99 -60 -162 -172 -162c-45 0 -82 10 -110 29c-36 -12 -45 -31 -45 -57c0 -37 19 -57 72 -57h129c99 0 170 -35 170 -123 c0 -94 -83 -137 -204 -137c-102 0 -202 35 -202 133c0 60 51 104 92 113c-33 3 -74 18 -74 71c0 29 16 54 49 67c-33 28 -49 70 -49 123zM388 306c0 85 -50 146 -154 146s-154 -61 -154 -146s50 -146 154 -146s154 61 154 146zM432 -64c0 75 -60 107 -152 107h-99 c-74 -10 -119 -55 -119 -111c0 -87 88 -117 185 -117c106 0 185 36 185 121z" />
<glyph unicode="h" horiz-adv-x="500" d="M98 703v-340c14 45 65 105 162 105c141 0 170 -85 170 -177v-290c0 -5 -4 -9 -9 -9s-9 4 -9 9v299c0 81 -30 151 -152 151c-109 0 -162 -79 -162 -155v-295c0 -5 -4 -9 -9 -9s-9 4 -9 9v702c0 5 4 9 9 9s9 -4 9 -9z" />
<glyph unicode="i" horiz-adv-x="178" d="M89 603c-8 0 -12 4 -12 15c0 12 4 16 12 16s12 -4 12 -16c0 -11 -4 -15 -12 -15zM98 453v-452c0 -5 -4 -9 -9 -9s-9 4 -9 9v452c0 5 4 9 9 9s9 -4 9 -9z" />
<glyph unicode="j" horiz-adv-x="183" d="M93 603c-8 0 -12 4 -12 15c0 12 4 16 12 16s12 -4 12 -16c0 -11 -4 -15 -12 -15zM-24 -185c68 0 109 54 109 127v511c0 5 4 9 9 9s9 -4 9 -9v-511c0 -80 -46 -143 -127 -143c-5 0 -8 4 -8 8s3 8 8 8z" />
<glyph unicode="k" horiz-adv-x="434" d="M180 261l-82 -68v-192c0 -5 -4 -9 -9 -9s-9 4 -9 9v702c0 5 4 9 9 9s9 -4 9 -9v-487l290 243c2 2 4 3 7 3c5 0 9 -4 9 -9c0 -2 -1 -5 -4 -7l-206 -173l215 -264c3 -3 4 -6 4 -8c0 -5 -4 -9 -9 -9c-2 0 -5 0 -8 4z" />
<glyph unicode="l" horiz-adv-x="198" d="M158 -8c-68 0 -83 45 -83 108v603c0 5 4 9 9 9s9 -4 9 -9v-603c0 -55 10 -92 65 -92c5 0 8 -4 8 -8s-3 -8 -8 -8z" />
<glyph unicode="m" horiz-adv-x="808" d="M251 468c108 0 153 -53 163 -117c12 56 59 117 159 117c141 0 168 -85 168 -177v-290c0 -5 -4 -9 -9 -9s-9 4 -9 9v299c0 81 -28 151 -150 151c-107 0 -154 -79 -154 -155v-295c0 -5 -4 -9 -9 -9s-9 4 -9 9v311c0 71 -34 139 -150 139c-109 0 -153 -79 -153 -155v-295 c0 -5 -4 -9 -9 -9s-9 4 -9 9v452c0 5 4 9 9 9s9 -4 9 -9v-90c14 46 56 105 153 105z" />
<glyph unicode="n" horiz-adv-x="500" d="M98 453v-90c14 46 65 105 162 105c141 0 170 -85 170 -177v-290c0 -5 -4 -9 -9 -9s-9 4 -9 9v299c0 81 -30 151 -152 151c-109 0 -162 -79 -162 -155v-295c0 -5 -4 -9 -9 -9s-9 4 -9 9v452c0 5 4 9 9 9s9 -4 9 -9z" />
<glyph unicode="o" horiz-adv-x="488" d="M244 3c120 0 181 72 181 224c0 153 -61 225 -181 225s-181 -72 -181 -225c0 -152 61 -224 181 -224zM244 -13c-128 0 -199 76 -199 240c0 165 71 241 199 241s199 -76 199 -241c0 -164 -71 -240 -199 -240z" />
<glyph unicode="p" horiz-adv-x="505" d="M80 -192v645c0 5 4 9 9 9s9 -4 9 -9v-104c22 73 73 119 170 119c128 0 192 -77 192 -241s-64 -240 -192 -240c-143 0 -170 119 -170 119v-298c0 -5 -4 -9 -9 -9s-9 4 -9 9zM96 228c0 -150 61 -225 172 -225c115 0 174 76 174 224c0 150 -59 225 -174 225 c-111 0 -172 -73 -172 -224z" />
<glyph unicode="q" horiz-adv-x="494" d="M407 120v154c0 117 -69 178 -172 178c-115 0 -172 -75 -172 -225c0 -148 57 -224 172 -224c131 0 172 117 172 117zM425 274v-466c0 -5 -4 -9 -9 -9s-9 4 -9 9v279s-44 -100 -172 -100s-190 76 -190 240s62 241 190 241c112 0 190 -64 190 -194z" />
<glyph unicode="r" horiz-adv-x="283" d="M260 466c5 0 8 -4 8 -8s-3 -8 -8 -8c-115 0 -162 -95 -162 -171v-278c0 -5 -4 -9 -9 -9s-9 4 -9 9v449c0 5 4 9 9 9s9 -4 9 -9v-101c12 52 65 117 162 117z" />
<glyph unicode="s" horiz-adv-x="399" d="M196 452c-75 0 -126 -31 -126 -96c0 -137 288 -84 288 -245c0 -88 -67 -124 -160 -124c-83 0 -137 39 -164 68c-2 2 -3 4 -3 6c0 3 2 8 8 8c3 0 5 -2 7 -4c33 -34 81 -62 152 -62c84 0 142 32 142 108c0 147 -288 93 -288 245c0 76 62 112 144 112c66 0 119 -28 145 -66 c2 -3 2 -4 2 -6c0 -4 -4 -8 -8 -8c-3 0 -5 1 -7 4c-25 37 -74 60 -132 60z" />
<glyph unicode="t" horiz-adv-x="258" d="M195 -8c-73 0 -100 50 -100 118v328h-62c-4 0 -8 4 -8 8s4 8 8 8h62v128c0 5 4 9 9 9s9 -4 9 -9v-128h90c4 0 8 -4 8 -8s-4 -8 -8 -8h-90v-328c0 -65 21 -102 82 -102c5 0 8 -4 8 -8s-3 -8 -8 -8z" />
<glyph unicode="u" horiz-adv-x="490" d="M245 4c122 0 157 70 157 151v298c0 5 4 9 9 9s9 -4 9 -9v-289c0 -92 -34 -177 -175 -177s-175 85 -175 177v289c0 5 4 9 9 9s9 -4 9 -9v-298c0 -81 35 -151 157 -151z" />
<glyph unicode="v" horiz-adv-x="428" d="M214 -8c-4 0 -7 2 -9 7l-179 447c-1 3 -2 4 -2 7c0 5 4 9 9 9c4 0 7 -2 9 -7l172 -435l172 435c2 5 5 7 9 7c5 0 9 -4 9 -9c0 -3 -1 -4 -2 -7l-179 -447c-2 -5 -5 -7 -9 -7z" />
<glyph unicode="w" horiz-adv-x="656" d="M453 0l-125 430l-125 -430c-1 -4 -4 -8 -10 -8c-5 0 -8 4 -9 8l-158 445c-1 3 -2 5 -2 8c0 5 4 9 9 9s8 -4 9 -7l151 -432l126 432c1 4 4 7 9 7s8 -3 9 -7l126 -432l151 432c1 3 4 7 9 7s9 -4 9 -9c0 -3 -1 -5 -2 -8l-158 -445c-1 -4 -4 -8 -9 -8c-6 0 -9 4 -10 8z" />
<glyph unicode="x" horiz-adv-x="384" d="M180 231l-153 216c-2 3 -2 4 -2 6c0 5 4 9 9 9c4 0 6 -2 8 -5l150 -213l149 213c2 3 4 5 8 5c5 0 9 -4 9 -9c0 -2 0 -3 -2 -6l-153 -218l157 -222c2 -3 2 -4 2 -6c0 -5 -4 -9 -9 -9c-4 0 -6 2 -8 5l-154 218l-153 -218c-2 -3 -4 -5 -8 -5c-5 0 -9 4 -9 9c0 2 0 3 2 6z " />
<glyph unicode="y" horiz-adv-x="428" d="M25 -201c-5 0 -8 4 -8 8s3 8 8 8c106 0 126 45 180 184l-179 447c-1 3 -2 4 -2 7c0 5 4 9 9 9c4 0 7 -2 9 -7l172 -435l172 435c2 5 5 7 9 7c5 0 9 -4 9 -9c0 -3 -1 -4 -2 -7l-207 -516c-40 -99 -78 -131 -170 -131z" />
<glyph unicode="z" horiz-adv-x="390" d="M353 0h-316c-4 0 -8 3 -8 8c0 3 1 4 3 7l300 423h-274c-5 0 -8 4 -8 8s3 8 8 8h289c5 0 8 -4 8 -8c0 -3 -1 -4 -3 -7l-299 -423h300c4 0 8 -4 8 -8s-4 -8 -8 -8z" />
<glyph unicode="{" horiz-adv-x="296" d="M56 288h-13c-5 0 -8 4 -8 8s3 8 8 8h13c70 0 99 35 99 113c0 80 -13 154 -13 237c0 53 33 84 86 84c5 0 8 -4 8 -8s-3 -8 -8 -8c-40 0 -68 -21 -68 -68c0 -78 11 -161 11 -238c0 -70 -30 -120 -92 -120c62 0 92 -50 92 -120c0 -77 -11 -160 -11 -238c0 -47 28 -68 68 -68 c5 0 8 -4 8 -8s-3 -8 -8 -8c-53 0 -86 31 -86 84c0 83 13 157 13 237c0 78 -29 113 -99 113z" />
<glyph unicode="|" horiz-adv-x="218" d="M118 799v-950c0 -5 -4 -9 -9 -9s-9 4 -9 9v950c0 5 4 9 9 9s9 -4 9 -9z" />
<glyph unicode="}" horiz-adv-x="296" d="M253 288h-13c-70 0 -99 -35 -99 -113c0 -80 13 -154 13 -237c0 -53 -33 -84 -86 -84c-5 0 -8 4 -8 8s3 8 8 8c40 0 68 21 68 68c0 78 -11 161 -11 238c0 70 30 120 92 120c-62 0 -92 50 -92 120c0 77 11 160 11 238c0 47 -28 68 -68 68c-5 0 -8 4 -8 8s3 8 8 8 c53 0 86 -31 86 -84c0 -83 -13 -157 -13 -237c0 -78 29 -113 99 -113h13c5 0 8 -4 8 -8s-3 -8 -8 -8z" />
<glyph unicode="~" horiz-adv-x="477" d="M325 281c49 0 78 32 91 59c2 4 5 6 9 6s7 -3 7 -8c0 -2 -1 -5 -2 -7c-12 -25 -47 -66 -105 -66c-69 0 -106 70 -174 70c-49 0 -78 -32 -91 -59c-2 -4 -5 -6 -9 -6s-7 3 -7 8c0 2 1 5 2 7c12 25 47 66 105 66c76 0 112 -70 174 -70z" />
<glyph unicode="&#xa1;" horiz-adv-x="141" d="M70 468c11 0 17 -6 17 -19s-6 -20 -17 -20s-17 7 -17 20s6 19 17 19zM70 336c4 0 6 -2 6 -7l5 -538c0 -7 -3 -12 -11 -12s-11 5 -11 12l5 538c0 5 2 7 6 7z" />
<glyph unicode="&#xa3;" horiz-adv-x="584" d="M360 303h-190c18 -37 31 -77 31 -123c0 -54 -35 -115 -69 -147c23 13 52 24 90 24c80 0 130 -56 194 -56c52 0 92 17 118 75c3 6 6 7 9 7c5 0 9 -4 9 -8c0 -3 -1 -6 -2 -8c-31 -61 -70 -83 -134 -83c-74 0 -122 57 -194 57c-61 0 -89 -22 -118 -45c-3 -2 -5 -4 -9 -4 c-5 0 -9 4 -9 9s3 7 5 9c50 49 93 109 93 170c0 47 -15 86 -33 123h-67c-5 0 -8 4 -8 8s3 8 8 8h59c-27 54 -59 106 -59 181c0 108 77 187 206 187c117 0 177 -60 205 -133c1 -3 2 -6 2 -9c0 -5 -3 -8 -8 -8c-4 0 -7 2 -9 8c-24 68 -81 126 -190 126 c-117 0 -188 -72 -188 -171c0 -75 32 -126 60 -181h198c5 0 8 -4 8 -8s-3 -8 -8 -8z" />
<glyph unicode="&#x2044;" horiz-adv-x="288" d="M281 664l-258 -665c-2 -5 -5 -7 -9 -7c-5 0 -9 4 -9 9c0 3 1 5 2 8l258 665c2 5 5 7 9 7c5 0 9 -4 9 -9c0 -3 -1 -5 -2 -8z" />
<glyph unicode="&#x192;" horiz-adv-x="410" d="M282 382h-112l-80 -415c-23 -118 -54 -168 -143 -168c-22 0 -48 7 -61 13c-5 2 -7 4 -7 8s3 8 7 8c2 0 6 -2 12 -4c16 -5 31 -9 56 -9c54 -1 94 29 117 148l80 419h-77c-5 0 -8 4 -8 8s3 8 8 8h80l24 121c23 118 54 168 143 168c22 0 48 -7 61 -13c5 -2 7 -4 7 -8 s-3 -8 -7 -8c-2 0 -6 2 -12 4c-16 5 -31 9 -56 9c-61 0 -95 -34 -117 -148l-24 -125h109c5 0 8 -4 8 -8s-3 -8 -8 -8z" />
<glyph unicode="&#xa7;" horiz-adv-x="504" d="M66 283c0 -147 193 -140 304 -209c35 30 67 73 67 131c0 145 -193 138 -304 207c-35 -30 -67 -73 -67 -129zM455 205c0 -62 -32 -107 -70 -141c31 -25 54 -58 54 -113c0 -79 -59 -152 -195 -152c-85 0 -151 38 -185 87c-2 3 -3 6 -3 8c0 4 4 7 7 7s5 -1 8 -5 c19 -25 70 -81 173 -81c132 0 177 69 177 136c0 203 -373 110 -373 332c0 60 32 105 70 139c-31 25 -54 58 -54 113c0 79 59 152 195 152c85 0 151 -38 185 -87c2 -3 3 -6 3 -8c0 -4 -4 -7 -7 -7s-5 1 -8 5c-19 25 -70 81 -173 81c-132 0 -177 -69 -177 -136 c0 -203 373 -110 373 -330z" />
<glyph unicode="'" horiz-adv-x="199" d="M103 485c-4 0 -7 2 -7 6l-5 177c0 9 4 13 12 13s12 -4 12 -13l-5 -177c0 -4 -3 -6 -7 -6z" />
<glyph unicode="&#x201c;" horiz-adv-x="234" d="M53 568c0 40 11 85 27 109c2 3 4 4 7 4s6 -3 6 -6s-1 -4 -2 -6c-10 -15 -14 -37 -14 -52c0 -27 10 -34 10 -52c0 -13 -6 -20 -17 -20s-17 10 -17 23zM140 568c0 40 11 85 27 109c2 3 4 4 7 4s6 -3 6 -6s-1 -4 -2 -6c-10 -15 -14 -37 -14 -52c0 -27 10 -34 10 -52 c0 -13 -6 -20 -17 -20s-17 10 -17 23z" />
<glyph unicode="&#xab;" horiz-adv-x="464" d="M63 212c0 3 2 6 6 10l177 205c2 2 4 3 6 3c5 0 8 -4 8 -8c0 -3 -2 -6 -4 -8l-175 -202l175 -202c2 -2 4 -5 4 -8c0 -4 -3 -8 -8 -8c-2 0 -4 1 -6 3l-177 205c-4 4 -6 7 -6 10zM203 212c0 3 2 6 6 10l177 205c2 2 4 3 6 3c5 0 8 -4 8 -8c0 -3 -2 -6 -4 -8l-175 -202 l175 -202c2 -2 4 -5 4 -8c0 -4 -3 -8 -8 -8c-2 0 -4 1 -6 3l-177 205c-4 4 -6 7 -6 10z" />
<glyph unicode="&#x2039;" horiz-adv-x="324" d="M63 212c0 3 2 6 6 10l177 205c2 2 4 3 6 3c5 0 8 -4 8 -8c0 -3 -2 -6 -4 -8l-175 -202l175 -202c2 -2 4 -5 4 -8c0 -4 -3 -8 -8 -8c-2 0 -4 1 -6 3l-177 205c-4 4 -6 7 -6 10z" />
<glyph unicode="&#x203a;" horiz-adv-x="324" d="M261 212c0 -3 -2 -6 -6 -10l-177 -205c-2 -2 -4 -3 -6 -3c-5 0 -8 4 -8 8c0 3 2 6 4 8l175 202l-175 202c-2 2 -4 5 -4 8c0 4 3 8 8 8c2 0 4 -1 6 -3l177 -205c4 -4 6 -7 6 -10z" />
<glyph unicode="&#x2013;" horiz-adv-x="584" d="M468 274h-352c-5 0 -8 4 -8 8s3 8 8 8h352c5 0 8 -4 8 -8s-3 -8 -8 -8z" />
<glyph unicode="&#x2020;" horiz-adv-x="421" d="M210 -150c-4 0 -6 2 -6 7l-4 628h-125c-5 0 -8 3 -8 8c0 6 3 8 8 8h125l-2 198c0 9 4 13 12 13s12 -4 12 -13l-2 -198h125c5 0 8 -2 8 -8c0 -5 -3 -8 -8 -8h-125l-4 -628c0 -5 -2 -7 -6 -7z" />
<glyph unicode="&#x2021;" horiz-adv-x="421" d="M200 485h-125c-5 0 -8 3 -8 8c0 6 3 8 8 8h125l-2 198c0 9 4 13 12 13s12 -4 12 -13l-2 -198h125c5 0 8 -2 8 -8c0 -5 -3 -8 -8 -8h-125l-3 -229l3 -229h125c5 0 8 -3 8 -8c0 -6 -3 -8 -8 -8h-125l2 -198c0 -9 -4 -13 -12 -13s-12 4 -12 13l2 198h-125c-5 0 -8 2 -8 8 c0 5 3 8 8 8h125l2 229z" />
<glyph unicode="&#xb6;" horiz-adv-x="434" d="M334 657h-78v-471c0 -90 -19 -156 -82 -196c99 22 160 97 160 262v405zM384 657h-32v-405c0 -230 -114 -285 -259 -285c-25 0 -49 6 -64 12c-4 2 -6 4 -6 8c0 3 2 7 7 7c3 0 5 -1 8 -2c17 -6 38 -9 55 -9c99 0 145 82 145 200v176h-60c-86 0 -156 70 -156 157 c0 86 70 157 156 157h206c5 0 8 -4 8 -8s-3 -8 -8 -8z" />
<glyph unicode="&#x2022;" horiz-adv-x="418" d="M209 149c-83 0 -130 42 -130 130c0 94 47 136 130 136s130 -42 130 -136c0 -88 -47 -130 -130 -130z" />
<glyph unicode="&#x201a;" horiz-adv-x="141" d="M96 16c0 -40 -11 -85 -27 -109c-2 -3 -4 -4 -7 -4s-6 3 -6 6s1 4 2 6c10 15 14 37 14 52c0 27 -10 34 -10 52c0 13 6 20 17 20s17 -10 17 -23z" />
<glyph unicode="&#x201e;" horiz-adv-x="238" d="M183 16c0 -40 -11 -85 -27 -109c-2 -3 -4 -4 -7 -4s-6 3 -6 6s1 4 2 6c10 15 14 37 14 52c0 27 -10 34 -10 52c0 13 6 20 17 20s17 -10 17 -23zM96 16c0 -40 -11 -85 -27 -109c-2 -3 -4 -4 -7 -4s-6 3 -6 6s1 4 2 6c10 15 14 37 14 52c0 27 -10 34 -10 52 c0 13 6 20 17 20s17 -10 17 -23z" />
<glyph unicode="&#x201d;" horiz-adv-x="234" d="M180 658c0 -40 -11 -85 -27 -109c-2 -3 -4 -4 -7 -4s-6 3 -6 6s1 4 2 6c10 15 14 37 14 52c0 27 -10 34 -10 52c0 13 6 20 17 20s17 -10 17 -23zM93 658c0 -40 -11 -85 -27 -109c-2 -3 -4 -4 -7 -4s-6 3 -6 6s1 4 2 6c10 15 14 37 14 52c0 27 -10 34 -10 52 c0 13 6 20 17 20s17 -10 17 -23z" />
<glyph unicode="&#xbb;" horiz-adv-x="464" d="M401 212c0 -3 -2 -6 -6 -10l-177 -205c-2 -2 -4 -3 -6 -3c-5 0 -8 4 -8 8c0 3 2 6 4 8l175 202l-175 202c-2 2 -4 5 -4 8c0 4 3 8 8 8c2 0 4 -1 6 -3l177 -205c4 -4 6 -7 6 -10zM261 212c0 -3 -2 -6 -6 -10l-177 -205c-2 -2 -4 -3 -6 -3c-5 0 -8 4 -8 8c0 3 2 6 4 8 l175 202l-175 202c-2 2 -4 5 -4 8c0 4 3 8 8 8c2 0 4 -1 6 -3l177 -205c4 -4 6 -7 6 -10z" />
<glyph unicode="&#x2030;" horiz-adv-x="1078" d="M188 376c91 0 118 63 118 148s-27 148 -118 148s-118 -63 -118 -148s27 -148 118 -148zM188 361c-102 0 -134 72 -134 163s32 163 134 163s134 -72 134 -163s-32 -163 -134 -163zM558 2c91 0 118 63 118 148s-27 148 -118 148s-118 -63 -118 -148s27 -148 118 -148z M558 -13c-102 0 -134 72 -134 163s32 163 134 163s134 -72 134 -163s-32 -163 -134 -163zM196 7l337 666c2 5 5 8 10 8s8 -4 8 -8c0 -2 -1 -5 -2 -7l-337 -666c-2 -5 -5 -8 -10 -8s-8 4 -8 8c0 3 1 5 2 7zM890 2c91 0 118 63 118 148s-27 148 -118 148s-118 -63 -118 -148 s27 -148 118 -148zM890 -13c-102 0 -134 72 -134 163s32 163 134 163s134 -72 134 -163s-32 -163 -134 -163z" />
<glyph unicode="&#xbf;" horiz-adv-x="461" d="M397 -53c0 5 4 9 9 9s9 -4 9 -9c0 -105 -54 -174 -180 -174c-120 0 -188 68 -188 172c0 198 224 195 224 321c0 25 -6 44 -25 63c-3 3 -4 6 -4 9c0 5 4 9 9 9c3 0 6 -2 9 -5c21 -21 29 -51 29 -76c0 -138 -224 -134 -224 -321c0 -92 58 -156 170 -156s162 59 162 158z M259 468c11 0 17 -6 17 -19s-6 -20 -17 -20s-17 7 -17 20s6 19 17 19z" />
<glyph unicode="`" horiz-adv-x="370" d="M129 655c6 5 11 3 15 -2l101 -119c3 -3 3 -7 0 -10c-4 -3 -7 -2 -10 1l-106 114c-5 5 -6 11 0 16z" />
<glyph unicode="&#xb4;" horiz-adv-x="370" d="M242 655c6 -5 5 -11 0 -16l-106 -114c-3 -3 -6 -4 -10 -1c-3 3 -3 7 0 10l101 119c4 5 9 7 15 2z" />
<glyph unicode="&#x2c6;" horiz-adv-x="334" d="M267 553l-100 80l-100 -80c-2 -2 -4 -3 -7 -3c-4 0 -8 4 -8 8c0 3 1 5 5 8l101 80c4 3 6 4 9 4s5 -1 9 -4l101 -80c4 -3 5 -5 5 -8c0 -4 -4 -8 -8 -8c-3 0 -5 1 -7 3z" />
<glyph unicode="&#x2dc;" horiz-adv-x="378" d="M253 560c28 0 41 12 52 34c3 6 5 8 10 8s8 -4 8 -8c0 -2 -1 -5 -2 -7c-10 -21 -29 -43 -68 -43c-55 0 -80 42 -128 42c-28 0 -41 -12 -52 -34c-3 -6 -5 -8 -10 -8s-8 4 -8 8c0 2 1 5 2 7c10 21 29 43 68 43c55 0 79 -42 128 -42z" />
<glyph unicode="&#xaf;" horiz-adv-x="382" d="M296 559h-210c-5 0 -8 4 -8 8s3 8 8 8h210c5 0 8 -4 8 -8s-3 -8 -8 -8z" />
<glyph unicode="&#x2d8;" horiz-adv-x="315" d="M157 537c-55 0 -101 20 -101 87c0 4 3 8 8 8s8 -4 8 -8c0 -56 33 -72 85 -72s85 16 85 72c0 4 3 8 8 8s8 -4 8 -8c0 -67 -46 -87 -101 -87z" />
<glyph unicode="&#x2d9;" horiz-adv-x="277" d="M139 553c-11 0 -18 6 -18 18s7 18 18 18s18 -6 18 -18s-7 -18 -18 -18z" />
<glyph unicode="&#xa8;" horiz-adv-x="248" d="M63 551c-11 0 -15 5 -15 16s4 16 15 16c10 0 15 -5 15 -16s-5 -16 -15 -16zM185 551c-11 0 -15 5 -15 16s4 16 15 16c10 0 15 -5 15 -16s-5 -16 -15 -16z" />
<glyph unicode="&#x2da;" horiz-adv-x="267" d="M133 520c61 0 84 30 84 80s-23 80 -84 80s-84 -30 -84 -80s23 -80 84 -80zM133 505c-69 0 -100 36 -100 95s31 95 100 95s100 -36 100 -95s-31 -95 -100 -95z" />
<glyph unicode="&#xb8;" horiz-adv-x="315" d="M232 -139c0 -49 -28 -83 -88 -83c-26 0 -52 12 -59 18c-2 2 -3 3 -3 6s2 7 7 7c2 0 4 -1 7 -3c10 -7 26 -14 48 -14c51 0 73 25 73 69c0 48 -34 63 -65 63c-20 0 -29 -5 -35 -5c-5 0 -8 3 -8 9l4 72h14l-5 -68s14 5 30 5c51 0 80 -26 80 -76z" />
<glyph unicode="&#x2db;" horiz-adv-x="308" d="M209 -152c5 0 8 -4 8 -8c0 -3 -1 -6 -6 -8c-18 -7 -31 -9 -51 -9c-41 0 -70 27 -70 67c0 53 51 95 117 114l1 -12c-56 -18 -100 -56 -100 -100c0 -30 17 -53 52 -53c17 0 27 2 42 7c3 1 5 2 7 2z" />
<glyph unicode="&#x2c7;" horiz-adv-x="330" d="M165 567l100 80c2 2 4 3 7 3c4 0 8 -4 8 -8c0 -3 -1 -5 -5 -8l-101 -80c-4 -3 -6 -4 -9 -4s-5 1 -9 4l-101 80c-4 3 -5 5 -5 8c0 4 4 8 8 8c3 0 5 -1 7 -3z" />
<glyph unicode="&#x2014;" horiz-adv-x="918" d="M802 274h-686c-5 0 -8 4 -8 8s3 8 8 8h686c5 0 8 -4 8 -8s-3 -8 -8 -8z" />
<glyph unicode="&#xaa;" horiz-adv-x="381" d="M193 672c-48 0 -72 -21 -88 -43c-2 -3 -5 -4 -8 -4s-7 3 -7 7c0 3 1 5 3 8c16 24 49 47 100 47c80 0 117 -51 117 -109v-206c0 -6 -4 -8 -8 -8s-8 2 -8 8v44c-19 -34 -57 -55 -109 -55c-74 0 -114 36 -114 92c0 55 40 92 119 92h104v33c0 55 -38 94 -101 94zM185 376 c57 0 109 29 109 102v51h-104c-66 0 -102 -29 -102 -76c0 -49 36 -77 97 -77zM322 277h-264c-5 0 -8 4 -8 8s3 8 8 8h264c5 0 8 -4 8 -8s-3 -8 -8 -8z" />
<glyph unicode="&#xba;" horiz-adv-x="333" d="M166 376c77 0 118 47 118 148s-41 148 -118 148s-118 -47 -118 -148s41 -148 118 -148zM166 687c88 0 135 -53 135 -163s-47 -163 -135 -163s-135 53 -135 163s47 163 135 163zM298 277h-264c-5 0 -8 4 -8 8s3 8 8 8h264c5 0 8 -4 8 -8s-3 -8 -8 -8z" />
<glyph unicode="&#xdf;" horiz-adv-x="520" d="M98 518v-517c0 -5 -4 -9 -9 -9s-9 4 -9 9v517c0 97 43 167 146 167c74 0 126 -50 126 -113c0 -122 -161 -117 -161 -216c0 -137 288 -84 288 -245c0 -84 -67 -124 -160 -124c-83 0 -137 39 -164 68c-2 2 -3 4 -3 6c0 3 2 8 8 8c3 0 5 -2 7 -4c33 -34 81 -62 152 -62 c84 0 142 35 142 108c0 147 -288 93 -288 245c0 111 161 102 161 216c0 60 -49 97 -108 97c-86 0 -128 -56 -128 -151z" />
<glyph unicode="&#xac;" horiz-adv-x="563" d="M505 294v-238c0 -5 -4 -8 -8 -8s-8 3 -8 8v230h-424c-5 0 -8 4 -8 8s3 8 8 8h432c5 0 8 -4 8 -8z" />
<glyph unicode="&#xb5;" horiz-adv-x="490" d="M245 4c122 0 157 70 157 151v298c0 5 4 9 9 9s9 -4 9 -9v-289c0 -92 -34 -177 -175 -177c-88 0 -138 37 -157 84v-267c0 -5 -4 -9 -9 -9s-9 4 -9 9v649c0 5 4 9 9 9s9 -4 9 -9v-298c0 -81 35 -151 157 -151z" />
<glyph unicode="&#x2122;" horiz-adv-x="399" d="M169 638h-57v-163c0 -5 -3 -8 -8 -8s-8 3 -8 8v163h-56c-4 0 -7 3 -7 7s3 7 7 7h129c4 0 7 -3 7 -7s-3 -7 -7 -7zM291 516c-5 0 -8 3 -10 7l-50 96v-144c0 -5 -3 -8 -7 -8s-8 3 -8 8v172c0 4 3 8 8 8c4 0 6 -2 8 -6l59 -114l59 114c2 4 4 6 8 6c5 0 8 -4 8 -8v-172 c0 -5 -4 -8 -8 -8s-7 3 -7 8v144l-50 -96c-2 -4 -5 -7 -10 -7z" />
<glyph unicode="&#xde;" horiz-adv-x="534" d="M113 162v-161c0 -5 -4 -9 -9 -9s-9 4 -9 9v671c0 5 4 9 9 9s9 -4 9 -9v-134h193c106 0 179 -61 179 -188c0 -125 -73 -188 -179 -188h-193zM113 522v-344h193c101 0 161 67 161 172c0 107 -59 172 -161 172h-193z" />
<glyph unicode="&#xf7;" horiz-adv-x="444" d="M240 340c0 -10 -8 -18 -18 -18s-18 8 -18 18s8 18 18 18s18 -8 18 -18zM240 96c0 -11 -8 -19 -18 -19s-18 8 -18 19c0 9 8 18 18 18s18 -9 18 -18zM8 226h428c5 0 8 -4 8 -8s-3 -8 -8 -8h-428c-5 0 -8 4 -8 8s3 8 8 8z" />
<glyph unicode="&#xa6;" horiz-adv-x="218" d="M118 799v-434c0 -5 -4 -9 -9 -9s-9 4 -9 9v434c0 5 4 9 9 9s9 -4 9 -9zM118 283v-434c0 -5 -4 -9 -9 -9s-9 4 -9 9v434c0 5 4 9 9 9s9 -4 9 -9z" />
<glyph unicode="&#xb0;" horiz-adv-x="356" d="M42 550c0 76 61 137 137 137s137 -61 137 -137s-61 -137 -137 -137s-137 61 -137 137zM58 549c0 -66 51 -121 120 -121s122 55 122 121s-53 123 -122 123s-120 -57 -120 -123z" />
<glyph unicode="&#xfe;" horiz-adv-x="505" d="M80 -192v895c0 5 4 9 9 9s9 -4 9 -9v-354c22 73 73 119 170 119c128 0 192 -77 192 -241s-64 -240 -192 -240c-143 0 -170 119 -170 119v-298c0 -5 -4 -9 -9 -9s-9 4 -9 9zM96 228c0 -150 61 -225 172 -225c115 0 174 76 174 224c0 150 -59 225 -174 225 c-111 0 -172 -73 -172 -224z" />
<glyph unicode="&#xae;" horiz-adv-x="377" d="M188 687c93 0 147 -48 147 -152s-54 -153 -147 -153c-91 0 -146 49 -146 153s55 152 146 152zM188 396c85 0 132 42 132 139c0 96 -47 138 -132 138c-84 0 -131 -42 -131 -138c0 -97 47 -139 131 -139zM152 536h48c18 0 29 15 29 31c0 18 -11 31 -29 31h-48v-62zM136 464 v138c0 6 5 11 11 11h53c31 0 46 -21 46 -46s-17 -44 -41 -46l34 -49c3 -4 4 -6 4 -8c0 -4 -4 -8 -8 -8c-3 0 -5 1 -7 4l-41 61h-35v-57c0 -4 -3 -8 -8 -8s-8 4 -8 8z" />
<glyph unicode="&#x2212;" horiz-adv-x="444" d="M8 226h428c5 0 8 -4 8 -8s-3 -8 -8 -8h-428c-5 0 -8 4 -8 8s3 8 8 8z" />
<glyph unicode="&#xf0;" horiz-adv-x="491" d="M244 -13c-128 0 -199 76 -199 240c0 165 71 241 199 241c81 0 140 -31 171 -96c-19 88 -67 180 -113 229l-77 -50c-3 -2 -5 -2 -5 -2c-5 0 -8 4 -8 8c0 5 3 7 6 9l73 47c-30 32 -74 64 -112 83c-4 2 -6 5 -6 9c0 5 4 7 7 7c4 0 6 -1 8 -2c40 -20 85 -54 117 -87l62 40 c3 2 5 2 6 2c5 0 7 -5 7 -7c0 -4 -1 -6 -5 -9l-59 -38c78 -92 127 -202 127 -384c0 -164 -71 -240 -199 -240zM244 3c120 0 181 72 181 224c0 153 -61 225 -181 225s-181 -72 -181 -225c0 -152 61 -224 181 -224z" />
<glyph unicode="&#xd7;" horiz-adv-x="343" d="M184 218l155 -153c3 -2 4 -5 4 -7c0 -5 -4 -9 -9 -9c-3 0 -5 1 -7 3l-156 153l-155 -153c-2 -2 -4 -3 -7 -3c-5 0 -9 4 -9 9c0 2 1 5 4 7l155 153l-155 153c-3 2 -4 5 -4 7c0 5 4 9 9 9c3 0 5 -1 7 -3l155 -154l156 154c2 2 4 3 7 3c5 0 9 -4 9 -9c0 -2 -1 -5 -4 -7z" />
<glyph unicode="&#xa9;" horiz-adv-x="812" d="M405 170c52 0 85 19 103 37c3 3 5 3 7 3c3 0 7 -3 7 -7c0 -2 0 -3 -3 -7c-15 -16 -54 -42 -114 -42c-97 0 -151 58 -151 182s54 183 151 183c60 0 94 -24 108 -41c3 -4 3 -6 3 -8c0 -4 -4 -7 -7 -7c-2 0 -4 0 -7 3c-18 19 -45 37 -97 37c-86 0 -133 -53 -133 -167 c0 -113 44 -166 133 -166zM406 2c199 0 315 108 315 334c0 227 -116 335 -315 335s-315 -108 -315 -335c0 -226 116 -334 315 -334zM406 -14c-209 0 -333 114 -333 350c0 237 124 351 333 351s333 -114 333 -351c0 -236 -124 -350 -333 -350z" />
<glyph unicode="&#x2260;" horiz-adv-x="444" d="M8 303h261l45 66c2 3 4 4 7 4c5 0 8 -4 8 -8c0 0 0 -2 -2 -5l-39 -57h148c5 0 8 -4 8 -8s-3 -8 -8 -8h-159l-92 -137h251c5 0 8 -4 8 -8s-3 -8 -8 -8h-262l-45 -67c-2 -3 -4 -4 -7 -4c-5 0 -8 4 -8 8c0 0 0 2 2 5l39 58h-147c-5 0 -8 4 -8 8s3 8 8 8h158l92 137h-250 c-5 0 -8 4 -8 8s3 8 8 8z" />
<glyph unicode="&#x221a;" horiz-adv-x="539" d="M472 695l-217 -855c-1 -5 -2 -11 -10 -11c-4 0 -7 2 -9 7l-168 417c-1 3 -3 6 -3 10c0 5 4 9 9 9s7 -3 9 -8l160 -402l213 842c1 5 4 8 9 8s9 -4 9 -9c0 -1 -1 -5 -2 -8z" />
<glyph unicode="&#x22;" horiz-adv-x="295" d="M103 485c-4 0 -7 2 -7 6l-5 177c0 9 4 13 12 13s12 -4 12 -13l-5 -177c0 -4 -3 -6 -7 -6zM191 485c-4 0 -7 2 -7 6l-5 177c0 9 4 13 12 13s12 -4 12 -13l-5 -177c0 -4 -3 -6 -7 -6z" />
<glyph unicode="!" horiz-adv-x="141" d="M70 -8c-11 0 -17 6 -17 19s6 20 17 20s17 -7 17 -20s-6 -19 -17 -19zM70 124c-4 0 -6 2 -6 7l-5 538c0 7 3 12 11 12s11 -5 11 -12l-5 -538c0 -5 -2 -7 -6 -7z" />
<glyph unicode="&#x2dd;" horiz-adv-x="489" d="M249 655c6 -5 5 -11 0 -16l-106 -114c-3 -3 -6 -4 -10 -1c-3 3 -3 7 0 10l101 119c4 5 9 7 15 2zM353 655c6 -5 5 -11 0 -16l-106 -114c-3 -3 -6 -4 -10 -1c-3 3 -3 7 0 10l101 119c4 5 9 7 15 2z" />
<glyph horiz-adv-x="592" d="M296 2c158 0 218 98 218 335c0 236 -60 334 -218 334s-218 -98 -218 -334c0 -237 60 -335 218 -335zM296 -14c-169 0 -236 103 -236 351c0 247 67 350 236 350s236 -103 236 -350c0 -248 -67 -351 -236 -351z" />
<glyph horiz-adv-x="592" d="M366 672v-671c0 -5 -4 -9 -9 -9s-9 4 -9 9v654l-219 -163c-3 -2 -5 -3 -7 -3c-5 0 -9 4 -9 9c0 3 2 6 5 8l231 172c3 2 5 3 8 3c5 0 9 -4 9 -9z" />
<glyph horiz-adv-x="592" d="M101 18h399c5 0 9 -4 9 -9s-4 -9 -9 -9h-409c-5 0 -9 4 -9 9c0 239 399 240 399 486c0 98 -71 176 -184 176c-100 0 -147 -42 -171 -112c-2 -6 -6 -7 -10 -7s-8 3 -8 8c0 1 0 2 1 5c26 79 84 122 188 122c123 0 202 -82 202 -192c0 -253 -398 -269 -398 -477z" />
<glyph horiz-adv-x="592" d="M459 655h-327c-5 0 -9 4 -9 9s4 9 9 9h346c5 0 9 -4 9 -9c0 -2 -1 -5 -3 -7l-230 -267h52c143 0 206 -83 206 -198c0 -128 -73 -206 -220 -206c-110 0 -180 44 -211 107c-1 2 -2 5 -2 7c0 4 3 7 8 7c4 0 7 -2 10 -8c30 -64 103 -97 195 -97c136 0 201 70 201 190 c0 100 -53 181 -187 181h-70c-5 0 -9 4 -9 9c0 4 2 7 5 10z" />
<glyph horiz-adv-x="592" d="M432 672v-491h82c5 0 9 -3 9 -8s-4 -9 -9 -9h-82v-163c0 -5 -4 -9 -9 -9s-9 4 -9 9v163h-336c-5 0 -9 4 -9 9c0 3 1 5 3 8l342 494c2 3 5 6 9 6c5 0 9 -4 9 -9zM95 181h319v463z" />
<glyph horiz-adv-x="592" d="M481 657h-310l-58 -300c39 45 93 73 182 73c132 0 219 -78 219 -219c0 -154 -92 -225 -219 -225c-106 0 -176 45 -217 125c-1 2 -1 4 -1 5c0 5 4 8 8 8s6 -2 8 -6c37 -73 105 -116 202 -116c114 0 200 67 200 209c0 138 -86 203 -200 203c-77 0 -127 -19 -181 -77 c-3 -3 -6 -4 -9 -4c-5 0 -11 3 -11 11c0 2 0 3 1 8l60 310c1 6 6 11 13 11h313c5 0 8 -4 8 -8s-3 -8 -8 -8z" />
<glyph horiz-adv-x="592" d="M297 421c133 0 222 -74 222 -216c0 -155 -89 -219 -222 -219c-158 0 -224 132 -224 334c0 260 82 367 240 367c77 0 133 -28 157 -52c3 -3 4 -5 4 -8c0 -5 -4 -8 -8 -8c-3 0 -5 1 -8 4c-37 33 -86 48 -145 48c-153 0 -223 -118 -223 -334v-46c35 71 101 130 207 130z M297 2c117 0 204 53 204 203c0 138 -85 200 -204 200c-98 0 -162 -54 -203 -135c0 -144 57 -268 203 -268z" />
<glyph horiz-adv-x="592" d="M484 657h-387c-4 0 -8 3 -8 8s4 8 8 8h397c5 0 8 -4 8 -8c0 -221 -297 -293 -297 -664c0 -5 -4 -9 -9 -9s-9 4 -9 9c0 372 297 459 297 656z" />
<glyph horiz-adv-x="592" d="M296 -14c-136 0 -223 63 -223 193c0 105 58 171 156 188c-70 15 -124 69 -124 155c0 109 77 165 191 165s191 -56 191 -165c0 -86 -54 -140 -124 -155c98 -17 156 -83 156 -188c0 -130 -87 -193 -223 -193zM296 671c-104 0 -173 -50 -173 -149c0 -97 72 -148 173 -148 s173 51 173 148c0 99 -69 149 -173 149zM296 358c-129 0 -205 -59 -205 -179c0 -119 84 -177 205 -177s205 58 205 177c0 120 -76 179 -205 179z" />
<glyph horiz-adv-x="592" d="M295 252c-133 0 -222 74 -222 216c0 155 89 219 222 219c158 0 224 -132 224 -334c0 -260 -82 -367 -240 -367c-77 0 -133 28 -157 52c-3 3 -4 5 -4 8c0 5 4 8 8 8c3 0 5 -1 8 -4c37 -33 86 -48 145 -48c153 0 223 118 223 334v46c-35 -71 -101 -130 -207 -130zM295 671 c-117 0 -204 -53 -204 -203c0 -138 85 -200 204 -200c98 0 162 54 203 135c0 144 -57 268 -203 268z" />
<glyph unicode="&#xb7;" horiz-adv-x="164" d="M81 281c-11 0 -17 6 -17 19s6 20 17 20s17 -7 17 -20s-6 -19 -17 -19z" />
<glyph unicode="&#xb9;" horiz-adv-x="157" d="M107 719v-289c0 -5 -4 -8 -8 -8s-8 3 -8 8v275l-63 -42c-3 -2 -5 -3 -7 -3c-4 0 -7 4 -7 7c0 2 1 5 4 7l74 50c2 1 4 3 7 3c4 0 8 -4 8 -8z" />
<glyph unicode="&#xb2;" horiz-adv-x="259" d="M217 425h-181c-4 0 -7 3 -7 7c0 117 180 111 180 214c0 36 -22 70 -81 70c-40 0 -62 -15 -73 -48c-2 -6 -6 -6 -8 -6c-4 0 -7 3 -7 7c0 0 0 2 1 5c12 35 40 56 87 56c66 0 97 -36 97 -84c0 -110 -180 -114 -180 -207h172c4 0 7 -3 7 -7s-3 -7 -7 -7z" />
<glyph unicode="&#xb3;" horiz-adv-x="254" d="M191 710h-145c-4 0 -7 3 -7 7s3 7 7 7h159c4 0 7 -3 7 -7c0 -3 -1 -5 -3 -7l-92 -106h11c73 0 98 -46 98 -93c0 -56 -28 -92 -108 -92c-49 0 -79 25 -93 48c-2 4 -2 5 -2 7c0 4 3 7 7 7c3 0 5 -2 7 -5c17 -27 40 -43 81 -43c65 0 92 28 92 78c0 46 -24 79 -84 79h-23 c-4 0 -7 3 -7 7c0 2 1 4 3 6z" />
<glyph unicode="&#xbd;" horiz-adv-x="510" d="M135 676v-289c0 -5 -4 -8 -8 -8s-8 3 -8 8v275l-63 -42c-3 -2 -5 -3 -7 -3c-4 0 -7 4 -7 7c0 2 1 5 4 7l74 50c2 1 4 3 7 3c4 0 8 -4 8 -8zM365 664l-258 -665c-2 -5 -5 -7 -9 -7c-5 0 -9 4 -9 9c0 3 1 5 2 8l258 665c2 5 5 7 9 7c5 0 9 -4 9 -9c0 -3 -1 -5 -2 -8zM468 0 h-181c-4 0 -7 3 -7 7c0 117 180 111 180 214c0 36 -22 70 -81 70c-40 0 -62 -15 -73 -48c-2 -6 -6 -6 -8 -6c-4 0 -7 3 -7 7c0 0 0 2 1 5c12 35 40 56 87 56c66 0 97 -36 97 -84c0 -110 -180 -114 -180 -207h172c4 0 7 -3 7 -7s-3 -7 -7 -7z" />
<glyph unicode="&#xbe;" horiz-adv-x="523" d="M194 667h-145c-4 0 -7 3 -7 7s3 7 7 7h159c4 0 7 -3 7 -7c0 -3 -1 -5 -3 -7l-92 -106h11c73 0 98 -46 98 -93c0 -56 -28 -92 -108 -92c-49 0 -79 25 -93 48c-2 4 -2 5 -2 7c0 4 3 7 7 7c3 0 5 -2 7 -5c17 -27 40 -43 81 -43c65 0 92 28 92 78c0 46 -24 79 -84 79h-23 c-4 0 -7 3 -7 7c0 2 1 4 3 6zM419 664l-258 -665c-2 -5 -5 -7 -9 -7c-5 0 -9 4 -9 9c0 3 1 5 2 8l258 665c2 5 5 7 9 7c5 0 9 -4 9 -9c0 -3 -1 -5 -2 -8zM290 82h132v184zM438 82h31c4 0 7 -3 7 -7s-3 -7 -7 -7h-31v-68c0 -5 -4 -8 -8 -8s-8 3 -8 8v68h-146c-4 0 -7 3 -7 7 c0 3 2 5 4 8l149 208c2 3 4 6 8 6c5 0 8 -4 8 -8v-207z" />
<glyph horiz-adv-x="732" d="M578 687c67 0 121 -49 121 -116c0 -82 -69 -125 -154 -125c-19 0 -42 1 -68 6c-13 -20 -37 -39 -56 -47c78 0 137 -45 137 -115c0 -189 -282 -74 -282 -200c0 -29 20 -46 49 -46c55 0 25 66 80 66c34 0 44 -20 44 -45c0 -59 -71 -73 -119 -73c-179 0 -253 183 -253 301 c0 96 52 195 166 195c43 0 81 -19 104 -44c-97 -63 -156 -119 -156 -240c0 -13 0 -27 2 -40c1 -9 5 -16 12 -16c8 0 9 6 9 17s-1 26 -1 39c0 99 55 156 138 207c29 18 51 35 67 55c-59 15 -114 54 -152 81c-43 30 -90 88 -137 88c-24 0 -40 -17 -40 -41s18 -39 40 -39 c17 0 25 12 33 20c5 4 10 6 17 6c14 0 26 -12 26 -26c0 -32 -49 -52 -80 -52c-50 0 -92 41 -92 91c0 51 42 93 92 93c51 0 89 -30 122 -58c22 31 60 58 113 58c77 0 142 -64 142 -142c0 -19 -4 -34 -7 -43c22 -4 35 -4 50 -4c43 0 98 17 98 73c0 33 -26 64 -65 64 c-23 0 -28 -12 -44 -12c-15 0 -26 12 -26 26c0 8 4 17 11 22c16 12 34 16 59 16zM440 510c3 8 6 21 6 35c0 42 -31 90 -86 90c-31 0 -56 -14 -71 -42c39 -31 96 -65 151 -83z" />
<glyph horiz-adv-x="600" d="M541 270c0 -193 -90 -282 -241 -282s-241 89 -241 282s90 282 241 282s241 -89 241 -282zM523 270c0 180 -83 266 -223 266s-223 -86 -223 -266s83 -266 223 -266s223 86 223 266z" />
<glyph horiz-adv-x="353" d="M248 537v-536c0 -5 -4 -9 -9 -9s-9 4 -9 9v519l-160 -113c-3 -2 -5 -3 -7 -3c-5 0 -9 4 -9 9c0 3 2 6 5 8l172 122c3 2 5 3 8 3c5 0 9 -4 9 -9z" />
<glyph horiz-adv-x="504" d="M74 18h383c5 0 9 -4 9 -9s-4 -9 -9 -9h-393c-5 0 -9 4 -9 9c0 239 379 177 379 385c0 91 -67 142 -173 142c-100 0 -146 -42 -170 -112c-2 -6 -6 -7 -10 -7s-8 3 -8 8c0 1 0 2 1 5c26 79 83 122 187 122c115 0 191 -58 191 -158c0 -220 -378 -168 -378 -376z" />
<glyph horiz-adv-x="530" d="M421 520h-327c-5 0 -9 4 -9 9s4 9 9 9h346c5 0 9 -4 9 -9c0 -2 -1 -5 -3 -7l-230 -267h52c143 0 206 -83 206 -198c0 -128 -73 -206 -220 -206c-110 0 -180 44 -211 107c-1 2 -2 5 -2 7c0 4 3 7 8 7c4 0 7 -2 10 -8c30 -64 103 -97 195 -97c136 0 201 70 201 190 c0 100 -53 181 -187 181h-70c-5 0 -9 4 -9 9c0 4 2 7 5 10z" />
<glyph horiz-adv-x="529" d="M394 537v-491h82c5 0 9 -3 9 -8s-4 -9 -9 -9h-82v-163c0 -5 -4 -9 -9 -9s-9 4 -9 9v163h-336c-5 0 -9 4 -9 9c0 3 1 5 3 8l342 494c2 3 5 6 9 6c5 0 9 -4 9 -9zM57 46h319v463z" />
<glyph horiz-adv-x="558" d="M462 522h-310l-58 -300c39 45 93 73 182 73c132 0 219 -78 219 -219c0 -154 -92 -225 -219 -225c-106 0 -176 45 -217 125c-1 2 -1 4 -1 5c0 5 4 8 8 8s6 -2 8 -6c37 -73 105 -116 202 -116c114 0 200 67 200 209c0 138 -86 203 -200 203c-77 0 -127 -19 -181 -77 c-3 -3 -6 -4 -9 -4c-5 0 -11 3 -11 11c0 2 0 3 1 8l60 310c1 6 6 11 13 11h313c5 0 8 -4 8 -8s-3 -8 -8 -8z" />
<glyph horiz-adv-x="566" d="M284 417c133 0 222 -70 222 -212c0 -155 -89 -219 -222 -219c-158 0 -224 132 -224 334c0 255 82 361 240 361c77 0 133 -28 157 -52c3 -3 4 -5 4 -8c0 -5 -4 -8 -8 -8c-3 0 -5 1 -8 4c-37 33 -86 48 -145 48c-153 0 -223 -112 -223 -328v-50c35 71 101 130 207 130z M284 2c117 0 204 53 204 203c0 138 -85 196 -204 196c-98 0 -162 -54 -203 -135c0 -133 57 -264 203 -264z" />
<glyph horiz-adv-x="483" d="M429 522h-387c-4 0 -8 3 -8 8s4 8 8 8h397c5 0 8 -4 8 -8c0 -221 -297 -293 -297 -664c0 -5 -4 -9 -9 -9s-9 4 -9 9c0 372 297 459 297 656z" />
<glyph horiz-adv-x="550" d="M275 -14c-136 0 -223 62 -223 192c0 105 58 169 156 186c-70 15 -124 67 -124 153c0 109 77 163 191 163s191 -54 191 -163c0 -86 -54 -138 -124 -153c98 -17 156 -81 156 -186c0 -130 -87 -192 -223 -192zM275 664c-104 0 -173 -48 -173 -147c0 -97 72 -146 173 -146 s173 49 173 146c0 99 -69 147 -173 147zM275 355c-129 0 -205 -57 -205 -177c0 -119 84 -176 205 -176s205 57 205 176c0 120 -76 177 -205 177z" />
<glyph horiz-adv-x="566" d="M282 121c-133 0 -222 70 -222 212c0 155 89 219 222 219c158 0 224 -132 224 -334c0 -255 -82 -361 -240 -361c-77 0 -133 28 -157 52c-3 3 -4 5 -4 8c0 5 4 8 8 8c3 0 5 -1 8 -4c37 -33 86 -48 145 -48c153 0 223 112 223 328v50c-35 -71 -101 -130 -207 -130zM282 536 c-117 0 -204 -53 -204 -203c0 -138 85 -196 204 -196c98 0 162 54 203 135c0 133 -57 264 -203 264z" />
<glyph unicode="&#xe1;" horiz-adv-x="462" d="M392 311v-310c0 -5 -4 -8 -9 -8s-8 3 -8 8v73c-27 -59 -95 -86 -169 -86c-112 0 -166 57 -166 136c0 88 67 135 168 135h167v52c0 91 -57 141 -149 141c-81 0 -120 -33 -143 -72c-2 -4 -5 -6 -9 -6s-8 4 -8 8c0 3 1 5 3 8c26 42 73 78 157 78c111 0 166 -63 166 -157z M206 4c87 0 169 40 169 134v106h-167c-89 0 -150 -43 -150 -120c0 -73 51 -120 148 -120zM305 655c6 -5 5 -11 0 -16l-106 -114c-3 -3 -6 -4 -10 -1c-3 3 -3 7 0 10l101 119c4 5 9 7 15 2z" />
<glyph horiz-adv-x="282" d="M232 329h-183c-5 0 -8 4 -8 8s3 8 8 8h183c5 0 8 -4 8 -8s-3 -8 -8 -8z" />
<glyph horiz-adv-x="303" d="M80 337c0 157 6 365 159 440c2 1 5 2 7 2c4 0 8 -3 8 -7c0 -5 -2 -7 -7 -10c-146 -73 -149 -293 -149 -425s3 -352 149 -425c5 -3 7 -5 7 -10c0 -4 -4 -7 -8 -7c-2 0 -5 1 -7 2c-153 75 -159 283 -159 440z" />
<glyph horiz-adv-x="303" d="M223 337c0 -157 -6 -365 -159 -440c-2 -1 -5 -2 -7 -2c-4 0 -8 3 -8 7c0 5 2 7 7 10c146 73 149 293 149 425s-3 352 -149 425c-5 3 -7 5 -7 10c0 4 4 7 8 7c2 0 5 -1 7 -2c153 -75 159 -283 159 -440z" />
<glyph horiz-adv-x="233" d="M93 -89h75c5 0 8 -4 8 -8s-3 -8 -8 -8h-84c-5 0 -9 4 -9 9v866c0 5 4 9 9 9h84c5 0 8 -4 8 -8s-3 -8 -8 -8h-75v-852z" />
<glyph horiz-adv-x="233" d="M65 -89h75v852h-75c-5 0 -8 4 -8 8s3 8 8 8h84c5 0 9 -4 9 -9v-866c0 -5 -4 -9 -9 -9h-84c-5 0 -8 4 -8 8s3 8 8 8z" />
<glyph horiz-adv-x="296" d="M56 329h-13c-5 0 -8 4 -8 8s3 8 8 8h13c70 0 99 35 99 113c0 80 -13 154 -13 237c0 53 33 84 86 84c5 0 8 -4 8 -8s-3 -8 -8 -8c-40 0 -68 -21 -68 -68c0 -78 11 -161 11 -238c0 -70 -30 -120 -92 -120c62 0 92 -50 92 -120c0 -77 -11 -160 -11 -238c0 -47 28 -68 68 -68 c5 0 8 -4 8 -8s-3 -8 -8 -8c-53 0 -86 31 -86 84c0 83 13 157 13 237c0 78 -29 113 -99 113z" />
<glyph horiz-adv-x="296" d="M253 329h-13c-70 0 -99 -35 -99 -113c0 -80 13 -154 13 -237c0 -53 -33 -84 -86 -84c-5 0 -8 4 -8 8s3 8 8 8c40 0 68 21 68 68c0 78 -11 161 -11 238c0 70 30 120 92 120c-62 0 -92 50 -92 120c0 77 11 160 11 238c0 47 -28 68 -68 68c-5 0 -8 4 -8 8s3 8 8 8 c53 0 86 -31 86 -84c0 -83 -13 -157 -13 -237c0 -78 29 -113 99 -113h13c5 0 8 -4 8 -8s-3 -8 -8 -8z" />
<glyph horiz-adv-x="464" d="M63 337c0 3 2 6 6 10l177 205c2 2 4 3 6 3c5 0 8 -4 8 -8c0 -3 -2 -6 -4 -8l-175 -202l175 -202c2 -2 4 -5 4 -8c0 -4 -3 -8 -8 -8c-2 0 -4 1 -6 3l-177 205c-4 4 -6 7 -6 10zM203 337c0 3 2 6 6 10l177 205c2 2 4 3 6 3c5 0 8 -4 8 -8c0 -3 -2 -6 -4 -8l-175 -202 l175 -202c2 -2 4 -5 4 -8c0 -4 -3 -8 -8 -8c-2 0 -4 1 -6 3l-177 205c-4 4 -6 7 -6 10z" />
<glyph horiz-adv-x="464" d="M401 337c0 -3 -2 -6 -6 -10l-177 -205c-2 -2 -4 -3 -6 -3c-5 0 -8 4 -8 8c0 3 2 6 4 8l175 202l-175 202c-2 2 -4 5 -4 8c0 4 3 8 8 8c2 0 4 -1 6 -3l177 -205c4 -4 6 -7 6 -10zM261 337c0 -3 -2 -6 -6 -10l-177 -205c-2 -2 -4 -3 -6 -3c-5 0 -8 4 -8 8c0 3 2 6 4 8 l175 202l-175 202c-2 2 -4 5 -4 8c0 4 3 8 8 8c2 0 4 -1 6 -3l177 -205c4 -4 6 -7 6 -10z" />
<glyph horiz-adv-x="324" d="M63 337c0 3 2 6 6 10l177 205c2 2 4 3 6 3c5 0 8 -4 8 -8c0 -3 -2 -6 -4 -8l-175 -202l175 -202c2 -2 4 -5 4 -8c0 -4 -3 -8 -8 -8c-2 0 -4 1 -6 3l-177 205c-4 4 -6 7 -6 10z" />
<glyph horiz-adv-x="323" d="M260 337c0 -3 -2 -6 -6 -10l-177 -205c-2 -2 -4 -3 -6 -3c-5 0 -8 4 -8 8c0 3 2 6 4 8l175 202l-175 202c-2 2 -4 5 -4 8c0 4 3 8 8 8c2 0 4 -1 6 -3l177 -205c4 -4 6 -7 6 -10z" />
<glyph horiz-adv-x="584" d="M468 329h-352c-5 0 -8 4 -8 8s3 8 8 8h352c5 0 8 -4 8 -8s-3 -8 -8 -8z" />
<glyph horiz-adv-x="918" d="M802 329h-686c-5 0 -8 4 -8 8s3 8 8 8h686c5 0 8 -4 8 -8s-3 -8 -8 -8z" />
<glyph horiz-adv-x="164" d="M81 317c-11 0 -17 6 -17 19s6 20 17 20s17 -7 17 -20s-6 -19 -17 -19z" />
<glyph horiz-adv-x="461" d="M397 160c0 5 4 9 9 9s9 -4 9 -9c0 -105 -54 -174 -180 -174c-120 0 -188 68 -188 172c0 198 224 195 224 321c0 25 -6 44 -25 63c-3 3 -4 6 -4 9c0 5 4 9 9 9c3 0 6 -2 9 -5c21 -21 29 -51 29 -76c0 -138 -224 -134 -224 -321c0 -92 58 -156 170 -156s162 59 162 158z M259 681c11 0 17 -6 17 -19s-6 -20 -17 -20s-17 7 -17 20s6 19 17 19z" />
<glyph horiz-adv-x="141" d="M70 681c11 0 17 -6 17 -19s-6 -20 -17 -20s-17 7 -17 20s6 19 17 19zM70 549c4 0 6 -2 6 -7l5 -538c0 -7 -3 -12 -11 -12s-11 5 -11 12l5 538c0 5 2 7 6 7z" />
<glyph horiz-adv-x="418" d="M209 207c-83 0 -130 42 -130 130c0 94 47 136 130 136s130 -42 130 -136c0 -88 -47 -130 -130 -130z" />
<glyph horiz-adv-x="465" d="M229 3c108 0 172 51 172 142c0 188 -340 114 -340 303c0 70 44 131 163 136v79c0 4 3 8 8 8s8 -4 8 -8v-79c83 -3 133 -37 164 -85c2 -3 3 -5 3 -8c0 -4 -4 -7 -8 -7c-3 0 -5 1 -8 5c-31 47 -78 79 -159 79c-115 0 -153 -60 -153 -120c0 -170 340 -101 340 -303 c0 -96 -60 -153 -179 -158v-93c0 -4 -3 -8 -8 -8s-8 4 -8 8v92c-87 3 -157 50 -188 108c-1 2 -2 4 -2 7c0 4 4 7 8 7c3 0 6 -1 8 -5c30 -55 96 -100 179 -100z" />
<glyph horiz-adv-x="502" d="M289 -13v-93c0 -4 -3 -8 -8 -8s-8 4 -8 8v93c-132 4 -221 88 -221 283c0 187 87 273 221 282v78c0 4 3 8 8 8s8 -4 8 -8v-78c112 -3 163 -63 171 -74c2 -3 3 -5 3 -8c0 -4 -3 -7 -7 -7c-3 0 -6 1 -9 5c-28 33 -84 68 -161 68c-136 0 -216 -92 -216 -266 c0 -186 82 -267 216 -267c77 0 132 35 164 74c3 4 5 5 8 5c4 0 8 -3 8 -7c0 -3 -1 -5 -3 -8c-13 -17 -62 -76 -174 -80z" />
<glyph horiz-adv-x="501" d="M288 279h-152c17 -35 32 -73 32 -120c0 -41 -23 -99 -54 -128c21 9 43 14 68 14c78 0 120 -44 178 -44c49 0 70 14 94 50c3 4 5 5 8 5c4 0 8 -3 8 -7c0 -3 -1 -5 -3 -8c-25 -35 -50 -57 -107 -57c-67 0 -105 45 -177 45c-59 0 -93 -26 -104 -34c-4 -3 -7 -6 -11 -6 s-8 4 -8 8s3 6 6 8c47 31 84 94 84 153c0 49 -15 86 -33 121h-58c-5 0 -8 4 -8 8s3 8 8 8h49c-22 38 -44 80 -44 132c0 81 62 159 182 159c105 0 166 -48 188 -115c1 -3 2 -6 2 -8c0 -4 -3 -8 -8 -8c-3 0 -7 2 -8 6c-21 60 -72 109 -174 109c-106 0 -164 -69 -164 -143 c0 -51 23 -91 46 -132h160c5 0 8 -4 8 -8s-3 -8 -8 -8z" />
<glyph horiz-adv-x="482" d="M241 323l200 250c2 3 4 5 8 5c5 0 9 -4 9 -9c0 -1 0 -3 -2 -6l-198 -245h139c5 0 8 -4 8 -8s-3 -8 -8 -8h-147v-62h147c5 0 8 -4 8 -8s-3 -8 -8 -8h-147v-223c0 -5 -4 -9 -9 -9s-9 4 -9 9v223h-147c-5 0 -8 4 -8 8s3 8 8 8h147v62h-147c-5 0 -8 4 -8 8s3 8 8 8h138 l-197 245c-2 3 -2 5 -2 6c0 5 4 9 9 9c4 0 6 -2 8 -5z" />
<glyph horiz-adv-x="410" d="M170 382l-80 -415c-23 -118 -54 -168 -143 -168c-22 0 -48 7 -61 13c-5 2 -7 4 -7 8s3 8 7 8c2 0 6 -2 12 -4c16 -5 31 -9 56 -9c54 -1 94 29 117 148l80 419h-77c-5 0 -8 4 -8 8s3 8 8 8h80l23 114c23 118 54 168 143 168c22 0 48 -7 61 -13c5 -2 7 -4 7 -8s-3 -8 -7 -8 c-2 0 -6 2 -12 4c-16 5 -31 9 -56 9c-61 0 -95 -34 -117 -148l-23 -118h109c5 0 8 -4 8 -8s-3 -8 -8 -8h-112z" />
<glyph horiz-adv-x="550" d="M257 224h-176c18 -151 100 -221 224 -221c81 0 139 35 172 77c3 4 5 6 9 6s8 -3 8 -7c0 -3 -1 -5 -3 -8c-14 -18 -68 -84 -186 -84c-135 0 -224 76 -242 237h-32c-5 0 -8 4 -8 8s3 8 8 8h31s-2 19 -2 49c0 23 2 45 2 45h-31c-5 0 -8 4 -8 8s3 8 8 8h32 c17 155 106 235 242 235c119 0 175 -65 183 -77c2 -3 3 -5 3 -8c0 -4 -3 -7 -7 -7s-6 1 -9 5c-29 35 -80 71 -170 71c-127 0 -207 -76 -224 -219h176c5 0 8 -4 8 -8s-3 -8 -8 -8h-177s-2 -23 -2 -45c0 -26 2 -49 2 -49h177c5 0 8 -4 8 -8s-3 -8 -8 -8z" />
<glyph horiz-adv-x="555" d="M509 211c0 -62 -25 -125 -77 -168c9 -22 16 -47 16 -76c0 -78 -44 -147 -127 -147c-22 0 -43 5 -60 16c-3 2 -5 5 -5 8c0 4 3 8 8 8c4 0 7 -2 9 -3c13 -8 32 -13 47 -13c68 0 110 58 110 131c0 22 -5 45 -14 64c-46 -29 -99 -45 -160 -45c-118 0 -211 64 -211 185 c0 84 43 138 131 191c-26 48 -56 106 -56 186c0 78 48 139 130 139c71 0 119 -46 119 -123c0 -89 -70 -147 -170 -208c59 -100 171 -185 225 -297c49 39 68 109 68 152c0 66 -39 120 -93 151c-4 2 -6 4 -6 8s3 7 7 7c2 0 3 0 8 -3c61 -35 101 -93 101 -163zM138 548 c0 -70 24 -125 53 -177c99 58 160 116 160 193c0 67 -44 107 -101 107c-69 0 -112 -52 -112 -123zM256 2c68 0 122 23 154 45c-52 114 -151 178 -226 300c-85 -50 -121 -105 -121 -176c0 -110 83 -169 193 -169z" />
<glyph unicode="&#xb1;" horiz-adv-x="444" d="M230 525v-211h206c5 0 8 -4 8 -8s-3 -8 -8 -8h-206v-210c0 -5 -4 -8 -8 -8s-8 3 -8 8v210h-206c-5 0 -8 4 -8 8s3 8 8 8h206v211c0 5 4 8 8 8s8 -3 8 -8zM8 16h428c5 0 8 -4 8 -8s-3 -8 -8 -8h-428c-5 0 -8 4 -8 8s3 8 8 8z" />
<glyph unicode="&#x2264;" horiz-adv-x="344" d="M16 16h312c5 0 8 -4 8 -8s-3 -8 -8 -8h-312c-5 0 -8 4 -8 8s3 8 8 8zM30 287l302 -183c3 -2 4 -4 4 -7c0 -4 -3 -8 -8 -8c-2 0 -3 0 -6 2l-308 188c-4 2 -6 5 -6 8s2 6 6 8l308 188c3 2 4 2 6 2c5 0 8 -4 8 -8c0 -3 -1 -5 -4 -7z" />
<glyph unicode="&#x2265;" horiz-adv-x="344" d="M16 16h312c5 0 8 -4 8 -8s-3 -8 -8 -8h-312c-5 0 -8 4 -8 8s3 8 8 8zM12 104l302 183l-302 183c-3 2 -4 4 -4 7c0 4 3 8 8 8c2 0 3 0 6 -2l308 -188c4 -2 6 -5 6 -8s-2 -6 -6 -8l-308 -188c-3 -2 -4 -2 -6 -2c-5 0 -8 4 -8 8c0 3 1 5 4 7z" />
<glyph unicode="&#xfb06;" horiz-adv-x="643" d="M196 452c-75 0 -126 -31 -126 -96c0 -137 288 -84 288 -245c0 -88 -67 -124 -160 -124c-83 0 -137 39 -164 68c-2 2 -3 4 -3 6c0 3 2 8 8 8c3 0 5 -2 7 -4c33 -34 81 -62 152 -62c84 0 142 32 142 108c0 147 -288 93 -288 245c0 76 62 112 144 112c35 0 66 -8 92 -21 c-31 31 -59 74 -59 123c0 55 31 117 128 117c90 0 141 -56 141 -159v-74h90c4 0 8 -4 8 -8s-4 -8 -8 -8h-90v-328c0 -65 21 -102 82 -102c5 0 8 -4 8 -8s-3 -8 -8 -8c-73 0 -100 50 -100 118v328h-62c-4 0 -8 4 -8 8s4 8 8 8h62v74c0 87 -37 142 -125 142 c-81 0 -111 -53 -111 -100c0 -68 48 -119 96 -167c3 -3 3 -5 3 -7c0 -4 -4 -8 -8 -8c-3 0 -5 1 -7 4c-25 37 -74 60 -132 60z" />
<glyph horiz-adv-x="732" d="M591 681c52 0 93 -41 93 -92c0 -90 -109 -123 -185 -123c-8 0 -19 1 -19 1s2 -19 2 -45c0 -157 -125 -283 -214 -321c-4 -2 -6 -6 -6 -11s5 -10 11 -10c3 0 6 1 9 2c100 42 182 132 219 248c54 0 102 -38 102 -115c0 -119 -110 -223 -294 -223c-141 0 -261 72 -261 211 c0 45 20 71 59 71c31 0 43 -18 43 -45c0 -36 -36 -39 -36 -67c0 -24 24 -47 49 -47c28 0 52 25 52 54c0 42 -36 100 -36 163c0 68 51 110 111 110c51 0 98 -23 129 -78c4 11 8 33 8 68c0 24 -2 41 -2 41c-81 15 -194 74 -229 158c-41 -3 -72 -28 -72 -65 c0 -31 21 -48 53 -48c16 0 28 -12 28 -28c0 -15 -12 -28 -28 -28c-55 0 -109 36 -109 104c0 80 74 121 153 121c102 0 208 -68 249 -167c7 -1 17 -2 29 -2c79 0 129 35 129 71c0 20 -16 36 -37 36c-20 0 -36 -16 -36 -36c0 -15 -13 -27 -27 -27c-15 0 -27 12 -27 27 c0 50 37 92 90 92zM252 634c41 -60 88 -82 153 -103c-28 45 -85 95 -153 103z" />
<glyph unicode="&#xbc;" horiz-adv-x="469" d="M365 664l-258 -665c-2 -5 -5 -7 -9 -7c-5 0 -9 4 -9 9c0 3 1 5 2 8l258 665c2 5 5 7 9 7c5 0 9 -4 9 -9c0 -3 -1 -5 -2 -8zM135 676v-289c0 -5 -4 -8 -8 -8s-8 3 -8 8v275l-63 -42c-3 -2 -5 -3 -7 -3c-4 0 -7 4 -7 7c0 2 1 5 4 7l74 50c2 1 4 3 7 3c4 0 8 -4 8 -8z M236 82h132v184zM384 82h31c4 0 7 -3 7 -7s-3 -7 -7 -7h-31v-68c0 -5 -4 -8 -8 -8s-8 3 -8 8v68h-146c-4 0 -7 3 -7 7c0 3 2 5 4 8l149 208c2 3 4 6 8 6c5 0 8 -4 8 -8v-207z" />
<glyph horiz-adv-x="407" d="M58 -71l274 825c2 6 6 7 9 7c5 0 9 -4 9 -9c0 -2 -1 -5 -2 -8l-274 -825c-2 -6 -6 -7 -9 -7c-5 0 -9 4 -9 9c0 2 1 5 2 8z" />
<glyph horiz-adv-x="408" d="M75 754l274 -825c1 -3 2 -6 2 -8c0 -5 -4 -9 -9 -9c-3 0 -7 1 -9 7l-274 825c-1 3 -2 6 -2 8c0 5 4 9 9 9c3 0 7 -1 9 -7z" />
<glyph horiz-adv-x="218" d="M118 812v-950c0 -5 -4 -9 -9 -9s-9 4 -9 9v950c0 5 4 9 9 9s9 -4 9 -9z" />
<glyph unicode="&#x106;" horiz-adv-x="629" d="M350 -14c-193 0 -301 114 -301 350c0 237 108 351 301 351c95 0 177 -39 222 -102c2 -3 2 -5 2 -6c0 -5 -4 -9 -9 -9c-3 0 -6 1 -8 4c-38 56 -120 97 -207 97c-185 0 -283 -113 -283 -335c0 -221 98 -334 283 -334c87 0 174 40 212 97c2 3 5 4 8 4c5 0 9 -4 9 -9 c0 -1 0 -3 -2 -6c-45 -63 -132 -102 -227 -102zM427 858c6 -5 5 -11 0 -16l-106 -114c-3 -3 -6 -4 -10 -1c-3 3 -3 7 0 10l101 119c4 5 9 7 15 2z" />
<glyph unicode="&#x107;" horiz-adv-x="443" d="M244 452c-120 0 -181 -72 -181 -225c0 -152 61 -224 181 -224c69 0 113 31 137 50c3 2 4 3 7 3c5 0 8 -4 8 -8c0 -2 -1 -5 -5 -8c-14 -11 -66 -53 -147 -53c-128 0 -199 76 -199 240s71 241 199 241c81 0 125 -36 141 -54c3 -3 4 -5 4 -7c0 -4 -3 -8 -8 -8 c-3 0 -5 1 -7 3c-25 25 -61 50 -130 50zM301 655c6 -5 5 -11 0 -16l-106 -114c-3 -3 -6 -4 -10 -1c-3 3 -3 7 0 10l101 119c4 5 9 7 15 2z" />
<glyph unicode="&#x108;" horiz-adv-x="629" d="M350 -14c-193 0 -301 114 -301 350c0 237 108 351 301 351c95 0 177 -39 222 -102c2 -3 2 -5 2 -6c0 -5 -4 -9 -9 -9c-3 0 -6 1 -8 4c-38 56 -120 97 -207 97c-185 0 -283 -113 -283 -335c0 -221 98 -334 283 -334c87 0 174 40 212 97c2 3 5 4 8 4c5 0 9 -4 9 -9 c0 -1 0 -3 -2 -6c-45 -63 -132 -102 -227 -102zM445 745l-100 80l-100 -80c-2 -2 -4 -3 -7 -3c-4 0 -8 4 -8 8c0 3 1 5 5 8l101 80c4 3 6 4 9 4s5 -1 9 -4l101 -80c4 -3 5 -5 5 -8c0 -4 -4 -8 -8 -8c-3 0 -5 1 -7 3z" />
<glyph unicode="&#x109;" horiz-adv-x="443" d="M244 452c-120 0 -181 -72 -181 -225c0 -152 61 -224 181 -224c69 0 113 31 137 50c3 2 4 3 7 3c5 0 8 -4 8 -8c0 -2 -1 -5 -5 -8c-14 -11 -66 -53 -147 -53c-128 0 -199 76 -199 240s71 241 199 241c81 0 125 -36 141 -54c3 -3 4 -5 4 -7c0 -4 -3 -8 -8 -8 c-3 0 -5 1 -7 3c-25 25 -61 50 -130 50zM345 553l-100 80l-100 -80c-2 -2 -4 -3 -7 -3c-4 0 -8 4 -8 8c0 3 1 5 5 8l101 80c4 3 6 4 9 4s5 -1 9 -4l101 -80c4 -3 5 -5 5 -8c0 -4 -4 -8 -8 -8c-3 0 -5 1 -7 3z" />
<glyph unicode="&#x10a;" horiz-adv-x="629" d="M350 -14c-193 0 -301 114 -301 350c0 237 108 351 301 351c95 0 177 -39 222 -102c2 -3 2 -5 2 -6c0 -5 -4 -9 -9 -9c-3 0 -6 1 -8 4c-38 56 -120 97 -207 97c-185 0 -283 -113 -283 -335c0 -221 98 -334 283 -334c87 0 174 40 212 97c2 3 5 4 8 4c5 0 9 -4 9 -9 c0 -1 0 -3 -2 -6c-45 -63 -132 -102 -227 -102zM347 754c-11 0 -18 6 -18 18s7 18 18 18s18 -6 18 -18s-7 -18 -18 -18z" />
<glyph unicode="&#x10b;" horiz-adv-x="443" d="M244 452c-120 0 -181 -72 -181 -225c0 -152 61 -224 181 -224c69 0 113 31 137 50c3 2 4 3 7 3c5 0 8 -4 8 -8c0 -2 -1 -5 -5 -8c-14 -11 -66 -53 -147 -53c-128 0 -199 76 -199 240s71 241 199 241c81 0 125 -36 141 -54c3 -3 4 -5 4 -7c0 -4 -3 -8 -8 -8 c-3 0 -5 1 -7 3c-25 25 -61 50 -130 50zM243 553c-11 0 -18 6 -18 18s7 18 18 18s18 -6 18 -18s-7 -18 -18 -18z" />
<glyph unicode="&#x10c;" horiz-adv-x="629" d="M350 -14c-193 0 -301 114 -301 350c0 237 108 351 301 351c95 0 177 -39 222 -102c2 -3 2 -5 2 -6c0 -5 -4 -9 -9 -9c-3 0 -6 1 -8 4c-38 56 -120 97 -207 97c-185 0 -283 -113 -283 -335c0 -221 98 -334 283 -334c87 0 174 40 212 97c2 3 5 4 8 4c5 0 9 -4 9 -9 c0 -1 0 -3 -2 -6c-45 -63 -132 -102 -227 -102zM347 759l100 80c2 2 4 3 7 3c4 0 8 -4 8 -8c0 -3 -1 -5 -5 -8l-101 -80c-4 -3 -6 -4 -9 -4s-5 1 -9 4l-101 80c-4 3 -5 5 -5 8c0 4 4 8 8 8c3 0 5 -1 7 -3z" />
<glyph unicode="&#x10d;" horiz-adv-x="443" d="M244 452c-120 0 -181 -72 -181 -225c0 -152 61 -224 181 -224c69 0 113 31 137 50c3 2 4 3 7 3c5 0 8 -4 8 -8c0 -2 -1 -5 -5 -8c-14 -11 -66 -53 -147 -53c-128 0 -199 76 -199 240s71 241 199 241c81 0 125 -36 141 -54c3 -3 4 -5 4 -7c0 -4 -3 -8 -8 -8 c-3 0 -5 1 -7 3c-25 25 -61 50 -130 50zM241 567l100 80c2 2 4 3 7 3c4 0 8 -4 8 -8c0 -3 -1 -5 -5 -8l-101 -80c-4 -3 -6 -4 -9 -4s-5 1 -9 4l-101 80c-4 3 -5 5 -5 8c0 4 4 8 8 8c3 0 5 -1 7 -3z" />
<glyph unicode="&#x10e;" horiz-adv-x="603" d="M113 657v-641h138c179 0 285 85 285 320c0 233 -106 321 -285 321h-138zM251 0h-147c-5 0 -9 4 -9 9v655c0 5 4 9 9 9h147c191 0 303 -90 303 -337s-112 -336 -303 -336zM274 759l100 80c2 2 4 3 7 3c4 0 8 -4 8 -8c0 -3 -1 -5 -5 -8l-101 -80c-4 -3 -6 -4 -9 -4 s-5 1 -9 4l-101 80c-4 3 -5 5 -5 8c0 4 4 8 8 8c3 0 5 -1 7 -3z" />
<glyph unicode="&#x10f;" horiz-adv-x="507" d="M515 689c0 -37 -8 -69 -24 -98c-2 -3 -4 -4 -7 -4s-6 3 -6 6s1 5 2 8c7 18 10 34 10 44c0 20 -9 27 -9 47c0 13 6 20 17 20c13 0 17 -10 17 -23zM407 181v154s-41 117 -172 117c-115 0 -172 -76 -172 -224c0 -150 57 -225 172 -225c103 0 172 61 172 178zM425 703v-522 c0 -130 -78 -194 -190 -194c-128 0 -190 77 -190 241s62 240 190 240s172 -100 172 -100v335c0 5 4 9 9 9s9 -4 9 -9z" />
<glyph unicode="&#x112;" d="M113 331v-315h344c5 0 8 -4 8 -8s-3 -8 -8 -8h-354c-5 0 -8 4 -8 9v655c0 5 3 9 8 9h342c5 0 8 -4 8 -8s-3 -8 -8 -8h-332v-310h261c5 0 8 -4 8 -8s-3 -8 -8 -8h-261zM383 755h-210c-5 0 -8 4 -8 8s3 8 8 8h210c5 0 8 -4 8 -8s-3 -8 -8 -8z" />
<glyph unicode="&#x113;" horiz-adv-x="466" d="M45 228c0 164 71 240 199 240c166 0 183 -124 183 -191c0 -12 -1 -27 -3 -39c-2 -10 -7 -12 -16 -12h-345c0 -151 61 -223 181 -223c78 0 123 28 152 49c3 2 5 4 8 4c4 0 8 -3 8 -8c0 -3 -1 -4 -3 -6c-26 -21 -78 -55 -165 -55c-128 0 -199 76 -199 241zM410 277 c0 80 -28 175 -166 175c-120 0 -180 -75 -180 -210h345s1 27 1 35zM348 559h-210c-5 0 -8 4 -8 8s3 8 8 8h210c5 0 8 -4 8 -8s-3 -8 -8 -8z" />
<glyph unicode="&#x114;" d="M113 331v-315h344c5 0 8 -4 8 -8s-3 -8 -8 -8h-354c-5 0 -8 4 -8 9v655c0 5 3 9 8 9h342c5 0 8 -4 8 -8s-3 -8 -8 -8h-332v-310h261c5 0 8 -4 8 -8s-3 -8 -8 -8h-261zM280 738c-55 0 -101 20 -101 87c0 4 3 8 8 8s8 -4 8 -8c0 -56 33 -72 85 -72s85 16 85 72c0 4 3 8 8 8 s8 -4 8 -8c0 -67 -46 -87 -101 -87z" />
<glyph unicode="&#x115;" horiz-adv-x="466" d="M45 228c0 164 71 240 199 240c166 0 183 -124 183 -191c0 -12 -1 -27 -3 -39c-2 -10 -7 -12 -16 -12h-345c0 -151 61 -223 181 -223c78 0 123 28 152 49c3 2 5 4 8 4c4 0 8 -3 8 -8c0 -3 -1 -4 -3 -6c-26 -21 -78 -55 -165 -55c-128 0 -199 76 -199 241zM410 277 c0 80 -28 175 -166 175c-120 0 -180 -75 -180 -210h345s1 27 1 35zM242 537c-55 0 -101 20 -101 87c0 4 3 8 8 8s8 -4 8 -8c0 -56 33 -72 85 -72s85 16 85 72c0 4 3 8 8 8s8 -4 8 -8c0 -67 -46 -87 -101 -87z" />
<glyph unicode="&#x116;" d="M113 331v-315h344c5 0 8 -4 8 -8s-3 -8 -8 -8h-354c-5 0 -8 4 -8 9v655c0 5 3 9 8 9h342c5 0 8 -4 8 -8s-3 -8 -8 -8h-332v-310h261c5 0 8 -4 8 -8s-3 -8 -8 -8h-261zM277 754c-11 0 -18 6 -18 18s7 18 18 18s18 -6 18 -18s-7 -18 -18 -18z" />
<glyph unicode="&#x117;" horiz-adv-x="466" d="M45 228c0 164 71 240 199 240c166 0 183 -124 183 -191c0 -12 -1 -27 -3 -39c-2 -10 -7 -12 -16 -12h-345c0 -151 61 -223 181 -223c78 0 123 28 152 49c3 2 5 4 8 4c4 0 8 -3 8 -8c0 -3 -1 -4 -3 -6c-26 -21 -78 -55 -165 -55c-128 0 -199 76 -199 241zM410 277 c0 80 -28 175 -166 175c-120 0 -180 -75 -180 -210h345s1 27 1 35zM244 553c-11 0 -18 6 -18 18s7 18 18 18s18 -6 18 -18s-7 -18 -18 -18z" />
<glyph unicode="&#x11a;" d="M113 331v-315h344c5 0 8 -4 8 -8s-3 -8 -8 -8h-354c-5 0 -8 4 -8 9v655c0 5 3 9 8 9h342c5 0 8 -4 8 -8s-3 -8 -8 -8h-332v-310h261c5 0 8 -4 8 -8s-3 -8 -8 -8h-261zM277 759l100 80c2 2 4 3 7 3c4 0 8 -4 8 -8c0 -3 -1 -5 -5 -8l-101 -80c-4 -3 -6 -4 -9 -4s-5 1 -9 4 l-101 80c-4 3 -5 5 -5 8c0 4 4 8 8 8c3 0 5 -1 7 -3z" />
<glyph unicode="&#x11b;" horiz-adv-x="466" d="M45 228c0 164 71 240 199 240c166 0 183 -124 183 -191c0 -12 -1 -27 -3 -39c-2 -10 -7 -12 -16 -12h-345c0 -151 61 -223 181 -223c78 0 123 28 152 49c3 2 5 4 8 4c4 0 8 -3 8 -8c0 -3 -1 -4 -3 -6c-26 -21 -78 -55 -165 -55c-128 0 -199 76 -199 241zM410 277 c0 80 -28 175 -166 175c-120 0 -180 -75 -180 -210h345s1 27 1 35zM254 567l100 80c2 2 4 3 7 3c4 0 8 -4 8 -8c0 -3 -1 -5 -5 -8l-101 -80c-4 -3 -6 -4 -9 -4s-5 1 -9 4l-101 80c-4 3 -5 5 -5 8c0 4 4 8 8 8c3 0 5 -1 7 -3z" />
<glyph unicode="&#x11d;" horiz-adv-x="466" d="M62 306c0 99 60 162 172 162c47 0 85 -12 113 -32c15 42 44 61 92 61c4 0 8 -4 8 -8s-4 -8 -8 -8c-44 0 -67 -16 -80 -55c31 -28 47 -70 47 -120c0 -99 -60 -162 -172 -162c-45 0 -82 10 -110 29c-36 -12 -45 -31 -45 -57c0 -37 19 -57 72 -57h129c99 0 170 -35 170 -123 c0 -94 -83 -137 -204 -137c-102 0 -202 35 -202 133c0 60 51 104 92 113c-33 3 -74 18 -74 71c0 29 16 54 49 67c-33 28 -49 70 -49 123zM388 306c0 85 -50 146 -154 146s-154 -61 -154 -146s50 -146 154 -146s154 61 154 146zM432 -64c0 75 -60 107 -152 107h-99 c-74 -10 -119 -55 -119 -111c0 -87 88 -117 185 -117c106 0 185 36 185 121zM341 553l-100 80l-100 -80c-2 -2 -4 -3 -7 -3c-4 0 -8 4 -8 8c0 3 1 5 5 8l101 80c4 3 6 4 9 4s5 -1 9 -4l101 -80c4 -3 5 -5 5 -8c0 -4 -4 -8 -8 -8c-3 0 -5 1 -7 3z" />
<glyph unicode="&#x11e;" horiz-adv-x="670" d="M350 -14c-193 0 -301 114 -301 350c0 237 108 351 301 351c95 0 177 -39 222 -102c2 -3 2 -5 2 -6c0 -5 -4 -9 -9 -9c-3 0 -6 1 -8 4c-38 56 -120 97 -207 97c-185 0 -283 -113 -283 -335c0 -221 98 -334 283 -334c95 0 183 47 222 109v183h-196c-5 0 -8 4 -8 8s3 8 8 8 h200c7 0 14 -6 14 -13v-180c0 -8 -3 -14 -8 -21c-48 -65 -134 -110 -232 -110zM349 738c-55 0 -101 20 -101 87c0 4 3 8 8 8s8 -4 8 -8c0 -56 33 -72 85 -72s85 16 85 72c0 4 3 8 8 8s8 -4 8 -8c0 -67 -46 -87 -101 -87z" />
<glyph unicode="&#x11f;" horiz-adv-x="466" d="M62 306c0 99 60 162 172 162c47 0 85 -12 113 -32c15 42 44 61 92 61c4 0 8 -4 8 -8s-4 -8 -8 -8c-44 0 -67 -16 -80 -55c31 -28 47 -70 47 -120c0 -99 -60 -162 -172 -162c-45 0 -82 10 -110 29c-36 -12 -45 -31 -45 -57c0 -37 19 -57 72 -57h129c99 0 170 -35 170 -123 c0 -94 -83 -137 -204 -137c-102 0 -202 35 -202 133c0 60 51 104 92 113c-33 3 -74 18 -74 71c0 29 16 54 49 67c-33 28 -49 70 -49 123zM388 306c0 85 -50 146 -154 146s-154 -61 -154 -146s50 -146 154 -146s154 61 154 146zM432 -64c0 75 -60 107 -152 107h-99 c-74 -10 -119 -55 -119 -111c0 -87 88 -117 185 -117c106 0 185 36 185 121zM237 537c-55 0 -101 20 -101 87c0 4 3 8 8 8s8 -4 8 -8c0 -56 33 -72 85 -72s85 16 85 72c0 4 3 8 8 8s8 -4 8 -8c0 -67 -46 -87 -101 -87z" />
<glyph unicode="&#x120;" horiz-adv-x="670" d="M350 -14c-193 0 -301 114 -301 350c0 237 108 351 301 351c95 0 177 -39 222 -102c2 -3 2 -5 2 -6c0 -5 -4 -9 -9 -9c-3 0 -6 1 -8 4c-38 56 -120 97 -207 97c-185 0 -283 -113 -283 -335c0 -221 98 -334 283 -334c95 0 183 47 222 109v183h-196c-5 0 -8 4 -8 8s3 8 8 8 h200c7 0 14 -6 14 -13v-180c0 -8 -3 -14 -8 -21c-48 -65 -134 -110 -232 -110zM347 754c-11 0 -18 6 -18 18s7 18 18 18s18 -6 18 -18s-7 -18 -18 -18z" />
<glyph unicode="&#x121;" horiz-adv-x="466" d="M62 306c0 99 60 162 172 162c47 0 85 -12 113 -32c15 42 44 61 92 61c4 0 8 -4 8 -8s-4 -8 -8 -8c-44 0 -67 -16 -80 -55c31 -28 47 -70 47 -120c0 -99 -60 -162 -172 -162c-45 0 -82 10 -110 29c-36 -12 -45 -31 -45 -57c0 -37 19 -57 72 -57h129c99 0 170 -35 170 -123 c0 -94 -83 -137 -204 -137c-102 0 -202 35 -202 133c0 60 51 104 92 113c-33 3 -74 18 -74 71c0 29 16 54 49 67c-33 28 -49 70 -49 123zM388 306c0 85 -50 146 -154 146s-154 -61 -154 -146s50 -146 154 -146s154 61 154 146zM432 -64c0 75 -60 107 -152 107h-99 c-74 -10 -119 -55 -119 -111c0 -87 88 -117 185 -117c106 0 185 36 185 121zM233 553c-11 0 -18 6 -18 18s7 18 18 18s18 -6 18 -18s-7 -18 -18 -18z" />
<glyph unicode="&#xf6c3;" horiz-adv-x="141" d="M90 -67c0 -37 -8 -69 -24 -98c-2 -3 -4 -4 -7 -4s-6 3 -6 6s1 5 2 8c7 18 10 34 10 44c0 20 -9 27 -9 47c0 13 6 20 17 20c13 0 17 -10 17 -23z" />
<glyph unicode="&#x122;" horiz-adv-x="670" d="M350 -14c-193 0 -301 114 -301 350c0 237 108 351 301 351c95 0 177 -39 222 -102c2 -3 2 -5 2 -6c0 -5 -4 -9 -9 -9c-3 0 -6 1 -8 4c-38 56 -120 97 -207 97c-185 0 -283 -113 -283 -335c0 -221 98 -334 283 -334c95 0 183 47 222 109v183h-196c-5 0 -8 4 -8 8s3 8 8 8 h200c7 0 14 -6 14 -13v-180c0 -8 -3 -14 -8 -21c-48 -65 -134 -110 -232 -110zM364 -67c0 -37 -8 -69 -24 -98c-2 -3 -4 -4 -7 -4s-6 3 -6 6s1 5 2 8c7 18 10 34 10 44c0 20 -9 27 -9 47c0 13 6 20 17 20c13 0 17 -10 17 -23z" />
<glyph unicode="&#x123;" horiz-adv-x="466" d="M62 306c0 99 60 162 172 162c47 0 85 -12 113 -32c15 42 44 61 92 61c4 0 8 -4 8 -8s-4 -8 -8 -8c-44 0 -67 -16 -80 -55c31 -28 47 -70 47 -120c0 -99 -60 -162 -172 -162c-45 0 -82 10 -110 29c-36 -12 -45 -31 -45 -57c0 -37 19 -57 72 -57h129c99 0 170 -35 170 -123 c0 -94 -83 -137 -204 -137c-102 0 -202 35 -202 133c0 60 51 104 92 113c-33 3 -74 18 -74 71c0 29 16 54 49 67c-33 28 -49 70 -49 123zM388 306c0 85 -50 146 -154 146s-154 -61 -154 -146s50 -146 154 -146s154 61 154 146zM432 -64c0 75 -60 107 -152 107h-99 c-74 -10 -119 -55 -119 -111c0 -87 88 -117 185 -117c106 0 185 36 185 121zM213 541c0 37 8 69 24 98c2 3 4 4 7 4s6 -3 6 -6s-1 -5 -2 -8c-7 -18 -10 -34 -10 -44c0 -20 9 -27 9 -47c0 -13 -6 -20 -17 -20c-13 0 -17 10 -17 23z" />
<glyph unicode="&#x124;" horiz-adv-x="640" d="M527 355v317c0 5 4 9 9 9s9 -4 9 -9v-671c0 -5 -4 -9 -9 -9s-9 4 -9 9v338h-414v-338c0 -5 -4 -9 -9 -9s-9 4 -9 9v671c0 5 4 9 9 9s9 -4 9 -9v-317h414zM422 745l-100 80l-100 -80c-2 -2 -4 -3 -7 -3c-4 0 -8 4 -8 8c0 3 1 5 5 8l101 80c4 3 6 4 9 4s5 -1 9 -4l101 -80 c4 -3 5 -5 5 -8c0 -4 -4 -8 -8 -8c-3 0 -5 1 -7 3z" />
<glyph unicode="&#x125;" horiz-adv-x="500" d="M98 703v-340c14 45 65 105 162 105c141 0 170 -85 170 -177v-290c0 -5 -4 -9 -9 -9s-9 4 -9 9v299c0 81 -30 151 -152 151c-109 0 -162 -79 -162 -155v-295c0 -5 -4 -9 -9 -9s-9 4 -9 9v702c0 5 4 9 9 9s9 -4 9 -9zM189 745l-100 80l-100 -80c-2 -2 -4 -3 -7 -3 c-4 0 -8 4 -8 8c0 3 1 5 5 8l101 80c4 3 6 4 9 4s5 -1 9 -4l101 -80c4 -3 5 -5 5 -8c0 -4 -4 -8 -8 -8c-3 0 -5 1 -7 3z" />
<glyph unicode="&#x128;" horiz-adv-x="208" d="M113 672v-671c0 -5 -4 -9 -9 -9s-9 4 -9 9v671c0 5 4 9 9 9s9 -4 9 -9zM174 756c28 0 41 12 52 34c3 6 5 8 10 8s8 -4 8 -8c0 -2 -1 -5 -2 -7c-10 -21 -29 -43 -68 -43c-55 0 -80 42 -128 42c-28 0 -41 -12 -52 -34c-3 -6 -5 -8 -10 -8s-8 4 -8 8c0 2 1 5 2 7 c10 21 29 43 68 43c55 0 79 -42 128 -42z" />
<glyph unicode="&#x12a;" horiz-adv-x="208" d="M113 672v-671c0 -5 -4 -9 -9 -9s-9 4 -9 9v671c0 5 4 9 9 9s9 -4 9 -9zM208 755h-210c-5 0 -8 4 -8 8s3 8 8 8h210c5 0 8 -4 8 -8s-3 -8 -8 -8z" />
<glyph unicode="&#x12c;" horiz-adv-x="208" d="M113 672v-671c0 -5 -4 -9 -9 -9s-9 4 -9 9v671c0 5 4 9 9 9s9 -4 9 -9zM104 738c-55 0 -101 20 -101 87c0 4 3 8 8 8s8 -4 8 -8c0 -56 33 -72 85 -72s85 16 85 72c0 4 3 8 8 8s8 -4 8 -8c0 -67 -46 -87 -101 -87z" />
<glyph unicode="&#x130;" horiz-adv-x="208" d="M113 672v-671c0 -5 -4 -9 -9 -9s-9 4 -9 9v671c0 5 4 9 9 9s9 -4 9 -9zM104 754c-11 0 -18 6 -18 18s7 18 18 18s18 -6 18 -18s-7 -18 -18 -18z" />
<glyph unicode="&#x134;" horiz-adv-x="398" d="M285 189v483c0 5 4 9 9 9s9 -4 9 -9v-483c0 -118 -36 -203 -168 -203c-37 0 -77 8 -103 22c-2 1 -5 3 -5 8c0 4 3 8 8 8c3 0 5 -1 11 -4c25 -12 58 -17 89 -17c119 0 150 76 150 186zM392 745l-100 80l-100 -80c-2 -2 -4 -3 -7 -3c-4 0 -8 4 -8 8c0 3 1 5 5 8l101 80 c4 3 6 4 9 4s5 -1 9 -4l101 -80c4 -3 5 -5 5 -8c0 -4 -4 -8 -8 -8c-3 0 -5 1 -7 3z" />
<glyph unicode="&#x136;" horiz-adv-x="541" d="M113 672v-406l357 412c3 3 5 3 7 3c5 0 9 -4 9 -9c0 -2 -1 -5 -3 -7l-238 -272l275 -386c2 -3 2 -5 2 -7c0 -3 -3 -8 -8 -8c-4 0 -6 1 -8 4l-273 383l-120 -139v-239c0 -5 -4 -9 -9 -9s-9 4 -9 9v671c0 5 4 9 9 9s9 -4 9 -9zM315 -67c0 -37 -8 -69 -24 -98 c-2 -3 -4 -4 -7 -4s-6 3 -6 6s1 5 2 8c7 18 10 34 10 44c0 20 -9 27 -9 47c0 13 6 20 17 20c13 0 17 -10 17 -23z" />
<glyph unicode="&#x137;" horiz-adv-x="434" d="M180 261l-82 -68v-192c0 -5 -4 -9 -9 -9s-9 4 -9 9v702c0 5 4 9 9 9s9 -4 9 -9v-487l290 243c2 2 4 3 7 3c5 0 9 -4 9 -9c0 -2 -1 -5 -4 -7l-206 -173l215 -264c3 -3 4 -6 4 -8c0 -5 -4 -9 -9 -9c-2 0 -5 0 -8 4zM254 -67c0 -37 -8 -69 -24 -98c-2 -3 -4 -4 -7 -4 s-6 3 -6 6s1 5 2 8c7 18 10 34 10 44c0 20 -9 27 -9 47c0 13 6 20 17 20c13 0 17 -10 17 -23z" />
<glyph unicode="&#x138;" horiz-adv-x="434" d="M180 261l-82 -68v-192c0 -5 -4 -9 -9 -9s-9 4 -9 9v452c0 5 4 9 9 9s9 -4 9 -9v-237l290 243c2 2 4 3 7 3c5 0 9 -4 9 -9c0 -2 -1 -5 -4 -7l-206 -173l215 -264c3 -3 4 -6 4 -8c0 -5 -4 -9 -9 -9c-2 0 -5 0 -8 4z" />
<glyph unicode="&#x139;" horiz-adv-x="468" d="M113 672v-656h319c5 0 8 -4 8 -8s-3 -8 -8 -8h-329c-5 0 -8 4 -8 9v663c0 5 4 9 9 9s9 -4 9 -9zM197 858c6 -5 5 -11 0 -16l-106 -114c-3 -3 -6 -4 -10 -1c-3 3 -3 7 0 10l101 119c4 5 9 7 15 2z" />
<glyph unicode="&#x13a;" horiz-adv-x="198" d="M158 -8c-68 0 -83 45 -83 108v603c0 5 4 9 9 9s9 -4 9 -9v-603c0 -55 10 -92 65 -92c5 0 8 -4 8 -8s-3 -8 -8 -8zM177 868c6 -5 5 -11 0 -16l-106 -114c-3 -3 -6 -4 -10 -1c-3 3 -3 7 0 10l101 119c4 5 9 7 15 2z" />
<glyph unicode="&#x13c;" horiz-adv-x="198" d="M158 -8c-68 0 -83 45 -83 108v603c0 5 4 9 9 9s9 -4 9 -9v-603c0 -55 10 -92 65 -92c5 0 8 -4 8 -8s-3 -8 -8 -8zM144 -67c0 -37 -8 -69 -24 -98c-2 -3 -4 -4 -7 -4s-6 3 -6 6s1 5 2 8c7 18 10 34 10 44c0 20 -9 27 -9 47c0 13 6 20 17 20c13 0 17 -10 17 -23z" />
<glyph unicode="&#x13f;" horiz-adv-x="468" d="M113 672v-656h319c5 0 8 -4 8 -8s-3 -8 -8 -8h-329c-5 0 -8 4 -8 9v663c0 5 4 9 9 9s9 -4 9 -9zM382 325c-11 0 -17 6 -17 19s6 20 17 20s17 -7 17 -20s-6 -19 -17 -19z" />
<glyph unicode="&#x140;" horiz-adv-x="233" d="M158 -8c-68 0 -83 45 -83 108v603c0 5 4 9 9 9s9 -4 9 -9v-603c0 -55 10 -92 65 -92c5 0 8 -4 8 -8s-3 -8 -8 -8zM196 356c-11 0 -17 6 -17 19s6 20 17 20s17 -7 17 -20s-6 -19 -17 -19z" />
<glyph unicode="&#x143;" horiz-adv-x="619" d="M516 32v640c0 5 4 9 9 9s9 -4 9 -9v-671c0 -5 -4 -9 -9 -9c-4 0 -7 2 -9 5l-413 644v-640c0 -5 -4 -9 -9 -9s-9 4 -9 9v671c0 5 4 9 9 9c4 0 6 -2 8 -5zM389 858c6 -5 5 -11 0 -16l-106 -114c-3 -3 -6 -4 -10 -1c-3 3 -3 7 0 10l101 119c4 5 9 7 15 2z" />
<glyph unicode="&#x14a;" horiz-adv-x="619" d="M366 -179c112 0 150 71 150 176l-413 644v-640c0 -5 -4 -9 -9 -9s-9 4 -9 9v671c0 5 4 9 9 9c4 0 6 -2 8 -5l414 -644v640c0 5 4 9 9 9s9 -4 9 -9v-671c0 -115 -38 -198 -168 -198c-5 0 -9 4 -9 9s4 9 9 9z" />
<glyph unicode="&#x14b;" horiz-adv-x="500" d="M303 -185c68 0 109 54 109 127v358c0 81 -30 151 -152 151c-109 0 -162 -79 -162 -155v-295c0 -5 -4 -9 -9 -9s-9 4 -9 9v452c0 5 4 9 9 9s9 -4 9 -9v-90c14 46 65 105 162 105c141 0 170 -85 170 -177v-349c0 -80 -46 -143 -127 -143c-5 0 -8 4 -8 8s3 8 8 8z" />
<glyph unicode="&#x14c;" horiz-adv-x="700" d="M350 2c185 0 283 113 283 334c0 222 -98 335 -283 335s-283 -113 -283 -335c0 -221 98 -334 283 -334zM350 687c193 0 301 -114 301 -351c0 -236 -108 -350 -301 -350s-301 114 -301 350c0 237 108 351 301 351zM460 755h-210c-5 0 -8 4 -8 8s3 8 8 8h210c5 0 8 -4 8 -8 s-3 -8 -8 -8z" />
<glyph unicode="&#x14d;" horiz-adv-x="488" d="M244 3c120 0 181 72 181 224c0 153 -61 225 -181 225s-181 -72 -181 -225c0 -152 61 -224 181 -224zM244 -13c-128 0 -199 76 -199 240c0 165 71 241 199 241s199 -76 199 -241c0 -164 -71 -240 -199 -240zM350 559h-210c-5 0 -8 4 -8 8s3 8 8 8h210c5 0 8 -4 8 -8 s-3 -8 -8 -8z" />
<glyph unicode="&#x14e;" horiz-adv-x="700" d="M350 2c185 0 283 113 283 334c0 222 -98 335 -283 335s-283 -113 -283 -335c0 -221 98 -334 283 -334zM350 687c193 0 301 -114 301 -351c0 -236 -108 -350 -301 -350s-301 114 -301 350c0 237 108 351 301 351zM355 738c-55 0 -101 20 -101 87c0 4 3 8 8 8s8 -4 8 -8 c0 -56 33 -72 85 -72s85 16 85 72c0 4 3 8 8 8s8 -4 8 -8c0 -67 -46 -87 -101 -87z" />
<glyph unicode="&#x14f;" horiz-adv-x="488" d="M244 3c120 0 181 72 181 224c0 153 -61 225 -181 225s-181 -72 -181 -225c0 -152 61 -224 181 -224zM244 -13c-128 0 -199 76 -199 240c0 165 71 241 199 241s199 -76 199 -241c0 -164 -71 -240 -199 -240zM244 537c-55 0 -101 20 -101 87c0 4 3 8 8 8s8 -4 8 -8 c0 -56 33 -72 85 -72s85 16 85 72c0 4 3 8 8 8s8 -4 8 -8c0 -67 -46 -87 -101 -87z" />
<glyph unicode="&#x150;" horiz-adv-x="700" d="M350 2c185 0 283 113 283 334c0 222 -98 335 -283 335s-283 -113 -283 -335c0 -221 98 -334 283 -334zM350 687c193 0 301 -114 301 -351c0 -236 -108 -350 -301 -350s-301 114 -301 350c0 237 108 351 301 351zM405 858c6 -5 5 -11 0 -16l-106 -114c-3 -3 -6 -4 -10 -1 c-3 3 -3 7 0 10l101 119c4 5 9 7 15 2zM509 858c6 -5 5 -11 0 -16l-106 -114c-3 -3 -6 -4 -10 -1c-3 3 -3 7 0 10l101 119c4 5 9 7 15 2z" />
<glyph unicode="&#x151;" horiz-adv-x="488" d="M244 3c120 0 181 72 181 224c0 153 -61 225 -181 225s-181 -72 -181 -225c0 -152 61 -224 181 -224zM244 -13c-128 0 -199 76 -199 240c0 165 71 241 199 241s199 -76 199 -241c0 -164 -71 -240 -199 -240zM287 655c6 -5 5 -11 0 -16l-106 -114c-3 -3 -6 -4 -10 -1 c-3 3 -3 7 0 10l101 119c4 5 9 7 15 2zM391 655c6 -5 5 -11 0 -16l-106 -114c-3 -3 -6 -4 -10 -1c-3 3 -3 7 0 10l101 119c4 5 9 7 15 2z" />
<glyph unicode="&#x154;" horiz-adv-x="544" d="M268 309h-155v-308c0 -5 -4 -9 -9 -9s-9 4 -9 9v663c0 5 4 9 9 9h205c106 0 183 -80 183 -182s-77 -182 -183 -182h-21s221 -304 218 -300c0 0 3 -4 3 -8s-3 -9 -9 -9c-4 0 -7 2 -9 5zM113 657v-332h196c101 0 165 77 165 166s-64 166 -165 166h-196zM343 858 c6 -5 5 -11 0 -16l-106 -114c-3 -3 -6 -4 -10 -1c-3 3 -3 7 0 10l101 119c4 5 9 7 15 2z" />
<glyph unicode="&#x156;" horiz-adv-x="544" d="M268 309h-155v-308c0 -5 -4 -9 -9 -9s-9 4 -9 9v663c0 5 4 9 9 9h205c106 0 183 -80 183 -182s-77 -182 -183 -182h-21s221 -304 218 -300c0 0 3 -4 3 -8s-3 -9 -9 -9c-4 0 -7 2 -9 5zM113 657v-332h196c101 0 165 77 165 166s-64 166 -165 166h-196zM298 -67 c0 -37 -8 -69 -24 -98c-2 -3 -4 -4 -7 -4s-6 3 -6 6s1 5 2 8c7 18 10 34 10 44c0 20 -9 27 -9 47c0 13 6 20 17 20c13 0 17 -10 17 -23z" />
<glyph unicode="&#x158;" horiz-adv-x="544" d="M268 309h-155v-308c0 -5 -4 -9 -9 -9s-9 4 -9 9v663c0 5 4 9 9 9h205c106 0 183 -80 183 -182s-77 -182 -183 -182h-21s221 -304 218 -300c0 0 3 -4 3 -8s-3 -9 -9 -9c-4 0 -7 2 -9 5zM113 657v-332h196c101 0 165 77 165 166s-64 166 -165 166h-196zM267 759l100 80 c2 2 4 3 7 3c4 0 8 -4 8 -8c0 -3 -1 -5 -5 -8l-101 -80c-4 -3 -6 -4 -9 -4s-5 1 -9 4l-101 80c-4 3 -5 5 -5 8c0 4 4 8 8 8c3 0 5 -1 7 -3z" />
<glyph unicode="&#x163;" horiz-adv-x="258" d="M195 -8c-24 0 -44 5 -59 15l-14 -75s14 5 30 5c51 0 80 -26 80 -76c0 -49 -28 -83 -88 -83c-26 0 -52 12 -59 18c-2 2 -3 3 -3 6s2 7 7 7c2 0 4 -1 7 -3c10 -7 26 -14 48 -14c51 0 73 25 73 69c0 48 -34 63 -65 63c-20 0 -29 -5 -35 -5c-5 0 -8 3 -8 9l15 89 c-21 21 -29 54 -29 93v328h-62c-4 0 -8 4 -8 8s4 8 8 8h62v128c0 5 4 9 9 9s9 -4 9 -9v-128h90c4 0 8 -4 8 -8s-4 -8 -8 -8h-90v-328c0 -65 21 -102 82 -102c5 0 8 -4 8 -8s-3 -8 -8 -8z" />
<glyph unicode="&#x165;" horiz-adv-x="258" d="M232 658c0 -37 -8 -69 -24 -98c-2 -3 -4 -4 -7 -4s-6 3 -6 6s1 5 2 8c7 18 10 34 10 44c0 20 -9 27 -9 47c0 13 6 20 17 20c13 0 17 -10 17 -23zM195 -8c-73 0 -100 50 -100 118v328h-62c-4 0 -8 4 -8 8s4 8 8 8h62v128c0 5 4 9 9 9s9 -4 9 -9v-128h90c4 0 8 -4 8 -8 s-4 -8 -8 -8h-90v-328c0 -65 21 -102 82 -102c5 0 8 -4 8 -8s-3 -8 -8 -8z" />
<glyph unicode="&#x168;" horiz-adv-x="625" d="M522 186v486c0 5 4 9 9 9s9 -4 9 -9v-486c0 -106 -37 -200 -221 -200s-224 94 -224 200v486c0 5 4 9 9 9s9 -4 9 -9v-486c0 -100 36 -184 206 -184s203 84 203 184zM385 756c28 0 41 12 52 34c3 6 5 8 10 8s8 -4 8 -8c0 -2 -1 -5 -2 -7c-10 -21 -29 -43 -68 -43 c-55 0 -80 42 -128 42c-28 0 -41 -12 -52 -34c-3 -6 -5 -8 -10 -8s-8 4 -8 8c0 2 1 5 2 7c10 21 29 43 68 43c55 0 79 -42 128 -42z" />
<glyph unicode="&#x169;" horiz-adv-x="490" d="M245 4c122 0 157 70 157 151v298c0 5 4 9 9 9s9 -4 9 -9v-289c0 -92 -34 -177 -175 -177s-175 85 -175 177v289c0 5 4 9 9 9s9 -4 9 -9v-298c0 -81 35 -151 157 -151zM317 560c28 0 41 12 52 34c3 6 5 8 10 8s8 -4 8 -8c0 -2 -1 -5 -2 -7c-10 -21 -29 -43 -68 -43 c-55 0 -80 42 -128 42c-28 0 -41 -12 -52 -34c-3 -6 -5 -8 -10 -8s-8 4 -8 8c0 2 1 5 2 7c10 21 29 43 68 43c55 0 79 -42 128 -42z" />
<glyph unicode="&#x16a;" horiz-adv-x="625" d="M522 186v486c0 5 4 9 9 9s9 -4 9 -9v-486c0 -106 -37 -200 -221 -200s-224 94 -224 200v486c0 5 4 9 9 9s9 -4 9 -9v-486c0 -100 36 -184 206 -184s203 84 203 184zM426 755h-210c-5 0 -8 4 -8 8s3 8 8 8h210c5 0 8 -4 8 -8s-3 -8 -8 -8z" />
<glyph unicode="&#x16b;" horiz-adv-x="490" d="M245 4c122 0 157 70 157 151v298c0 5 4 9 9 9s9 -4 9 -9v-289c0 -92 -34 -177 -175 -177s-175 85 -175 177v289c0 5 4 9 9 9s9 -4 9 -9v-298c0 -81 35 -151 157 -151zM352 559h-210c-5 0 -8 4 -8 8s3 8 8 8h210c5 0 8 -4 8 -8s-3 -8 -8 -8z" />
<glyph unicode="&#x16c;" horiz-adv-x="625" d="M522 186v486c0 5 4 9 9 9s9 -4 9 -9v-486c0 -106 -37 -200 -221 -200s-224 94 -224 200v486c0 5 4 9 9 9s9 -4 9 -9v-486c0 -100 36 -184 206 -184s203 84 203 184zM318 738c-55 0 -101 20 -101 87c0 4 3 8 8 8s8 -4 8 -8c0 -56 33 -72 85 -72s85 16 85 72c0 4 3 8 8 8 s8 -4 8 -8c0 -67 -46 -87 -101 -87z" />
<glyph unicode="&#x16d;" horiz-adv-x="490" d="M245 4c122 0 157 70 157 151v298c0 5 4 9 9 9s9 -4 9 -9v-289c0 -92 -34 -177 -175 -177s-175 85 -175 177v289c0 5 4 9 9 9s9 -4 9 -9v-298c0 -81 35 -151 157 -151zM246 537c-55 0 -101 20 -101 87c0 4 3 8 8 8s8 -4 8 -8c0 -56 33 -72 85 -72s85 16 85 72c0 4 3 8 8 8 s8 -4 8 -8c0 -67 -46 -87 -101 -87z" />
<glyph unicode="&#x16e;" horiz-adv-x="625" d="M522 186v486c0 5 4 9 9 9s9 -4 9 -9v-486c0 -106 -37 -200 -221 -200s-224 94 -224 200v486c0 5 4 9 9 9s9 -4 9 -9v-486c0 -100 36 -184 206 -184s203 84 203 184zM322 721c61 0 84 30 84 80s-23 80 -84 80s-84 -30 -84 -80s23 -80 84 -80zM322 706 c-69 0 -100 36 -100 95s31 95 100 95s100 -36 100 -95s-31 -95 -100 -95z" />
<glyph unicode="&#x16f;" horiz-adv-x="490" d="M245 4c122 0 157 70 157 151v298c0 5 4 9 9 9s9 -4 9 -9v-289c0 -92 -34 -177 -175 -177s-175 85 -175 177v289c0 5 4 9 9 9s9 -4 9 -9v-298c0 -81 35 -151 157 -151zM248 520c61 0 84 30 84 80s-23 80 -84 80s-84 -30 -84 -80s23 -80 84 -80zM248 505 c-69 0 -100 36 -100 95s31 95 100 95s100 -36 100 -95s-31 -95 -100 -95z" />
<glyph unicode="&#x170;" horiz-adv-x="625" d="M522 186v486c0 5 4 9 9 9s9 -4 9 -9v-486c0 -106 -37 -200 -221 -200s-224 94 -224 200v486c0 5 4 9 9 9s9 -4 9 -9v-486c0 -100 36 -184 206 -184s203 84 203 184zM350 858c6 -5 5 -11 0 -16l-106 -114c-3 -3 -6 -4 -10 -1c-3 3 -3 7 0 10l101 119c4 5 9 7 15 2z M454 858c6 -5 5 -11 0 -16l-106 -114c-3 -3 -6 -4 -10 -1c-3 3 -3 7 0 10l101 119c4 5 9 7 15 2z" />
<glyph unicode="&#x17f;" horiz-adv-x="214" d="M119 454v-453c0 -5 -4 -9 -9 -9s-9 4 -9 9v437h-63c-4 0 -8 4 -8 8s4 8 8 8h63v64c0 97 50 167 160 167c5 0 8 -4 8 -8s-3 -8 -8 -8c-96 0 -142 -56 -142 -151v-64z" />
<glyph unicode="&#x1fa;" horiz-adv-x="604" d="M380 997c4 -7 2 -12 -4 -15l-140 -71c-4 -2 -8 -2 -10 2s0 7 4 9l136 78c5 3 10 3 14 -3zM468 222h-332l-87 -223c-2 -5 -4 -7 -9 -7c-4 0 -9 3 -9 8c0 1 0 3 1 5l263 671c1 3 4 5 7 5s6 -2 7 -5l263 -671c1 -2 1 -4 1 -5c0 -5 -5 -8 -9 -8c-5 0 -7 2 -9 7zM462 238 l-160 411l-160 -411h320zM303 721c61 0 84 30 84 80s-23 80 -84 80s-84 -30 -84 -80s23 -80 84 -80zM303 706c-69 0 -100 36 -100 95s31 95 100 95s100 -36 100 -95s-31 -95 -100 -95z" />
<glyph unicode="&#x1fb;" horiz-adv-x="462" d="M392 311v-310c0 -5 -4 -8 -9 -8s-8 3 -8 8v73c-27 -59 -95 -86 -169 -86c-112 0 -166 57 -166 136c0 88 67 135 168 135h167v52c0 91 -57 141 -149 141c-81 0 -120 -33 -143 -72c-2 -4 -5 -6 -9 -6s-8 4 -8 8c0 3 1 5 3 8c26 42 73 78 157 78c111 0 166 -63 166 -157z M206 4c87 0 169 40 169 134v106h-167c-89 0 -150 -43 -150 -120c0 -73 51 -120 148 -120zM232 507c61 0 84 30 84 80s-23 80 -84 80s-84 -30 -84 -80s23 -80 84 -80zM232 492c-69 0 -100 36 -100 95s31 95 100 95s100 -36 100 -95s-31 -95 -100 -95zM282 835 c6 -5 5 -11 0 -16l-106 -114c-3 -3 -6 -4 -10 -1c-3 3 -3 7 0 10l101 119c4 5 9 7 15 2z" />
<glyph unicode="&#x1fc;" horiz-adv-x="832" d="M437 331v-315h344c5 0 8 -4 8 -8s-3 -8 -8 -8h-353c-5 0 -9 4 -9 9v213h-252l-138 -224c-2 -3 -4 -6 -9 -6s-9 4 -9 9c0 3 2 6 4 9l405 657c3 5 7 6 10 6h339c5 0 8 -4 8 -8s-3 -8 -8 -8h-332v-310h261c5 0 8 -4 8 -8s-3 -8 -8 -8h-261zM176 238h243v395zM618 858 c6 -5 5 -11 0 -16l-106 -114c-3 -3 -6 -4 -10 -1c-3 3 -3 7 0 10l101 119c4 5 9 7 15 2z" />
<glyph unicode="&#x1fd;" horiz-adv-x="796" d="M226 468c97 0 151 -49 163 -124c26 84 86 124 185 124c166 0 183 -127 183 -194c0 -20 -3 -37 -19 -37h-345c0 -151 57 -234 181 -234c78 0 123 28 152 49c3 2 5 4 8 4c4 0 8 -3 8 -8c0 -3 -1 -4 -3 -6c-26 -21 -78 -55 -165 -55c-108 0 -169 61 -185 145 c-12 -78 -66 -144 -183 -144c-112 0 -166 55 -166 133c0 87 68 132 168 132h167v58c0 91 -57 141 -149 141c-81 0 -118 -36 -141 -75c-2 -4 -5 -6 -9 -6s-8 4 -8 8c0 3 1 5 3 8c26 42 71 81 155 81zM206 4c87 0 169 45 169 157v77h-167c-88 0 -150 -41 -150 -117 c0 -72 51 -117 148 -117zM740 277c0 80 -28 175 -166 175c-120 0 -180 -64 -180 -199h345s1 16 1 24zM469 655c6 -5 5 -11 0 -16l-106 -114c-3 -3 -6 -4 -10 -1c-3 3 -3 7 0 10l101 119c4 5 9 7 15 2z" />
<glyph unicode="&#x1fe;" horiz-adv-x="704" d="M350 687c87 0 157 -24 208 -71l61 77c3 4 6 4 8 4c4 0 7 -3 7 -7c0 -2 -1 -5 -3 -7l-62 -79c54 -58 82 -147 82 -268c0 -236 -108 -350 -301 -350c-88 0 -159 24 -209 72l-62 -79c-3 -3 -5 -3 -7 -3c-4 0 -7 3 -7 7c0 2 1 5 3 7l62 79c-53 58 -81 146 -81 267 c0 237 108 351 301 351zM350 2c185 0 283 113 283 334c0 113 -26 198 -75 254l-406 -518c47 -47 113 -70 198 -70zM67 336c0 -113 25 -197 74 -253l406 518c-47 46 -113 70 -197 70c-185 0 -283 -113 -283 -335zM404 858c6 -5 5 -11 0 -16l-106 -114c-3 -3 -6 -4 -10 -1 c-3 3 -3 7 0 10l101 119c4 5 9 7 15 2z" />
<glyph unicode="&#x1e84;" horiz-adv-x="826" d="M592 -1l-179 645l-179 -645c-2 -5 -5 -7 -9 -7s-8 2 -9 7l-184 667c-1 4 -1 5 -1 6c0 5 4 9 9 9s8 -3 9 -8l176 -649l179 650c1 4 4 7 9 7s8 -3 9 -7l179 -650l176 649c1 5 4 8 9 8s9 -4 9 -9c0 -1 0 -2 -1 -6l-184 -667c-1 -5 -5 -7 -9 -7s-7 2 -9 7zM352 748 c-11 0 -15 5 -15 16s4 16 15 16c10 0 15 -5 15 -16s-5 -16 -15 -16zM474 748c-11 0 -15 5 -15 16s4 16 15 16c10 0 15 -5 15 -16s-5 -16 -15 -16z" />
<glyph unicode="&#x1ef2;" d="M254 344l209 332c2 3 4 5 8 5c5 0 9 -4 9 -9c0 -1 0 -3 -2 -6l-215 -341v-324c0 -5 -4 -9 -9 -9s-9 4 -9 9v324l-215 341c-2 3 -2 5 -2 6c0 5 4 9 9 9c4 0 6 -2 8 -5zM187 858c6 5 11 3 15 -2l101 -119c3 -3 3 -7 0 -10c-4 -3 -7 -2 -10 1l-106 114c-5 5 -6 11 0 16z" />
<glyph unicode="&#x1ef3;" horiz-adv-x="428" d="M25 -201c-5 0 -8 4 -8 8s3 8 8 8c106 0 126 45 180 184l-179 447c-1 3 -2 4 -2 7c0 5 4 9 9 9c4 0 7 -2 9 -7l172 -435l172 435c2 5 5 7 9 7c5 0 9 -4 9 -9c0 -3 -1 -4 -2 -7l-207 -516c-40 -99 -78 -131 -170 -131zM144 655c6 5 11 3 15 -2l101 -119c3 -3 3 -7 0 -10 c-4 -3 -7 -2 -10 1l-106 114c-5 5 -6 11 0 16z" />
<glyph horiz-adv-x="288" d="M144 687c75 0 116 -45 116 -155s-41 -156 -116 -156c-76 0 -116 46 -116 156s40 155 116 155zM144 391c68 0 100 44 100 141c0 96 -32 140 -100 140c-69 0 -100 -44 -100 -140c0 -97 31 -141 100 -141z" />
<glyph horiz-adv-x="157" d="M107 676v-289c0 -5 -4 -8 -8 -8s-8 3 -8 8v275l-63 -42c-3 -2 -5 -3 -7 -3c-4 0 -7 4 -7 7c0 2 1 5 4 7l74 50c2 1 4 3 7 3c4 0 8 -4 8 -8z" />
<glyph horiz-adv-x="259" d="M217 382h-181c-4 0 -7 3 -7 7c0 117 180 111 180 214c0 36 -22 70 -81 70c-40 0 -62 -15 -73 -48c-2 -6 -6 -6 -8 -6c-4 0 -7 3 -7 7c0 0 0 2 1 5c12 35 40 56 87 56c66 0 97 -36 97 -84c0 -110 -180 -114 -180 -207h172c4 0 7 -3 7 -7s-3 -7 -7 -7z" />
<glyph horiz-adv-x="254" d="M191 667h-145c-4 0 -7 3 -7 7s3 7 7 7h159c4 0 7 -3 7 -7c0 -3 -1 -5 -3 -7l-92 -106h11c73 0 98 -46 98 -93c0 -56 -28 -92 -108 -92c-49 0 -79 25 -93 48c-2 4 -2 5 -2 7c0 4 3 7 7 7c3 0 5 -2 7 -5c17 -27 40 -43 81 -43c65 0 92 28 92 78c0 46 -24 79 -84 79h-23 c-4 0 -7 3 -7 7c0 2 1 4 3 6z" />
<glyph horiz-adv-x="254" d="M44 469h132v184zM192 469h31c4 0 7 -3 7 -7s-3 -7 -7 -7h-31v-68c0 -5 -4 -8 -8 -8s-8 3 -8 8v68h-146c-4 0 -7 3 -7 7c0 3 2 5 4 8l149 208c2 3 4 6 8 6c5 0 8 -4 8 -8v-207z" />
<glyph horiz-adv-x="261" d="M215 666h-140l-20 -116c13 11 37 23 74 23c58 0 103 -27 103 -97c0 -65 -39 -99 -103 -99c-56 0 -85 28 -100 57c-1 2 -2 5 -2 7c0 4 2 7 6 7s6 -2 8 -5c16 -31 41 -52 88 -52c56 0 87 31 87 85s-31 83 -87 83c-30 0 -51 -6 -76 -25c-3 -2 -4 -3 -7 -3c-4 0 -7 3 -7 7 c0 0 0 3 1 7l22 128c1 5 4 7 8 7h145c4 0 7 -3 7 -7s-3 -7 -7 -7z" />
<glyph horiz-adv-x="266" d="M136 570c59 0 101 -33 101 -97c0 -68 -42 -97 -101 -97c-78 0 -107 62 -107 148c0 112 46 163 113 163c34 0 64 -14 74 -24c2 -2 3 -4 3 -6c0 -4 -3 -8 -8 -8c-3 0 -6 2 -9 4c-18 12 -34 18 -60 18c-61 0 -97 -47 -97 -154c8 20 41 53 91 53zM136 391c51 0 85 29 85 82 c0 55 -34 82 -85 82c-35 0 -70 -18 -88 -60c0 -62 34 -104 88 -104z" />
<glyph horiz-adv-x="224" d="M75 387c0 -5 -4 -8 -8 -8s-8 3 -8 8c0 165 131 172 131 279h-166c-4 0 -7 3 -7 7s3 7 7 7h175c4 0 7 -3 7 -7c0 -128 -131 -122 -131 -286z" />
<glyph horiz-adv-x="246" d="M123 376c-60 0 -103 29 -103 87c0 47 31 72 66 80c-24 7 -54 28 -54 69c0 50 39 75 91 75s91 -25 91 -75c0 -41 -30 -62 -54 -69c35 -8 66 -33 66 -80c0 -58 -43 -87 -103 -87zM123 673c-46 0 -75 -19 -75 -61c0 -39 30 -62 75 -62s75 23 75 62c0 42 -29 61 -75 61z M123 536c-53 0 -87 -23 -87 -73s32 -73 87 -73s87 23 87 73s-34 73 -87 73z" />
<glyph horiz-adv-x="266" d="M130 493c-59 0 -101 33 -101 97c0 68 42 97 101 97c78 0 107 -62 107 -148c0 -112 -46 -163 -113 -163c-34 0 -64 14 -74 24c-2 2 -3 4 -3 6c0 4 3 8 8 8c3 0 6 -2 9 -4c18 -12 34 -18 60 -18c61 0 97 47 97 154c-8 -20 -41 -53 -91 -53zM130 672c-51 0 -85 -29 -85 -82 c0 -55 34 -82 85 -82c35 0 70 18 88 60c0 62 -34 104 -88 104z" />
<glyph horiz-adv-x="288" d="M144 298c75 0 116 -45 116 -155s-41 -156 -116 -156c-76 0 -116 46 -116 156s40 155 116 155zM144 2c68 0 100 44 100 141c0 96 -32 140 -100 140c-69 0 -100 -44 -100 -140c0 -97 31 -141 100 -141z" />
<glyph horiz-adv-x="157" d="M107 289v-289c0 -5 -4 -8 -8 -8s-8 3 -8 8v275l-63 -42c-3 -2 -5 -3 -7 -3c-4 0 -7 4 -7 7c0 2 1 5 4 7l74 50c2 1 4 3 7 3c4 0 8 -4 8 -8z" />
<glyph horiz-adv-x="259" d="M217 0h-181c-4 0 -7 3 -7 7c0 117 180 111 180 214c0 36 -22 70 -81 70c-40 0 -62 -15 -73 -48c-2 -6 -6 -6 -8 -6c-4 0 -7 3 -7 7c0 0 0 2 1 5c12 35 40 56 87 56c66 0 97 -36 97 -84c0 -110 -180 -114 -180 -207h172c4 0 7 -3 7 -7s-3 -7 -7 -7z" />
<glyph horiz-adv-x="254" d="M191 278h-145c-4 0 -7 3 -7 7s3 7 7 7h159c4 0 7 -3 7 -7c0 -3 -1 -5 -3 -7l-92 -106h11c73 0 98 -46 98 -93c0 -56 -28 -92 -108 -92c-49 0 -79 25 -93 48c-2 4 -2 5 -2 7c0 4 3 7 7 7c3 0 5 -2 7 -5c17 -27 40 -43 81 -43c65 0 92 28 92 78c0 46 -24 79 -84 79h-23 c-4 0 -7 3 -7 7c0 2 1 4 3 6z" />
<glyph horiz-adv-x="254" d="M44 82h132v184zM192 82h31c4 0 7 -3 7 -7s-3 -7 -7 -7h-31v-68c0 -5 -4 -8 -8 -8s-8 3 -8 8v68h-146c-4 0 -7 3 -7 7c0 3 2 5 4 8l149 208c2 3 4 6 8 6c5 0 8 -4 8 -8v-207z" />
<glyph horiz-adv-x="261" d="M215 275h-140l-20 -116c13 11 37 23 74 23c58 0 103 -27 103 -97c0 -65 -39 -99 -103 -99c-56 0 -85 28 -100 57c-1 2 -2 5 -2 7c0 4 2 7 6 7s6 -2 8 -5c16 -31 41 -52 88 -52c56 0 87 31 87 85s-31 83 -87 83c-30 0 -51 -6 -76 -25c-3 -2 -4 -3 -7 -3c-4 0 -7 3 -7 7 c0 0 0 3 1 7l22 128c1 5 4 7 8 7h145c4 0 7 -3 7 -7s-3 -7 -7 -7z" />
<glyph horiz-adv-x="266" d="M136 180c59 0 101 -33 101 -97c0 -68 -42 -97 -101 -97c-78 0 -107 62 -107 148c0 112 46 163 113 163c34 0 64 -14 74 -24c2 -2 3 -4 3 -6c0 -4 -3 -8 -8 -8c-3 0 -6 2 -9 4c-18 12 -34 18 -60 18c-61 0 -97 -47 -97 -154c8 20 41 53 91 53zM136 1c51 0 85 29 85 82 c0 55 -34 82 -85 82c-35 0 -70 -18 -88 -60c0 -62 34 -104 88 -104z" />
<glyph horiz-adv-x="224" d="M75 0c0 -5 -4 -8 -8 -8s-8 3 -8 8c0 165 131 172 131 279h-166c-4 0 -7 3 -7 7s3 7 7 7h175c4 0 7 -3 7 -7c0 -128 -131 -122 -131 -286z" />
<glyph horiz-adv-x="246" d="M123 -14c-60 0 -103 29 -103 87c0 47 31 72 66 80c-24 7 -54 28 -54 69c0 50 39 75 91 75s91 -25 91 -75c0 -41 -30 -62 -54 -69c35 -8 66 -33 66 -80c0 -58 -43 -87 -103 -87zM123 283c-46 0 -75 -19 -75 -61c0 -39 30 -62 75 -62s75 23 75 62c0 42 -29 61 -75 61z M123 146c-53 0 -87 -23 -87 -73s32 -73 87 -73s87 23 87 73s-34 73 -87 73z" />
<glyph horiz-adv-x="266" d="M130 103c-59 0 -101 33 -101 97c0 68 42 97 101 97c78 0 107 -62 107 -148c0 -112 -46 -163 -113 -163c-34 0 -64 14 -74 24c-2 2 -3 4 -3 6c0 4 3 8 8 8c3 0 6 -2 9 -4c18 -12 34 -18 60 -18c61 0 97 47 97 154c-8 -20 -41 -53 -91 -53zM130 282c-51 0 -85 -29 -85 -82 c0 -55 34 -82 85 -82c35 0 70 18 88 60c0 62 -34 104 -88 104z" />
<glyph unicode="&#x2009;" horiz-adv-x="14" />
<glyph unicode="&#x2070;" horiz-adv-x="288" d="M144 730c75 0 116 -45 116 -155s-41 -156 -116 -156c-76 0 -116 46 -116 156s40 155 116 155zM144 434c68 0 100 44 100 141c0 96 -32 140 -100 140c-69 0 -100 -44 -100 -140c0 -97 31 -141 100 -141z" />
<glyph unicode="&#x2074;" horiz-adv-x="254" d="M44 512h132v184zM192 512h31c4 0 7 -3 7 -7s-3 -7 -7 -7h-31v-68c0 -5 -4 -8 -8 -8s-8 3 -8 8v68h-146c-4 0 -7 3 -7 7c0 3 2 5 4 8l149 208c2 3 4 6 8 6c5 0 8 -4 8 -8v-207z" />
<glyph unicode="&#x2075;" horiz-adv-x="261" d="M215 708h-140l-20 -116c13 11 37 23 74 23c58 0 103 -27 103 -97c0 -65 -39 -99 -103 -99c-56 0 -85 28 -100 57c-1 2 -2 5 -2 7c0 4 2 7 6 7s6 -2 8 -5c16 -31 41 -52 88 -52c56 0 87 31 87 85s-31 83 -87 83c-30 0 -51 -6 -76 -25c-3 -2 -4 -3 -7 -3c-4 0 -7 3 -7 7 c0 0 0 3 1 7l22 128c1 5 4 7 8 7h145c4 0 7 -3 7 -7s-3 -7 -7 -7z" />
<glyph unicode="&#x2076;" horiz-adv-x="266" d="M136 613c59 0 101 -33 101 -97c0 -68 -42 -97 -101 -97c-78 0 -107 62 -107 148c0 112 46 163 113 163c34 0 64 -14 74 -24c2 -2 3 -4 3 -6c0 -4 -3 -8 -8 -8c-3 0 -6 2 -9 4c-18 12 -34 18 -60 18c-61 0 -97 -47 -97 -154c8 20 41 53 91 53zM136 434c51 0 85 29 85 82 c0 55 -34 82 -85 82c-35 0 -70 -18 -88 -60c0 -62 34 -104 88 -104z" />
<glyph unicode="&#x2077;" horiz-adv-x="224" d="M75 429c0 -5 -4 -8 -8 -8s-8 3 -8 8c0 165 131 172 131 279h-166c-4 0 -7 3 -7 7s3 7 7 7h175c4 0 7 -3 7 -7c0 -128 -131 -122 -131 -286z" />
<glyph unicode="&#x2078;" horiz-adv-x="246" d="M123 419c-60 0 -103 29 -103 87c0 47 31 72 66 80c-24 7 -54 28 -54 69c0 50 39 75 91 75s91 -25 91 -75c0 -41 -30 -62 -54 -69c35 -8 66 -33 66 -80c0 -58 -43 -87 -103 -87zM123 716c-46 0 -75 -19 -75 -61c0 -39 30 -62 75 -62s75 23 75 62c0 42 -29 61 -75 61z M123 579c-53 0 -87 -23 -87 -73s32 -73 87 -73s87 23 87 73s-34 73 -87 73z" />
<glyph unicode="&#x2079;" horiz-adv-x="266" d="M130 536c-59 0 -101 33 -101 97c0 68 42 97 101 97c78 0 107 -62 107 -148c0 -112 -46 -163 -113 -163c-34 0 -64 14 -74 24c-2 2 -3 4 -3 6c0 4 3 8 8 8c3 0 6 -2 9 -4c18 -12 34 -18 60 -18c61 0 97 47 97 154c-8 -20 -41 -53 -91 -53zM130 715c-51 0 -85 -29 -85 -82 c0 -55 34 -82 85 -82c35 0 70 18 88 60c0 62 -34 104 -88 104z" />
<glyph unicode="&#x2080;" horiz-adv-x="288" d="M144 254c75 0 116 -45 116 -155s-41 -156 -116 -156c-76 0 -116 46 -116 156s40 155 116 155zM144 -42c68 0 100 44 100 141c0 96 -32 140 -100 140c-69 0 -100 -44 -100 -140c0 -97 31 -141 100 -141z" />
<glyph unicode="&#x2081;" horiz-adv-x="157" d="M107 245v-289c0 -5 -4 -8 -8 -8s-8 3 -8 8v275l-63 -42c-3 -2 -5 -3 -7 -3c-4 0 -7 4 -7 7c0 2 1 5 4 7l74 50c2 1 4 3 7 3c4 0 8 -4 8 -8z" />
<glyph unicode="&#x2082;" horiz-adv-x="259" d="M217 -51h-181c-4 0 -7 3 -7 7c0 117 180 111 180 214c0 36 -22 70 -81 70c-40 0 -62 -15 -73 -48c-2 -6 -6 -6 -8 -6c-4 0 -7 3 -7 7c0 0 0 2 1 5c12 35 40 56 87 56c66 0 97 -36 97 -84c0 -110 -180 -114 -180 -207h172c4 0 7 -3 7 -7s-3 -7 -7 -7z" />
<glyph unicode="&#x2083;" horiz-adv-x="254" d="M191 234h-145c-4 0 -7 3 -7 7s3 7 7 7h159c4 0 7 -3 7 -7c0 -3 -1 -5 -3 -7l-92 -106h11c73 0 98 -46 98 -93c0 -56 -28 -92 -108 -92c-49 0 -79 25 -93 48c-2 4 -2 5 -2 7c0 4 3 7 7 7c3 0 5 -2 7 -5c17 -27 40 -43 81 -43c65 0 92 28 92 78c0 46 -24 79 -84 79h-23 c-4 0 -7 3 -7 7c0 2 1 4 3 6z" />
<glyph unicode="&#x2084;" horiz-adv-x="254" d="M44 38h132v184zM192 38h31c4 0 7 -3 7 -7s-3 -7 -7 -7h-31v-68c0 -5 -4 -8 -8 -8s-8 3 -8 8v68h-146c-4 0 -7 3 -7 7c0 3 2 5 4 8l149 208c2 3 4 6 8 6c5 0 8 -4 8 -8v-207z" />
<glyph unicode="&#x2085;" horiz-adv-x="261" d="M215 232h-140l-20 -116c13 11 37 23 74 23c58 0 103 -27 103 -97c0 -65 -39 -99 -103 -99c-56 0 -85 28 -100 57c-1 2 -2 5 -2 7c0 4 2 7 6 7s6 -2 8 -5c16 -31 41 -52 88 -52c56 0 87 31 87 85s-31 83 -87 83c-30 0 -51 -6 -76 -25c-3 -2 -4 -3 -7 -3c-4 0 -7 3 -7 7 c0 0 0 3 1 7l22 128c1 5 4 7 8 7h145c4 0 7 -3 7 -7s-3 -7 -7 -7z" />
<glyph unicode="&#x2086;" horiz-adv-x="266" d="M136 137c59 0 101 -33 101 -97c0 -68 -42 -97 -101 -97c-78 0 -107 62 -107 148c0 112 46 163 113 163c34 0 64 -14 74 -24c2 -2 3 -4 3 -6c0 -4 -3 -8 -8 -8c-3 0 -6 2 -9 4c-18 12 -34 18 -60 18c-61 0 -97 -47 -97 -154c8 20 41 53 91 53zM136 -42c51 0 85 29 85 82 c0 55 -34 82 -85 82c-35 0 -70 -18 -88 -60c0 -62 34 -104 88 -104z" />
<glyph unicode="&#x2087;" horiz-adv-x="224" d="M75 -45c0 -5 -4 -8 -8 -8s-8 3 -8 8c0 165 131 172 131 279h-166c-4 0 -7 3 -7 7s3 7 7 7h175c4 0 7 -3 7 -7c0 -128 -131 -122 -131 -286z" />
<glyph unicode="&#x2088;" horiz-adv-x="246" d="M123 -57c-60 0 -103 29 -103 87c0 47 31 72 66 80c-24 7 -54 28 -54 69c0 50 39 75 91 75s91 -25 91 -75c0 -41 -30 -62 -54 -69c35 -8 66 -33 66 -80c0 -58 -43 -87 -103 -87zM123 240c-46 0 -75 -19 -75 -61c0 -39 30 -62 75 -62s75 23 75 62c0 42 -29 61 -75 61z M123 103c-53 0 -87 -23 -87 -73s32 -73 87 -73s87 23 87 73s-34 73 -87 73z" />
<glyph unicode="&#x2089;" horiz-adv-x="266" d="M130 60c-59 0 -101 33 -101 97c0 68 42 97 101 97c78 0 107 -62 107 -148c0 -112 -46 -163 -113 -163c-34 0 -64 14 -74 24c-2 2 -3 4 -3 6c0 4 3 8 8 8c3 0 6 -2 9 -4c18 -12 34 -18 60 -18c61 0 97 47 97 154c-8 -20 -41 -53 -91 -53zM130 239c-51 0 -85 -29 -85 -82 c0 -55 34 -82 85 -82c35 0 70 18 88 60c0 62 -34 104 -88 104z" />
<glyph unicode="&#x1e2;" horiz-adv-x="832" d="M437 331v-315h344c5 0 8 -4 8 -8s-3 -8 -8 -8h-353c-5 0 -9 4 -9 9v213h-252l-138 -224c-2 -3 -4 -6 -9 -6s-9 4 -9 9c0 3 2 6 4 9l405 657c3 5 7 6 10 6h339c5 0 8 -4 8 -8s-3 -8 -8 -8h-332v-310h261c5 0 8 -4 8 -8s-3 -8 -8 -8h-261zM176 238h243v395zM648 755h-210 c-5 0 -8 4 -8 8s3 8 8 8h210c5 0 8 -4 8 -8s-3 -8 -8 -8z" />
<glyph unicode="&#x1e3;" horiz-adv-x="796" d="M226 468c97 0 151 -49 163 -124c26 84 86 124 185 124c166 0 183 -127 183 -194c0 -20 -3 -37 -19 -37h-345c0 -151 57 -234 181 -234c78 0 123 28 152 49c3 2 5 4 8 4c4 0 8 -3 8 -8c0 -3 -1 -4 -3 -6c-26 -21 -78 -55 -165 -55c-108 0 -169 61 -185 145 c-12 -78 -66 -144 -183 -144c-112 0 -166 55 -166 133c0 87 68 132 168 132h167v58c0 91 -57 141 -149 141c-81 0 -118 -36 -141 -75c-2 -4 -5 -6 -9 -6s-8 4 -8 8c0 3 1 5 3 8c26 42 71 81 155 81zM206 4c87 0 169 45 169 157v77h-167c-88 0 -150 -41 -150 -117 c0 -72 51 -117 148 -117zM740 277c0 80 -28 175 -166 175c-120 0 -180 -64 -180 -199h345s1 16 1 24zM494 559h-210c-5 0 -8 4 -8 8s3 8 8 8h210c5 0 8 -4 8 -8s-3 -8 -8 -8z" />
<glyph horiz-adv-x="511" d="M243 -13c-128 0 -199 76 -199 240c0 165 71 241 199 241c91 0 154 -32 181 -114v99c0 5 3 9 8 9s9 -4 9 -9v-452c0 -5 -4 -9 -9 -9s-8 4 -8 9v99c-27 -81 -90 -113 -181 -113zM243 3c130 0 182 67 182 224c0 158 -52 225 -182 225c-120 0 -181 -72 -181 -225 c0 -152 61 -224 181 -224z" />
<glyph horiz-adv-x="510" d="M243 -13c-128 0 -199 76 -199 240c0 165 71 241 199 241c91 0 154 -32 181 -114v99c0 5 3 9 8 9s9 -4 9 -9v-452c0 -5 -4 -9 -9 -9s-8 4 -8 9v99c-27 -81 -90 -113 -181 -113zM243 3c130 0 182 67 182 224c0 158 -52 225 -182 225c-120 0 -181 -72 -181 -225 c0 -152 61 -224 181 -224zM328 655c6 -5 5 -11 0 -16l-106 -114c-3 -3 -6 -4 -10 -1c-3 3 -3 7 0 10l101 119c4 5 9 7 15 2z" />
<glyph horiz-adv-x="511" d="M243 -13c-128 0 -199 76 -199 240c0 165 71 241 199 241c91 0 154 -32 181 -114v99c0 5 3 9 8 9s9 -4 9 -9v-452c0 -5 -4 -9 -9 -9s-8 4 -8 9v99c-27 -81 -90 -113 -181 -113zM243 3c130 0 182 67 182 224c0 158 -52 225 -182 225c-120 0 -181 -72 -181 -225 c0 -152 61 -224 181 -224zM253 537c-55 0 -101 20 -101 87c0 4 3 8 8 8s8 -4 8 -8c0 -56 33 -72 85 -72s85 16 85 72c0 4 3 8 8 8s8 -4 8 -8c0 -67 -46 -87 -101 -87z" />
<glyph horiz-adv-x="511" d="M243 -13c-128 0 -199 76 -199 240c0 165 71 241 199 241c91 0 154 -32 181 -114v99c0 5 3 9 8 9s9 -4 9 -9v-452c0 -5 -4 -9 -9 -9s-8 4 -8 9v99c-27 -81 -90 -113 -181 -113zM243 3c130 0 182 67 182 224c0 158 -52 225 -182 225c-120 0 -181 -72 -181 -225 c0 -152 61 -224 181 -224zM358 553l-100 80l-100 -80c-2 -2 -4 -3 -7 -3c-4 0 -8 4 -8 8c0 3 1 5 5 8l101 80c4 3 6 4 9 4s5 -1 9 -4l101 -80c4 -3 5 -5 5 -8c0 -4 -4 -8 -8 -8c-3 0 -5 1 -7 3z" />
<glyph horiz-adv-x="511" d="M243 -13c-128 0 -199 76 -199 240c0 165 71 241 199 241c91 0 154 -32 181 -114v99c0 5 3 9 8 9s9 -4 9 -9v-452c0 -5 -4 -9 -9 -9s-8 4 -8 9v99c-27 -81 -90 -113 -181 -113zM243 3c130 0 182 67 182 224c0 158 -52 225 -182 225c-120 0 -181 -72 -181 -225 c0 -152 61 -224 181 -224zM192 551c-11 0 -15 5 -15 16s4 16 15 16c10 0 15 -5 15 -16s-5 -16 -15 -16zM314 551c-11 0 -15 5 -15 16s4 16 15 16c10 0 15 -5 15 -16s-5 -16 -15 -16z" />
<glyph horiz-adv-x="511" d="M243 -13c-128 0 -199 76 -199 240c0 165 71 241 199 241c91 0 154 -32 181 -114v99c0 5 3 9 8 9s9 -4 9 -9v-452c0 -5 -4 -9 -9 -9s-8 4 -8 9v99c-27 -81 -90 -113 -181 -113zM243 3c130 0 182 67 182 224c0 158 -52 225 -182 225c-120 0 -181 -72 -181 -225 c0 -152 61 -224 181 -224zM196 655c6 5 11 3 15 -2l101 -119c3 -3 3 -7 0 -10c-4 -3 -7 -2 -10 1l-106 114c-5 5 -6 11 0 16z" />
<glyph horiz-adv-x="511" d="M243 -13c-128 0 -199 76 -199 240c0 165 71 241 199 241c91 0 154 -32 181 -114v99c0 5 3 9 8 9s9 -4 9 -9v-452c0 -5 -4 -9 -9 -9s-8 4 -8 9v99c-27 -81 -90 -113 -181 -113zM243 3c130 0 182 67 182 224c0 158 -52 225 -182 225c-120 0 -181 -72 -181 -225 c0 -152 61 -224 181 -224zM361 559h-210c-5 0 -8 4 -8 8s3 8 8 8h210c5 0 8 -4 8 -8s-3 -8 -8 -8z" />
<glyph horiz-adv-x="511" d="M433 -152c5 0 8 -4 8 -8c0 -3 -1 -6 -6 -8c-18 -7 -31 -9 -51 -9c-41 0 -70 27 -70 67c0 51 47 92 110 112v98c-27 -81 -90 -113 -181 -113c-128 0 -199 76 -199 240c0 165 71 241 199 241c91 0 154 -32 181 -114v99c0 5 3 9 8 9s9 -4 9 -9v-452c0 -5 -4 -9 -9 -9 c-56 -18 -100 -56 -100 -100c0 -30 17 -53 52 -53c17 0 27 2 42 7c3 1 5 2 7 2zM243 3c130 0 182 67 182 224c0 158 -52 225 -182 225c-120 0 -181 -72 -181 -225c0 -152 61 -224 181 -224z" />
<glyph horiz-adv-x="511" d="M243 -13c-128 0 -199 76 -199 240c0 165 71 241 199 241c91 0 154 -32 181 -114v99c0 5 3 9 8 9s9 -4 9 -9v-452c0 -5 -4 -9 -9 -9s-8 4 -8 9v99c-27 -81 -90 -113 -181 -113zM243 3c130 0 182 67 182 224c0 158 -52 225 -182 225c-120 0 -181 -72 -181 -225 c0 -152 61 -224 181 -224zM254 520c61 0 84 30 84 80s-23 80 -84 80s-84 -30 -84 -80s23 -80 84 -80zM254 505c-69 0 -100 36 -100 95s31 95 100 95s100 -36 100 -95s-31 -95 -100 -95z" />
<glyph horiz-adv-x="511" d="M243 -13c-128 0 -199 76 -199 240c0 165 71 241 199 241c91 0 154 -32 181 -114v99c0 5 3 9 8 9s9 -4 9 -9v-452c0 -5 -4 -9 -9 -9s-8 4 -8 9v99c-27 -81 -90 -113 -181 -113zM243 3c130 0 182 67 182 224c0 158 -52 225 -182 225c-120 0 -181 -72 -181 -225 c0 -152 61 -224 181 -224zM310 835c6 -5 5 -11 0 -16l-106 -114c-3 -3 -6 -4 -10 -1c-3 3 -3 7 0 10l101 119c4 5 9 7 15 2zM254 507c61 0 84 30 84 80s-23 80 -84 80s-84 -30 -84 -80s23 -80 84 -80zM254 492c-69 0 -100 36 -100 95s31 95 100 95s100 -36 100 -95 s-31 -95 -100 -95z" />
<glyph horiz-adv-x="511" d="M243 -13c-128 0 -199 76 -199 240c0 165 71 241 199 241c91 0 154 -32 181 -114v99c0 5 3 9 8 9s9 -4 9 -9v-452c0 -5 -4 -9 -9 -9s-8 4 -8 9v99c-27 -81 -90 -113 -181 -113zM243 3c130 0 182 67 182 224c0 158 -52 225 -182 225c-120 0 -181 -72 -181 -225 c0 -152 61 -224 181 -224zM320 560c28 0 41 12 52 34c3 6 5 8 10 8s8 -4 8 -8c0 -2 -1 -5 -2 -7c-10 -21 -29 -43 -68 -43c-55 0 -80 42 -128 42c-28 0 -41 -12 -52 -34c-3 -6 -5 -8 -10 -8s-8 4 -8 8c0 2 1 5 2 7c10 21 29 43 68 43c55 0 79 -42 128 -42z" />
<glyph unicode="&#xe0;" horiz-adv-x="462" d="M392 311v-310c0 -5 -4 -8 -9 -8s-8 3 -8 8v73c-27 -59 -95 -86 -169 -86c-112 0 -166 57 -166 136c0 88 67 135 168 135h167v52c0 91 -57 141 -149 141c-81 0 -120 -33 -143 -72c-2 -4 -5 -6 -9 -6s-8 4 -8 8c0 3 1 5 3 8c26 42 73 78 157 78c111 0 166 -63 166 -157z M206 4c87 0 169 40 169 134v106h-167c-89 0 -150 -43 -150 -120c0 -73 51 -120 148 -120zM170 655c6 5 11 3 15 -2l101 -119c3 -3 3 -7 0 -10c-4 -3 -7 -2 -10 1l-106 114c-5 5 -6 11 0 16z" />
<glyph unicode="&#xe2;" horiz-adv-x="462" d="M392 311v-310c0 -5 -4 -8 -9 -8s-8 3 -8 8v73c-27 -59 -95 -86 -169 -86c-112 0 -166 57 -166 136c0 88 67 135 168 135h167v52c0 91 -57 141 -149 141c-81 0 -120 -33 -143 -72c-2 -4 -5 -6 -9 -6s-8 4 -8 8c0 3 1 5 3 8c26 42 73 78 157 78c111 0 166 -63 166 -157z M206 4c87 0 169 40 169 134v106h-167c-89 0 -150 -43 -150 -120c0 -73 51 -120 148 -120zM333 553l-100 80l-100 -80c-2 -2 -4 -3 -7 -3c-4 0 -8 4 -8 8c0 3 1 5 5 8l101 80c4 3 6 4 9 4s5 -1 9 -4l101 -80c4 -3 5 -5 5 -8c0 -4 -4 -8 -8 -8c-3 0 -5 1 -7 3z" />
<glyph unicode="&#xc4;" horiz-adv-x="604" d="M468 222h-332l-87 -223c-2 -5 -4 -7 -9 -7c-4 0 -9 3 -9 8c0 1 0 3 1 5l263 671c1 3 4 5 7 5s6 -2 7 -5l263 -671c1 -2 1 -4 1 -5c0 -5 -5 -8 -9 -8c-5 0 -7 2 -9 7zM462 238l-160 411l-160 -411h320zM241 748c-11 0 -15 5 -15 16s4 16 15 16c10 0 15 -5 15 -16 s-5 -16 -15 -16zM363 748c-11 0 -15 5 -15 16s4 16 15 16c10 0 15 -5 15 -16s-5 -16 -15 -16z" />
<glyph unicode="&#xc5;" horiz-adv-x="604" d="M468 222h-332l-87 -223c-2 -5 -4 -7 -9 -7c-4 0 -9 3 -9 8c0 1 0 3 1 5l263 671c1 3 4 5 7 5s6 -2 7 -5l263 -671c1 -2 1 -4 1 -5c0 -5 -5 -8 -9 -8c-5 0 -7 2 -9 7zM462 238l-160 411l-160 -411h320zM302 721c61 0 84 30 84 80s-23 80 -84 80s-84 -30 -84 -80 s23 -80 84 -80zM302 706c-69 0 -100 36 -100 95s31 95 100 95s100 -36 100 -95s-31 -95 -100 -95z" />
<glyph unicode="&#xe4;" horiz-adv-x="462" d="M392 311v-310c0 -5 -4 -8 -9 -8s-8 3 -8 8v73c-27 -59 -95 -86 -169 -86c-112 0 -166 57 -166 136c0 88 67 135 168 135h167v52c0 91 -57 141 -149 141c-81 0 -120 -33 -143 -72c-2 -4 -5 -6 -9 -6s-8 4 -8 8c0 3 1 5 3 8c26 42 73 78 157 78c111 0 166 -63 166 -157z M206 4c87 0 169 40 169 134v106h-167c-89 0 -150 -43 -150 -120c0 -73 51 -120 148 -120zM170 551c-11 0 -15 5 -15 16s4 16 15 16c10 0 15 -5 15 -16s-5 -16 -15 -16zM292 551c-11 0 -15 5 -15 16s4 16 15 16c10 0 15 -5 15 -16s-5 -16 -15 -16z" />
<glyph unicode="&#xe3;" horiz-adv-x="462" d="M392 311v-310c0 -5 -4 -8 -9 -8s-8 3 -8 8v73c-27 -59 -95 -86 -169 -86c-112 0 -166 57 -166 136c0 88 67 135 168 135h167v52c0 91 -57 141 -149 141c-81 0 -120 -33 -143 -72c-2 -4 -5 -6 -9 -6s-8 4 -8 8c0 3 1 5 3 8c26 42 73 78 157 78c111 0 166 -63 166 -157z M206 4c87 0 169 40 169 134v106h-167c-89 0 -150 -43 -150 -120c0 -73 51 -120 148 -120zM289 560c28 0 41 12 52 34c3 6 5 8 10 8s8 -4 8 -8c0 -2 -1 -5 -2 -7c-10 -21 -29 -43 -68 -43c-55 0 -80 42 -128 42c-28 0 -41 -12 -52 -34c-3 -6 -5 -8 -10 -8s-8 4 -8 8 c0 2 1 5 2 7c10 21 29 43 68 43c55 0 79 -42 128 -42z" />
<glyph unicode="&#xe5;" horiz-adv-x="462" d="M392 311v-310c0 -5 -4 -8 -9 -8s-8 3 -8 8v73c-27 -59 -95 -86 -169 -86c-112 0 -166 57 -166 136c0 88 67 135 168 135h167v52c0 91 -57 141 -149 141c-81 0 -120 -33 -143 -72c-2 -4 -5 -6 -9 -6s-8 4 -8 8c0 3 1 5 3 8c26 42 73 78 157 78c111 0 166 -63 166 -157z M206 4c87 0 169 40 169 134v106h-167c-89 0 -150 -43 -150 -120c0 -73 51 -120 148 -120zM231 520c61 0 84 30 84 80s-23 80 -84 80s-84 -30 -84 -80s23 -80 84 -80zM231 505c-69 0 -100 36 -100 95s31 95 100 95s100 -36 100 -95s-31 -95 -100 -95z" />
<glyph unicode="&#xc9;" d="M113 331v-315h344c5 0 8 -4 8 -8s-3 -8 -8 -8h-354c-5 0 -8 4 -8 9v655c0 5 3 9 8 9h342c5 0 8 -4 8 -8s-3 -8 -8 -8h-332v-310h261c5 0 8 -4 8 -8s-3 -8 -8 -8h-261zM343 858c6 -5 5 -11 0 -16l-106 -114c-3 -3 -6 -4 -10 -1c-3 3 -3 7 0 10l101 119c4 5 9 7 15 2z" />
<glyph unicode="&#xd1;" horiz-adv-x="620" d="M514 32v640c0 5 4 9 9 9s9 -4 9 -9v-671c0 -5 -4 -9 -9 -9c-4 0 -7 2 -9 5l-413 644v-640c0 -5 -4 -9 -9 -9s-9 4 -9 9v671c0 5 4 9 9 9c4 0 6 -2 8 -5zM383 756c28 0 41 12 52 34c3 6 5 8 10 8s8 -4 8 -8c0 -2 -1 -5 -2 -7c-10 -21 -29 -43 -68 -43 c-55 0 -80 42 -128 42c-28 0 -41 -12 -52 -34c-3 -6 -5 -8 -10 -8s-8 4 -8 8c0 2 1 5 2 7c10 21 29 43 68 43c55 0 79 -42 128 -42z" />
<glyph unicode="&#xd6;" horiz-adv-x="700" d="M350 2c185 0 283 113 283 334c0 222 -98 335 -283 335s-283 -113 -283 -335c0 -221 98 -334 283 -334zM350 687c193 0 301 -114 301 -351c0 -236 -108 -350 -301 -350s-301 114 -301 350c0 237 108 351 301 351zM292 748c-11 0 -15 5 -15 16s4 16 15 16 c10 0 15 -5 15 -16s-5 -16 -15 -16zM414 748c-11 0 -15 5 -15 16s4 16 15 16c10 0 15 -5 15 -16s-5 -16 -15 -16z" />
<glyph unicode="&#xdc;" horiz-adv-x="625" d="M522 186v486c0 5 4 9 9 9s9 -4 9 -9v-486c0 -106 -37 -200 -221 -200s-224 94 -224 200v486c0 5 4 9 9 9s9 -4 9 -9v-486c0 -100 36 -184 206 -184s203 84 203 184zM257 748c-11 0 -15 5 -15 16s4 16 15 16c10 0 15 -5 15 -16s-5 -16 -15 -16zM379 748 c-11 0 -15 5 -15 16s4 16 15 16c10 0 15 -5 15 -16s-5 -16 -15 -16z" />
<glyph unicode="&#xe9;" horiz-adv-x="466" d="M45 228c0 164 71 240 199 240c166 0 183 -124 183 -191c0 -12 -1 -27 -3 -39c-2 -10 -7 -12 -16 -12h-345c0 -151 61 -223 181 -223c78 0 123 28 152 49c3 2 5 4 8 4c4 0 8 -3 8 -8c0 -3 -1 -4 -3 -6c-26 -21 -78 -55 -165 -55c-128 0 -199 76 -199 241zM410 277 c0 80 -28 175 -166 175c-120 0 -180 -75 -180 -210h345s1 27 1 35zM322 655c6 -5 5 -11 0 -16l-106 -114c-3 -3 -6 -4 -10 -1c-3 3 -3 7 0 10l101 119c4 5 9 7 15 2z" />
<glyph unicode="&#xe8;" horiz-adv-x="466" d="M45 228c0 164 71 240 199 240c166 0 183 -124 183 -191c0 -12 -1 -27 -3 -39c-2 -10 -7 -12 -16 -12h-345c0 -151 61 -223 181 -223c78 0 123 28 152 49c3 2 5 4 8 4c4 0 8 -3 8 -8c0 -3 -1 -4 -3 -6c-26 -21 -78 -55 -165 -55c-128 0 -199 76 -199 241zM410 277 c0 80 -28 175 -166 175c-120 0 -180 -75 -180 -210h345s1 27 1 35zM176 655c6 5 11 3 15 -2l101 -119c3 -3 3 -7 0 -10c-4 -3 -7 -2 -10 1l-106 114c-5 5 -6 11 0 16z" />
<glyph unicode="&#xea;" horiz-adv-x="466" d="M45 228c0 164 71 240 199 240c166 0 183 -124 183 -191c0 -12 -1 -27 -3 -39c-2 -10 -7 -12 -16 -12h-345c0 -151 61 -223 181 -223c78 0 123 28 152 49c3 2 5 4 8 4c4 0 8 -3 8 -8c0 -3 -1 -4 -3 -6c-26 -21 -78 -55 -165 -55c-128 0 -199 76 -199 241zM410 277 c0 80 -28 175 -166 175c-120 0 -180 -75 -180 -210h345s1 27 1 35zM349 553l-100 80l-100 -80c-2 -2 -4 -3 -7 -3c-4 0 -8 4 -8 8c0 3 1 5 5 8l101 80c4 3 6 4 9 4s5 -1 9 -4l101 -80c4 -3 5 -5 5 -8c0 -4 -4 -8 -8 -8c-3 0 -5 1 -7 3z" />
<glyph unicode="&#xeb;" horiz-adv-x="466" d="M45 228c0 164 71 240 199 240c166 0 183 -124 183 -191c0 -12 -1 -27 -3 -39c-2 -10 -7 -12 -16 -12h-345c0 -151 61 -223 181 -223c78 0 123 28 152 49c3 2 5 4 8 4c4 0 8 -3 8 -8c0 -3 -1 -4 -3 -6c-26 -21 -78 -55 -165 -55c-128 0 -199 76 -199 241zM410 277 c0 80 -28 175 -166 175c-120 0 -180 -75 -180 -210h345s1 27 1 35zM188 551c-11 0 -15 5 -15 16s4 16 15 16c10 0 15 -5 15 -16s-5 -16 -15 -16zM310 551c-11 0 -15 5 -15 16s4 16 15 16c10 0 15 -5 15 -16s-5 -16 -15 -16z" />
<glyph unicode="&#xf1;" horiz-adv-x="500" d="M98 453v-90c14 46 65 105 162 105c141 0 170 -85 170 -177v-290c0 -5 -4 -9 -9 -9s-9 4 -9 9v299c0 81 -30 151 -152 151c-109 0 -162 -79 -162 -155v-295c0 -5 -4 -9 -9 -9s-9 4 -9 9v452c0 5 4 9 9 9s9 -4 9 -9zM322 560c28 0 41 12 52 34c3 6 5 8 10 8s8 -4 8 -8 c0 -2 -1 -5 -2 -7c-10 -21 -29 -43 -68 -43c-55 0 -80 42 -128 42c-28 0 -41 -12 -52 -34c-3 -6 -5 -8 -10 -8s-8 4 -8 8c0 2 1 5 2 7c10 21 29 43 68 43c55 0 79 -42 128 -42z" />
<glyph unicode="&#xfa;" horiz-adv-x="490" d="M245 4c122 0 157 70 157 151v298c0 5 4 9 9 9s9 -4 9 -9v-289c0 -92 -34 -177 -175 -177s-175 85 -175 177v289c0 5 4 9 9 9s9 -4 9 -9v-298c0 -81 35 -151 157 -151zM327 655c6 -5 5 -11 0 -16l-106 -114c-3 -3 -6 -4 -10 -1c-3 3 -3 7 0 10l101 119c4 5 9 7 15 2z" />
<glyph unicode="&#xf9;" horiz-adv-x="490" d="M245 4c122 0 157 70 157 151v298c0 5 4 9 9 9s9 -4 9 -9v-289c0 -92 -34 -177 -175 -177s-175 85 -175 177v289c0 5 4 9 9 9s9 -4 9 -9v-298c0 -81 35 -151 157 -151zM179 655c6 5 11 3 15 -2l101 -119c3 -3 3 -7 0 -10c-4 -3 -7 -2 -10 1l-106 114c-5 5 -6 11 0 16z" />
<glyph unicode="&#xfb;" horiz-adv-x="490" d="M245 4c122 0 157 70 157 151v298c0 5 4 9 9 9s9 -4 9 -9v-289c0 -92 -34 -177 -175 -177s-175 85 -175 177v289c0 5 4 9 9 9s9 -4 9 -9v-298c0 -81 35 -151 157 -151zM351 553l-100 80l-100 -80c-2 -2 -4 -3 -7 -3c-4 0 -8 4 -8 8c0 3 1 5 5 8l101 80c4 3 6 4 9 4 s5 -1 9 -4l101 -80c4 -3 5 -5 5 -8c0 -4 -4 -8 -8 -8c-3 0 -5 1 -7 3z" />
<glyph unicode="&#xfc;" horiz-adv-x="490" d="M245 4c122 0 157 70 157 151v298c0 5 4 9 9 9s9 -4 9 -9v-289c0 -92 -34 -177 -175 -177s-175 85 -175 177v289c0 5 4 9 9 9s9 -4 9 -9v-298c0 -81 35 -151 157 -151zM186 551c-11 0 -15 5 -15 16s4 16 15 16c10 0 15 -5 15 -16s-5 -16 -15 -16zM308 551 c-11 0 -15 5 -15 16s4 16 15 16c10 0 15 -5 15 -16s-5 -16 -15 -16z" />
<glyph unicode="&#xff;" horiz-adv-x="428" d="M25 -201c-5 0 -8 4 -8 8s3 8 8 8c106 0 126 45 180 184l-179 447c-1 3 -2 4 -2 7c0 5 4 9 9 9c4 0 7 -2 9 -7l172 -435l172 435c2 5 5 7 9 7c5 0 9 -4 9 -9c0 -3 -1 -4 -2 -7l-207 -516c-40 -99 -78 -131 -170 -131zM152 551c-11 0 -15 5 -15 16s4 16 15 16 c10 0 15 -5 15 -16s-5 -16 -15 -16zM274 551c-11 0 -15 5 -15 16s4 16 15 16c10 0 15 -5 15 -16s-5 -16 -15 -16z" />
<glyph unicode="&#x178;" d="M252 344l209 332c2 3 4 5 8 5c5 0 9 -4 9 -9c0 -1 0 -3 -2 -6l-215 -341v-324c0 -5 -4 -9 -9 -9s-9 4 -9 9v324l-215 341c-2 3 -2 5 -2 6c0 5 4 9 9 9c4 0 6 -2 8 -5zM192 748c-11 0 -15 5 -15 16s4 16 15 16c10 0 15 -5 15 -16s-5 -16 -15 -16zM314 748 c-11 0 -15 5 -15 16s4 16 15 16c10 0 15 -5 15 -16s-5 -16 -15 -16z" />
<glyph unicode="&#xc0;" horiz-adv-x="604" d="M468 222h-332l-87 -223c-2 -5 -4 -7 -9 -7c-4 0 -9 3 -9 8c0 1 0 3 1 5l263 671c1 3 4 5 7 5s6 -2 7 -5l263 -671c1 -2 1 -4 1 -5c0 -5 -5 -8 -9 -8c-5 0 -7 2 -9 7zM462 238l-160 411l-160 -411h320zM220 858c6 5 11 3 15 -2l101 -119c3 -3 3 -7 0 -10 c-4 -3 -7 -2 -10 1l-106 114c-5 5 -6 11 0 16z" />
<glyph unicode="&#xc3;" horiz-adv-x="604" d="M468 222h-332l-87 -223c-2 -5 -4 -7 -9 -7c-4 0 -9 3 -9 8c0 1 0 3 1 5l263 671c1 3 4 5 7 5s6 -2 7 -5l263 -671c1 -2 1 -4 1 -5c0 -5 -5 -8 -9 -8c-5 0 -7 2 -9 7zM462 238l-160 411l-160 -411h320zM366 756c28 0 41 12 52 34c3 6 5 8 10 8s8 -4 8 -8c0 -2 -1 -5 -2 -7 c-10 -21 -29 -43 -68 -43c-55 0 -80 42 -128 42c-28 0 -41 -12 -52 -34c-3 -6 -5 -8 -10 -8s-8 4 -8 8c0 2 1 5 2 7c10 21 29 43 68 43c55 0 79 -42 128 -42z" />
<glyph unicode="&#xd5;" horiz-adv-x="700" d="M350 2c185 0 283 113 283 334c0 222 -98 335 -283 335s-283 -113 -283 -335c0 -221 98 -334 283 -334zM350 687c193 0 301 -114 301 -351c0 -236 -108 -350 -301 -350s-301 114 -301 350c0 237 108 351 301 351zM414 756c28 0 41 12 52 34c3 6 5 8 10 8s8 -4 8 -8 c0 -2 -1 -5 -2 -7c-10 -21 -29 -43 -68 -43c-55 0 -80 42 -128 42c-28 0 -41 -12 -52 -34c-3 -6 -5 -8 -10 -8s-8 4 -8 8c0 2 1 5 2 7c10 21 29 43 68 43c55 0 79 -42 128 -42z" />
<glyph unicode="&#xc2;" horiz-adv-x="604" d="M468 222h-332l-87 -223c-2 -5 -4 -7 -9 -7c-4 0 -9 3 -9 8c0 1 0 3 1 5l263 671c1 3 4 5 7 5s6 -2 7 -5l263 -671c1 -2 1 -4 1 -5c0 -5 -5 -8 -9 -8c-5 0 -7 2 -9 7zM462 238l-160 411l-160 -411h320zM402 745l-100 80l-100 -80c-2 -2 -4 -3 -7 -3c-4 0 -8 4 -8 8 c0 3 1 5 5 8l101 80c4 3 6 4 9 4s5 -1 9 -4l101 -80c4 -3 5 -5 5 -8c0 -4 -4 -8 -8 -8c-3 0 -5 1 -7 3z" />
<glyph unicode="&#xca;" d="M113 331v-315h344c5 0 8 -4 8 -8s-3 -8 -8 -8h-354c-5 0 -8 4 -8 9v655c0 5 3 9 8 9h342c5 0 8 -4 8 -8s-3 -8 -8 -8h-332v-310h261c5 0 8 -4 8 -8s-3 -8 -8 -8h-261zM381 745l-100 80l-100 -80c-2 -2 -4 -3 -7 -3c-4 0 -8 4 -8 8c0 3 1 5 5 8l101 80c4 3 6 4 9 4 s5 -1 9 -4l101 -80c4 -3 5 -5 5 -8c0 -4 -4 -8 -8 -8c-3 0 -5 1 -7 3z" />
<glyph unicode="&#xc1;" horiz-adv-x="604" d="M468 222h-332l-87 -223c-2 -5 -4 -7 -9 -7c-4 0 -9 3 -9 8c0 1 0 3 1 5l263 671c1 3 4 5 7 5s6 -2 7 -5l263 -671c1 -2 1 -4 1 -5c0 -5 -5 -8 -9 -8c-5 0 -7 2 -9 7zM462 238l-160 411l-160 -411h320zM375 858c6 -5 5 -11 0 -16l-106 -114c-3 -3 -6 -4 -10 -1 c-3 3 -3 7 0 10l101 119c4 5 9 7 15 2z" />
<glyph unicode="&#xcb;" horiz-adv-x="507" d="M113 331v-315h344c5 0 8 -4 8 -8s-3 -8 -8 -8h-354c-5 0 -8 4 -8 9v655c0 5 3 9 8 9h342c5 0 8 -4 8 -8s-3 -8 -8 -8h-332v-310h261c5 0 8 -4 8 -8s-3 -8 -8 -8h-261zM220 748c-11 0 -15 5 -15 16s4 16 15 16c10 0 15 -5 15 -16s-5 -16 -15 -16zM342 748 c-11 0 -15 5 -15 16s4 16 15 16c10 0 15 -5 15 -16s-5 -16 -15 -16z" />
<glyph unicode="&#xc8;" d="M113 331v-315h344c5 0 8 -4 8 -8s-3 -8 -8 -8h-354c-5 0 -8 4 -8 9v655c0 5 3 9 8 9h342c5 0 8 -4 8 -8s-3 -8 -8 -8h-332v-310h261c5 0 8 -4 8 -8s-3 -8 -8 -8h-261zM219 858c6 5 11 3 15 -2l101 -119c3 -3 3 -7 0 -10c-4 -3 -7 -2 -10 1l-106 114c-5 5 -6 11 0 16z" />
<glyph unicode="&#xcd;" horiz-adv-x="208" d="M113 672v-671c0 -5 -4 -9 -9 -9s-9 4 -9 9v671c0 5 4 9 9 9s9 -4 9 -9zM192 858c6 -5 5 -11 0 -16l-106 -114c-3 -3 -6 -4 -10 -1c-3 3 -3 7 0 10l101 119c4 5 9 7 15 2z" />
<glyph unicode="&#xce;" horiz-adv-x="208" d="M113 672v-671c0 -5 -4 -9 -9 -9s-9 4 -9 9v671c0 5 4 9 9 9s9 -4 9 -9zM204 744l-100 80l-100 -80c-2 -2 -4 -3 -7 -3c-4 0 -8 4 -8 8c0 3 1 5 5 8l101 80c4 3 6 4 9 4s5 -1 9 -4l101 -80c4 -3 5 -5 5 -8c0 -4 -4 -8 -8 -8c-3 0 -5 1 -7 3z" />
<glyph unicode="&#xcf;" horiz-adv-x="208" d="M113 672v-671c0 -5 -4 -9 -9 -9s-9 4 -9 9v671c0 5 4 9 9 9s9 -4 9 -9zM41 748c-11 0 -15 5 -15 16s4 16 15 16c10 0 15 -5 15 -16s-5 -16 -15 -16zM163 748c-11 0 -15 5 -15 16s4 16 15 16c10 0 15 -5 15 -16s-5 -16 -15 -16z" />
<glyph unicode="&#xcc;" horiz-adv-x="212" d="M108 672v-671c0 -5 -4 -9 -9 -9s-9 4 -9 9v671c0 5 4 9 9 9s9 -4 9 -9zM19 858c6 5 11 3 15 -2l101 -119c3 -3 3 -7 0 -10c-4 -3 -7 -2 -10 1l-106 114c-5 5 -6 11 0 16z" />
<glyph unicode="&#xd3;" horiz-adv-x="700" d="M350 2c185 0 283 113 283 334c0 222 -98 335 -283 335s-283 -113 -283 -335c0 -221 98 -334 283 -334zM350 687c193 0 301 -114 301 -351c0 -236 -108 -350 -301 -350s-301 114 -301 350c0 237 108 351 301 351zM433 858c6 -5 5 -11 0 -16l-106 -114c-3 -3 -6 -4 -10 -1 c-3 3 -3 7 0 10l101 119c4 5 9 7 15 2z" />
<glyph unicode="&#xd4;" horiz-adv-x="700" d="M350 2c185 0 283 113 283 334c0 222 -98 335 -283 335s-283 -113 -283 -335c0 -221 98 -334 283 -334zM350 687c193 0 301 -114 301 -351c0 -236 -108 -350 -301 -350s-301 114 -301 350c0 237 108 351 301 351zM450 745l-100 80l-100 -80c-2 -2 -4 -3 -7 -3 c-4 0 -8 4 -8 8c0 3 1 5 5 8l101 80c4 3 6 4 9 4s5 -1 9 -4l101 -80c4 -3 5 -5 5 -8c0 -4 -4 -8 -8 -8c-3 0 -5 1 -7 3z" />
<glyph unicode="&#xd2;" horiz-adv-x="700" d="M350 2c185 0 283 113 283 334c0 222 -98 335 -283 335s-283 -113 -283 -335c0 -221 98 -334 283 -334zM350 687c193 0 301 -114 301 -351c0 -236 -108 -350 -301 -350s-301 114 -301 350c0 237 108 351 301 351zM281 858c6 5 11 3 15 -2l101 -119c3 -3 3 -7 0 -10 c-4 -3 -7 -2 -10 1l-106 114c-5 5 -6 11 0 16z" />
<glyph unicode="&#xda;" horiz-adv-x="625" d="M522 186v486c0 5 4 9 9 9s9 -4 9 -9v-486c0 -106 -37 -200 -221 -200s-224 94 -224 200v486c0 5 4 9 9 9s9 -4 9 -9v-486c0 -100 36 -184 206 -184s203 84 203 184zM390 858c6 -5 5 -11 0 -16l-106 -114c-3 -3 -6 -4 -10 -1c-3 3 -3 7 0 10l101 119c4 5 9 7 15 2z" />
<glyph unicode="&#xdb;" horiz-adv-x="625" d="M522 186v486c0 5 4 9 9 9s9 -4 9 -9v-486c0 -106 -37 -200 -221 -200s-224 94 -224 200v486c0 5 4 9 9 9s9 -4 9 -9v-486c0 -100 36 -184 206 -184s203 84 203 184zM423 745l-100 80l-100 -80c-2 -2 -4 -3 -7 -3c-4 0 -8 4 -8 8c0 3 1 5 5 8l101 80c4 3 6 4 9 4 s5 -1 9 -4l101 -80c4 -3 5 -5 5 -8c0 -4 -4 -8 -8 -8c-3 0 -5 1 -7 3z" />
<glyph unicode="&#xd9;" horiz-adv-x="625" d="M522 186v486c0 5 4 9 9 9s9 -4 9 -9v-486c0 -106 -37 -200 -221 -200s-224 94 -224 200v486c0 5 4 9 9 9s9 -4 9 -9v-486c0 -100 36 -184 206 -184s203 84 203 184zM262 858c6 5 11 3 15 -2l101 -119c3 -3 3 -7 0 -10c-4 -3 -7 -2 -10 1l-106 114c-5 5 -6 11 0 16z" />
<glyph unicode="&#x20ac;" horiz-adv-x="629" d="M52 266h-38c-5 0 -8 4 -8 8s3 8 8 8h37c-2 17 -2 35 -2 54c0 16 0 31 1 46h-36c-5 0 -8 4 -8 8s3 8 8 8h37c18 195 123 289 299 289c95 0 177 -39 222 -102c2 -3 2 -5 2 -6c0 -5 -4 -9 -9 -9c-3 0 -6 1 -8 4c-38 56 -120 97 -207 97c-167 0 -263 -92 -280 -273h218 c5 0 8 -4 8 -8s-3 -8 -8 -8h-220c-1 -15 -1 -30 -1 -46c0 -19 0 -37 2 -54h219c5 0 8 -4 8 -8s-3 -8 -8 -8h-218c20 -175 115 -264 280 -264c87 0 174 40 212 97c2 3 5 4 8 4c5 0 9 -4 9 -9c0 -1 0 -3 -2 -6c-45 -63 -132 -102 -227 -102c-173 0 -278 91 -298 280z" />
<glyph unicode="&#xc6;" horiz-adv-x="832" d="M437 331v-315h344c5 0 8 -4 8 -8s-3 -8 -8 -8h-353c-5 0 -9 4 -9 9v213h-252l-138 -224c-2 -3 -4 -6 -9 -6s-9 4 -9 9c0 3 2 6 4 9l405 657c3 5 7 6 10 6h339c5 0 8 -4 8 -8s-3 -8 -8 -8h-332v-310h261c5 0 8 -4 8 -8s-3 -8 -8 -8h-261zM176 238h243v395z" />
<glyph unicode="&#xf3;" horiz-adv-x="488" d="M242 3c120 0 181 72 181 224c0 153 -61 225 -181 225s-181 -72 -181 -225c0 -152 61 -224 181 -224zM242 -13c-128 0 -199 76 -199 240c0 165 71 241 199 241s199 -76 199 -241c0 -164 -71 -240 -199 -240zM328 655c6 -5 5 -11 0 -16l-106 -114c-3 -3 -6 -4 -10 -1 c-3 3 -3 7 0 10l101 119c4 5 9 7 15 2z" />
<glyph unicode="&#xf2;" horiz-adv-x="488" d="M242 3c120 0 181 72 181 224c0 153 -61 225 -181 225s-181 -72 -181 -225c0 -152 61 -224 181 -224zM242 -13c-128 0 -199 76 -199 240c0 165 71 241 199 241s199 -76 199 -241c0 -164 -71 -240 -199 -240zM188 655c6 5 11 3 15 -2l101 -119c3 -3 3 -7 0 -10 c-4 -3 -7 -2 -10 1l-106 114c-5 5 -6 11 0 16z" />
<glyph unicode="&#xf4;" horiz-adv-x="488" d="M242 3c120 0 181 72 181 224c0 153 -61 225 -181 225s-181 -72 -181 -225c0 -152 61 -224 181 -224zM242 -13c-128 0 -199 76 -199 240c0 165 71 241 199 241s199 -76 199 -241c0 -164 -71 -240 -199 -240zM345 553l-100 80l-100 -80c-2 -2 -4 -3 -7 -3c-4 0 -8 4 -8 8 c0 3 1 5 5 8l101 80c4 3 6 4 9 4s5 -1 9 -4l101 -80c4 -3 5 -5 5 -8c0 -4 -4 -8 -8 -8c-3 0 -5 1 -7 3z" />
<glyph unicode="&#xf6;" horiz-adv-x="488" d="M242 3c120 0 181 72 181 224c0 153 -61 225 -181 225s-181 -72 -181 -225c0 -152 61 -224 181 -224zM242 -13c-128 0 -199 76 -199 240c0 165 71 241 199 241s199 -76 199 -241c0 -164 -71 -240 -199 -240zM183 551c-11 0 -15 5 -15 16s4 16 15 16c10 0 15 -5 15 -16 s-5 -16 -15 -16zM305 551c-11 0 -15 5 -15 16s4 16 15 16c10 0 15 -5 15 -16s-5 -16 -15 -16z" />
<glyph unicode="&#xf5;" horiz-adv-x="488" d="M242 3c120 0 181 72 181 224c0 153 -61 225 -181 225s-181 -72 -181 -225c0 -152 61 -224 181 -224zM242 -13c-128 0 -199 76 -199 240c0 165 71 241 199 241s199 -76 199 -241c0 -164 -71 -240 -199 -240zM310 560c28 0 41 12 52 34c3 6 5 8 10 8s8 -4 8 -8 c0 -2 -1 -5 -2 -7c-10 -21 -29 -43 -68 -43c-55 0 -80 42 -128 42c-28 0 -41 -12 -52 -34c-3 -6 -5 -8 -10 -8s-8 4 -8 8c0 2 1 5 2 7c10 21 29 43 68 43c55 0 79 -42 128 -42z" />
<glyph unicode="&#x100;" horiz-adv-x="604" d="M468 222h-332l-87 -223c-2 -5 -4 -7 -9 -7c-4 0 -9 3 -9 8c0 1 0 3 1 5l263 671c1 3 4 5 7 5s6 -2 7 -5l263 -671c1 -2 1 -4 1 -5c0 -5 -5 -8 -9 -8c-5 0 -7 2 -9 7zM462 238l-160 411l-160 -411h320zM407 755h-210c-5 0 -8 4 -8 8s3 8 8 8h210c5 0 8 -4 8 -8 s-3 -8 -8 -8z" />
<glyph unicode="&#x101;" horiz-adv-x="462" d="M392 311v-310c0 -5 -4 -8 -9 -8s-8 3 -8 8v73c-27 -59 -95 -86 -169 -86c-112 0 -166 57 -166 136c0 88 67 135 168 135h167v52c0 91 -57 141 -149 141c-81 0 -120 -33 -143 -72c-2 -4 -5 -6 -9 -6s-8 4 -8 8c0 3 1 5 3 8c26 42 73 78 157 78c111 0 166 -63 166 -157z M206 4c87 0 169 40 169 134v106h-167c-89 0 -150 -43 -150 -120c0 -73 51 -120 148 -120zM330 559h-210c-5 0 -8 4 -8 8s3 8 8 8h210c5 0 8 -4 8 -8s-3 -8 -8 -8z" />
<glyph unicode="&#x102;" horiz-adv-x="604" d="M468 222h-332l-87 -223c-2 -5 -4 -7 -9 -7c-4 0 -9 3 -9 8c0 1 0 3 1 5l263 671c1 3 4 5 7 5s6 -2 7 -5l263 -671c1 -2 1 -4 1 -5c0 -5 -5 -8 -9 -8c-5 0 -7 2 -9 7zM462 238l-160 411l-160 -411h320zM302 738c-55 0 -101 20 -101 87c0 4 3 8 8 8s8 -4 8 -8 c0 -56 33 -72 85 -72s85 16 85 72c0 4 3 8 8 8s8 -4 8 -8c0 -67 -46 -87 -101 -87z" />
<glyph unicode="&#x103;" horiz-adv-x="462" d="M392 311v-310c0 -5 -4 -8 -9 -8s-8 3 -8 8v73c-27 -59 -95 -86 -169 -86c-112 0 -166 57 -166 136c0 88 67 135 168 135h167v52c0 91 -57 141 -149 141c-81 0 -120 -33 -143 -72c-2 -4 -5 -6 -9 -6s-8 4 -8 8c0 3 1 5 3 8c26 42 73 78 157 78c111 0 166 -63 166 -157z M206 4c87 0 169 40 169 134v106h-167c-89 0 -150 -43 -150 -120c0 -73 51 -120 148 -120zM225 537c-55 0 -101 20 -101 87c0 4 3 8 8 8s8 -4 8 -8c0 -56 33 -72 85 -72s85 16 85 72c0 4 3 8 8 8s8 -4 8 -8c0 -67 -46 -87 -101 -87z" />
<glyph unicode="&#xa4;" horiz-adv-x="467" d="M413 312c0 -47 -18 -89 -46 -122l64 -64c3 -3 4 -6 4 -8c0 -5 -4 -9 -9 -9c-2 0 -5 0 -8 4l-63 64c-32 -30 -74 -47 -120 -47c-48 0 -91 18 -122 49l-65 -66c-3 -4 -6 -4 -8 -4c-5 0 -9 4 -9 9c0 2 1 5 4 8l65 66c-27 32 -43 74 -43 120s17 89 45 121l-67 68 c-3 3 -4 6 -4 8c0 5 4 9 9 9c2 0 5 0 8 -4l66 -68c32 30 74 48 121 48c46 0 87 -17 118 -46l65 66c3 4 6 4 8 4c5 0 9 -4 9 -9c0 -2 -1 -5 -4 -8l-65 -66c29 -32 47 -76 47 -123zM395 312c0 92 -68 165 -160 165s-160 -73 -160 -165s68 -165 160 -165s160 73 160 165z" />
<glyph unicode="&#xdd;" d="M254 344l209 332c2 3 4 5 8 5c5 0 9 -4 9 -9c0 -1 0 -3 -2 -6l-215 -341v-324c0 -5 -4 -9 -9 -9s-9 4 -9 9v324l-215 341c-2 3 -2 5 -2 6c0 5 4 9 9 9c4 0 6 -2 8 -5zM333 858c6 -5 5 -11 0 -16l-106 -114c-3 -3 -6 -4 -10 -1c-3 3 -3 7 0 10l101 119c4 5 9 7 15 2z" />
<glyph unicode="&#xfd;" horiz-adv-x="428" d="M25 -201c-5 0 -8 4 -8 8s3 8 8 8c106 0 126 45 180 184l-179 447c-1 3 -2 4 -2 7c0 5 4 9 9 9c4 0 7 -2 9 -7l172 -435l172 435c2 5 5 7 9 7c5 0 9 -4 9 -9c0 -3 -1 -4 -2 -7l-207 -516c-40 -99 -78 -131 -170 -131zM301 655c6 -5 5 -11 0 -16l-106 -114 c-3 -3 -6 -4 -10 -1c-3 3 -3 7 0 10l101 119c4 5 9 7 15 2z" />
<glyph unicode="&#xd0;" horiz-adv-x="603" d="M251 0h-147c-5 0 -9 4 -9 9v333h-58c-5 0 -8 4 -8 8s3 8 8 8h58v306c0 5 4 9 9 9h147c191 0 303 -90 303 -337s-112 -336 -303 -336zM113 657v-299h239c5 0 8 -4 8 -8s-3 -8 -8 -8h-239v-326h138c179 0 285 85 285 320c0 233 -106 321 -285 321h-138z" />
<glyph horiz-adv-x="695" d="M550 454h90c4 0 8 -4 8 -8s-4 -8 -8 -8h-90v-328c0 -65 21 -102 82 -102c5 0 8 -4 8 -8s-3 -8 -8 -8c-73 0 -100 50 -100 118v328h-62c-4 0 -8 4 -8 8s4 8 8 8h62v74c0 87 -37 142 -125 142c-81 0 -111 -53 -111 -100c0 -68 46 -111 89 -156c3 -3 4 -5 4 -7 c0 -4 -3 -8 -8 -8c-3 0 -5 1 -7 3c-25 25 -61 50 -130 50c-120 0 -181 -72 -181 -225c0 -152 61 -224 181 -224c69 0 113 31 137 50c3 2 4 3 7 3c5 0 8 -4 8 -8c0 -2 -1 -5 -5 -8c-14 -11 -66 -53 -147 -53c-128 0 -199 76 -199 240s71 241 199 241c43 0 80 -12 102 -26 c-33 32 -65 77 -65 128c0 55 31 117 128 117c90 0 141 -56 141 -159v-74z" />
<glyph unicode="&#x11c;" horiz-adv-x="670" d="M350 -14c-193 0 -301 114 -301 350c0 237 108 351 301 351c95 0 177 -39 222 -102c2 -3 2 -5 2 -6c0 -5 -4 -9 -9 -9c-3 0 -6 1 -8 4c-38 56 -120 97 -207 97c-185 0 -283 -113 -283 -335c0 -221 98 -334 283 -334c95 0 183 47 222 109v183h-196c-5 0 -8 4 -8 8s3 8 8 8 h200c7 0 14 -6 14 -13v-180c0 -8 -3 -14 -8 -21c-48 -65 -134 -110 -232 -110zM447 745l-100 80l-100 -80c-2 -2 -4 -3 -7 -3c-4 0 -8 4 -8 8c0 3 1 5 5 8l101 80c4 3 6 4 9 4s5 -1 9 -4l101 -80c4 -3 5 -5 5 -8c0 -4 -4 -8 -8 -8c-3 0 -5 1 -7 3z" />
<glyph unicode="&#x1ff;" horiz-adv-x="488" d="M244 -13c-66 0 -117 20 -151 62l-47 -51c-2 -2 -4 -3 -7 -3c-5 0 -9 4 -9 9c0 2 1 5 4 7l49 52c-25 39 -38 93 -38 164c0 165 71 241 199 241c68 0 120 -22 154 -67l52 56c2 2 4 3 7 3c5 0 9 -4 9 -9c0 -2 -1 -5 -4 -7l-54 -58c23 -38 35 -91 35 -159 c0 -164 -71 -240 -199 -240zM63 227c0 -64 11 -114 32 -150l291 311c-30 43 -78 64 -142 64c-120 0 -181 -72 -181 -225zM244 3c120 0 181 72 181 224c0 61 -10 110 -30 146l-290 -311c30 -40 77 -59 139 -59zM328 655c6 -5 5 -11 0 -16l-106 -114c-3 -3 -6 -4 -10 -1 c-3 3 -3 7 0 10l101 119c4 5 9 7 15 2z" />
<glyph unicode="&#x237;" horiz-adv-x="183" d="M-24 -185c68 0 109 54 109 127v511c0 5 4 9 9 9s9 -4 9 -9v-511c0 -80 -46 -143 -127 -143c-5 0 -8 4 -8 8s3 8 8 8z" />
<glyph unicode="&#x12b;" horiz-adv-x="178" d="M193 559h-210c-5 0 -8 4 -8 8s3 8 8 8h210c5 0 8 -4 8 -8s-3 -8 -8 -8zM98 453v-452c0 -5 -4 -9 -9 -9s-9 4 -9 9v452c0 5 4 9 9 9s9 -4 9 -9z" />
<glyph unicode="&#x12d;" horiz-adv-x="178" d="M88 537c-55 0 -101 20 -101 87c0 4 3 8 8 8s8 -4 8 -8c0 -56 33 -72 85 -72s85 16 85 72c0 4 3 8 8 8s8 -4 8 -8c0 -67 -46 -87 -101 -87zM98 453v-452c0 -5 -4 -9 -9 -9s-9 4 -9 9v452c0 5 4 9 9 9s9 -4 9 -9z" />
<glyph unicode="&#x132;" horiz-adv-x="570" d="M113 672v-671c0 -5 -4 -9 -9 -9s-9 4 -9 9v671c0 5 4 9 9 9s9 -4 9 -9zM457 189v483c0 5 4 9 9 9s9 -4 9 -9v-483c0 -118 -36 -203 -168 -203c-37 0 -77 8 -103 22c-2 1 -5 3 -5 8c0 4 3 8 8 8c3 0 5 -1 11 -4c25 -12 58 -17 89 -17c119 0 150 76 150 186z" />
<glyph unicode="&#x133;" horiz-adv-x="359" d="M89 603c-8 0 -12 4 -12 15c0 12 4 16 12 16s12 -4 12 -16c0 -11 -4 -15 -12 -15zM98 453v-452c0 -5 -4 -9 -9 -9s-9 4 -9 9v452c0 5 4 9 9 9s9 -4 9 -9zM269 603c-8 0 -12 4 -12 15c0 12 4 16 12 16s12 -4 12 -16c0 -11 -4 -15 -12 -15zM152 -185c68 0 109 54 109 127 v511c0 5 4 9 9 9s9 -4 9 -9v-511c0 -80 -46 -143 -127 -143c-5 0 -8 4 -8 8s3 8 8 8z" />
<glyph unicode="&#x1e85;" horiz-adv-x="656" d="M453 0l-125 430l-125 -430c-1 -4 -4 -8 -10 -8c-5 0 -8 4 -9 8l-158 445c-1 3 -2 5 -2 8c0 5 4 9 9 9s8 -4 9 -7l151 -432l126 432c1 4 4 7 9 7s8 -3 9 -7l126 -432l151 432c1 3 4 7 9 7s9 -4 9 -9c0 -3 -1 -5 -2 -8l-158 -445c-1 -4 -4 -8 -9 -8c-6 0 -9 4 -10 8z M267 551c-11 0 -15 5 -15 16s4 16 15 16c10 0 15 -5 15 -16s-5 -16 -15 -16zM389 551c-11 0 -15 5 -15 16s4 16 15 16c10 0 15 -5 15 -16s-5 -16 -15 -16z" />
<glyph unicode="&#x1e83;" horiz-adv-x="656" d="M453 0l-125 430l-125 -430c-1 -4 -4 -8 -10 -8c-5 0 -8 4 -9 8l-158 445c-1 3 -2 5 -2 8c0 5 4 9 9 9s8 -4 9 -7l151 -432l126 432c1 4 4 7 9 7s8 -3 9 -7l126 -432l151 432c1 3 4 7 9 7s9 -4 9 -9c0 -3 -1 -5 -2 -8l-158 -445c-1 -4 -4 -8 -9 -8c-6 0 -9 4 -10 8z M385 655c6 -5 5 -11 0 -16l-106 -114c-3 -3 -6 -4 -10 -1c-3 3 -3 7 0 10l101 119c4 5 9 7 15 2z" />
<glyph unicode="&#x1e80;" horiz-adv-x="826" d="M592 -1l-179 645l-179 -645c-2 -5 -5 -7 -9 -7s-8 2 -9 7l-184 667c-1 4 -1 5 -1 6c0 5 4 9 9 9s8 -3 9 -8l176 -649l179 650c1 4 4 7 9 7s8 -3 9 -7l179 -650l176 649c1 5 4 8 9 8s9 -4 9 -9c0 -1 0 -2 -1 -6l-184 -667c-1 -5 -5 -7 -9 -7s-7 2 -9 7zM356 858 c6 5 11 3 15 -2l101 -119c3 -3 3 -7 0 -10c-4 -3 -7 -2 -10 1l-106 114c-5 5 -6 11 0 16z" />
<glyph unicode="&#x1e81;" horiz-adv-x="656" d="M453 0l-125 430l-125 -430c-1 -4 -4 -8 -10 -8c-5 0 -8 4 -9 8l-158 445c-1 3 -2 5 -2 8c0 5 4 9 9 9s8 -4 9 -7l151 -432l126 432c1 4 4 7 9 7s8 -3 9 -7l126 -432l151 432c1 3 4 7 9 7s9 -4 9 -9c0 -3 -1 -5 -2 -8l-158 -445c-1 -4 -4 -8 -9 -8c-6 0 -9 4 -10 8z M272 655c6 5 11 3 15 -2l101 -119c3 -3 3 -7 0 -10c-4 -3 -7 -2 -10 1l-106 114c-5 5 -6 11 0 16z" />
<glyph unicode="&#x1e82;" horiz-adv-x="826" d="M592 -1l-179 645l-179 -645c-2 -5 -5 -7 -9 -7s-8 2 -9 7l-184 667c-1 4 -1 5 -1 6c0 5 4 9 9 9s8 -3 9 -8l176 -649l179 650c1 4 4 7 9 7s8 -3 9 -7l179 -650l176 649c1 5 4 8 9 8s9 -4 9 -9c0 -1 0 -2 -1 -6l-184 -667c-1 -5 -5 -7 -9 -7s-7 2 -9 7zM479 858 c6 -5 5 -11 0 -16l-106 -114c-3 -3 -6 -4 -10 -1c-3 3 -3 7 0 10l101 119c4 5 9 7 15 2z" />
<glyph unicode="&#x218;" horiz-adv-x="545" d="M458 580c-36 54 -98 91 -188 91c-137 0 -179 -74 -179 -145c0 -196 397 -122 397 -354c0 -116 -74 -186 -226 -186c-110 0 -179 53 -219 115c-2 3 -3 6 -3 9c0 5 4 9 9 9s7 -3 10 -8c36 -60 102 -109 203 -109c139 0 208 63 208 170c0 217 -397 142 -397 354 c0 86 54 161 197 161c96 0 157 -35 202 -97c2 -3 2 -4 2 -6c0 -5 -4 -8 -8 -8c-3 0 -6 1 -8 4zM283 -67c0 -37 -8 -69 -24 -98c-2 -3 -4 -4 -7 -4s-6 3 -6 6s1 5 2 8c7 18 10 34 10 44c0 20 -9 27 -9 47c0 13 6 20 17 20c13 0 17 -10 17 -23z" />
<glyph unicode="&#x219;" horiz-adv-x="399" d="M196 452c-75 0 -126 -31 -126 -96c0 -137 288 -84 288 -245c0 -88 -67 -124 -160 -124c-83 0 -137 39 -164 68c-2 2 -3 4 -3 6c0 3 2 8 8 8c3 0 5 -2 7 -4c33 -34 81 -62 152 -62c84 0 142 32 142 108c0 147 -288 93 -288 245c0 76 62 112 144 112c66 0 119 -28 145 -66 c2 -3 2 -4 2 -6c0 -4 -4 -8 -8 -8c-3 0 -5 1 -7 4c-25 37 -74 60 -132 60zM224 -67c0 -37 -8 -69 -24 -98c-2 -3 -4 -4 -7 -4s-6 3 -6 6s1 5 2 8c7 18 10 34 10 44c0 20 -9 27 -9 47c0 13 6 20 17 20c13 0 17 -10 17 -23z" />
<glyph unicode="&#x13d;" horiz-adv-x="468" d="M355 659c0 -37 -8 -69 -24 -98c-2 -3 -4 -4 -7 -4s-6 3 -6 6s1 5 2 8c7 18 10 34 10 44c0 20 -9 27 -9 47c0 13 6 20 17 20c13 0 17 -10 17 -23zM113 672v-656h319c5 0 8 -4 8 -8s-3 -8 -8 -8h-329c-5 0 -8 4 -8 9v663c0 5 4 9 9 9s9 -4 9 -9z" />
<glyph unicode="&#x17e;" horiz-adv-x="390" d="M353 0h-316c-4 0 -8 3 -8 8c0 3 1 4 3 7l300 423h-274c-5 0 -8 4 -8 8s3 8 8 8h289c5 0 8 -4 8 -8c0 -3 -1 -4 -3 -7l-299 -423h300c4 0 8 -4 8 -8s-4 -8 -8 -8zM198 567l100 80c2 2 4 3 7 3c4 0 8 -4 8 -8c0 -3 -1 -5 -5 -8l-101 -80c-4 -3 -6 -4 -9 -4s-5 1 -9 4 l-101 80c-4 3 -5 5 -5 8c0 4 4 8 8 8c3 0 5 -1 7 -3z" />
<glyph unicode="&#x17d;" horiz-adv-x="497" d="M469 0h-445c-5 0 -8 4 -8 8c0 3 1 5 3 8l418 641h-390c-5 0 -8 4 -8 8s3 8 8 8h406c5 0 8 -4 8 -8c0 -2 -1 -4 -3 -7l-417 -642h428c5 0 8 -4 8 -8s-3 -8 -8 -8zM246 759l100 80c2 2 4 3 7 3c4 0 8 -4 8 -8c0 -3 -1 -5 -5 -8l-101 -80c-4 -3 -6 -4 -9 -4s-5 1 -9 4 l-101 80c-4 3 -5 5 -5 8c0 4 4 8 8 8c3 0 5 -1 7 -3z" />
<glyph unicode="&#x17c;" horiz-adv-x="390" d="M353 0h-316c-4 0 -8 3 -8 8c0 3 1 4 3 7l300 423h-274c-5 0 -8 4 -8 8s3 8 8 8h289c5 0 8 -4 8 -8c0 -3 -1 -4 -3 -7l-299 -423h300c4 0 8 -4 8 -8s-4 -8 -8 -8zM196 553c-11 0 -18 6 -18 18s7 18 18 18s18 -6 18 -18s-7 -18 -18 -18z" />
<glyph unicode="&#x17b;" horiz-adv-x="497" d="M469 0h-445c-5 0 -8 4 -8 8c0 3 1 5 3 8l418 641h-390c-5 0 -8 4 -8 8s3 8 8 8h406c5 0 8 -4 8 -8c0 -2 -1 -4 -3 -7l-417 -642h428c5 0 8 -4 8 -8s-3 -8 -8 -8zM248 754c-11 0 -18 6 -18 18s7 18 18 18s18 -6 18 -18s-7 -18 -18 -18z" />
<glyph unicode="&#x17a;" horiz-adv-x="390" d="M353 0h-316c-4 0 -8 3 -8 8c0 3 1 4 3 7l300 423h-274c-5 0 -8 4 -8 8s3 8 8 8h289c5 0 8 -4 8 -8c0 -3 -1 -4 -3 -7l-299 -423h300c4 0 8 -4 8 -8s-4 -8 -8 -8zM272 655c6 -5 5 -11 0 -16l-106 -114c-3 -3 -6 -4 -10 -1c-3 3 -3 7 0 10l101 119c4 5 9 7 15 2z" />
<glyph unicode="&#x179;" horiz-adv-x="497" d="M469 0h-445c-5 0 -8 4 -8 8c0 3 1 5 3 8l418 641h-390c-5 0 -8 4 -8 8s3 8 8 8h406c5 0 8 -4 8 -8c0 -2 -1 -4 -3 -7l-417 -642h428c5 0 8 -4 8 -8s-3 -8 -8 -8zM323 858c6 -5 5 -11 0 -16l-106 -114c-3 -3 -6 -4 -10 -1c-3 3 -3 7 0 10l101 119c4 5 9 7 15 2z" />
<glyph unicode="&#x177;" horiz-adv-x="428" d="M25 -201c-5 0 -8 4 -8 8s3 8 8 8c106 0 126 45 180 184l-179 447c-1 3 -2 4 -2 7c0 5 4 9 9 9c4 0 7 -2 9 -7l172 -435l172 435c2 5 5 7 9 7c5 0 9 -4 9 -9c0 -3 -1 -4 -2 -7l-207 -516c-40 -99 -78 -131 -170 -131zM315 553l-100 80l-100 -80c-2 -2 -4 -3 -7 -3 c-4 0 -8 4 -8 8c0 3 1 5 5 8l101 80c4 3 6 4 9 4s5 -1 9 -4l101 -80c4 -3 5 -5 5 -8c0 -4 -4 -8 -8 -8c-3 0 -5 1 -7 3z" />
<glyph unicode="&#x176;" d="M254 344l209 332c2 3 4 5 8 5c5 0 9 -4 9 -9c0 -1 0 -3 -2 -6l-215 -341v-324c0 -5 -4 -9 -9 -9s-9 4 -9 9v324l-215 341c-2 3 -2 5 -2 6c0 5 4 9 9 9c4 0 6 -2 8 -5zM354 745l-100 80l-100 -80c-2 -2 -4 -3 -7 -3c-4 0 -8 4 -8 8c0 3 1 5 5 8l101 80c4 3 6 4 9 4 s5 -1 9 -4l101 -80c4 -3 5 -5 5 -8c0 -4 -4 -8 -8 -8c-3 0 -5 1 -7 3z" />
<glyph unicode="&#x175;" horiz-adv-x="656" d="M453 0l-125 430l-125 -430c-1 -4 -4 -8 -10 -8c-5 0 -8 4 -9 8l-158 445c-1 3 -2 5 -2 8c0 5 4 9 9 9s8 -4 9 -7l151 -432l126 432c1 4 4 7 9 7s8 -3 9 -7l126 -432l151 432c1 3 4 7 9 7s9 -4 9 -9c0 -3 -1 -5 -2 -8l-158 -445c-1 -4 -4 -8 -9 -8c-6 0 -9 4 -10 8z M428 553l-100 80l-100 -80c-2 -2 -4 -3 -7 -3c-4 0 -8 4 -8 8c0 3 1 5 5 8l101 80c4 3 6 4 9 4s5 -1 9 -4l101 -80c4 -3 5 -5 5 -8c0 -4 -4 -8 -8 -8c-3 0 -5 1 -7 3z" />
<glyph unicode="&#x174;" horiz-adv-x="826" d="M592 -1l-179 645l-179 -645c-2 -5 -5 -7 -9 -7s-8 2 -9 7l-184 667c-1 4 -1 5 -1 6c0 5 4 9 9 9s8 -3 9 -8l176 -649l179 650c1 4 4 7 9 7s8 -3 9 -7l179 -650l176 649c1 5 4 8 9 8s9 -4 9 -9c0 -1 0 -2 -1 -6l-184 -667c-1 -5 -5 -7 -9 -7s-7 2 -9 7zM513 745l-100 80 l-100 -80c-2 -2 -4 -3 -7 -3c-4 0 -8 4 -8 8c0 3 1 5 5 8l101 80c4 3 6 4 9 4s5 -1 9 -4l101 -80c4 -3 5 -5 5 -8c0 -4 -4 -8 -8 -8c-3 0 -5 1 -7 3z" />
<glyph unicode="&#x171;" horiz-adv-x="490" d="M245 4c122 0 157 70 157 151v298c0 5 4 9 9 9s9 -4 9 -9v-289c0 -92 -34 -177 -175 -177s-175 85 -175 177v289c0 5 4 9 9 9s9 -4 9 -9v-298c0 -81 35 -151 157 -151zM277 655c6 -5 5 -11 0 -16l-106 -114c-3 -3 -6 -4 -10 -1c-3 3 -3 7 0 10l101 119c4 5 9 7 15 2z M381 655c6 -5 5 -11 0 -16l-106 -114c-3 -3 -6 -4 -10 -1c-3 3 -3 7 0 10l101 119c4 5 9 7 15 2z" />
<glyph unicode="&#x164;" horiz-adv-x="538" d="M278 657v-656c0 -5 -4 -9 -9 -9s-9 4 -9 9v656h-214c-5 0 -8 4 -8 8s3 8 8 8h446c5 0 8 -4 8 -8s-3 -8 -8 -8h-214zM269 759l100 80c2 2 4 3 7 3c4 0 8 -4 8 -8c0 -3 -1 -5 -5 -8l-101 -80c-4 -3 -6 -4 -9 -4s-5 1 -9 4l-101 80c-4 3 -5 5 -5 8c0 4 4 8 8 8 c3 0 5 -1 7 -3z" />
<glyph unicode="&#x162;" horiz-adv-x="538" d="M278 657v-656c0 -2 -1 -5 -3 -6l-4 -63s14 5 30 5c51 0 80 -26 80 -76c0 -49 -28 -83 -88 -83c-26 0 -52 12 -59 18c-2 2 -3 3 -3 6s2 7 7 7c2 0 4 -1 7 -3c10 -7 26 -14 48 -14c51 0 73 25 73 69c0 48 -34 63 -65 63c-20 0 -29 -5 -35 -5c-5 0 -8 3 -8 9l4 68 c-1 1 -2 3 -2 5v656h-214c-5 0 -8 4 -8 8s3 8 8 8h446c5 0 8 -4 8 -8s-3 -8 -8 -8h-214z" />
<glyph unicode="&#x161;" horiz-adv-x="399" d="M196 452c-75 0 -126 -31 -126 -96c0 -137 288 -84 288 -245c0 -88 -67 -124 -160 -124c-83 0 -137 39 -164 68c-2 2 -3 4 -3 6c0 3 2 8 8 8c3 0 5 -2 7 -4c33 -34 81 -62 152 -62c84 0 142 32 142 108c0 147 -288 93 -288 245c0 76 62 112 144 112c66 0 119 -28 145 -66 c2 -3 2 -4 2 -6c0 -4 -4 -8 -8 -8c-3 0 -5 1 -7 4c-25 37 -74 60 -132 60zM202 567l100 80c2 2 4 3 7 3c4 0 8 -4 8 -8c0 -3 -1 -5 -5 -8l-101 -80c-4 -3 -6 -4 -9 -4s-5 1 -9 4l-101 80c-4 3 -5 5 -5 8c0 4 4 8 8 8c3 0 5 -1 7 -3z" />
<glyph unicode="&#x160;" horiz-adv-x="545" d="M458 580c-36 54 -98 91 -188 91c-137 0 -179 -74 -179 -145c0 -196 397 -122 397 -354c0 -116 -74 -186 -226 -186c-110 0 -179 53 -219 115c-2 3 -3 6 -3 9c0 5 4 9 9 9s7 -3 10 -8c36 -60 102 -109 203 -109c139 0 208 63 208 170c0 217 -397 142 -397 354 c0 86 54 161 197 161c96 0 157 -35 202 -97c2 -3 2 -4 2 -6c0 -5 -4 -8 -8 -8c-3 0 -6 1 -8 4zM278 759l100 80c2 2 4 3 7 3c4 0 8 -4 8 -8c0 -3 -1 -5 -5 -8l-101 -80c-4 -3 -6 -4 -9 -4s-5 1 -9 4l-101 80c-4 3 -5 5 -5 8c0 4 4 8 8 8c3 0 5 -1 7 -3z" />
<glyph unicode="&#x155;" horiz-adv-x="283" d="M260 466c5 0 8 -4 8 -8s-3 -8 -8 -8c-115 0 -162 -95 -162 -171v-278c0 -5 -4 -9 -9 -9s-9 4 -9 9v449c0 5 4 9 9 9s9 -4 9 -9v-101c12 52 65 117 162 117zM251 655c6 -5 5 -11 0 -16l-106 -114c-3 -3 -6 -4 -10 -1c-3 3 -3 7 0 10l101 119c4 5 9 7 15 2z" />
<glyph unicode="&#x157;" horiz-adv-x="283" d="M260 466c5 0 8 -4 8 -8s-3 -8 -8 -8c-115 0 -162 -95 -162 -171v-278c0 -5 -4 -9 -9 -9s-9 4 -9 9v449c0 5 4 9 9 9s9 -4 9 -9v-101c12 52 65 117 162 117zM108 -67c0 -37 -8 -69 -24 -98c-2 -3 -4 -4 -7 -4s-6 3 -6 6s1 5 2 8c7 18 10 34 10 44c0 20 -9 27 -9 47 c0 13 6 20 17 20c13 0 17 -10 17 -23z" />
<glyph unicode="&#x159;" horiz-adv-x="283" d="M260 466c5 0 8 -4 8 -8s-3 -8 -8 -8c-115 0 -162 -95 -162 -171v-278c0 -5 -4 -9 -9 -9s-9 4 -9 9v449c0 5 4 9 9 9s9 -4 9 -9v-101c12 52 65 117 162 117zM160 567l100 80c2 2 4 3 7 3c4 0 8 -4 8 -8c0 -3 -1 -5 -5 -8l-101 -80c-4 -3 -6 -4 -9 -4s-5 1 -9 4l-101 80 c-4 3 -5 5 -5 8c0 4 4 8 8 8c3 0 5 -1 7 -3z" />
<glyph unicode="&#x15d;" horiz-adv-x="399" d="M196 452c-75 0 -126 -31 -126 -96c0 -137 288 -84 288 -245c0 -88 -67 -124 -160 -124c-83 0 -137 39 -164 68c-2 2 -3 4 -3 6c0 3 2 8 8 8c3 0 5 -2 7 -4c33 -34 81 -62 152 -62c84 0 142 32 142 108c0 147 -288 93 -288 245c0 76 62 112 144 112c66 0 119 -28 145 -66 c2 -3 2 -4 2 -6c0 -4 -4 -8 -8 -8c-3 0 -5 1 -7 4c-25 37 -74 60 -132 60zM306 553l-100 80l-100 -80c-2 -2 -4 -3 -7 -3c-4 0 -8 4 -8 8c0 3 1 5 5 8l101 80c4 3 6 4 9 4s5 -1 9 -4l101 -80c4 -3 5 -5 5 -8c0 -4 -4 -8 -8 -8c-3 0 -5 1 -7 3z" />
<glyph unicode="&#x15c;" horiz-adv-x="545" d="M458 580c-36 54 -98 91 -188 91c-137 0 -179 -74 -179 -145c0 -196 397 -122 397 -354c0 -116 -74 -186 -226 -186c-110 0 -179 53 -219 115c-2 3 -3 6 -3 9c0 5 4 9 9 9s7 -3 10 -8c36 -60 102 -109 203 -109c139 0 208 63 208 170c0 217 -397 142 -397 354 c0 86 54 161 197 161c96 0 157 -35 202 -97c2 -3 2 -4 2 -6c0 -5 -4 -8 -8 -8c-3 0 -6 1 -8 4zM382 745l-100 80l-100 -80c-2 -2 -4 -3 -7 -3c-4 0 -8 4 -8 8c0 3 1 5 5 8l101 80c4 3 6 4 9 4s5 -1 9 -4l101 -80c4 -3 5 -5 5 -8c0 -4 -4 -8 -8 -8c-3 0 -5 1 -7 3z" />
<glyph unicode="&#x15b;" horiz-adv-x="399" d="M196 452c-75 0 -126 -31 -126 -96c0 -137 288 -84 288 -245c0 -88 -67 -124 -160 -124c-83 0 -137 39 -164 68c-2 2 -3 4 -3 6c0 3 2 8 8 8c3 0 5 -2 7 -4c33 -34 81 -62 152 -62c84 0 142 32 142 108c0 147 -288 93 -288 245c0 76 62 112 144 112c66 0 119 -28 145 -66 c2 -3 2 -4 2 -6c0 -4 -4 -8 -8 -8c-3 0 -5 1 -7 4c-25 37 -74 60 -132 60zM269 655c6 -5 5 -11 0 -16l-106 -114c-3 -3 -6 -4 -10 -1c-3 3 -3 7 0 10l101 119c4 5 9 7 15 2z" />
<glyph unicode="&#x15a;" horiz-adv-x="545" d="M458 580c-36 54 -98 91 -188 91c-137 0 -179 -74 -179 -145c0 -196 397 -122 397 -354c0 -116 -74 -186 -226 -186c-110 0 -179 53 -219 115c-2 3 -3 6 -3 9c0 5 4 9 9 9s7 -3 10 -8c36 -60 102 -109 203 -109c139 0 208 63 208 170c0 217 -397 142 -397 354 c0 86 54 161 197 161c96 0 157 -35 202 -97c2 -3 2 -4 2 -6c0 -5 -4 -8 -8 -8c-3 0 -6 1 -8 4zM352 858c6 -5 5 -11 0 -16l-106 -114c-3 -3 -6 -4 -10 -1c-3 3 -3 7 0 10l101 119c4 5 9 7 15 2z" />
<glyph unicode="&#x13e;" horiz-adv-x="198" d="M212 689c0 -37 -8 -69 -24 -98c-2 -3 -4 -4 -7 -4s-6 3 -6 6s1 5 2 8c7 18 10 34 10 44c0 20 -9 27 -9 47c0 13 6 20 17 20c13 0 17 -10 17 -23zM158 -8c-68 0 -83 45 -83 108v603c0 5 4 9 9 9s9 -4 9 -9v-603c0 -55 10 -92 65 -92c5 0 8 -4 8 -8s-3 -8 -8 -8z" />
<glyph unicode="&#x144;" horiz-adv-x="500" d="M98 453v-90c14 46 65 105 162 105c141 0 170 -85 170 -177v-290c0 -5 -4 -9 -9 -9s-9 4 -9 9v299c0 81 -30 151 -152 151c-109 0 -162 -79 -162 -155v-295c0 -5 -4 -9 -9 -9s-9 4 -9 9v452c0 5 4 9 9 9s9 -4 9 -9zM328 655c6 -5 5 -11 0 -16l-106 -114 c-3 -3 -6 -4 -10 -1c-3 3 -3 7 0 10l101 119c4 5 9 7 15 2z" />
<glyph unicode="&#x145;" horiz-adv-x="619" d="M516 32v640c0 5 4 9 9 9s9 -4 9 -9v-671c0 -5 -4 -9 -9 -9c-4 0 -7 2 -9 5l-413 644v-640c0 -5 -4 -9 -9 -9s-9 4 -9 9v671c0 5 4 9 9 9c4 0 6 -2 8 -5zM325 -67c0 -37 -8 -69 -24 -98c-2 -3 -4 -4 -7 -4s-6 3 -6 6s1 5 2 8c7 18 10 34 10 44c0 20 -9 27 -9 47 c0 13 6 20 17 20c13 0 17 -10 17 -23z" />
<glyph unicode="&#x146;" horiz-adv-x="500" d="M98 453v-90c14 46 65 105 162 105c141 0 170 -85 170 -177v-290c0 -5 -4 -9 -9 -9s-9 4 -9 9v299c0 81 -30 151 -152 151c-109 0 -162 -79 -162 -155v-295c0 -5 -4 -9 -9 -9s-9 4 -9 9v452c0 5 4 9 9 9s9 -4 9 -9zM278 -67c0 -37 -8 -69 -24 -98c-2 -3 -4 -4 -7 -4 s-6 3 -6 6s1 5 2 8c7 18 10 34 10 44c0 20 -9 27 -9 47c0 13 6 20 17 20c13 0 17 -10 17 -23z" />
<glyph unicode="&#x147;" horiz-adv-x="619" d="M516 32v640c0 5 4 9 9 9s9 -4 9 -9v-671c0 -5 -4 -9 -9 -9c-4 0 -7 2 -9 5l-413 644v-640c0 -5 -4 -9 -9 -9s-9 4 -9 9v671c0 5 4 9 9 9c4 0 6 -2 8 -5zM313 759l100 80c2 2 4 3 7 3c4 0 8 -4 8 -8c0 -3 -1 -5 -5 -8l-101 -80c-4 -3 -6 -4 -9 -4s-5 1 -9 4l-101 80 c-4 3 -5 5 -5 8c0 4 4 8 8 8c3 0 5 -1 7 -3z" />
<glyph horiz-adv-x="802" d="M389 523c65 0 126 -31 126 -116v-172c0 -50 40 -67 81 -67c120 0 143 112 143 191c0 222 -137 324 -339 324c-219 0 -337 -118 -337 -347c0 -240 130 -346 337 -346c86 0 169 13 239 65c4 3 6 4 10 4s8 -3 8 -8c0 -3 -2 -7 -8 -11c-71 -51 -141 -66 -249 -66 c-219 0 -355 115 -355 362c0 243 130 363 355 363c209 0 356 -111 356 -340c0 -86 -29 -207 -160 -207c-44 0 -85 20 -94 61c-19 -34 -55 -61 -125 -61c-94 0 -135 48 -135 105c0 70 54 105 149 105h107v52c0 59 -44 93 -109 93c-43 0 -75 -15 -97 -45c-3 -4 -6 -5 -9 -5 s-7 2 -7 7c0 3 1 5 3 8c14 21 46 51 110 51zM498 345h-107c-88 0 -131 -32 -131 -88c0 -46 30 -89 117 -89c88 0 121 42 121 91v86z" />
<glyph unicode="&#x148;" horiz-adv-x="500" d="M98 453v-90c14 46 65 105 162 105c141 0 170 -85 170 -177v-290c0 -5 -4 -9 -9 -9s-9 4 -9 9v299c0 81 -30 151 -152 151c-109 0 -162 -79 -162 -155v-295c0 -5 -4 -9 -9 -9s-9 4 -9 9v452c0 5 4 9 9 9s9 -4 9 -9zM260 567l100 80c2 2 4 3 7 3c4 0 8 -4 8 -8 c0 -3 -1 -5 -5 -8l-101 -80c-4 -3 -6 -4 -9 -4s-5 1 -9 4l-101 80c-4 3 -5 5 -5 8c0 4 4 8 8 8c3 0 5 -1 7 -3z" />
<glyph unicode="&#x149;" horiz-adv-x="500" d="M98 453v-90c14 46 65 105 162 105c141 0 170 -85 170 -177v-290c0 -5 -4 -9 -9 -9s-9 4 -9 9v299c0 81 -30 151 -152 151c-109 0 -162 -79 -162 -155v-295c0 -5 -4 -9 -9 -9s-9 4 -9 9v452c0 5 4 9 9 9s9 -4 9 -9zM77 613c0 -37 -8 -69 -24 -98c-2 -3 -4 -4 -7 -4 s-6 3 -6 6s1 5 2 8c7 18 10 34 10 44c0 20 -9 27 -9 47c0 13 6 20 17 20c13 0 17 -10 17 -23z" />
<glyph unicode="&#x2116;" horiz-adv-x="1059" d="M873 272c84 0 126 53 126 157s-42 157 -126 157s-126 -53 -126 -157s42 -157 126 -157zM873 130c-10 0 -17 6 -17 17c0 13 7 19 17 19c11 0 18 -6 18 -19c0 -11 -7 -17 -18 -17zM873 257c-92 0 -143 56 -143 172s51 172 143 172s143 -56 143 -172s-51 -172 -143 -172z M623 27v645c0 5 4 9 9 9s9 -4 9 -9v-671c0 -5 -4 -9 -9 -9c-4 0 -7 2 -10 6l-519 650v-647c0 -5 -4 -9 -9 -9s-9 4 -9 9v671c0 5 4 9 9 9c4 0 6 -2 9 -6z" />
<glyph horiz-adv-x="495" d="M408 -12v99s-44 -100 -172 -100s-190 76 -190 240s62 241 190 241c112 0 190 -64 190 -194v-286c0 -134 -78 -189 -189 -189c-81 0 -132 23 -160 64c-1 2 -2 4 -2 6c0 4 3 8 8 8c4 0 6 -2 9 -6c27 -37 69 -56 145 -56c104 0 171 52 171 173zM408 120v154 c0 117 -69 178 -172 178c-115 0 -172 -75 -172 -225c0 -148 57 -223 172 -223c131 0 172 116 172 116z" />
<glyph horiz-adv-x="495" d="M408 -12v99s-44 -100 -172 -100s-190 76 -190 240s62 241 190 241c112 0 190 -64 190 -194v-286c0 -134 -78 -189 -189 -189c-81 0 -132 23 -160 64c-1 2 -2 4 -2 6c0 4 3 8 8 8c4 0 6 -2 9 -6c27 -37 69 -56 145 -56c104 0 171 52 171 173zM408 120v154 c0 117 -69 178 -172 178c-115 0 -172 -75 -172 -225c0 -148 57 -223 172 -223c131 0 172 116 172 116zM336 553l-100 80l-100 -80c-2 -2 -4 -3 -7 -3c-4 0 -8 4 -8 8c0 3 1 5 5 8l101 80c4 3 6 4 9 4s5 -1 9 -4l101 -80c4 -3 5 -5 5 -8c0 -4 -4 -8 -8 -8c-3 0 -5 1 -7 3z " />
<glyph horiz-adv-x="495" d="M408 -12v99s-44 -100 -172 -100s-190 76 -190 240s62 241 190 241c112 0 190 -64 190 -194v-286c0 -134 -78 -189 -189 -189c-81 0 -132 23 -160 64c-1 2 -2 4 -2 6c0 4 3 8 8 8c4 0 6 -2 9 -6c27 -37 69 -56 145 -56c104 0 171 52 171 173zM408 120v154 c0 117 -69 178 -172 178c-115 0 -172 -75 -172 -225c0 -148 57 -223 172 -223c131 0 172 116 172 116zM236 537c-55 0 -101 20 -101 87c0 4 3 8 8 8s8 -4 8 -8c0 -56 33 -72 85 -72s85 16 85 72c0 4 3 8 8 8s8 -4 8 -8c0 -67 -46 -87 -101 -87z" />
<glyph horiz-adv-x="495" d="M408 -12v99s-44 -100 -172 -100s-190 76 -190 240s62 241 190 241c112 0 190 -64 190 -194v-286c0 -134 -78 -189 -189 -189c-81 0 -132 23 -160 64c-1 2 -2 4 -2 6c0 4 3 8 8 8c4 0 6 -2 9 -6c27 -37 69 -56 145 -56c104 0 171 52 171 173zM408 120v154 c0 117 -69 178 -172 178c-115 0 -172 -75 -172 -225c0 -148 57 -223 172 -223c131 0 172 116 172 116zM237 553c-11 0 -18 6 -18 18s7 18 18 18s18 -6 18 -18s-7 -18 -18 -18z" />
<glyph horiz-adv-x="495" d="M408 -12v99s-44 -100 -172 -100s-190 76 -190 240s62 241 190 241c112 0 190 -64 190 -194v-286c0 -134 -78 -189 -189 -189c-81 0 -132 23 -160 64c-1 2 -2 4 -2 6c0 4 3 8 8 8c4 0 6 -2 9 -6c27 -37 69 -56 145 -56c104 0 171 52 171 173zM408 120v154 c0 117 -69 178 -172 178c-115 0 -172 -75 -172 -225c0 -148 57 -223 172 -223c131 0 172 116 172 116zM225 541c0 37 8 69 24 98c2 3 4 4 7 4s6 -3 6 -6s-1 -5 -2 -8c-7 -18 -10 -34 -10 -44c0 -20 9 -27 9 -47c0 -13 -6 -20 -17 -20c-13 0 -17 10 -17 23z" />
<glyph unicode="&#x131;" horiz-adv-x="178" d="M98 453v-452c0 -5 -4 -9 -9 -9s-9 4 -9 9v452c0 5 4 9 9 9s9 -4 9 -9z" />
<glyph unicode="&#xe7;" horiz-adv-x="443" d="M333 -139c0 -49 -28 -83 -88 -83c-26 0 -52 12 -59 18c-2 2 -3 3 -3 6s2 7 7 7c2 0 4 -1 7 -3c10 -7 26 -14 48 -14c51 0 73 25 73 69c0 48 -34 63 -65 63c-20 0 -29 -5 -35 -5c-5 0 -8 3 -8 9l3 61c-109 11 -168 87 -168 238c0 164 71 241 199 241c81 0 125 -36 141 -54 c3 -3 4 -5 4 -7c0 -4 -3 -8 -8 -8c-3 0 -5 1 -7 3c-25 25 -61 50 -130 50c-120 0 -181 -72 -181 -225c0 -152 61 -224 181 -224c69 0 113 31 137 50c3 2 4 3 7 3c5 0 8 -4 8 -8c0 -2 -1 -5 -5 -8c-14 -11 -66 -53 -147 -53c-6 0 -12 0 -17 1l-4 -56s14 5 30 5 c51 0 80 -26 80 -76z" />
<glyph unicode="&#xc7;" horiz-adv-x="629" d="M443 -139c0 -49 -28 -83 -88 -83c-26 0 -52 12 -59 18c-2 2 -3 3 -3 6s2 7 7 7c2 0 4 -1 7 -3c10 -7 26 -14 48 -14c51 0 73 25 73 69c0 48 -34 63 -65 63c-20 0 -29 -5 -35 -5c-5 0 -8 3 -8 9l3 59c-176 10 -274 124 -274 349c0 237 108 351 301 351 c95 0 177 -39 222 -102c2 -3 2 -5 2 -6c0 -5 -4 -9 -9 -9c-3 0 -6 1 -8 4c-38 56 -120 97 -207 97c-185 0 -283 -113 -283 -335c0 -221 98 -334 283 -334c87 0 174 40 212 97c2 3 5 4 8 4c5 0 9 -4 9 -9c0 -1 0 -3 -2 -6c-45 -63 -132 -102 -227 -102h-13l-4 -54s14 5 30 5 c51 0 80 -26 80 -76z" />
<glyph unicode="&#xed;" horiz-adv-x="178" d="M98 453v-452c0 -5 -4 -9 -9 -9s-9 4 -9 9v452c0 5 4 9 9 9s9 -4 9 -9zM181 655c6 -5 5 -11 0 -16l-106 -114c-3 -3 -6 -4 -10 -1c-3 3 -3 7 0 10l101 119c4 5 9 7 15 2z" />
<glyph unicode="&#xec;" horiz-adv-x="178" d="M98 453v-452c0 -5 -4 -9 -9 -9s-9 4 -9 9v452c0 5 4 9 9 9s9 -4 9 -9zM1 655c6 5 11 3 15 -2l101 -119c3 -3 3 -7 0 -10c-4 -3 -7 -2 -10 1l-106 114c-5 5 -6 11 0 16z" />
<glyph unicode="&#xee;" horiz-adv-x="178" d="M98 453v-452c0 -5 -4 -9 -9 -9s-9 4 -9 9v452c0 5 4 9 9 9s9 -4 9 -9zM188 553l-100 80l-100 -80c-2 -2 -4 -3 -7 -3c-4 0 -8 4 -8 8c0 3 1 5 5 8l101 80c4 3 6 4 9 4s5 -1 9 -4l101 -80c4 -3 5 -5 5 -8c0 -4 -4 -8 -8 -8c-3 0 -5 1 -7 3z" />
<glyph unicode="&#xef;" horiz-adv-x="178" d="M98 453v-452c0 -5 -4 -9 -9 -9s-9 4 -9 9v452c0 5 4 9 9 9s9 -4 9 -9zM27 551c-11 0 -15 5 -15 16s4 16 15 16c10 0 15 -5 15 -16s-5 -16 -15 -16zM149 551c-11 0 -15 5 -15 16s4 16 15 16c10 0 15 -5 15 -16s-5 -16 -15 -16z" />
<glyph unicode="&#x152;" horiz-adv-x="939" d="M544 331v-315h344c5 0 8 -4 8 -8s-3 -8 -8 -8h-354c-5 0 -8 4 -8 9v23c-47 -31 -106 -46 -176 -46c-193 0 -301 114 -301 350c0 237 108 351 301 351c70 0 129 -15 176 -46v23c0 5 3 9 8 9h342c5 0 8 -4 8 -8s-3 -8 -8 -8h-332v-310h261c5 0 8 -4 8 -8s-3 -8 -8 -8h-261z M350 671c-185 0 -283 -113 -283 -335c0 -221 98 -334 283 -334c71 0 131 16 176 50v567c-45 34 -104 52 -176 52z" />
<glyph unicode="&#x153;" horiz-adv-x="846" d="M244 -13c-128 0 -199 76 -199 240c0 165 71 241 199 241c101 0 169 -53 190 -155c18 102 88 155 190 155c166 0 183 -124 183 -191c0 -12 -1 -27 -3 -39c-2 -10 -7 -12 -16 -12h-346c0 -154 69 -223 182 -223c78 0 123 28 152 49c3 2 5 4 8 4c4 0 8 -3 8 -8 c0 -3 -1 -4 -3 -6c-26 -21 -78 -55 -165 -55c-102 0 -167 53 -190 155c-23 -102 -89 -155 -190 -155zM425 228c-1 152 -62 224 -181 224c-120 0 -181 -72 -181 -225c0 -152 61 -224 181 -224c117 0 181 69 181 225zM790 277c0 80 -28 175 -166 175 c-120 0 -181 -75 -181 -210h346s1 27 1 35z" />
<glyph unicode="&#x129;" horiz-adv-x="178" d="M98 453v-452c0 -5 -4 -9 -9 -9s-9 4 -9 9v452c0 5 4 9 9 9s9 -4 9 -9zM152 560c28 0 41 12 52 34c3 6 5 8 10 8s8 -4 8 -8c0 -2 -1 -5 -2 -7c-10 -21 -29 -43 -68 -43c-55 0 -80 42 -128 42c-28 0 -41 -12 -52 -34c-3 -6 -5 -8 -10 -8s-8 4 -8 8c0 2 1 5 2 7 c10 21 29 43 68 43c55 0 79 -42 128 -42z" />
<glyph unicode="&#xe6;" horiz-adv-x="796" d="M226 468c97 0 151 -49 163 -124c26 84 86 124 185 124c166 0 183 -127 183 -194c0 -20 -3 -37 -19 -37h-345c0 -151 57 -234 181 -234c78 0 123 28 152 49c3 2 5 4 8 4c4 0 8 -3 8 -8c0 -3 -1 -4 -3 -6c-26 -21 -78 -55 -165 -55c-108 0 -169 61 -185 145 c-12 -78 -66 -144 -183 -144c-112 0 -166 55 -166 133c0 87 68 132 168 132h167v58c0 91 -57 141 -149 141c-81 0 -118 -36 -141 -75c-2 -4 -5 -6 -9 -6s-8 4 -8 8c0 3 1 5 3 8c26 42 71 81 155 81zM206 4c87 0 169 45 169 157v77h-167c-88 0 -150 -41 -150 -117 c0 -72 51 -117 148 -117zM740 277c0 80 -28 175 -166 175c-120 0 -180 -64 -180 -199h345s1 16 1 24z" />
<glyph unicode="&#x135;" horiz-adv-x="183" d="M-24 -185c68 0 109 54 109 127v511c0 5 4 9 9 9s9 -4 9 -9v-511c0 -80 -46 -143 -127 -143c-5 0 -8 4 -8 8s3 8 8 8zM194 553l-100 80l-100 -80c-2 -2 -4 -3 -7 -3c-4 0 -8 4 -8 8c0 3 1 5 5 8l101 80c4 3 6 4 9 4s5 -1 9 -4l101 -80c4 -3 5 -5 5 -8c0 -4 -4 -8 -8 -8 c-3 0 -5 1 -7 3z" />
<glyph unicode="&#x111;" horiz-adv-x="500" d="M425 579v-398c0 -130 -78 -194 -190 -194c-128 0 -190 77 -190 241s62 240 190 240s172 -100 172 -100v211h-114c-5 0 -8 4 -8 8s3 8 8 8h114v108c0 5 4 9 9 9s9 -4 9 -9v-108h51c5 0 8 -4 8 -8s-3 -8 -8 -8h-51zM407 181v154s-41 117 -172 117 c-115 0 -172 -76 -172 -224c0 -150 57 -225 172 -225c103 0 172 61 172 178z" />
<glyph unicode="&#x110;" horiz-adv-x="603" d="M251 0h-147c-5 0 -9 4 -9 9v333h-58c-5 0 -8 4 -8 8s3 8 8 8h58v306c0 5 4 9 9 9h147c191 0 303 -90 303 -337s-112 -336 -303 -336zM113 657v-299h239c5 0 8 -4 8 -8s-3 -8 -8 -8h-239v-326h138c179 0 285 85 285 320c0 233 -106 321 -285 321h-138z" />
<glyph unicode="&#x127;" horiz-adv-x="500" d="M98 703v-108h146c5 0 8 -4 8 -8s-3 -8 -8 -8h-146v-216c14 45 65 105 162 105c141 0 170 -85 170 -177v-290c0 -5 -4 -9 -9 -9s-9 4 -9 9v299c0 81 -30 151 -152 151c-109 0 -162 -79 -162 -155v-295c0 -5 -4 -9 -9 -9s-9 4 -9 9v578h-50c-5 0 -8 4 -8 8s3 8 8 8h50v108 c0 5 4 9 9 9s9 -4 9 -9z" />
<glyph unicode="&#x126;" horiz-adv-x="640" d="M590 480h-45v-479c0 -5 -4 -9 -9 -9s-9 4 -9 9v338h-414v-338c0 -5 -4 -9 -9 -9s-9 4 -9 9v479h-45c-5 0 -8 4 -8 8s3 8 8 8h45v176c0 5 4 9 9 9s9 -4 9 -9v-176h414v176c0 5 4 9 9 9s9 -4 9 -9v-176h45c5 0 8 -4 8 -8s-3 -8 -8 -8zM527 355v125h-414v-125h414z" />
<glyph unicode="&#x141;" horiz-adv-x="468" d="M113 672v-363l220 107c2 1 4 2 7 2c4 0 8 -4 8 -8s-2 -7 -7 -9l-228 -111v-274h319c5 0 8 -4 8 -8s-3 -8 -8 -8h-329c-5 0 -8 4 -8 9v272l-64 -31c-2 -1 -4 -2 -7 -2c-4 0 -8 4 -8 8s2 7 7 9l72 35v372c0 5 4 9 9 9s9 -4 9 -9z" />
<glyph unicode="&#x142;" horiz-adv-x="253" d="M188 -8c-68 0 -83 45 -83 108v270l-69 -40c-2 -1 -4 -2 -7 -2c-4 0 -8 3 -8 8c0 4 2 7 6 9l78 45v313c0 5 4 9 9 9s9 -4 9 -9v-302l94 55c2 1 3 2 6 2c4 0 8 -4 8 -8s-1 -6 -5 -8l-103 -61v-281c0 -55 10 -92 65 -92c5 0 8 -4 8 -8s-3 -8 -8 -8z" />
<glyph unicode="&#x15e;" horiz-adv-x="545" d="M347 -139c0 -49 -28 -83 -88 -83c-26 0 -52 12 -59 18c-2 2 -3 3 -3 6s2 7 7 7c2 0 4 -1 7 -3c10 -7 26 -14 48 -14c51 0 73 25 73 69c0 48 -34 63 -65 63c-20 0 -29 -5 -35 -5c-5 0 -8 3 -8 9l3 60c-90 10 -149 57 -184 113c-2 3 -3 6 -3 9c0 5 4 9 9 9s7 -3 10 -8 c36 -60 102 -109 203 -109c139 0 208 63 208 170c0 217 -397 142 -397 354c0 86 54 161 197 161c96 0 157 -35 202 -97c2 -3 2 -4 2 -6c0 -5 -4 -8 -8 -8c-3 0 -6 1 -8 4c-36 54 -98 91 -188 91c-137 0 -179 -74 -179 -145c0 -196 397 -122 397 -354 c0 -116 -74 -186 -226 -186c-7 0 -14 1 -21 1l-4 -55s14 5 30 5c51 0 80 -26 80 -76z" />
<glyph unicode="&#x15f;" horiz-adv-x="399" d="M274 -139c0 -49 -28 -83 -88 -83c-26 0 -52 12 -59 18c-2 2 -3 3 -3 6s2 7 7 7c2 0 4 -1 7 -3c10 -7 26 -14 48 -14c51 0 73 25 73 69c0 48 -34 63 -65 63c-20 0 -29 -5 -35 -5c-5 0 -8 3 -8 9l3 63c-59 10 -98 40 -120 64c-2 2 -3 4 -3 6c0 3 2 8 8 8c3 0 5 -2 7 -4 c33 -34 81 -62 152 -62c84 0 142 32 142 108c0 147 -288 93 -288 245c0 76 62 112 144 112c66 0 119 -28 145 -66c2 -3 2 -4 2 -6c0 -4 -4 -8 -8 -8c-3 0 -5 1 -7 4c-25 37 -74 60 -132 60c-75 0 -126 -31 -126 -96c0 -137 288 -84 288 -245c0 -88 -67 -124 -160 -124 c-11 0 -21 1 -30 2l-4 -57s14 5 30 5c51 0 80 -26 80 -76z" />
<glyph unicode="&#x166;" horiz-adv-x="538" d="M278 657v-308h121c5 0 8 -4 8 -8s-3 -8 -8 -8h-121v-332c0 -5 -4 -9 -9 -9s-9 4 -9 9v332h-121c-5 0 -8 4 -8 8s3 8 8 8h121v308h-214c-5 0 -8 4 -8 8s3 8 8 8h446c5 0 8 -4 8 -8s-3 -8 -8 -8h-214z" />
<glyph unicode="&#x167;" horiz-adv-x="258" d="M203 291h-90v-181c0 -65 21 -102 82 -102c5 0 8 -4 8 -8s-3 -8 -8 -8c-73 0 -100 50 -100 118v181h-62c-5 0 -8 4 -8 8s3 8 8 8h62v131h-62c-4 0 -8 4 -8 8s4 8 8 8h62v128c0 5 4 9 9 9s9 -4 9 -9v-128h90c4 0 8 -4 8 -8s-4 -8 -8 -8h-90v-131h90c5 0 8 -4 8 -8 s-3 -8 -8 -8z" />
<glyph unicode="&#xd8;" horiz-adv-x="700" d="M350 687c87 0 157 -24 208 -71l61 77c3 4 6 4 8 4c4 0 7 -3 7 -7c0 -2 -1 -5 -3 -7l-62 -79c54 -58 82 -147 82 -268c0 -236 -108 -350 -301 -350c-88 0 -159 24 -209 72l-62 -79c-3 -3 -5 -3 -7 -3c-4 0 -7 3 -7 7c0 2 1 5 3 7l62 79c-53 58 -81 146 -81 267 c0 237 108 351 301 351zM350 2c185 0 283 113 283 334c0 113 -26 198 -75 254l-406 -518c47 -47 113 -70 198 -70zM67 336c0 -113 25 -197 74 -253l406 518c-47 46 -113 70 -197 70c-185 0 -283 -113 -283 -335z" />
<glyph unicode="&#xf8;" horiz-adv-x="488" d="M244 -13c-66 0 -117 20 -151 62l-47 -51c-2 -2 -4 -3 -7 -3c-5 0 -9 4 -9 9c0 2 1 5 4 7l49 52c-25 39 -38 93 -38 164c0 165 71 241 199 241c68 0 120 -22 154 -67l52 56c2 2 4 3 7 3c5 0 9 -4 9 -9c0 -2 -1 -5 -4 -7l-54 -58c23 -38 35 -91 35 -159 c0 -164 -71 -240 -199 -240zM63 227c0 -64 11 -114 32 -150l291 311c-30 43 -78 64 -142 64c-120 0 -181 -72 -181 -225zM244 3c120 0 181 72 181 224c0 61 -10 110 -30 146l-290 -311c30 -40 77 -59 139 -59z" />
<glyph unicode="$" horiz-adv-x="545" d="M276 780v-93c92 -2 152 -37 196 -97c2 -3 2 -4 2 -6c0 -5 -4 -8 -8 -8c-3 0 -6 1 -8 4c-36 54 -98 91 -188 91c-137 0 -179 -74 -179 -145c0 -196 397 -122 397 -354c0 -113 -70 -182 -212 -186v-92c0 -4 -3 -8 -8 -8s-8 4 -8 8v92c-109 1 -178 53 -217 115 c-2 3 -3 6 -3 9c0 5 4 9 9 9s7 -3 10 -8c36 -60 102 -109 203 -109c139 0 208 63 208 170c0 217 -397 142 -397 354c0 84 51 157 187 161v93c0 4 3 8 8 8s8 -4 8 -8z" />
<glyph unicode="&#xa2;" horiz-adv-x="443" d="M253 -13v-85c0 -5 -4 -9 -9 -9s-9 4 -9 9v85c-123 4 -190 80 -190 240s67 237 190 241v72c0 5 4 9 9 9s9 -4 9 -9v-72c75 -3 116 -37 132 -54c3 -3 4 -5 4 -7c0 -4 -3 -8 -8 -8c-3 0 -5 1 -7 3c-25 25 -61 50 -130 50c-120 0 -181 -72 -181 -225c0 -152 61 -224 181 -224 c69 0 113 31 137 50c3 2 4 3 7 3c5 0 8 -4 8 -8c0 -2 -1 -5 -5 -8c-14 -11 -62 -50 -138 -53z" />
<glyph unicode="&#xa5;" d="M100 313h145v12l-215 341c-2 3 -2 5 -2 6c0 5 4 9 9 9c4 0 6 -2 8 -5l209 -332l209 332c2 3 4 5 8 5c5 0 9 -4 9 -9c0 -1 0 -3 -2 -6l-215 -341v-12h144c5 0 8 -4 8 -8s-3 -8 -8 -8h-144v-85h144c5 0 8 -4 8 -8s-3 -8 -8 -8h-144v-195c0 -5 -4 -9 -9 -9s-9 4 -9 9v195 h-145c-5 0 -8 4 -8 8s3 8 8 8h145v85h-145c-5 0 -8 4 -8 8s3 8 8 8z" />
<glyph unicode="&#x13b;" horiz-adv-x="468" d="M113 672v-656h319c5 0 8 -4 8 -8s-3 -8 -8 -8h-329c-5 0 -8 4 -8 9v663c0 5 4 9 9 9s9 -4 9 -9zM290 -67c0 -37 -8 -69 -24 -98c-2 -3 -4 -4 -7 -4s-6 3 -6 6s1 5 2 8c7 18 10 34 10 44c0 20 -9 27 -9 47c0 13 6 20 17 20c13 0 17 -10 17 -23z" />
<glyph unicode="&#x21a;" horiz-adv-x="538" d="M278 657v-656c0 -5 -4 -9 -9 -9s-9 4 -9 9v656h-214c-5 0 -8 4 -8 8s3 8 8 8h446c5 0 8 -4 8 -8s-3 -8 -8 -8h-214zM288 -67c0 -37 -8 -69 -24 -98c-2 -3 -4 -4 -7 -4s-6 3 -6 6s1 5 2 8c7 18 10 34 10 44c0 20 -9 27 -9 47c0 13 6 20 17 20c13 0 17 -10 17 -23z" />
<glyph unicode="&#x21b;" horiz-adv-x="258" d="M195 -8c-73 0 -100 50 -100 118v328h-62c-4 0 -8 4 -8 8s4 8 8 8h62v128c0 5 4 9 9 9s9 -4 9 -9v-128h90c4 0 8 -4 8 -8s-4 -8 -8 -8h-90v-328c0 -65 21 -102 82 -102c5 0 8 -4 8 -8s-3 -8 -8 -8zM164 -67c0 -37 -8 -69 -24 -98c-2 -3 -4 -4 -7 -4s-6 3 -6 6s1 5 2 8 c7 18 10 34 10 44c0 20 -9 27 -9 47c0 13 6 20 17 20c13 0 17 -10 17 -23z" />
<glyph unicode="&#x104;" horiz-adv-x="604" d="M468 222h-332l-87 -223c-2 -5 -4 -7 -9 -7c-4 0 -9 3 -9 8c0 1 0 3 1 5l263 671c1 3 4 5 7 5s6 -2 7 -5l263 -671c1 -2 1 -4 1 -5c0 -5 -5 -8 -9 -8c-56 -18 -100 -56 -100 -100c0 -30 17 -53 52 -53c17 0 27 2 42 7c3 1 5 2 7 2c5 0 8 -4 8 -8c0 -3 -1 -6 -6 -8 c-18 -7 -31 -9 -51 -9c-41 0 -70 27 -70 67c0 51 46 92 108 111zM462 238l-160 411l-160 -411h320z" />
<glyph unicode="&#x105;" horiz-adv-x="462" d="M384 -152c5 0 8 -4 8 -8c0 -3 -1 -6 -6 -8c-18 -7 -31 -9 -51 -9c-41 0 -70 27 -70 67c0 51 48 93 110 112v72c-27 -59 -95 -86 -169 -86c-112 0 -166 57 -166 136c0 88 67 135 168 135h167v52c0 91 -57 141 -149 141c-81 0 -120 -33 -143 -72c-2 -4 -5 -6 -9 -6 s-8 4 -8 8c0 3 1 5 3 8c26 42 73 78 157 78c111 0 166 -63 166 -157v-310c0 -4 -3 -7 -7 -8c-56 -18 -102 -57 -102 -101c0 -30 17 -53 52 -53c17 0 27 2 42 7c3 1 5 2 7 2zM206 4c87 0 169 40 169 134v106h-167c-89 0 -150 -43 -150 -120c0 -73 51 -120 148 -120z" />
<glyph unicode="&#x118;" d="M457 -152c5 0 8 -4 8 -8c0 -3 -1 -6 -6 -8c-18 -7 -31 -9 -51 -9c-41 0 -70 27 -70 67c0 44 34 87 88 110h-323c-5 0 -8 4 -8 9v655c0 5 3 9 8 9h342c5 0 8 -4 8 -8s-3 -8 -8 -8h-332v-310h261c5 0 8 -4 8 -8s-3 -8 -8 -8h-261v-315h344c5 0 8 -4 8 -8s-3 -8 -8 -8 c-60 -18 -101 -64 -101 -108c0 -30 17 -53 52 -53c17 0 27 2 42 7c3 1 5 2 7 2z" />
<glyph unicode="&#x119;" horiz-adv-x="466" d="M359 -152c5 0 8 -4 8 -8c0 -3 -1 -6 -6 -8c-18 -7 -31 -9 -51 -9c-41 0 -70 27 -70 67c0 38 22 74 62 103c-18 -4 -37 -6 -58 -6c-128 0 -199 76 -199 241c0 164 71 240 199 240c166 0 183 -124 183 -191c0 -12 -1 -27 -3 -39c-2 -10 -7 -12 -16 -12h-345 c0 -151 61 -223 181 -223c78 0 123 28 152 49c3 2 5 4 8 4c4 0 8 -3 8 -8c0 -3 -1 -4 -3 -6c-13 -11 -33 -25 -61 -36c-56 -28 -90 -73 -90 -114c0 -30 17 -53 52 -53c17 0 27 2 42 7c3 1 5 2 7 2zM410 277c0 80 -28 175 -166 175c-120 0 -180 -75 -180 -210h345s1 27 1 35z " />
<glyph unicode="&#x12e;" horiz-adv-x="208" d="M106 -152c5 0 8 -4 8 -8c0 -3 -1 -6 -6 -8c-18 -7 -31 -9 -51 -9c-41 0 -70 27 -70 67c0 51 46 92 108 111v671c0 5 4 9 9 9s9 -4 9 -9v-671c0 -4 -4 -8 -8 -9c-56 -18 -100 -56 -100 -100c0 -30 17 -53 52 -53c17 0 27 2 42 7c3 1 5 2 7 2z" />
<glyph unicode="&#x12f;" horiz-adv-x="178" d="M93 -152c5 0 8 -4 8 -8c0 -3 -1 -6 -6 -8c-18 -7 -31 -9 -51 -9c-41 0 -70 27 -70 67c0 50 45 91 106 111v452c0 5 4 9 9 9s9 -4 9 -9v-452c0 -5 -4 -9 -9 -9c-55 -18 -97 -57 -97 -100c0 -30 17 -53 52 -53c17 0 27 2 42 7c3 1 5 2 7 2zM89 603c-8 0 -12 4 -12 15 c0 12 4 16 12 16s12 -4 12 -16c0 -11 -4 -15 -12 -15z" />
<glyph unicode="&#x172;" horiz-adv-x="625" d="M481 -152c5 0 8 -4 8 -8c0 -3 -1 -6 -6 -8c-18 -7 -31 -9 -51 -9c-41 0 -70 27 -70 67s20 77 55 108c-27 -7 -59 -12 -98 -12c-184 0 -224 94 -224 200v486c0 5 4 9 9 9s9 -4 9 -9v-486c0 -100 36 -184 206 -184s203 84 203 184v486c0 5 4 9 9 9s9 -4 9 -9v-486 c0 -67 -14 -129 -72 -166c-59 -40 -88 -84 -88 -128c0 -30 17 -53 52 -53c17 0 27 2 42 7c3 1 5 2 7 2z" />
<glyph unicode="&#x173;" horiz-adv-x="490" d="M391 -152c5 0 8 -4 8 -8c0 -3 -1 -6 -6 -8c-18 -7 -31 -9 -51 -9c-41 0 -70 32 -70 72c0 36 14 70 45 102c-20 -6 -44 -10 -72 -10c-141 0 -175 85 -175 177v289c0 5 4 9 9 9s9 -4 9 -9v-298c0 -81 35 -151 157 -151s157 70 157 151v298c0 5 4 9 9 9s9 -4 9 -9v-289 c0 -59 -14 -115 -61 -148c-43 -34 -69 -76 -69 -119c0 -30 17 -58 52 -58c17 0 27 2 42 7c3 1 5 2 7 2z" />
</font>
</defs>
</svg>
