<?xml version="1.0" encoding="UTF-8" standalone="no"?>
<svg width="454px" height="454px" viewBox="0 0 454 454" version="1.1" xmlns="http://www.w3.org/2000/svg" xmlns:xlink="http://www.w3.org/1999/xlink" xmlns:sketch="http://www.bohemiancoding.com/sketch/ns">
    <!-- Generator: Sketch 3.4 (15575) - http://www.bohemiancoding.com/sketch -->
    <title>Untitled 2</title>
    <desc>Created with Sketch.</desc>
    <defs>
        <path id="path-1" d="M0,0.457 L453.543,0.457 L453.543,454 L0,454 L0,0.457 Z"></path>
    </defs>
    <g id="Page-1" stroke="none" stroke-width="1" fill="none" fill-rule="evenodd" sketch:type="MSPage">
        <g id="beavr-giraffe-gelato" sketch:type="MSLayerGroup">
            <path d="M188.7318,289.8667 C179.1598,289.8667 171.5588,285.6237 168.5008,278.3807 L170.0688,277.7187 C173.1598,285.0327 181.4588,288.9867 191.7418,288.0217 C206.2488,286.6657 225.3528,275.0907 231.4498,246.9297 L233.1138,247.2907 C226.8218,276.3497 206.9798,288.3077 191.8998,289.7167 C190.8238,289.8177 189.7658,289.8667 188.7318,289.8667" id="Fill-1" fill="#CDCDCD" sketch:type="MSShapeGroup"></path>
            <path d="M226.2772,57.9857 L223.8442,56.6467 L223.9582,56.3087 C223.9812,56.2447 226.1412,49.8317 225.5742,46.2597 C225.5372,46.0277 225.6952,45.8107 225.9282,45.7727 C226.1572,45.7367 226.3782,45.8937 226.4152,46.1267 C226.9442,49.4587 225.3292,54.8317 224.8762,56.2427 L225.9222,56.8187 C226.6762,55.4717 229.4102,51.1027 233.7692,49.8227 C233.9932,49.7557 234.2312,49.8857 234.2962,50.1107 C234.3632,50.3367 234.2342,50.5727 234.0082,50.6387 C229.2962,52.0227 226.5022,57.5337 226.4752,57.5887 L226.2772,57.9857 Z" id="Fill-3" fill="#D45F2A" sketch:type="MSShapeGroup"></path>
            <path d="M366.1079,325.8874 C365.6859,325.8874 365.3209,325.5744 365.2649,325.1454 C361.6339,297.3224 344.8479,295.2774 344.6779,295.2604 C344.2109,295.2124 343.8699,294.7944 343.9189,294.3254 C343.9679,293.8574 344.3799,293.5274 344.8529,293.5664 C345.5979,293.6434 363.1499,295.7794 366.9529,324.9264 C367.0139,325.3924 366.6849,325.8194 366.2189,325.8804 C366.1819,325.8854 366.1449,325.8874 366.1079,325.8874" id="Fill-5" fill="#D45F2A" sketch:type="MSShapeGroup"></path>
            <path d="M219.4141,83.8676 C219.4141,83.8676 200.5541,93.1546 195.5531,88.1536 C190.5521,83.1536 203.5541,58.1486 218.1281,54.8626 C232.7021,51.5766 232.4161,68.0076 235.4171,83.2956 C238.4171,98.5846 258.1351,204.1736 263.5641,231.7496 C268.9941,259.3256 272.7091,278.0426 300.5701,281.3296 C328.4321,284.6156 351.8651,284.1866 352.5791,316.3356 C353.2941,348.4836 350.1501,379.4886 343.2921,378.6316 C336.4341,377.7736 338.5771,365.2006 338.8631,349.3406 C339.1481,333.4806 338.8631,328.1946 338.8631,328.1946 C338.8631,328.1946 336.6151,327.4756 331.9181,327.5696 C327.2201,327.6636 325.8111,328.8846 325.8111,328.8846 C325.8111,328.8846 325.5301,337.1516 326.0931,353.2156 C326.6571,369.2796 326.8451,376.6076 322.2421,377.3586 C317.6381,378.1106 316.6051,372.0986 315.3841,362.3286 C314.1631,352.5586 313.0351,327.7576 313.0351,327.7576 C313.0351,327.7576 303.0771,326.7246 291.9921,327.0996 C280.9071,327.4756 275.4591,328.2276 275.4591,328.2276 C275.4591,328.2276 274.2371,344.6676 272.7341,357.9126 C271.2311,371.1586 270.7611,378.2046 265.8761,378.1106 C260.9911,378.0166 260.9911,365.2406 261.7431,355.0006 C262.4951,344.7606 261.7431,328.2276 261.7431,328.2276 C261.7431,328.2276 259.2071,327.1936 255.0731,327.3816 C250.9401,327.5696 249.0611,328.4156 249.0611,328.4156 C249.0611,328.4156 248.9671,341.7546 249.3431,355.3766 C249.7181,368.9976 249.3431,377.3586 244.3641,377.4526 C239.3851,377.5466 237.8821,366.2736 236.8481,348.6126 C235.8151,330.9516 234.1301,292.2316 232.8531,257.4686 C231.5761,222.7066 224.9881,137.0036 219.4141,83.8676" id="Fill-7" fill="#FECB30" sketch:type="MSShapeGroup"></path>
            <path d="M209.7209,65.7027 C210.8809,66.1557 211.8359,67.0117 212.4089,68.1157 C212.6089,68.5017 212.4589,68.9767 212.0729,69.1777 C211.6869,69.3777 211.2109,69.2277 211.0109,68.8407 C210.2779,67.4277 208.5649,66.6507 207.0189,67.0267 C206.5959,67.1297 206.1709,66.8687 206.0679,66.4477 C205.9649,66.0247 206.2239,65.5987 206.6469,65.4957 C207.6719,65.2467 208.7359,65.3187 209.7209,65.7027" id="Fill-9" fill="#062B3A" sketch:type="MSShapeGroup"></path>
            <path d="M217.4756,69.8713 C217.5366,69.8953 217.5976,69.9203 217.6586,69.9463 C218.7986,70.4413 219.7206,71.3333 220.2536,72.4573 C220.4386,72.8513 220.2706,73.3203 219.8776,73.5063 C219.4836,73.6933 219.0156,73.5243 218.8286,73.1303 C218.4606,72.3513 217.8216,71.7343 217.0316,71.3923 C216.3686,71.0873 215.6246,71.0213 214.9096,71.1683 C214.4836,71.2533 214.0666,70.9793 213.9796,70.5543 C213.8926,70.1273 214.1686,69.7123 214.5936,69.6243 C215.5636,69.4273 216.5556,69.5123 217.4756,69.8713" id="Fill-11" fill="#062B3A" sketch:type="MSShapeGroup"></path>
            <path d="M232.2396,87.7842 C229.4636,86.3962 224.6066,89.3452 225.4736,92.2942 C226.3416,95.2432 231.8056,96.9782 233.6276,94.4632 C235.4486,91.9472 235.0156,89.1722 232.2396,87.7842" id="Fill-13" fill="#D45F2A" sketch:type="MSShapeGroup"></path>
            <path d="M226.2547,97.6723 C224.4457,97.4463 222.3517,100.1013 223.7397,102.1823 C225.1267,104.2643 228.0757,103.4833 228.5967,101.6623 C229.1167,99.8403 228.3367,97.9323 226.2547,97.6723" id="Fill-15" fill="#D45F2A" sketch:type="MSShapeGroup"></path>
            <path d="M233.5407,103.4258 C230.5787,103.2648 228.1627,107.9938 229.2907,109.9888 C230.4177,111.9838 235.6227,112.8518 237.5307,109.9888 C239.4387,107.1268 237.2707,103.6278 233.5407,103.4258" id="Fill-17" fill="#D45F2A" sketch:type="MSShapeGroup"></path>
            <path d="M232.4131,116.4944 C226.7851,116.0124 224.8671,122.3054 226.4281,126.0354 C227.9891,129.7654 233.6271,131.6734 236.3161,129.5054 C239.0051,127.3364 238.4851,117.0144 232.4131,116.4944" id="Fill-19" fill="#D45F2A" sketch:type="MSShapeGroup"></path>
            <path d="M241.5205,134.6225 C240.1755,132.8675 233.9745,133.5815 232.7605,136.5305 C231.5455,139.4795 234.2345,143.9035 238.9185,143.6435 C243.6025,143.3825 243.5155,137.2245 241.5205,134.6225" id="Fill-21" fill="#D45F2A" sketch:type="MSShapeGroup"></path>
            <path d="M232.9335,149.1077 C229.1435,152.7747 227.5555,159.7767 232.9335,163.5057 C238.3115,167.2357 242.6485,161.1637 244.2095,157.5217 C245.7705,153.8787 247.0715,149.1947 241.9545,148.0667 C236.8365,146.9397 234.4975,147.5947 232.9335,149.1077" id="Fill-23" fill="#D45F2A" sketch:type="MSShapeGroup"></path>
            <path d="M248.7198,168.1032 C246.8578,164.6452 238.6578,165.5882 237.0098,168.1032 C235.3618,170.6182 238.7448,182.5012 244.9898,181.7212 C251.2348,180.9402 250.5408,171.4862 248.7198,168.1032" id="Fill-25" fill="#D45F2A" sketch:type="MSShapeGroup"></path>
            <path d="M234.0611,182.8485 C231.3461,184.4005 232.2401,191.7825 233.4541,194.7315 C234.6681,197.6805 238.1381,198.6345 241.4341,194.1245 C244.7301,189.6145 243.6021,185.3635 240.9131,183.7155 C238.2241,182.0675 235.8831,181.8075 234.0611,182.8485" id="Fill-27" fill="#D45F2A" sketch:type="MSShapeGroup"></path>
            <path d="M253.0566,199.0685 C249.0356,195.5765 243.4286,195.3385 239.5256,201.7575 C235.6226,208.1755 240.6536,213.2065 243.8626,215.2015 C247.0716,217.1965 254.0976,218.3245 255.6586,212.2525 C257.2196,206.1805 256.3526,201.9305 253.0566,199.0685" id="Fill-29" fill="#D45F2A" sketch:type="MSShapeGroup"></path>
            <path d="M235.9693,218.5844 C232.4053,220.6404 234.0613,231.5084 237.1833,233.3294 C240.3063,235.1514 249.5003,231.9424 249.5873,225.9574 C249.6743,219.9724 241.0463,215.6544 235.9693,218.5844" id="Fill-31" fill="#D45F2A" sketch:type="MSShapeGroup"></path>
            <path d="M256.9598,219.8855 C254.8688,219.0495 251.9288,222.2275 253.2298,224.8295 C254.5308,227.4315 257.8268,226.3045 258.5208,224.8295 C259.2148,223.3545 258.6948,220.5795 256.9598,219.8855" id="Fill-33" fill="#D45F2A" sketch:type="MSShapeGroup"></path>
            <path d="M245.8107,273.8083 C243.7197,272.9723 240.7797,276.1503 242.0807,278.7523 C243.3817,281.3543 246.6777,280.2273 247.3717,278.7523 C248.0657,277.2783 247.5457,274.5023 245.8107,273.8083" id="Fill-35" fill="#D45F2A" sketch:type="MSShapeGroup"></path>
            <path d="M258.2609,230.6409 C253.9709,228.3729 247.1589,231.3349 246.2909,236.4519 C245.4239,241.5699 248.3729,245.9069 255.4849,245.2999 C262.5979,244.6919 264.3329,233.8499 258.2609,230.6409" id="Fill-37" fill="#D45F2A" sketch:type="MSShapeGroup"></path>
            <path d="M238.1038,238.9677 C236.5148,239.2657 234.4948,241.0497 236.0558,242.9577 C237.6178,244.8657 240.5668,243.8247 240.5668,241.9167 C240.5668,240.0087 239.0278,238.7947 238.1038,238.9677" id="Fill-39" fill="#D45F2A" sketch:type="MSShapeGroup"></path>
            <path d="M246.6381,249.8967 C240.9541,249.4457 235.4351,257.8767 237.8711,263.4277 C240.3061,268.9787 248.2861,270.5407 252.1021,265.1627 C255.9191,259.7847 252.1021,250.3307 246.6381,249.8967" id="Fill-41" fill="#D45F2A" sketch:type="MSShapeGroup"></path>
            <path d="M268.4092,272.0147 C261.6202,271.2457 253.9872,275.7447 255.8642,280.1677 C257.7402,284.5917 263.1182,289.0157 270.6642,284.1577 C278.2102,279.3007 277.6032,273.0557 268.4092,272.0147" id="Fill-43" fill="#D45F2A" sketch:type="MSShapeGroup"></path>
            <path d="M245.4622,285.806 C240.0362,286.319 239.2652,293.265 243.2552,296.908 C247.2452,300.551 252.2372,300.118 253.6442,295.174 C255.0512,290.23 250.9652,285.286 245.4622,285.806" id="Fill-45" fill="#D45F2A" sketch:type="MSShapeGroup"></path>
            <path d="M267.1081,297.3421 C263.3261,296.8261 259.1281,305.0621 261.2971,309.3991 C263.4651,313.7351 269.7101,315.4701 272.9191,308.2711 C276.1291,301.0721 270.9241,297.8621 267.1081,297.3421" id="Fill-47" fill="#D45F2A" sketch:type="MSShapeGroup"></path>
            <path d="M283.9352,285.7682 C277.6302,287.0702 277.3432,293.3522 277.6032,295.9542 C277.8632,298.5562 283.2412,304.9752 287.4052,304.0212 C291.5682,303.0672 297.5532,292.3112 294.3442,287.5412 C291.1342,282.7702 287.0582,285.1232 283.9352,285.7682" id="Fill-49" fill="#D45F2A" sketch:type="MSShapeGroup"></path>
            <path d="M245.4622,309.0491 C240.8032,311.4321 241.1922,319.8541 243.0942,321.3231 C244.9952,322.7931 257.2702,320.8051 258.3942,315.8781 C259.5172,310.9511 251.5472,305.9371 245.4622,309.0491" id="Fill-51" fill="#D45F2A" sketch:type="MSShapeGroup"></path>
            <path d="M271.0138,319.4218 C269.4308,318.2158 262.8888,320.8908 264.5308,325.1268 C266.1728,329.3618 271.8168,327.3108 272.6788,325.1268 C273.6288,322.7178 272.8288,320.8048 271.0138,319.4218" id="Fill-53" fill="#D45F2A" sketch:type="MSShapeGroup"></path>
            <path d="M283.1153,309.827 C278.4283,308.959 274.6443,313.371 274.9033,318.212 C275.1633,323.052 283.1113,322.101 286.3973,321.237 C289.6843,320.373 290.2893,316.414 288.4743,313.164 C286.6593,309.913 285.4493,310.259 283.1153,309.827" id="Fill-55" fill="#D45F2A" sketch:type="MSShapeGroup"></path>
            <path d="M304.4657,302.3933 C300.5227,301.6633 297.4637,302.1233 296.8587,304.1163 C296.2537,306.1103 297.5507,311.0373 301.0947,311.9013 C304.6387,312.7663 308.1827,313.8033 309.4787,311.9013 C310.7757,310.0003 309.1337,303.2573 304.4657,302.3933" id="Fill-57" fill="#D45F2A" sketch:type="MSShapeGroup"></path>
            <path d="M312.9367,289.5139 C311.0737,288.7979 304.8977,291.0699 303.9467,293.9219 C302.9967,296.7749 304.8977,299.0839 307.0587,299.3129 C309.2197,299.5409 311.8997,299.7649 313.3687,297.3189 C314.8387,294.8729 315.1837,290.3779 312.9367,289.5139" id="Fill-59" fill="#D45F2A" sketch:type="MSShapeGroup"></path>
            <path d="M266.1109,265.9522 C267.6299,264.6572 268.5809,258.1462 266.5289,255.9482 C264.4759,253.7512 261.5389,254.3202 260.3069,256.1102 C259.0749,257.8992 257.5989,260.1472 259.0459,262.6062 C260.4939,265.0652 264.2789,267.5142 266.1109,265.9522" id="Fill-61" fill="#D45F2A" sketch:type="MSShapeGroup"></path>
            <path d="M244.3042,329.7944 C241.5882,327.5024 237.1302,330.5724 237.4752,334.2894 C237.8212,338.0064 243.0072,340.5994 245.0822,338.9574 C247.1562,337.3144 247.0702,332.1284 244.3042,329.7944" id="Fill-63" fill="#D45F2A" sketch:type="MSShapeGroup"></path>
            <path d="M240.7396,347.9466 C239.2236,348.7606 239.2046,356.3316 242.7486,357.1096 C246.2926,357.8866 246.8396,352.5276 246.5226,351.3176 C246.2056,350.1076 242.1886,347.1686 240.7396,347.9466" id="Fill-65" fill="#D45F2A" sketch:type="MSShapeGroup"></path>
            <path d="M269.7172,334.2329 C267.2392,332.8079 263.4932,336.1049 264.2682,338.9569 C264.8422,341.0679 268.3342,342.5869 270.7542,340.6859 C273.1752,338.7839 271.2732,335.1269 269.7172,334.2329" id="Fill-67" fill="#D45F2A" sketch:type="MSShapeGroup"></path>
            <path d="M269.5443,353.6516 C267.5553,352.4586 264.3583,354.2376 263.4073,357.1856 C262.4563,360.1346 263.5803,362.3816 266.4753,362.8146 C269.3713,363.2466 270.5813,361.0306 270.8413,358.0756 C271.1003,355.1206 270.8413,354.4296 269.5443,353.6516" id="Fill-69" fill="#D45F2A" sketch:type="MSShapeGroup"></path>
            <path d="M302.4776,316.31 C299.5436,316.487 297.7236,317.285 297.8096,319.131 C297.8966,320.978 299.3656,321.951 301.8726,321.94 C304.3796,321.929 305.7626,320.656 305.7626,319.131 C305.7626,317.607 303.8766,316.226 302.4776,316.31" id="Fill-71" fill="#D45F2A" sketch:type="MSShapeGroup"></path>
            <path d="M321.4941,307.1474 C317.9511,307.0294 314.4921,310.4324 314.9251,315.3594 C315.3571,320.2864 317.8641,322.1844 321.1481,321.7964 C324.4331,321.4094 326.8531,319.1644 326.5071,314.4954 C326.1621,309.8274 324.0871,307.2334 321.4941,307.1474" id="Fill-73" fill="#D45F2A" sketch:type="MSShapeGroup"></path>
            <path d="M326.5405,291.8477 C320.6295,291.8477 317.0855,294.7867 317.2585,298.3307 C317.4315,301.8747 320.9545,302.8257 326.5405,302.7387 C332.1265,302.6527 335.5835,300.8017 335.6705,297.3187 C335.7565,293.8357 330.8085,291.8477 326.5405,291.8477" id="Fill-75" fill="#D45F2A" sketch:type="MSShapeGroup"></path>
            <path d="M339.7328,305.8508 C334.1768,305.8508 330.4838,310.2028 331.0888,314.9418 C331.6938,319.6808 335.9298,322.9618 340.6838,321.7968 C345.4378,320.6318 347.6848,314.4948 347.1668,311.1238 C346.6478,307.7528 343.4498,305.8508 339.7328,305.8508" id="Fill-77" fill="#D45F2A" sketch:type="MSShapeGroup"></path>
            <path d="M350.1054,326.9419 C350.1354,328.4339 349.3274,330.1399 347.2394,330.3999 C345.1514,330.6589 343.1904,329.1029 342.9314,327.5929 C342.6714,326.0829 344.7444,324.6079 347.2394,324.6079 C348.9814,324.6079 350.0894,326.1549 350.1054,326.9419" id="Fill-79" fill="#D45F2A" sketch:type="MSShapeGroup"></path>
            <path d="M320.7143,325.2132 C318.5463,324.1282 315.3573,328.2952 315.7023,330.4282 C316.0483,332.5602 319.1603,335.9312 322.2723,333.3382 C325.3843,330.7452 322.9603,326.3372 320.7143,325.2132" id="Fill-81" fill="#D45F2A" sketch:type="MSShapeGroup"></path>
            <path d="M319.7139,342.3281 C317.1159,343.1201 315.6039,345.7861 317.2529,347.8171 C318.9009,349.8481 324.2599,348.2061 324.2599,345.6991 C324.2599,343.1921 321.2579,341.8581 319.7139,342.3281" id="Fill-83" fill="#D45F2A" sketch:type="MSShapeGroup"></path>
            <path d="M346.0428,339.4601 C343.4798,338.9941 340.2518,342.6731 341.5478,345.4831 C342.8448,348.2921 346.0428,349.5891 348.3768,346.2181 C350.7108,342.8471 347.8578,339.7901 346.0428,339.4601" id="Fill-85" fill="#D45F2A" sketch:type="MSShapeGroup"></path>
            <path d="M344.0547,360.4803 C341.3677,360.0963 339.0537,362.4683 341.2517,366.0123 C343.4497,369.5563 346.3617,367.1363 347.2397,365.2343 C348.1177,363.3323 346.4747,360.8263 344.0547,360.4803" id="Fill-87" fill="#D45F2A" sketch:type="MSShapeGroup"></path>
            <path d="M322.1857,359.8752 C319.8597,359.6642 317.0857,362.4682 318.3827,364.8022 C319.6787,367.1362 323.5687,367.6982 324.2607,364.1322 C324.9517,360.5672 324.0877,360.0482 322.1857,359.8752" id="Fill-89" fill="#D45F2A" sketch:type="MSShapeGroup"></path>
            <path d="M223.2884,55.4474 C223.2884,55.4474 221.4484,48.0164 219.7834,47.7784 C218.1194,47.5404 217.9404,56.6364 217.9404,56.6364 L223.2884,55.4474 Z" id="Fill-91" fill="#FECB30" sketch:type="MSShapeGroup"></path>
            <path d="M227.75,58.1226 C227.75,58.1226 234.408,55.5666 235.538,57.3496 C236.667,59.1336 230.049,64.4836 230.049,64.4836 L227.75,58.1226 Z" id="Fill-93" fill="#FECB30" sketch:type="MSShapeGroup"></path>
            <path d="M200.9437,83.8066 C200.9437,84.6106 200.2917,85.2616 199.4887,85.2616 C198.6847,85.2616 198.0327,84.6106 198.0327,83.8066 C198.0327,83.0026 198.6847,82.3516 199.4887,82.3516 C200.2917,82.3516 200.9437,83.0026 200.9437,83.8066" id="Fill-95" fill="#D45F2A" sketch:type="MSShapeGroup"></path>
            <path d="M220.5521,79.8418 C220.2381,80.8048 218.8241,81.2078 217.3961,80.7418 C215.9671,80.2758 215.0641,79.1168 215.3791,78.1528 C215.6931,77.1898 217.1061,76.7868 218.5351,77.2528 C219.9631,77.7198 220.8661,78.8788 220.5521,79.8418" id="Fill-97" fill="#FC5B5D" sketch:type="MSShapeGroup"></path>
            <path d="M200.8386,70.348 C200.5616,70.23 200.2846,70.157 200.0126,70.107 C199.4296,71.021 198.8706,71.956 198.2956,73.001 C198.5966,73.286 198.9666,73.54 199.4036,73.726 C200.7866,74.314 202.2286,74.034 202.6256,73.101 C203.0216,72.168 202.2216,70.936 200.8386,70.348" id="Fill-99" fill="#FC5B5D" sketch:type="MSShapeGroup"></path>
            <path d="M201.4277,88.4448 C201.4127,88.4438 199.8727,88.2838 199.1887,87.2418 C198.7987,86.6478 198.7587,85.8548 199.0707,84.8868 C199.1327,84.6948 199.0527,84.4868 198.8777,84.3868 C198.7037,84.2868 198.4837,84.3228 198.3487,84.4718 C197.4567,85.4678 196.6547,85.9348 195.9947,85.8588 C195.4857,85.8028 195.0147,85.4078 194.5887,84.7128 C194.6017,85.2358 194.6377,85.7118 194.6847,86.1548 C195.0577,86.4678 195.4627,86.6568 195.9007,86.7058 C196.5687,86.7788 197.2767,86.5288 198.0127,85.9588 C197.9917,86.6198 198.1467,87.2048 198.4767,87.7088 C199.3837,89.0878 201.2667,89.2848 201.3467,89.2928 C201.3597,89.2938 201.3737,89.2948 201.3877,89.2948 C201.6037,89.2948 201.7897,89.1298 201.8107,88.9098 C201.8337,88.6758 201.6617,88.4678 201.4277,88.4448" id="Fill-101" fill="#D45F2A" sketch:type="MSShapeGroup"></path>
            <path d="M361.4971,324.0625 C361.3261,324.0625 361.1531,324.0105 361.0021,323.9035 C360.6201,323.6305 360.5321,323.0985 360.8051,322.7155 L364.6881,317.2865 L370.3081,320.8435 C370.7041,321.0945 370.8231,321.6205 370.5711,322.0185 C370.3201,322.4145 369.7931,322.5335 369.3971,322.2815 L365.1371,319.5865 L362.1901,323.7065 C362.0241,323.9385 361.7621,324.0625 361.4971,324.0625" id="Fill-103" fill="#D45F2A" sketch:type="MSShapeGroup"></path>
            <path d="M227.0162,45.9271 C227.0162,46.5361 226.5222,47.0301 225.9132,47.0301 C225.3042,47.0301 224.8102,46.5361 224.8102,45.9271 C224.8102,45.3181 225.3042,44.8241 225.9132,44.8241 C226.5222,44.8241 227.0162,45.3181 227.0162,45.9271" id="Fill-105" fill="#D45F2A" sketch:type="MSShapeGroup"></path>
            <path d="M235.4082,50.0511 C235.4082,50.6601 234.9142,51.1541 234.3052,51.1541 C233.6962,51.1541 233.2022,50.6601 233.2022,50.0511 C233.2022,49.4421 233.6962,48.9481 234.3052,48.9481 C234.9142,48.9481 235.4082,49.4421 235.4082,50.0511" id="Fill-107" fill="#D45F2A" sketch:type="MSShapeGroup"></path>
            <path d="M232.2027,246.4063 L267.0617,244.0143 L268.6757,249.1743 L233.2517,252.0813 L232.2027,246.4063 Z" id="Fill-109" fill="#FC5B5D" sketch:type="MSShapeGroup"></path>
            <path d="M233.2137,247.1906 L233.9487,251.1696 L267.5457,248.4126 L266.4497,244.9106 L233.2137,247.1906 Z M232.5537,252.9916 L231.1917,245.6226 L267.6737,243.1196 L269.8047,249.9356 L232.5537,252.9916 Z" id="Fill-111" fill="#FFFFFF" sketch:type="MSShapeGroup"></path>
            <path d="M235.5379,245.191 L246.5399,241.812 L245.0739,255.964 L235.0139,251.224" id="Fill-113" fill="#FC5B5D" sketch:type="MSShapeGroup"></path>
            <path d="M245.0741,256.8154 C244.9501,256.8154 244.8261,256.7884 244.7121,256.7344 L234.6521,251.9944 C234.2261,251.7934 234.0441,251.2864 234.2451,250.8624 C234.4441,250.4364 234.9511,250.2534 235.3771,250.4544 L244.3511,254.6824 L245.5601,243.0034 L235.7881,246.0054 C235.3371,246.1434 234.8611,245.8904 234.7241,245.4414 C234.5861,244.9914 234.8391,244.5154 235.2881,244.3774 L246.2891,240.9974 C246.5621,240.9144 246.8601,240.9714 247.0801,241.1544 C247.3011,241.3354 247.4161,241.6154 247.3871,241.8984 L245.9211,256.0514 C245.8921,256.3264 245.7321,256.5704 245.4921,256.7054 C245.3621,256.7784 245.2191,256.8154 245.0741,256.8154" id="Fill-115" fill="#FFFFFF" sketch:type="MSShapeGroup"></path>
            <path d="M228.6827,244.8416 L219.6427,240.1276 L217.2227,252.8246 L228.8517,251.3446" id="Fill-117" fill="#FC5B5D" sketch:type="MSShapeGroup"></path>
            <path d="M217.2231,253.6761 C216.9891,253.6761 216.7651,253.5801 216.6031,253.4071 C216.4161,253.2101 216.3361,252.9331 216.3871,252.6651 L218.8061,239.9671 C218.8571,239.7031 219.0291,239.4781 219.2721,239.3611 C219.5141,239.2441 219.7971,239.2491 220.0361,239.3721 L229.0771,244.0871 C229.4931,244.3051 229.6551,244.8191 229.4381,245.2361 C229.2201,245.6521 228.7081,245.8151 228.2891,245.5971 L220.2641,241.4121 L218.2791,251.8321 L228.7441,250.4991 C229.2171,250.4441 229.6371,250.7711 229.6961,251.2371 C229.7551,251.7031 229.4251,252.1291 228.9591,252.1891 L217.3301,253.6691 C217.2941,253.6741 217.2591,253.6761 217.2231,253.6761" id="Fill-119" fill="#FFFFFF" sketch:type="MSShapeGroup"></path>
            <path d="M236.292,248.0835 C236.353,250.4265 234.503,252.3755 232.159,252.4365 C229.816,252.4975 227.867,250.6475 227.806,248.3035 C227.745,245.9605 229.595,244.0115 231.939,243.9505 C234.282,243.8895 236.231,245.7405 236.292,248.0835" id="Fill-121" fill="#FC5B5D" sketch:type="MSShapeGroup"></path>
            <path d="M232.0498,244.8003 C232.0198,244.8003 231.9898,244.8013 231.9608,244.8023 C231.0548,244.8253 230.2128,245.2003 229.5878,245.8583 C228.9638,246.5143 228.6328,247.3763 228.6568,248.2813 C228.7058,250.1523 230.2808,251.6563 232.1368,251.5853 C234.0078,251.5373 235.4898,249.9753 235.4408,248.1063 C235.3928,246.2653 233.8798,244.8003 232.0498,244.8003 M232.0448,253.2893 C230.7348,253.2893 229.4948,252.7953 228.5408,251.8893 C227.5538,250.9523 226.9898,249.6873 226.9538,248.3263 C226.9198,246.9653 227.4158,245.6723 228.3538,244.6853 C229.2908,243.6983 230.5558,243.1353 231.9158,243.0993 C231.9608,243.0983 232.0058,243.0973 232.0498,243.0973 C234.7988,243.0973 237.0708,245.2973 237.1438,248.0613 C237.2158,250.8703 234.9908,253.2143 232.1818,253.2883 C232.1358,253.2883 232.0898,253.2893 232.0448,253.2893" id="Fill-123" fill="#FFFFFF" sketch:type="MSShapeGroup"></path>
            <path d="M152.7877,365.7707 L138.3147,365.8547 L139.1667,287.6117 L153.6387,288.4357 L152.7877,365.7707 Z" id="Fill-125" fill="#1E3158" sketch:type="MSShapeGroup"></path>
            <mask id="mask-2" sketch:name="Clip 128" fill="white">
                <use xlink:href="#path-1"></use>
            </mask>
            <g id="Clip-128"></g>
            <path d="M145.977,303.694 L123.028,303.694 L123.028,290.166 L145.977,290.166 L145.977,303.694 Z" id="Fill-127" fill="#1E3158" sketch:type="MSShapeGroup" mask="url(#mask-2)"></path>
            <path d="M153.6297,377.2557 L126.0477,377.4047 L126.0227,372.7267 L137.0647,367.9887 L153.5787,367.8997 L153.6297,377.2557 Z" id="Fill-129" fill="#1E3158" sketch:type="MSShapeGroup" mask="url(#mask-2)"></path>
            <path d="M129.1915,365.7707 L114.7185,365.8547 L115.5705,287.6117 L130.0425,288.4357 L129.1915,365.7707 Z" id="Fill-130" fill="#1E3158" sketch:type="MSShapeGroup" mask="url(#mask-2)"></path>
            <path d="M123.9285,371.4787 L123.8795,377.3367 L102.4515,377.4047 L102.4265,372.7267 L113.4675,367.9887 L129.9825,367.8997 L129.9885,368.8647 L123.9285,371.4787 Z" id="Fill-131" fill="#1E3158" sketch:type="MSShapeGroup" mask="url(#mask-2)"></path>
            <path d="M120.5704,202.2388 C106.3874,207.2698 106.7974,217.9438 106.7974,226.8538 L106.7974,279.9718 C106.7974,286.0758 111.7454,291.0238 117.8494,291.0238 L153.6534,291.0238 C159.7574,291.0238 164.7054,286.0758 164.7054,279.9718 L164.7054,228.7448 C164.7054,208.0958 143.5484,194.0888 120.5704,202.2388" id="Fill-132" fill="#CDCDCD" sketch:type="MSShapeGroup" mask="url(#mask-2)"></path>
            <path d="M133.8951,200.72 C129.6381,200.72 125.2351,201.487 120.8551,203.041 C107.6251,207.733 107.6371,217.503 107.6481,226.122 L107.6481,226.853 L107.6481,279.972 C107.6481,285.597 112.2241,290.173 117.8491,290.173 L153.6531,290.173 C159.2791,290.173 163.8541,285.597 163.8541,279.972 L163.8541,228.745 C163.8541,219.736 159.6271,211.583 152.2561,206.376 C146.9511,202.63 140.6071,200.72 133.8951,200.72 M153.6531,291.875 L117.8491,291.875 C111.2861,291.875 105.9461,286.535 105.9461,279.972 L105.9451,226.124 C105.9341,217.395 105.9211,206.532 120.2861,201.437 L120.5711,202.239 L120.2861,201.437 C132.1001,197.245 144.1111,198.538 153.2381,204.986 C161.0671,210.515 165.5571,219.176 165.5571,228.745 L165.5571,279.972 C165.5571,286.535 160.2171,291.875 153.6531,291.875" id="Fill-133" fill="#FFFFFF" sketch:type="MSShapeGroup" mask="url(#mask-2)"></path>
            <path d="M151.5565,182.9119 C151.5565,191.8599 144.3025,199.1149 135.3535,199.1149 C126.4055,199.1149 119.1515,191.8599 119.1515,182.9119 C119.1515,173.9639 126.4055,166.7089 135.3535,166.7089 C144.3025,166.7089 151.5565,173.9639 151.5565,182.9119" id="Fill-134" fill="#F6B4A1" sketch:type="MSShapeGroup" mask="url(#mask-2)"></path>
            <path d="M131.1106,186.5092 C129.9186,186.5612 128.7506,186.1792 127.8216,185.4332 C127.4966,185.1722 127.4456,184.6982 127.7066,184.3722 C127.9676,184.0482 128.4416,183.9952 128.7666,184.2572 C129.9556,185.2122 131.7576,185.2312 132.9666,184.3052 C133.2976,184.0502 133.7716,184.1152 134.0246,184.4442 C134.2776,184.7752 134.2156,185.2482 133.8846,185.5022 C133.0826,186.1172 132.1226,186.4652 131.1106,186.5092" id="Fill-135" fill="#1E3158" sketch:type="MSShapeGroup" mask="url(#mask-2)"></path>
            <path d="M139.4338,186.5092 C140.6258,186.5612 141.7938,186.1792 142.7228,185.4332 C143.0478,185.1722 143.0988,184.6982 142.8378,184.3722 C142.5778,184.0482 142.1028,183.9952 141.7778,184.2572 C140.5888,185.2122 138.7868,185.2312 137.5778,184.3052 C137.2468,184.0502 136.7728,184.1152 136.5198,184.4442 C136.2668,184.7752 136.3288,185.2482 136.6598,185.5022 C137.4618,186.1172 138.4218,186.4652 139.4338,186.5092" id="Fill-136" fill="#1E3158" sketch:type="MSShapeGroup" mask="url(#mask-2)"></path>
            <path d="M133.9568,217.7081 C133.9568,218.4131 133.3848,218.9851 132.6798,218.9851 C131.9748,218.9851 131.4028,218.4131 131.4028,217.7081 C131.4028,217.0031 131.9748,216.4311 132.6798,216.4311 C133.3848,216.4311 133.9568,217.0031 133.9568,217.7081" id="Fill-137" fill="#FFFFFF" sketch:type="MSShapeGroup" mask="url(#mask-2)"></path>
            <path d="M133.9568,229.8835 C133.9568,230.5885 133.3848,231.1605 132.6798,231.1605 C131.9748,231.1605 131.4028,230.5885 131.4028,229.8835 C131.4028,229.1785 131.9748,228.6065 132.6798,228.6065 C133.3848,228.6065 133.9568,229.1785 133.9568,229.8835" id="Fill-138" fill="#FFFFFF" sketch:type="MSShapeGroup" mask="url(#mask-2)"></path>
            <path d="M133.9568,242.0588 C133.9568,242.7638 133.3848,243.3358 132.6798,243.3358 C131.9748,243.3358 131.4028,242.7638 131.4028,242.0588 C131.4028,241.3538 131.9748,240.7818 132.6798,240.7818 C133.3848,240.7818 133.9568,241.3538 133.9568,242.0588" id="Fill-139" fill="#FFFFFF" sketch:type="MSShapeGroup" mask="url(#mask-2)"></path>
            <path d="M133.9568,254.2342 C133.9568,254.9392 133.3848,255.5112 132.6798,255.5112 C131.9748,255.5112 131.4028,254.9392 131.4028,254.2342 C131.4028,253.5292 131.9748,252.9572 132.6798,252.9572 C133.3848,252.9572 133.9568,253.5292 133.9568,254.2342" id="Fill-140" fill="#FFFFFF" sketch:type="MSShapeGroup" mask="url(#mask-2)"></path>
            <path d="M133.9568,266.4096 C133.9568,267.1146 133.3848,267.6866 132.6798,267.6866 C131.9748,267.6866 131.4028,267.1146 131.4028,266.4096 C131.4028,265.7046 131.9748,265.1326 132.6798,265.1326 C133.3848,265.1326 133.9568,265.7046 133.9568,266.4096" id="Fill-141" fill="#FFFFFF" sketch:type="MSShapeGroup" mask="url(#mask-2)"></path>
            <path d="M133.9568,278.585 C133.9568,279.29 133.3848,279.862 132.6798,279.862 C131.9748,279.862 131.4028,279.29 131.4028,278.585 C131.4028,277.88 131.9748,277.308 132.6798,277.308 C133.3848,277.308 133.9568,277.88 133.9568,278.585" id="Fill-142" fill="#FFFFFF" sketch:type="MSShapeGroup" mask="url(#mask-2)"></path>
            <path d="M120.1022,205.0614 C120.0862,205.0384 120.0742,205.0144 120.0582,204.9924 C118.7232,205.8324 117.4372,206.8644 116.2342,208.0504 L116.2342,290.0324 C116.7622,290.1164 117.2982,290.1724 117.8492,290.1724 L120.1022,290.1724 L120.1022,205.0614 Z" id="Fill-143" fill="#1E3158" sketch:type="MSShapeGroup" mask="url(#mask-2)"></path>
            <path d="M159.3325,274.2059 L160.0915,286.2009 L157.8655,286.3419 L157.1055,274.3469 L159.3325,274.2059 Z" id="Fill-144" fill="#F6B2A3" sketch:type="MSShapeGroup" mask="url(#mask-2)"></path>
            <path d="M168.8441,269.3811 L169.4301,278.6361 L157.4251,279.3961 L156.8391,270.1411 L168.8441,269.3811 Z" id="Fill-145" fill="#F6B2A3" sketch:type="MSShapeGroup" mask="url(#mask-2)"></path>
            <path d="M162.6916,276.7646 L163.4506,288.7596 L161.6286,288.8756 L160.8696,276.8796 L162.6916,276.7646 Z" id="Fill-146" fill="#F6B2A3" sketch:type="MSShapeGroup" mask="url(#mask-2)"></path>
            <path d="M165.9883,276.5559 L166.7473,288.5509 L164.9253,288.6669 L164.1663,276.6709 L165.9883,276.5559 Z" id="Fill-147" fill="#F6B2A3" sketch:type="MSShapeGroup" mask="url(#mask-2)"></path>
            <path d="M169.285,276.3472 L170.044,288.3422 L168.222,288.4582 L167.463,276.4622 L169.285,276.3472 Z" id="Fill-148" fill="#F6B2A3" sketch:type="MSShapeGroup" mask="url(#mask-2)"></path>
            <path d="M363.1453,379.3884 L84.1163,379.3884 C83.4113,379.3884 82.8393,378.8164 82.8393,378.1114 C82.8393,377.4064 83.4113,376.8344 84.1163,376.8344 L363.1453,376.8344 C363.8503,376.8344 364.4223,377.4064 364.4223,378.1114 C364.4223,378.8164 363.8503,379.3884 363.1453,379.3884" id="Fill-149" fill="#1E3158" sketch:type="MSShapeGroup" mask="url(#mask-2)"></path>
            <path d="M166.6372,385.0293 L110.3102,385.0293 C109.6052,385.0293 109.0332,384.4573 109.0332,383.7523 C109.0332,383.0473 109.6052,382.4753 110.3102,382.4753 L166.6372,382.4753 C167.3422,382.4753 167.9142,383.0473 167.9142,383.7523 C167.9142,384.4573 167.3422,385.0293 166.6372,385.0293" id="Fill-150" fill="#1E3158" sketch:type="MSShapeGroup" mask="url(#mask-2)"></path>
            <path d="M323.4247,385.0293 L224.5307,385.0293 C223.8257,385.0293 223.2537,384.4573 223.2537,383.7523 C223.2537,383.0473 223.8257,382.4753 224.5307,382.4753 L323.4247,382.4753 C324.1297,382.4753 324.7017,383.0473 324.7017,383.7523 C324.7017,384.4573 324.1297,385.0293 323.4247,385.0293" id="Fill-151" fill="#1E3158" sketch:type="MSShapeGroup" mask="url(#mask-2)"></path>
            <path d="M154.138,225.7767 L156.977,274.3777 L170.764,273.5717 L167.463,223.9097 C166.748,213.9867 161.996,209.5887 158.616,207.8217 C154.232,205.5297 149.161,203.1067 149.161,203.1067" id="Fill-152" fill="#CDCDCD" sketch:type="MSShapeGroup" mask="url(#mask-2)"></path>
            <path d="M156.9774,275.2287 C156.7694,275.2287 156.5674,275.1527 156.4114,275.0137 C156.2424,274.8637 156.1414,274.6527 156.1274,274.4277 L153.2884,225.8267 C153.2614,225.3567 153.6194,224.9547 154.0884,224.9267 C154.5654,224.9157 154.9604,225.2577 154.9884,225.7267 L157.7784,273.4777 L169.8584,272.7717 L166.6134,223.9657 C165.8964,214.0187 161.0474,210.0537 158.2224,208.5757 C153.9014,206.3177 148.8444,203.8987 148.7934,203.8747 C148.3694,203.6717 148.1894,203.1637 148.3924,202.7387 C148.5954,202.3157 149.1034,202.1357 149.5284,202.3377 C149.5794,202.3617 154.6634,204.7957 159.0104,207.0667 C162.1514,208.7097 167.5354,213.0727 168.3114,223.8477 L171.6134,273.5157 C171.6284,273.7417 171.5524,273.9647 171.4024,274.1357 C171.2524,274.3047 171.0404,274.4077 170.8144,274.4217 L157.0274,275.2267 C157.0104,275.2277 156.9944,275.2287 156.9774,275.2287" id="Fill-153" fill="#FFFFFF" sketch:type="MSShapeGroup" mask="url(#mask-2)"></path>
            <path d="M136.7804,245.4438 L126.8064,207.2408 L143.9484,206.9708 L136.7804,245.4438 Z" id="Fill-154" fill="#F6BE6C" sketch:type="MSShapeGroup" mask="url(#mask-2)"></path>
            <path d="M135.3539,166.7093 C126.4059,166.7093 119.1509,173.9633 119.1509,182.9123 C119.1509,184.3183 119.3489,185.6753 119.6859,186.9763 C126.5719,185.7633 132.3219,181.2743 135.2719,175.1683 C138.2439,181.3203 144.0589,185.8333 151.0149,187.0053 C151.3559,185.6953 151.5569,184.3283 151.5569,182.9123 C151.5569,173.9633 144.3019,166.7093 135.3539,166.7093" id="Fill-155" fill="#1E3158" sketch:type="MSShapeGroup" mask="url(#mask-2)"></path>
            <path d="M129.2356,226.258 L139.4126,223.698 L138.8916,221.528 L128.7146,224.088 L129.2356,226.258 Z" id="Fill-156" fill="#F6B2A3" sketch:type="MSShapeGroup" mask="url(#mask-2)"></path>
            <path d="M127.424,236.7684 L136.441,234.6044 L133.634,222.9074 L124.617,225.0724 L127.424,236.7684 Z" id="Fill-157" fill="#F6B2A3" sketch:type="MSShapeGroup" mask="url(#mask-2)"></path>
            <path d="M132.6696,228.7153 L142.8466,226.1553 L142.4206,224.3793 L132.2436,226.9403 L132.6696,228.7153 Z" id="Fill-158" fill="#F6B2A3" sketch:type="MSShapeGroup" mask="url(#mask-2)"></path>
            <path d="M133.4404,231.9274 L141.7794,229.8384 L141.3534,228.0624 L133.0144,230.1524 L133.4404,231.9274 Z" id="Fill-159" fill="#F6B2A3" sketch:type="MSShapeGroup" mask="url(#mask-2)"></path>
            <path d="M134.2113,235.1395 L141.1823,233.4075 L140.7563,231.6325 L133.7853,233.3645 L134.2113,235.1395 Z" id="Fill-160" fill="#F6B2A3" sketch:type="MSShapeGroup" mask="url(#mask-2)"></path>
            <path d="M115.4829,221.0691 L111.5909,227.6741 L128.6789,223.2901 L131.8089,235.6711 L99.0369,244.6541 C98.5169,244.7861 97.9909,244.8491 97.4719,244.8491 C95.4909,244.8501 93.5849,243.9251 92.3609,242.2921 C90.8179,240.2301 90.6629,237.4421 91.9709,235.2221 L106.4809,211.1901 C108.1799,208.4701 110.8579,206.5921 114.0539,205.6361 C115.5719,205.1821 118.1679,204.9921 118.1679,204.9921 L114.6769,207.5341 L114.6889,211.3511" id="Fill-161" fill="#CDCDCD" sketch:type="MSShapeGroup" mask="url(#mask-2)"></path>
            <path d="M97.4684,245.7007 C95.2034,245.7007 93.0394,244.6177 91.6804,242.8037 C89.9244,240.4577 89.7504,237.3127 91.2374,234.7907 L105.7524,210.7507 C108.1854,206.8527 112.6724,204.8257 117.0124,202.8637 C117.6134,202.5927 118.2084,202.3237 118.7924,202.0527 C120.5984,201.2117 123.8714,200.9017 124.0104,200.8877 C124.4824,200.8337 124.8914,201.1897 124.9364,201.6567 C124.9794,202.1257 124.6354,202.5397 124.1674,202.5837 C124.1354,202.5867 121.0484,202.8797 119.5104,203.5957 C118.9214,203.8697 118.3204,204.1417 117.7144,204.4167 C113.6054,206.2727 109.3574,208.1927 107.2034,211.6407 L92.6994,235.6627 C91.5674,237.5837 91.7004,239.9887 93.0434,241.7827 C94.0824,243.1697 95.7374,243.9977 97.4694,243.9977 L97.4714,243.9977 C97.9294,243.9977 98.3854,243.9417 98.8274,243.8297 L129.9234,235.9067 L127.2114,225.1777 L110.9504,229.3497 C110.6194,229.4357 110.2654,229.3127 110.0594,229.0367 C109.8524,228.7627 109.8314,228.3897 110.0064,228.0927 L113.8984,221.4877 C114.1364,221.0817 114.6584,220.9477 115.0634,221.1867 C115.4684,221.4257 115.6034,221.9477 115.3644,222.3527 L112.5134,227.1907 L127.6164,223.3167 C127.8344,223.2617 128.0674,223.2947 128.2624,223.4097 C128.4574,223.5257 128.5974,223.7137 128.6534,223.9327 L131.7824,236.3137 C131.8974,236.7697 131.6224,237.2317 131.1674,237.3467 L99.2464,245.4797 C98.6664,245.6267 98.0694,245.7007 97.4714,245.7007 L97.4684,245.7007 Z" id="Fill-162" fill="#FFFFFF" sketch:type="MSShapeGroup" mask="url(#mask-2)"></path>
            <path d="M120.1022,205.2185 L120.1022,203.3205 C120.1022,203.3205 117.8162,204.1015 116.2342,204.9685 L116.2342,208.4835 L119.7472,205.5505 L120.1022,205.2185 Z" id="Fill-163" fill="#1E3158" sketch:type="MSShapeGroup" mask="url(#mask-2)"></path>
            <path d="M149.6257,286.6003 L149.6257,204.3203 C148.4017,203.6223 147.1447,203.0163 145.8547,202.5173 L145.8547,290.1663 C145.8547,290.1683 145.8557,290.1703 145.8557,290.1723 L149.6637,290.1723 C149.6637,290.1703 149.6257,286.6003 149.6257,286.6003" id="Fill-164" fill="#1E3158" sketch:type="MSShapeGroup" mask="url(#mask-2)"></path>
            <path d="M136.4016,203.3292 C136.4016,206.6652 133.6976,209.3682 130.3626,209.3682 C127.0266,209.3682 124.3226,206.6652 124.3226,203.3292 C124.3226,199.9932 127.0266,197.2892 130.3626,197.2892 C133.6976,197.2892 136.4016,199.9932 136.4016,203.3292" id="Fill-165" fill="#27E3DF" sketch:type="MSShapeGroup" mask="url(#mask-2)"></path>
            <path d="M147.1789,203.3292 C147.1789,206.6652 144.4749,209.3682 141.1399,209.3682 C137.8039,209.3682 135.0999,206.6652 135.0999,203.3292 C135.0999,199.9932 137.8039,197.2892 141.1399,197.2892 C144.4749,197.2892 147.1789,199.9932 147.1789,203.3292" id="Fill-166" fill="#FC5B5D" sketch:type="MSShapeGroup" mask="url(#mask-2)"></path>
            <path d="M141.9006,194.8998 C141.9006,198.2358 139.1966,200.9388 135.8616,200.9388 C132.5256,200.9388 129.8216,198.2358 129.8216,194.8998 C129.8216,191.5638 132.5256,188.8598 135.8616,188.8598 C139.1966,188.8598 141.9006,191.5638 141.9006,194.8998" id="Fill-167" fill="#FECB30" sketch:type="MSShapeGroup" mask="url(#mask-2)"></path>
            <path d="M322.3846,105.9694 C321.6696,100.6204 317.0996,96.4914 311.5556,96.4914 C307.1716,96.4914 303.4006,99.0764 301.6566,102.8004 C298.8836,98.4764 294.0466,95.6034 288.5286,95.6034 C281.7526,95.6034 276.0026,99.9324 273.8506,105.9694 L322.3846,105.9694 Z" id="Fill-168" fill="#5FC1CA" sketch:type="MSShapeGroup" mask="url(#mask-2)"></path>
            <path d="M319.8383,128.046 C320.4393,123.548 324.2823,120.075 328.9453,120.075 C332.6323,120.075 335.8033,122.249 337.2703,125.381 C339.6023,121.745 343.6703,119.329 348.3113,119.329 C354.0093,119.329 358.8453,122.969 360.6553,128.046 L319.8383,128.046 Z" id="Fill-169" fill="#5FC1CA" sketch:type="MSShapeGroup" mask="url(#mask-2)"></path>
        </g>
    </g>
</svg>