<?xml version="1.0" encoding="UTF-8" standalone="no"?>
<svg width="402px" height="128px" viewBox="0 0 402 128" version="1.1" xmlns="http://www.w3.org/2000/svg" xmlns:xlink="http://www.w3.org/1999/xlink" xmlns:sketch="http://www.bohemiancoding.com/sketch/ns">
    <!-- Generator: Sketch 3.4 (15575) - http://www.bohemiancoding.com/sketch -->
    <title>Untitled 2</title>
    <desc>Created with Sketch.</desc>
    <defs></defs>
    <g id="Page-1" stroke="none" stroke-width="1" fill="none" fill-rule="evenodd" sketch:type="MSPage">
        <g id="beavr-car-whoosh" sketch:type="MSLayerGroup">
            <path d="M130.223,73.6532 C129.343,73.6532 128.487,73.1972 128.013,72.3832 L112.796,46.2202 C112.086,45.0002 112.5,43.4372 113.719,42.7282 C114.938,42.0182 116.502,42.4332 117.21,43.6512 L132.428,69.8142 C133.138,71.0332 132.724,72.5962 131.505,73.3052 C131.101,73.5412 130.659,73.6532 130.223,73.6532" id="steering-wheel" fill="#FC5B5D" sketch:type="MSShapeGroup"></path>
            <path d="M159.8833,43.0449 C153.8423,47.1319 149.0943,57.8789 149.2773,66.7859 L150.2903,102.8689 C150.4163,108.9709 154.3153,113.8399 158.9983,113.7429 L186.4683,113.1769 C191.1513,113.0799 194.8463,108.0549 194.7203,101.9529 L193.7463,67.7609 C193.3203,47.1169 176.4143,31.8609 159.8833,43.0449" id="driver-body" fill="#CDCDCD" sketch:type="MSShapeGroup"></path>
            <path d="M171.317,40.1279 C167.651,40.1279 163.919,41.3429 160.36,43.7499 C154.636,47.6219 149.951,58.1629 150.129,66.7689 L151.142,102.8439 C151.199,105.6159 152.071,108.1899 153.6,110.0979 C155.074,111.9409 156.972,112.9379 158.98,112.8919 L186.451,112.3249 C190.657,112.2389 193.984,107.5929 193.869,101.9699 L192.895,67.7849 C192.659,56.3669 187.261,46.2779 179.143,42.0739 C176.63,40.7739 173.991,40.1279 171.317,40.1279 M158.857,114.5959 C156.381,114.5959 154.047,113.3809 152.27,111.1619 C150.509,108.9629 149.504,106.0239 149.439,102.8859 L148.426,66.8099 C148.235,57.5389 153.161,46.5649 159.406,42.3399 C166.102,37.8089 173.39,37.1789 179.925,40.5629 C188.59,45.0479 194.349,55.7179 194.597,67.7439 L195.572,101.9279 C195.706,108.4969 191.631,113.9219 186.486,114.0279 L159.015,114.5939 C158.963,114.5949 158.91,114.5959 158.857,114.5959" id="driver-body-2" fill="#FFFFFF" sketch:type="MSShapeGroup"></path>
            <path d="M183.0759,22.2107 C183.2599,31.1577 176.1569,38.5597 167.2109,38.7437 C158.2639,38.9287 150.8619,31.8247 150.6779,22.8787 C150.4929,13.9317 157.5959,6.5297 166.5429,6.3457 C175.4889,6.1607 182.8919,13.2637 183.0759,22.2107" id="driver-head" fill="#F6B4A1" sketch:type="MSShapeGroup"></path>
            <path d="M157.6838,56.5109 C157.6988,57.2159 157.1388,57.7999 156.4338,57.8139 C155.7278,57.8289 155.1448,57.2689 155.1308,56.5639 C155.1158,55.8589 155.6758,55.2749 156.3808,55.2609 C157.0858,55.2459 157.6688,55.8059 157.6838,56.5109" id="Fill-9" fill="#FFFFFF" sketch:type="MSShapeGroup"></path>
            <path d="M157.9348,68.6837 C157.9498,69.3887 157.3898,69.9727 156.6848,69.9867 C155.9788,70.0017 155.3958,69.4417 155.3818,68.7367 C155.3668,68.0317 155.9268,67.4477 156.6318,67.4337 C157.3368,67.4187 157.9198,67.9787 157.9348,68.6837" id="driver-button" fill="#FFFFFF" sketch:type="MSShapeGroup"></path>
            <path d="M158.1857,80.8564 C158.2007,81.5614 157.6407,82.1454 156.9357,82.1594 C156.2297,82.1744 155.6467,81.6144 155.6327,80.9094 C155.6177,80.2044 156.1777,79.6204 156.8827,79.6064 C157.5877,79.5914 158.1707,80.1514 158.1857,80.8564" id="Fill-13" fill="#FFFFFF" sketch:type="MSShapeGroup"></path>
            <path d="M158.4367,93.0292 C158.4517,93.7342 157.8917,94.3182 157.1867,94.3322 C156.4807,94.3472 155.8977,93.7872 155.8837,93.0822 C155.8687,92.3772 156.4287,91.7932 157.1337,91.7792 C157.8387,91.7642 158.4217,92.3242 158.4367,93.0292" id="Fill-15" fill="#FFFFFF" sketch:type="MSShapeGroup"></path>
            <path d="M158.6876,105.202 C158.7026,105.907 158.1426,106.491 157.4376,106.505 C156.7316,106.52 156.1486,105.96 156.1346,105.255 C156.1196,104.55 156.6796,103.966 157.3846,103.952 C158.0896,103.937 158.6726,104.497 158.6876,105.202" id="Fill-17" fill="#FFFFFF" sketch:type="MSShapeGroup"></path>
            <path d="M158.9386,100.3482 C158.9536,101.0532 158.3936,101.6372 157.6886,101.6512 C156.9826,101.6662 156.3996,101.1062 156.3856,100.4012 C156.3706,99.6962 156.9306,99.1122 157.6356,99.0982 C158.3406,99.0832 158.9236,99.6432 158.9386,100.3482" id="Fill-19" fill="#FFFFFF" sketch:type="MSShapeGroup"></path>
            <path d="M170.7342,40.1001 L172.5222,110.7151 C172.5222,110.7171 172.5232,110.7191 172.5232,110.7221 L176.3302,110.6431 C176.3302,110.6411 176.2172,106.9991 176.2172,106.9991 L174.4942,40.4321 C173.3282,40.2461 172.2652,40.0631 170.7342,40.1001" id="driver-seatbelt" fill="#1E3158" sketch:type="MSShapeGroup"></path>
            <path d="M161.6827,40.3686 L168.1367,37.7126 L167.2987,49.2416 L161.3847,45.2846" id="driver-bowtie-right" fill="#FC5B5D" sketch:type="MSShapeGroup"></path>
            <path d="M167.299,50.0936 C167.134,50.0936 166.968,50.0456 166.826,49.9496 L160.912,45.9926 C160.521,45.7316 160.415,45.2026 160.677,44.8116 C160.938,44.4206 161.469,44.3166 161.858,44.5776 L166.556,47.7206 L167.188,39.0226 L162.007,41.1556 C161.572,41.3336 161.075,41.1276 160.896,40.6926 C160.717,40.2576 160.924,39.7596 161.359,39.5806 L167.813,36.9246 C168.085,36.8116 168.397,36.8496 168.636,37.0216 C168.875,37.1946 169.007,37.4796 168.986,37.7736 L168.148,49.3036 C168.126,49.6066 167.945,49.8746 167.672,50.0076 C167.554,50.0656 167.426,50.0936 167.299,50.0936" id="driver-bowtie-right-outline" fill="#FFFFFF" sketch:type="MSShapeGroup"></path>
            <path d="M157.6574,40.0214 L153.1934,36.9454 L152.6444,46.4284 L157.7664,45.3264" id="driver-bowtie-left" fill="#FC5B5D" sketch:type="MSShapeGroup"></path>
            <path d="M152.6443,47.2803 C152.4433,47.2803 152.2463,47.2083 152.0903,47.0753 C151.8883,46.9033 151.7793,46.6453 151.7943,46.3803 L152.3443,36.8963 C152.3613,36.5893 152.5433,36.3163 152.8193,36.1803 C153.0963,36.0443 153.4233,36.0693 153.6773,36.2443 L158.1403,39.3203 C158.5283,39.5873 158.6253,40.1173 158.3583,40.5043 C158.0923,40.8913 157.5623,40.9903 157.1743,40.7223 L153.9563,38.5053 L153.5593,45.3613 L157.5873,44.4943 C158.0453,44.3933 158.4993,44.6873 158.5983,45.1483 C158.6973,45.6063 158.4053,46.0603 157.9453,46.1583 L152.8233,47.2613 C152.7643,47.2733 152.7043,47.2803 152.6443,47.2803" id="driver-bowtie-left-outline" fill="#FFFFFF" sketch:type="MSShapeGroup"></path>
            <path d="M162.6308,42.7419 C162.6698,44.6539 161.3828,46.2309 159.7548,46.2649 C158.1268,46.2979 156.7748,44.7749 156.7358,42.8639 C156.6968,40.9519 157.9838,39.3739 159.6118,39.3409 C161.2398,39.3069 162.5918,40.8299 162.6308,42.7419" id="driver-bowtie-knot" fill="#FC5B5D" sketch:type="MSShapeGroup"></path>
            <path d="M159.6645,40.1911 C159.6525,40.1911 159.6415,40.1921 159.6295,40.1921 C158.4735,40.2161 157.5565,41.4061 157.5865,42.8461 C157.6015,43.5681 157.8505,44.2371 158.2865,44.7291 C158.6795,45.1711 159.1815,45.4141 159.7015,45.4141 C159.7135,45.4141 159.7255,45.4141 159.7375,45.4131 C160.2715,45.4021 160.7765,45.1381 161.1585,44.6691 C161.5745,44.1601 161.7945,43.4821 161.7795,42.7591 C161.7505,41.3341 160.8055,40.1911 159.6645,40.1911 M159.6995,47.1161 C158.6865,47.1161 157.7345,46.6721 157.0135,45.8581 C156.3095,45.0651 155.9085,44.0081 155.8845,42.8801 C155.8365,40.5031 157.5005,38.5331 159.5945,38.4891 C159.6175,38.4891 159.6405,38.4881 159.6635,38.4881 C161.7275,38.4881 163.4335,40.3721 163.4825,42.7241 C163.5045,43.8511 163.1475,44.9241 162.4775,45.7461 C161.7735,46.6081 160.8135,47.0941 159.7725,47.1161 L159.6995,47.1161" id="driver-bowtie-know-outline" fill="#FFFFFF" sketch:type="MSShapeGroup"></path>
            <path d="M305.1656,76.0987 L280.0186,76.0987 L280.0186,3.9047 L323.6766,3.9047 L323.6766,57.6857 L305.1656,76.0987 L305.1656,76.0987 L305.1656,76.0987 Z" id="car-spoiler" fill="#FC5B5D" sketch:type="MSShapeGroup"></path>
            <path d="M277.4373,68.9066 C276.8013,67.8496 276.1343,66.6826 275.5343,65.6096 C274.2003,63.2266 271.9703,61.4756 269.3403,60.7366 L235.2663,51.1686 C234.2663,50.8876 233.3143,50.4566 232.4433,49.8916 L207.4873,28.7146 C205.8193,27.6306 203.8713,27.0546 201.8823,27.0546 L201.8823,27.0546 C196.1963,27.0546 191.5883,31.6636 191.5883,37.3486 L191.5883,47.1946 C191.5883,48.8126 191.2063,50.4076 190.4753,51.8506 L184.6443,63.3506 C182.8903,66.8096 179.3413,68.9886 175.4623,68.9886 L139.8613,68.9886 C137.0293,68.9886 126.6603,67.8216 124.7163,65.7626 L118.3013,58.9706 C115.5943,56.1046 111.4873,55.0366 107.7263,56.2196 L47.6683,75.6586 C47.3763,75.7506 47.0883,75.8556 46.8043,75.9736 L7.1223,92.4836 C-2.5307,96.4996 -0.7417,110.6836 9.6073,112.1766 L52.9953,118.4376 C53.5073,118.5106 54.0243,118.5466 54.5423,118.5426 L272.4673,116.9286 C273.6993,116.9186 274.9203,116.6886 276.0703,116.2486 L303.2383,105.8506 C310.3003,103.1486 312.1363,94.0106 306.6673,88.7906 L296.1473,78.7486 C295.0503,77.7016 293.7343,76.9096 292.2953,76.4296 L282.9773,73.3236 C280.6663,72.5526 278.6933,70.9946 277.4373,68.9066" id="car-shape" fill="#FECB30" sketch:type="MSShapeGroup"></path>
            <path d="M216.1318,53.4617 C216.1318,57.7037 212.6928,61.1417 208.4518,61.1417 C204.2098,61.1417 200.7708,57.7037 200.7708,53.4617 C200.7708,49.2197 204.2098,45.7817 208.4518,45.7817 C212.6928,45.7817 216.1318,49.2197 216.1318,53.4617" id="tank-lid" fill="#FC5B5D" sketch:type="MSShapeGroup"></path>
            <path d="M5.9721,93.0487 L309.3461,93.0467 C308.8441,91.4997 307.9691,90.0327 306.6671,88.7907 L302.2501,84.5737 L26.1331,84.5737 L7.1231,92.4837 C6.7161,92.6527 6.3381,92.8457 5.9721,93.0487" id="upper-red-stripe" fill="#FC5B5D" sketch:type="MSShapeGroup"></path>
            <path d="M9.6069,112.1763 L48.0139,117.7183 L166.0129,117.7163 L272.4679,116.9283 C273.6999,116.9193 274.9199,116.6883 276.0709,116.2483 L303.2389,105.8503 C305.8359,104.8563 307.7189,102.9893 308.7989,100.7693 L0.8449,100.7693 C0.2929,105.8513 3.4169,111.2833 9.6069,112.1763" id="lower-red-stripe" fill="#FC5B5D" sketch:type="MSShapeGroup"></path>
            <path d="M82.0473,97.9086 C82.0473,114.0826 68.9363,127.1936 52.7623,127.1936 C36.5883,127.1936 23.4773,114.0826 23.4773,97.9086 C23.4773,81.7346 36.5883,68.6236 52.7623,68.6236 C68.9363,68.6236 82.0473,81.7346 82.0473,97.9086" id="wheel-left-circle-full" fill="#1E3158" sketch:type="MSShapeGroup"></path>
            <path d="M70.1856,97.9086 C70.1856,107.5316 62.3846,115.3316 52.7626,115.3316 C43.1396,115.3316 35.3396,107.5316 35.3396,97.9086 C35.3396,88.2856 43.1396,80.4856 52.7626,80.4856 C62.3846,80.4856 70.1856,88.2856 70.1856,97.9086" id="wheel-left-cap" fill="#D9D9D9" sketch:type="MSShapeGroup"></path>
            <path d="M306.4575,97.9086 C306.4575,114.0826 293.3465,127.1936 277.1725,127.1936 C260.9985,127.1936 247.8875,114.0826 247.8875,97.9086 C247.8875,81.7346 260.9985,68.6236 277.1725,68.6236 C293.3465,68.6236 306.4575,81.7346 306.4575,97.9086" id="wheel-right-circle-full" fill="#1E3158" sketch:type="MSShapeGroup"></path>
            <path d="M52.7623,80.4853 L52.7623,115.3313 C62.3853,115.3313 70.1853,107.5313 70.1853,97.9083 C70.1853,88.2863 62.3853,80.4853 52.7623,80.4853" id="wheel-left-circle-shadow" fill="#CDCDCD" sketch:type="MSShapeGroup"></path>
            <path d="M294.5957,97.9086 C294.5957,107.5316 286.7947,115.3316 277.1727,115.3316 C267.5497,115.3316 259.7497,107.5316 259.7497,97.9086 C259.7497,88.2856 267.5497,80.4856 277.1727,80.4856 C286.7947,80.4856 294.5957,88.2856 294.5957,97.9086" id="wheel-right-cap" fill="#D9D9D9" sketch:type="MSShapeGroup"></path>
            <path d="M277.1724,80.4853 L277.1724,115.3313 C286.7954,115.3313 294.5954,107.5313 294.5954,97.9083 C294.5954,88.2863 286.7954,80.4853 277.1724,80.4853" id="wheel-right-shadow" fill="#CDCDCD" sketch:type="MSShapeGroup"></path>
            <path d="M305.1656,76.0987 L303.1576,76.0987 L303.1576,3.9047 L323.6766,3.9047 L323.6766,57.6857 L305.1656,76.0987 L305.1656,76.0987 L305.1656,76.0987 Z" id="Fill-57" fill="#FC4C4E" sketch:type="MSShapeGroup"></path>
            <path d="M280.0191,37.0703 L280.0191,20.1203 L323.6761,20.1203 L323.6761,37.0653 L280.0191,37.0703 L280.0191,37.0703 L280.0191,37.0703 Z" id="Fill-59" fill="#FECB30" sketch:type="MSShapeGroup"></path>
            <path d="M183.0759,22.2107 C182.8919,13.2637 175.4889,6.1607 166.5429,6.3457 C159.2069,6.4967 153.1189,11.5037 151.2629,18.2327 C151.4869,18.2327 150.3049,20.5267 150.7909,20.5947 C151.2839,20.6627 153.4479,18.5057 154.1379,18.6257 C158.5079,19.3807 166.1049,20.9637 167.7179,20.9637 C169.9839,20.9637 169.8769,34.8167 163.6429,38.2557 C163.9609,38.3537 164.2909,38.4597 164.6289,38.5727 C165.4729,38.6907 166.3309,38.7617 167.2109,38.7437 C176.1569,38.5597 183.2599,31.1577 183.0759,22.2107" id="driver-helmet" fill="#FC5B5D" sketch:type="MSShapeGroup"></path>
            <path d="M162.632,23.7237 L183.031,23.7237 C183.067,23.2247 183.086,22.7207 183.076,22.2107 C183.063,21.5687 183.002,20.9397 182.917,20.3187 L162.632,20.3187 L162.632,23.7237 L162.632,23.7237 L162.632,23.7237 Z" id="driver-glasses-band" fill="#1E3158" sketch:type="MSShapeGroup"></path>
            <path d="M134.0825,61.4222 L125.3525,61.6042 L124.5205,49.8522 L133.7915,49.6232 L134.0825,61.4222 L134.0825,61.4222 L134.0825,61.4222 Z" id="driver-shirt-hem" fill="#F6B2A3" sketch:type="MSShapeGroup"></path>
            <path d="M130.0614,61.6549 L130.3794,48.8909 L178.5244,49.0109 C182.0464,49.0189 184.8824,51.9269 184.8514,55.4529 C184.8194,58.9789 181.9354,61.8109 178.4094,61.7799 L130.0614,61.6549 L130.0614,61.6549 L130.0614,61.6549 Z" id="driver-arm" fill="#CDCDCD" sketch:type="MSShapeGroup"></path>
            <path d="M130.9346,60.8059 L178.4116,60.9279 L178.4606,60.9279 C181.4956,60.9279 183.9726,58.4789 183.9996,55.4449 C184.0126,53.9549 183.4426,52.5499 182.3946,51.4899 C181.3596,50.4439 179.9836,49.8659 178.5226,49.8629 L131.2096,49.7449 L130.9346,60.8059 L130.9346,60.8059 L130.9346,60.8059 Z M178.4666,62.6309 L178.4016,62.6309 L129.1886,62.5039 L129.5486,48.0369 L178.5266,48.1599 C180.4446,48.1639 182.2486,48.9209 183.6046,50.2929 C184.9746,51.6779 185.7196,53.5129 185.7026,55.4599 C185.6666,59.4279 182.4266,62.6309 178.4666,62.6309 L178.4666,62.6309 L178.4666,62.6309 L178.4666,62.6309 Z" id="driver-arm-outline" fill="#FFFFFF" sketch:type="MSShapeGroup"></path>
            <path d="M124.5966,49.8501 C118.9896,49.8501 115.8026,51.5181 116.4756,52.7081 C117.1486,53.8981 119.7666,58.4011 120.4496,59.6951 C121.1336,60.9881 123.6696,61.6791 126.3106,61.6141 C128.9506,61.5491 124.5966,49.8501 124.5966,49.8501" id="driver-hand" fill="#F6B2A3" sketch:type="MSShapeGroup"></path>
            <path d="M153.7809,20.7075 C152.9109,20.7075 152.1809,21.3865 152.1169,22.2535 L152.1039,23.2075 C152.1039,23.7595 152.1919,24.1705 152.5419,24.5155 L154.0189,25.9665 C154.3319,26.2745 154.7479,26.4445 155.1889,26.4445 L158.9619,26.4445 C159.8819,26.4445 160.6299,25.6965 160.6299,24.7775 L160.6299,22.3755 C160.6299,21.4555 159.8819,20.7075 158.9619,20.7075 L153.7809,20.7075 L153.7809,20.7075 L153.7809,20.7075 Z M158.9619,28.9985 L155.1889,28.9985 C154.0739,28.9985 153.0239,28.5685 152.2289,27.7885 L150.7509,26.3355 C149.8649,25.4625 149.5409,24.2795 149.5409,23.0205 L149.5699,22.0655 C149.7309,19.8715 151.5809,18.1535 153.7809,18.1535 L158.9619,18.1535 C161.2899,18.1535 163.1839,20.0475 163.1839,22.3755 L163.1839,24.7775 C163.1839,27.1045 161.2899,28.9985 158.9619,28.9985 L158.9619,28.9985 L158.9619,28.9985 L158.9619,28.9985 Z" id="driver-glasses-rim" fill="#1E3158" sketch:type="MSShapeGroup"></path>
            <path d="M156.5258,24.9016 C155.7358,24.9016 154.9738,24.4506 154.3798,23.6306 C154.1728,23.3436 154.1518,22.8466 154.3338,22.5186 C154.5158,22.1926 154.8318,22.1586 155.0398,22.4466 C155.7988,23.4966 156.9908,23.5976 157.8178,22.6866 C158.0448,22.4366 158.3558,22.5256 158.5138,22.8806 C158.6718,23.2376 158.6178,23.7276 158.3908,23.9776 C157.8418,24.5826 157.1968,24.9016 156.5258,24.9016" id="driver-eye" fill="#1E3158" sketch:type="MSShapeGroup"></path>
            <path d="M234.0235,11.9202 L194.7235,11.9202 C194.0185,11.9202 193.4465,11.3482 193.4465,10.6432 C193.4465,9.9382 194.0185,9.3662 194.7235,9.3662 L234.0235,9.3662 C234.7285,9.3662 235.3005,9.9382 235.3005,10.6432 C235.3005,11.3482 234.7285,11.9202 234.0235,11.9202" id="whoosh-1" fill="#E3E3E3" sketch:type="MSShapeGroup"></path>
            <path d="M385.9857,77.7826 L321.1457,77.7826 C320.4407,77.7826 319.8687,77.2106 319.8687,76.5056 C319.8687,75.8006 320.4407,75.2286 321.1457,75.2286 L385.9857,75.2286 C386.6907,75.2286 387.2627,75.8006 387.2627,76.5056 C387.2627,77.2106 386.6907,77.7826 385.9857,77.7826" id="whoosh-2" fill="#E3E3E3" sketch:type="MSShapeGroup"></path>
            <path d="M364.7025,105.228 L318.5915,105.228 C317.8865,105.228 317.3145,104.656 317.3145,103.951 C317.3145,103.246 317.8865,102.674 318.5915,102.674 L364.7025,102.674 C365.4075,102.674 365.9795,103.246 365.9795,103.951 C365.9795,104.656 365.4075,105.228 364.7025,105.228" id="whoosh-3" fill="#E3E3E3" sketch:type="MSShapeGroup"></path>
            <path d="M400.0327,87.0483 L345.4087,87.0483 C344.7037,87.0483 344.1317,86.4763 344.1317,85.7713 C344.1317,85.0663 344.7037,84.4943 345.4087,84.4943 L400.0327,84.4943 C400.7377,84.4943 401.3097,85.0663 401.3097,85.7713 C401.3097,86.4763 400.7377,87.0483 400.0327,87.0483" id="whoosh-4" fill="#E3E3E3" sketch:type="MSShapeGroup"></path>
            <path d="M243.3333,3.3836 L212.5453,3.3836 C211.8403,3.3836 211.2693,2.8116 211.2693,2.1066 C211.2693,1.4016 211.8403,0.8296 212.5453,0.8296 L243.3333,0.8296 C244.0383,0.8296 244.6103,1.4016 244.6103,2.1066 C244.6103,2.8116 244.0383,3.3836 243.3333,3.3836" id="whoosh-5" fill="#E3E3E3" sketch:type="MSShapeGroup"></path>
        </g>
    </g>
</svg>