<?xml version="1.0" encoding="UTF-8" standalone="no"?>
<svg width="454px" height="454px" viewBox="0 0 454 454" version="1.1" xmlns="http://www.w3.org/2000/svg" xmlns:xlink="http://www.w3.org/1999/xlink" xmlns:sketch="http://www.bohemiancoding.com/sketch/ns">
    <!-- Generator: Sketch 3.4 (15575) - http://www.bohemiancoding.com/sketch -->
    <title>Untitled 2</title>
    <desc>Created with Sketch.</desc>
    <defs>
        <path id="path-1" d="M0,0.457 L453.543,0.457 L453.543,454 L0,454 L0,0.457 Z"></path>
    </defs>
    <g id="Page-1" stroke="none" stroke-width="1" fill="none" fill-rule="evenodd" sketch:type="MSPage">
        <g id="man-woman-chat" sketch:type="MSLayerGroup">
            <path d="M268.3205,200.9349 C256.4375,200.9349 241.9355,197.5599 230.0435,184.5989 C217.6765,171.1239 206.5675,163.2479 195.0805,159.8129 C181.2885,155.6869 166.6405,157.9569 150.3035,166.7549 L149.4965,165.2549 C187.8935,144.5809 212.3935,162.8499 231.2965,183.4489 C257.9855,212.5279 298.7175,192.3889 299.1255,192.1829 L299.8955,193.7029 C299.7905,193.7549 289.2455,199.0329 275.4695,200.5389 C273.2385,200.7829 270.8375,200.9349 268.3205,200.9349" id="cable" fill="#CDCDCD" sketch:type="MSShapeGroup"></path>
            <path d="M147.8491,162.2676 L129.1321,169.9316 L135.5651,181.6486 L151.7111,169.3036 L147.8491,162.2676 Z" id="Fill-3" fill="#FC5B5D" sketch:type="MSShapeGroup"></path>
            <path d="M101.1845,361.7123 L115.6575,361.7963 L114.8055,283.5533 L100.3335,284.3773 L101.1845,361.7123 Z" id="Fill-5" fill="#1E3158" sketch:type="MSShapeGroup"></path>
            <mask id="mask-2" sketch:name="Clip 8" fill="white">
                <use xlink:href="#path-1"></use>
            </mask>
            <g id="Clip-8"></g>
            <path d="M107.995,299.635 L130.944,299.635 L130.944,286.107 L107.995,286.107 L107.995,299.635 Z" id="Fill-7" fill="#1E3158" sketch:type="MSShapeGroup" mask="url(#mask-2)"></path>
            <path d="M100.3425,373.1973 L127.9245,373.3463 L127.9495,368.6683 L116.9075,363.9303 L100.3935,363.8413 L100.3425,373.1973 Z" id="Fill-9" fill="#1E3158" sketch:type="MSShapeGroup" mask="url(#mask-2)"></path>
            <path d="M124.7807,361.7123 L139.2537,361.7963 L138.4017,283.5533 L123.9297,284.3773 L124.7807,361.7123 Z" id="Fill-10" fill="#1E3158" sketch:type="MSShapeGroup" mask="url(#mask-2)"></path>
            <path d="M130.0436,367.4203 L130.0926,373.2783 L151.5206,373.3463 L151.5456,368.6683 L140.5046,363.9303 L123.9896,363.8413 L123.9836,364.8063 L130.0436,367.4203 Z" id="Fill-11" fill="#1E3158" sketch:type="MSShapeGroup" mask="url(#mask-2)"></path>
            <path d="M132.7198,199.2776 C140.7008,203.2396 147.1748,213.8856 147.1748,222.7956 L147.1748,275.9136 C147.1748,282.0176 142.2268,286.9656 136.1228,286.9656 L100.3188,286.9656 C94.2148,286.9656 89.2668,282.0176 89.2668,275.9136 L89.2668,224.6866 C89.2668,204.0376 110.8818,188.4376 132.7198,199.2776" id="Fill-12" fill="#CDCDCD" sketch:type="MSShapeGroup" mask="url(#mask-2)"></path>
            <path d="M118.1799,196.5843 C112.9889,196.5843 107.9439,197.9873 103.4329,200.7843 C95.0949,205.9543 90.1179,214.8883 90.1179,224.6863 L90.1179,275.9133 C90.1179,281.5383 94.6939,286.1143 100.3189,286.1143 L136.1239,286.1143 C141.7479,286.1143 146.3239,281.5383 146.3239,275.9133 L146.3239,222.7953 C146.3239,214.2233 139.9199,203.8033 132.3419,200.0403 C127.6959,197.7343 122.8779,196.5843 118.1799,196.5843 M136.1239,287.8173 L100.3189,287.8173 C93.7549,287.8173 88.4149,282.4773 88.4149,275.9133 L88.4149,224.6863 C88.4149,214.2963 93.6939,204.8193 102.5359,199.3373 C111.6409,193.6923 122.7809,193.3933 133.0979,198.5153 C141.3299,202.6023 148.0259,213.4933 148.0259,222.7953 L148.0259,275.9133 C148.0259,282.4773 142.6859,287.8173 136.1239,287.8173" id="Fill-13" fill="#FFFFFF" sketch:type="MSShapeGroup" mask="url(#mask-2)"></path>
            <path d="M140.5504,180.3785 L131.2334,172.7855 L129.8234,174.5155 L139.1414,182.1085 L140.5504,180.3785 Z" id="Fill-14" fill="#F6B2A3" sketch:type="MSShapeGroup" mask="url(#mask-2)"></path>
            <path d="M150.0065,175.4458 L142.8175,169.5878 L135.2195,178.9118 L142.4075,184.7708 L150.0065,175.4458 Z" id="Fill-15" fill="#F6B2A3" sketch:type="MSShapeGroup" mask="url(#mask-2)"></path>
            <path d="M140.4221,176.1578 L131.1051,168.5648 L129.9511,169.9798 L139.2691,177.5728 L140.4221,176.1578 Z" id="Fill-16" fill="#F6B2A3" sketch:type="MSShapeGroup" mask="url(#mask-2)"></path>
            <path d="M142.5088,173.5971 L133.1918,166.0041 L132.0378,167.4191 L141.3558,175.0121 L142.5088,173.5971 Z" id="Fill-17" fill="#F6B2A3" sketch:type="MSShapeGroup" mask="url(#mask-2)"></path>
            <path d="M144.5956,171.0364 L135.2786,163.4434 L134.1246,164.8584 L143.4426,172.4514 L144.5956,171.0364 Z" id="Fill-18" fill="#F6B2A3" sketch:type="MSShapeGroup" mask="url(#mask-2)"></path>
            <path d="M102.4156,178.8536 C102.4156,187.8016 109.6696,195.0566 118.6186,195.0566 C127.5666,195.0566 134.8206,187.8016 134.8206,178.8536 C134.8206,169.9056 127.5666,162.6506 118.6186,162.6506 C109.6696,162.6506 102.4156,169.9056 102.4156,178.8536" id="Fill-19" fill="#F6B4A1" sketch:type="MSShapeGroup" mask="url(#mask-2)"></path>
            <path d="M118.6182,162.5593 C126.4252,162.5593 132.9392,168.0813 134.4752,175.4323 C130.5612,174.2313 127.2732,171.6033 125.2172,168.1513 C122.7562,177.2933 114.4122,184.0243 104.4932,184.0243 C104.0902,184.0243 103.6912,184.0113 103.2942,183.9893 C102.7332,182.3473 102.4152,180.5933 102.4152,178.7623 C102.4152,169.8133 109.6702,162.5593 118.6182,162.5593" id="Fill-20" fill="#1E3158" sketch:type="MSShapeGroup" mask="url(#mask-2)"></path>
            <path d="M121.373,183.9854 C122.609,183.8334 123.746,183.2394 124.574,182.3114 C124.863,181.9874 124.835,181.4894 124.51,181.1994 C124.186,180.9104 123.688,180.9374 123.398,181.2634 C122.339,182.4514 120.487,182.7804 119.082,182.0354 C118.698,181.8304 118.221,181.9784 118.017,182.3614 C117.813,182.7454 117.959,183.2224 118.343,183.4264 C119.275,183.9214 120.323,184.1144 121.373,183.9854" id="Fill-21" fill="#1E3158" sketch:type="MSShapeGroup" mask="url(#mask-2)"></path>
            <path d="M129.9173,183.1843 C129.9823,183.1763 130.0473,183.1673 130.1133,183.1573 C131.3403,182.9593 132.4543,182.3223 133.2483,181.3643 C133.5253,181.0293 133.4783,180.5333 133.1423,180.2553 C132.8073,179.9773 132.3123,180.0253 132.0343,180.3603 C131.4843,181.0243 130.7133,181.4653 129.8623,181.6013 C129.1453,181.7323 128.4083,181.6123 127.7513,181.2933 C127.3593,181.1053 126.8873,181.2683 126.6983,181.6593 C126.5093,182.0513 126.6733,182.5213 127.0643,182.7113 C127.9543,183.1423 128.9373,183.3043 129.9173,183.1843" id="Fill-22" fill="#1E3158" sketch:type="MSShapeGroup" mask="url(#mask-2)"></path>
            <path d="M135.1987,216.7806 C136.2537,217.1266 137.4137,217.2016 138.5757,216.9426 L175.4917,208.6946 C177.8837,208.1596 179.7587,206.3036 180.3167,203.9166 C180.8757,201.5306 180.0177,199.0356 178.1117,197.4956 L148.6637,173.7106 L140.6397,183.6446 L159.7947,199.1156 L135.7907,204.4796 C132.3487,205.2486 130.1827,208.6616 130.9517,212.1036 C131.4607,214.3826 133.1297,216.1026 135.1987,216.7806" id="Fill-23" fill="#CDCDCD" sketch:type="MSShapeGroup" mask="url(#mask-2)"></path>
            <path d="M162.7133,202.5029 C162.5283,202.5029 162.3413,202.4419 162.1843,202.3179 L140.2683,184.9009 C139.8993,184.6079 139.8383,184.0729 140.1303,183.7049 C140.4223,183.3379 140.9583,183.2759 141.3273,183.5679 L163.2433,200.9849 C163.6123,201.2779 163.6733,201.8129 163.3813,202.1809 C163.2133,202.3919 162.9643,202.5029 162.7133,202.5029" id="Fill-24" fill="#FFFFFF" sketch:type="MSShapeGroup" mask="url(#mask-2)"></path>
            <g id="bowtie-man" mask="url(#mask-2)" sketch:type="MSShapeGroup">
                <g transform="translate(108.000000, 191.000000)">
                    <path d="M10.1452,6.2868 L1.1012,3.7638 L2.5962,15.2738 L10.7002,11.1958" id="Fill-25" fill="#FC5B5D"></path>
                    <path d="M2.5961,16.1253 C2.4591,16.1253 2.3221,16.0923 2.1971,16.0263 C1.9531,15.8963 1.7871,15.6573 1.7521,15.3833 L0.2571,3.8733 C0.2201,3.5903 0.3281,3.3073 0.5431,3.1203 C0.7591,2.9343 1.0541,2.8653 1.3301,2.9443 L10.3741,5.4673 C10.8271,5.5933 11.0911,6.0623 10.9651,6.5153 C10.8381,6.9693 10.3651,7.2333 9.9161,7.1063 L2.1111,4.9293 L3.2861,13.9733 L10.3181,10.4353 C10.7361,10.2253 11.2491,10.3933 11.4611,10.8133 C11.6721,11.2333 11.5031,11.7453 11.0831,11.9563 L2.9781,16.0343 C2.8581,16.0953 2.7271,16.1253 2.5961,16.1253" id="Fill-26" fill="#FFFFFF"></path>
                    <path d="M15.7282,5.8567 L23.0002,1.8207 L25.2432,12.1247 L15.7282,11.1637" id="Fill-27" fill="#FC5B5D"></path>
                    <path d="M25.2427,12.9752 C25.2147,12.9752 25.1857,12.9732 25.1567,12.9712 L15.6427,12.0112 C15.1747,11.9632 14.8337,11.5462 14.8817,11.0782 C14.9287,10.6112 15.3347,10.2782 15.8137,10.3162 L24.1607,11.1592 L22.4117,3.1212 L16.1417,6.6012 C15.7317,6.8302 15.2117,6.6812 14.9847,6.2702 C14.7557,5.8582 14.9047,5.3402 15.3157,5.1132 L22.5877,1.0762 C22.8227,0.9452 23.1067,0.9332 23.3517,1.0452 C23.5967,1.1562 23.7757,1.3762 23.8327,1.6392 L26.0747,11.9422 C26.1327,12.2092 26.0587,12.4872 25.8777,12.6912 C25.7157,12.8732 25.4837,12.9752 25.2427,12.9752" id="Fill-28" fill="#FFFFFF"></path>
                    <path d="M9.5914,8.6617 C9.5914,10.5737 11.1414,12.1247 13.0544,12.1247 C14.9664,12.1247 16.5164,10.5737 16.5164,8.6617 C16.5164,6.7497 14.9664,5.1987 13.0544,5.1987 C11.1414,5.1987 9.5914,6.7497 9.5914,8.6617" id="Fill-29" fill="#FC5B5D"></path>
                    <path d="M13.0539,6.0507 C11.6139,6.0507 10.4429,7.2217 10.4429,8.6617 C10.4429,10.1007 11.6139,11.2727 13.0539,11.2727 C14.4939,11.2727 15.6649,10.1007 15.6649,8.6617 C15.6649,7.2217 14.4939,6.0507 13.0539,6.0507 M13.0539,12.9757 C10.6749,12.9757 8.7399,11.0407 8.7399,8.6617 C8.7399,6.2837 10.6749,4.3477 13.0539,4.3477 C15.4329,4.3477 17.3679,6.2837 17.3679,8.6617 C17.3679,11.0407 15.4329,12.9757 13.0539,12.9757" id="Fill-30" fill="#FFFFFF"></path>
                </g>
            </g>
            <path d="M120.0154,213.6497 C120.0154,214.3547 120.5874,214.9267 121.2924,214.9267 C121.9974,214.9267 122.5694,214.3547 122.5694,213.6497 C122.5694,212.9447 121.9974,212.3727 121.2924,212.3727 C120.5874,212.3727 120.0154,212.9447 120.0154,213.6497" id="Fill-31" fill="#FFFFFF" sketch:type="MSShapeGroup" mask="url(#mask-2)"></path>
            <path d="M120.0154,225.8251 C120.0154,226.5301 120.5874,227.1021 121.2924,227.1021 C121.9974,227.1021 122.5694,226.5301 122.5694,225.8251 C122.5694,225.1201 121.9974,224.5481 121.2924,224.5481 C120.5874,224.5481 120.0154,225.1201 120.0154,225.8251" id="Fill-32" fill="#FFFFFF" sketch:type="MSShapeGroup" mask="url(#mask-2)"></path>
            <path d="M120.0154,238.0005 C120.0154,238.7055 120.5874,239.2775 121.2924,239.2775 C121.9974,239.2775 122.5694,238.7055 122.5694,238.0005 C122.5694,237.2955 121.9974,236.7235 121.2924,236.7235 C120.5874,236.7235 120.0154,237.2955 120.0154,238.0005" id="Fill-33" fill="#FFFFFF" sketch:type="MSShapeGroup" mask="url(#mask-2)"></path>
            <path d="M120.0154,250.1759 C120.0154,250.8809 120.5874,251.4529 121.2924,251.4529 C121.9974,251.4529 122.5694,250.8809 122.5694,250.1759 C122.5694,249.4709 121.9974,248.8989 121.2924,248.8989 C120.5874,248.8989 120.0154,249.4709 120.0154,250.1759" id="Fill-34" fill="#FFFFFF" sketch:type="MSShapeGroup" mask="url(#mask-2)"></path>
            <path d="M120.0154,262.3512 C120.0154,263.0562 120.5874,263.6282 121.2924,263.6282 C121.9974,263.6282 122.5694,263.0562 122.5694,262.3512 C122.5694,261.6462 121.9974,261.0742 121.2924,261.0742 C120.5874,261.0742 120.0154,261.6462 120.0154,262.3512" id="Fill-35" fill="#FFFFFF" sketch:type="MSShapeGroup" mask="url(#mask-2)"></path>
            <path d="M120.0154,274.5266 C120.0154,275.2316 120.5874,275.8036 121.2924,275.8036 C121.9974,275.8036 122.5694,275.2316 122.5694,274.5266 C122.5694,273.8216 121.9974,273.2496 121.2924,273.2496 C120.5874,273.2496 120.0154,273.8216 120.0154,274.5266" id="Fill-36" fill="#FFFFFF" sketch:type="MSShapeGroup" mask="url(#mask-2)"></path>
            <path d="M133.87,201.0031 C133.886,200.9801 133.898,200.9561 133.914,200.9341 C135.249,201.7741 136.535,202.8061 137.738,203.9921 L137.738,285.9741 C137.21,286.0581 136.674,286.1141 136.123,286.1141 L133.87,286.1141 L133.87,201.0031 Z" id="Fill-37" fill="#1E3158" sketch:type="MSShapeGroup" mask="url(#mask-2)"></path>
            <path d="M104.3465,282.5419 L104.3465,200.2619 C105.5705,199.5639 106.8275,198.9579 108.1175,198.4589 L108.1175,286.1079 C108.1175,286.1099 108.1165,286.1119 108.1165,286.1139 L104.3085,286.1139 C104.3085,286.1119 104.3465,282.5419 104.3465,282.5419" id="Fill-38" fill="#1E3158" sketch:type="MSShapeGroup" mask="url(#mask-2)"></path>
            <path d="M94.6397,270.1476 L93.8807,282.1426 L96.1067,282.2836 L96.8667,270.2886 L94.6397,270.1476 Z" id="Fill-39" fill="#F6B2A3" sketch:type="MSShapeGroup" mask="url(#mask-2)"></path>
            <path d="M85.1281,265.3228 L84.5421,274.5778 L96.5471,275.3378 L97.1331,266.0828 L85.1281,265.3228 Z" id="Fill-40" fill="#F6B2A3" sketch:type="MSShapeGroup" mask="url(#mask-2)"></path>
            <path d="M91.2805,272.7062 L90.5215,284.7012 L92.3435,284.8172 L93.1025,272.8212 L91.2805,272.7062 Z" id="Fill-41" fill="#F6B2A3" sketch:type="MSShapeGroup" mask="url(#mask-2)"></path>
            <path d="M87.9838,272.4976 L87.2248,284.4926 L89.0468,284.6086 L89.8058,272.6126 L87.9838,272.4976 Z" id="Fill-42" fill="#F6B2A3" sketch:type="MSShapeGroup" mask="url(#mask-2)"></path>
            <path d="M84.6871,272.2889 L83.9281,284.2839 L85.7501,284.3999 L86.5091,272.4039 L84.6871,272.2889 Z" id="Fill-43" fill="#F6B2A3" sketch:type="MSShapeGroup" mask="url(#mask-2)"></path>
            <path d="M169.8557,375.3301 L62.4487,375.3301 C61.7437,375.3301 61.1717,374.7581 61.1717,374.0531 C61.1717,373.3481 61.7437,372.7761 62.4487,372.7761 L169.8557,372.7761 C170.5607,372.7761 171.1327,373.3481 171.1327,374.0531 C171.1327,374.7581 170.5607,375.3301 169.8557,375.3301" id="whoosh-man-upper" fill="#1E3158" sketch:type="MSShapeGroup" mask="url(#mask-2)"></path>
            <path d="M143.6615,380.971 L87.3345,380.971 C86.6295,380.971 86.0575,380.399 86.0575,379.694 C86.0575,378.989 86.6295,378.417 87.3345,378.417 L143.6615,378.417 C144.3665,378.417 144.9385,378.989 144.9385,379.694 C144.9385,380.399 144.3665,380.971 143.6615,380.971" id="whoosh-man-lower" fill="#1E3158" sketch:type="MSShapeGroup" mask="url(#mask-2)"></path>
            <path d="M296.8448,189.5944 L316.5958,185.2434 L317.9758,198.5384 L297.6738,197.5774 L296.8448,189.5944 Z" id="Fill-46" fill="#FC5B5D" sketch:type="MSShapeGroup" mask="url(#mask-2)"></path>
            <path d="M347.8286,361.7123 L334.9966,361.7963 L335.7516,283.5533 L348.5836,284.3773 L347.8286,361.7123 Z" id="Fill-47" fill="#1E3158" sketch:type="MSShapeGroup" mask="url(#mask-2)"></path>
            <path d="M329.4376,361.7123 L316.6056,361.7963 L317.3606,283.5533 L330.1926,284.3773 L329.4376,361.7123 Z" id="Fill-48" fill="#1E3158" sketch:type="MSShapeGroup" mask="url(#mask-2)"></path>
            <path d="M342.995,299.635 L320.046,299.635 L320.046,286.107 L342.995,286.107 L342.995,299.635 Z" id="Fill-49" fill="#1E3158" sketch:type="MSShapeGroup" mask="url(#mask-2)"></path>
            <path d="M347.9746,373.1973 L325.6196,373.3463 L325.5936,368.6683 L336.6356,363.9303 L347.9236,363.8413 L347.9746,373.1973 Z" id="Fill-50" fill="#107A89" sketch:type="MSShapeGroup" mask="url(#mask-2)"></path>
            <path d="M323.5,367.4203 L323.451,373.2783 L305.996,373.3463 L305.971,368.6683 L317.013,363.9303 L329.554,363.8413 L329.56,364.8063 L323.5,367.4203 Z" id="Fill-51" fill="#107A89" sketch:type="MSShapeGroup" mask="url(#mask-2)"></path>
            <path d="M322.2746,204.7068 C315.9026,208.0758 310.7336,217.1308 310.7336,224.7078 L310.7336,280.9518 C310.7336,286.1428 314.6836,290.3508 319.5576,290.3508 L348.1446,290.3508 C353.0186,290.3508 356.9686,286.1428 356.9686,280.9518 L356.9686,226.3168 C356.9686,208.7548 339.7106,195.4868 322.2746,204.7068" id="Fill-52" fill="#FECB30" sketch:type="MSShapeGroup" mask="url(#mask-2)"></path>
            <path d="M333.8761,202.5586 C330.1481,202.5586 326.3301,203.5246 322.6721,205.4596 C316.6621,208.6366 311.5841,217.4516 311.5841,224.7086 L311.5841,280.9516 C311.5841,285.6656 315.1611,289.4996 319.5571,289.4996 L348.1451,289.4996 C352.5411,289.4996 356.1181,285.6656 356.1181,280.9516 L356.1181,226.3166 C356.1181,217.7506 351.7711,209.8106 344.7751,205.5966 C341.4151,203.5716 337.6921,202.5586 333.8761,202.5586 M348.1451,291.2026 L319.5571,291.2026 C314.2221,291.2026 309.8821,286.6036 309.8821,280.9516 L309.8821,224.7086 C309.8821,216.7606 315.2621,207.4516 321.8761,203.9546 C329.8211,199.7536 338.4871,199.8196 345.6541,204.1386 C353.1591,208.6586 357.8201,217.1566 357.8201,226.3166 L357.8201,280.9516 C357.8201,286.6036 353.4801,291.2026 348.1451,291.2026" id="Fill-53" fill="#FFFFFF" sketch:type="MSShapeGroup" mask="url(#mask-2)"></path>
            <path d="M313.1542,200.3313 L316.4932,188.7853 L318.6372,189.4053 L315.2972,200.9513 L313.1542,200.3313 Z" id="Fill-54" fill="#794D31" sketch:type="MSShapeGroup" mask="url(#mask-2)"></path>
            <path d="M302.5716,201.6577 L305.1476,192.7497 L316.7026,196.0907 L314.1266,204.9997 L302.5716,201.6577 Z" id="Fill-55" fill="#794D31" sketch:type="MSShapeGroup" mask="url(#mask-2)"></path>
            <path d="M310.8574,196.7879 L314.1964,185.2419 L315.9504,185.7489 L312.6114,197.2949 L310.8574,196.7879 Z" id="Fill-56" fill="#794D31" sketch:type="MSShapeGroup" mask="url(#mask-2)"></path>
            <path d="M307.6841,195.8702 L311.0231,184.3242 L312.7771,184.8312 L309.4381,196.3772 L307.6841,195.8702 Z" id="Fill-57" fill="#794D31" sketch:type="MSShapeGroup" mask="url(#mask-2)"></path>
            <path d="M304.5109,194.9525 L307.8499,183.4065 L309.6039,183.9135 L306.2649,195.4595 L304.5109,194.9525 Z" id="Fill-58" fill="#794D31" sketch:type="MSShapeGroup" mask="url(#mask-2)"></path>
            <path d="M351.9794,184.8129 C351.9794,193.7609 344.7254,201.0159 335.7764,201.0159 C326.8284,201.0159 319.5744,193.7609 319.5744,184.8129 C319.5744,175.8649 326.8284,168.6099 335.7764,168.6099 C344.7254,168.6099 351.9794,175.8649 351.9794,184.8129" id="Fill-59" fill="#794D31" sketch:type="MSShapeGroup" mask="url(#mask-2)"></path>
            <path d="M334.0464,225.256 C333.3754,226.141 336.6924,228.823 335.5894,229.271 L300.5414,243.501 C298.2704,244.422 295.6724,243.963 293.8554,242.319 C292.0374,240.675 291.3224,238.135 292.0134,235.784 L302.6884,199.467 L314.9394,203.068 L307.4104,225.256 L317.4634,210.192 C320.7304,208.866 337.7774,217.685 339.1034,220.953 C339.9824,223.116 335.3614,223.521 334.0464,225.256" id="Fill-60" fill="#FECB30" sketch:type="MSShapeGroup" mask="url(#mask-2)"></path>
            <path d="M306.4108,229.673 C306.3128,229.673 306.2138,229.656 306.1168,229.621 C305.6748,229.458 305.4498,228.969 305.6118,228.527 L314.8358,203.496 L301.6558,199.693 C301.2038,199.562 300.9428,199.09 301.0738,198.639 C301.2038,198.187 301.6748,197.928 302.1278,198.057 L317.0658,202.367 L307.2098,229.116 C307.0828,229.46 306.7578,229.673 306.4108,229.673" id="Fill-61" fill="#FFFFFF" sketch:type="MSShapeGroup" mask="url(#mask-2)"></path>
            <path d="M391.0947,375.3301 L283.6887,375.3301 C282.9837,375.3301 282.4117,374.7581 282.4117,374.0531 C282.4117,373.3481 282.9837,372.7761 283.6887,372.7761 L391.0947,372.7761 C391.7997,372.7761 392.3717,373.3481 392.3717,374.0531 C392.3717,374.7581 391.7997,375.3301 391.0947,375.3301" id="whoosh-woman-upper" fill="#1E3158" sketch:type="MSShapeGroup" mask="url(#mask-2)"></path>
            <path d="M338.5684,380.971 L256.7014,380.971 C255.9964,380.971 255.4244,380.399 255.4244,379.694 C255.4244,378.989 255.9964,378.417 256.7014,378.417 L338.5684,378.417 C339.2734,378.417 339.8454,378.989 339.8454,379.694 C339.8454,380.399 339.2734,380.971 338.5684,380.971" id="whoosh-woman-lower" fill="#1E3158" sketch:type="MSShapeGroup" mask="url(#mask-2)"></path>
            <path d="M349.9571,176.5263 C349.9571,176.5263 356.1151,164.3843 369.2621,167.9183 C382.4101,171.4523 377.6641,190.9753 377.6641,190.9753 C377.6641,190.9753 375.5061,181.2553 365.4521,180.0023 C355.3991,178.7483 352.3451,179.2203 352.3451,179.2203" id="Fill-64" fill="#062B3A" sketch:type="MSShapeGroup" mask="url(#mask-2)"></path>
            <path d="M322.5285,175.5035 C325.4605,171.3385 330.2965,168.6105 335.7765,168.6105 C344.7255,168.6105 351.9795,175.8645 351.9795,184.8125 C351.9795,189.6525 349.8465,193.9835 346.4825,196.9525 L338.7125,180.9715 L322.5285,175.5035 Z" id="Fill-65" fill="#062B3A" sketch:type="MSShapeGroup" mask="url(#mask-2)"></path>
            <g id="bowtie-woman" mask="url(#mask-2)" sketch:type="MSShapeGroup">
                <g transform="translate(344.000000, 165.000000)">
                    <path d="M9.5736,8.1057 L9.2066,1.2487 L1.5796,4.9767 L6.3016,9.6387" id="Fill-66" fill="#FECB30"></path>
                    <path d="M6.3016,10.277 C6.1396,10.277 5.9776,10.215 5.8526,10.093 L1.1316,5.432 C0.9846,5.286 0.9166,5.078 0.9496,4.874 C0.9836,4.669 1.1136,4.494 1.2996,4.403 L8.9266,0.675 C9.1176,0.58 9.3446,0.588 9.5296,0.698 C9.7146,0.806 9.8326,1.001 9.8446,1.214 L10.2116,8.071 C10.2306,8.423 9.9606,8.724 9.6076,8.743 C9.2646,8.776 8.9546,8.492 8.9366,8.14 L8.6206,2.245 L2.6696,5.155 L6.7506,9.184 C7.0006,9.431 7.0046,9.836 6.7566,10.087 C6.6306,10.214 6.4666,10.277 6.3016,10.277" id="Fill-67" fill="#FFFFFF"></path>
                    <path d="M11.1777,11.8738 L15.6757,15.9688 L9.0607,19.9328 L7.5007,13.1148" id="Fill-68" fill="#FECB30"></path>
                    <path d="M9.0601,20.5719 C8.9751,20.5719 8.8901,20.5549 8.8101,20.5199 C8.6221,20.4409 8.4831,20.2749 8.4371,20.0759 L6.8781,13.2579 C6.8001,12.9139 7.0141,12.5719 7.3581,12.4929 C7.6981,12.4169 8.0441,12.6289 8.1231,12.9729 L9.4871,18.9329 L14.6101,15.8629 L10.7481,12.3459 C10.4871,12.1089 10.4681,11.7049 10.7051,11.4439 C10.9441,11.1829 11.3471,11.1659 11.6071,11.4019 L16.1051,15.4969 C16.2551,15.6339 16.3301,15.8319 16.3101,16.0329 C16.2901,16.2339 16.1771,16.4129 16.0041,16.5169 L9.3881,20.4809 C9.2881,20.5409 9.1741,20.5719 9.0601,20.5719" id="Fill-69" fill="#FFFFFF"></path>
                    <path d="M7.7984,8.2775 C6.4734,8.7245 5.7614,10.1615 6.2094,11.4865 C6.6564,12.8125 8.0934,13.5235 9.4184,13.0765 C10.7434,12.6295 11.4554,11.1925 11.0074,9.8665 C10.5604,8.5415 9.1234,7.8305 7.7984,8.2775" id="Fill-70" fill="#FECB30"></path>
                    <path d="M8.6095,8.7822 C8.4055,8.7822 8.2015,8.8152 8.0025,8.8832 C7.5225,9.0442 7.1355,9.3832 6.9105,9.8362 C6.6865,10.2892 6.6525,10.8032 6.8145,11.2822 C7.1475,12.2722 8.2275,12.8082 9.2135,12.4712 C10.2045,12.1372 10.7365,11.0612 10.4025,10.0712 C10.2415,9.5922 9.9025,9.2042 9.4495,8.9802 C9.1835,8.8482 8.8975,8.7822 8.6095,8.7822 M8.6055,13.8492 C8.1235,13.8492 7.6455,13.7382 7.2015,13.5182 C6.4425,13.1432 5.8755,12.4932 5.6045,11.6912 C5.3335,10.8892 5.3905,10.0282 5.7665,9.2692 C6.1415,8.5102 6.7915,7.9432 7.5935,7.6722 C8.3965,7.4032 9.2575,7.4602 10.0155,7.8352 C10.7755,8.2112 11.3425,8.8602 11.6135,9.6622 C11.8835,10.4662 11.8265,11.3252 11.4505,12.0842 C11.0745,12.8432 10.4255,13.4102 9.6225,13.6812 C9.2895,13.7942 8.9475,13.8492 8.6055,13.8492" id="Fill-71" fill="#FFFFFF"></path>
                </g>
            </g>
            <path d="M334.2334,188.5308 C332.9884,188.5308 331.7874,188.0798 330.8524,187.2598 C330.5254,186.9728 330.4934,186.4758 330.7794,186.1478 C331.0664,185.8218 331.5634,185.7878 331.8914,186.0758 C333.0874,187.1258 334.9654,187.2268 336.2694,186.3158 C336.6264,186.0658 337.1174,186.1548 337.3664,186.5098 C337.6154,186.8668 337.5294,187.3568 337.1724,187.6068 C336.3074,188.2118 335.2914,188.5308 334.2334,188.5308" id="Fill-72" fill="#062B3A" sketch:type="MSShapeGroup" mask="url(#mask-2)"></path>
            <path d="M325.494,187.465 C325.428,187.465 325.363,187.464 325.296,187.462 C324.054,187.415 322.871,186.919 321.966,186.065 C321.651,185.766 321.636,185.268 321.936,184.951 C322.234,184.634 322.732,184.622 323.049,184.92 C323.675,185.512 324.495,185.855 325.355,185.887 C326.083,185.929 326.8,185.721 327.414,185.324 C327.779,185.09 328.267,185.194 328.503,185.559 C328.739,185.924 328.633,186.412 328.268,186.648 C327.437,187.184 326.482,187.465 325.494,187.465" id="Fill-73" fill="#062B3A" sketch:type="MSShapeGroup" mask="url(#mask-2)"></path>
            <path d="M344.7231,204.9996 L334.0461,210.1316 L331.0371,203.1326 L324.2401,210.1316 L320.9521,205.5006" id="Fill-74" fill="#FECB30" sketch:type="MSShapeGroup" mask="url(#mask-2)"></path>
            <path d="M324.1374,211.4593 L320.2584,205.9943 L321.6464,205.0083 L324.3424,208.8053 L331.3154,201.6243 L334.4784,208.9803 L344.3544,204.2323 L345.0924,205.7673 L333.6154,211.2843 L330.7584,204.6403 L324.1374,211.4593 Z" id="Fill-75" fill="#FFFFFF" sketch:type="MSShapeGroup" mask="url(#mask-2)"></path>
            <path d="M328.0641,218.9249 C328.0641,219.6299 328.6361,220.2019 329.3411,220.2019 C330.0461,220.2019 330.6181,219.6299 330.6181,218.9249 C330.6181,218.2199 330.0461,217.6479 329.3411,217.6479 C328.6361,217.6479 328.0641,218.2199 328.0641,218.9249" id="Fill-76" fill="#FFFFFF" sketch:type="MSShapeGroup" mask="url(#mask-2)"></path>
            <path d="M328.0641,231.1002 C328.0641,231.8052 328.6361,232.3772 329.3411,232.3772 C330.0461,232.3772 330.6181,231.8052 330.6181,231.1002 C330.6181,230.3952 330.0461,229.8232 329.3411,229.8232 C328.6361,229.8232 328.0641,230.3952 328.0641,231.1002" id="Fill-77" fill="#FFFFFF" sketch:type="MSShapeGroup" mask="url(#mask-2)"></path>
            <path d="M328.0641,243.2756 C328.0641,243.9806 328.6361,244.5526 329.3411,244.5526 C330.0461,244.5526 330.6181,243.9806 330.6181,243.2756 C330.6181,242.5706 330.0461,241.9986 329.3411,241.9986 C328.6361,241.9986 328.0641,242.5706 328.0641,243.2756" id="Fill-78" fill="#FFFFFF" sketch:type="MSShapeGroup" mask="url(#mask-2)"></path>
            <path d="M328.0641,255.451 C328.0641,256.156 328.6361,256.728 329.3411,256.728 C330.0461,256.728 330.6181,256.156 330.6181,255.451 C330.6181,254.746 330.0461,254.174 329.3411,254.174 C328.6361,254.174 328.0641,254.746 328.0641,255.451" id="Fill-79" fill="#FFFFFF" sketch:type="MSShapeGroup" mask="url(#mask-2)"></path>
            <path d="M328.0641,267.6264 C328.0641,268.3314 328.6361,268.9034 329.3411,268.9034 C330.0461,268.9034 330.6181,268.3314 330.6181,267.6264 C330.6181,266.9214 330.0461,266.3494 329.3411,266.3494 C328.6361,266.3494 328.0641,266.9214 328.0641,267.6264" id="Fill-80" fill="#FFFFFF" sketch:type="MSShapeGroup" mask="url(#mask-2)"></path>
            <path d="M328.0641,279.8017 C328.0641,280.5067 328.6361,281.0787 329.3411,281.0787 C330.0461,281.0787 330.6181,280.5067 330.6181,279.8017 C330.6181,279.0967 330.0461,278.5247 329.3411,278.5247 C328.6361,278.5247 328.0641,279.0967 328.0641,279.8017" id="Fill-81" fill="#FFFFFF" sketch:type="MSShapeGroup" mask="url(#mask-2)"></path>
            <path d="M343.0281,253.7548 L365.7631,239.0458 L342.4891,220.6268 C339.7241,218.4388 339.2571,214.4228 341.4451,211.6578 C343.6341,208.8928 345.8851,206.4478 348.6511,208.6358 L380.7341,234.6098 C382.3551,235.8928 383.2551,237.8818 383.1481,239.9468 C383.0411,242.0118 381.9411,243.8968 380.1951,245.0058 L349.8751,264.5338 L343.0281,253.7548 Z" id="Fill-82" fill="#FECB30" sketch:type="MSShapeGroup" mask="url(#mask-2)"></path>
            <path d="M364.6386,238.9131 L347.2516,225.2561" id="Fill-83" fill="#FFFFFF" sketch:type="MSShapeGroup" mask="url(#mask-2)"></path>
            <path d="M364.6378,239.7643 C364.4538,239.7643 364.2688,239.7053 364.1128,239.5823 L346.7248,225.9253 C346.3558,225.6353 346.2908,225.0993 346.5818,224.7293 C346.8718,224.3603 347.4058,224.2943 347.7778,224.5863 L365.1648,238.2433 C365.5338,238.5343 365.5988,239.0693 365.3078,239.4393 C365.1398,239.6533 364.8908,239.7643 364.6378,239.7643" id="Fill-84" fill="#FFFFFF" sketch:type="MSShapeGroup" mask="url(#mask-2)"></path>
            <path d="M339.6319,258.0886 L329.3179,264.2596 L328.1719,262.3446 L338.4859,256.1736 L339.6319,258.0886 Z" id="Fill-85" fill="#794D31" sketch:type="MSShapeGroup" mask="url(#mask-2)"></path>
            <path d="M348.2786,264.3324 L340.3206,269.0934 L334.1446,258.7714 L342.1026,254.0104 L348.2786,264.3324 Z" id="Fill-86" fill="#794D31" sketch:type="MSShapeGroup" mask="url(#mask-2)"></path>
            <path d="M338.8968,262.2467 L328.5828,268.4177 L327.6448,266.8507 L337.9598,260.6797 L338.8968,262.2467 Z" id="Fill-87" fill="#794D31" sketch:type="MSShapeGroup" mask="url(#mask-2)"></path>
            <path d="M340.5928,265.0814 L330.2788,271.2524 L329.3408,269.6854 L339.6558,263.5144 L340.5928,265.0814 Z" id="Fill-88" fill="#794D31" sketch:type="MSShapeGroup" mask="url(#mask-2)"></path>
            <path d="M342.2888,267.9161 L331.9748,274.0871 L331.0368,272.5201 L341.3518,266.3491 L342.2888,267.9161 Z" id="Fill-89" fill="#794D31" sketch:type="MSShapeGroup" mask="url(#mask-2)"></path>
            <path d="M349.2483,266.4099 L341.0533,253.3619 L368.0013,235.6909 C368.3963,235.4319 368.9223,235.5429 369.1793,235.9349 C369.4373,236.3279 369.3273,236.8559 368.9353,237.1139 L343.3833,253.8709 L349.8033,264.0939 L366.4133,254.1699 C366.8143,253.9289 367.3393,254.0609 367.5803,254.4649 C367.8213,254.8679 367.6903,255.3909 367.2863,255.6319 L349.2483,266.4099 Z" id="Fill-90" fill="#FFFFFF" sketch:type="MSShapeGroup" mask="url(#mask-2)"></path>
            <g id="upper-bubble" mask="url(#mask-2)" sketch:type="MSShapeGroup">
                <g transform="translate(207.000000, 56.000000)">
                    <path d="M10.0102,19.692 L99.0892,19.692 C104.3812,19.692 108.6722,15.401 108.6722,10.108 C108.6722,4.816 104.3812,0.525 99.0892,0.525 L10.0102,0.525 C4.7172,0.525 0.4262,4.816 0.4262,10.108 C0.4262,15.401 4.7172,19.692 10.0102,19.692" id="Fill-93" fill="#107A89"></path>
                    <path d="M99.5591,6.3147 L25.0961,6.3147" id="Fill-97" fill="#ECECEC"></path>
                    <path d="M99.5588,6.9531 L25.0968,6.9531 C24.7438,6.9531 24.4578,6.6671 24.4578,6.3151 C24.4578,5.9621 24.7438,5.6761 25.0968,5.6761 L99.5588,5.6761 C99.9118,5.6761 100.1978,5.9621 100.1978,6.3151 C100.1978,6.6671 99.9118,6.9531 99.5588,6.9531" id="Fill-98" fill="#FFFFFF"></path>
                    <path d="M99.5591,12.2637 L40.7401,12.2637" id="Fill-99" fill="#ECECEC"></path>
                    <path d="M99.5588,12.9025 L40.7398,12.9025 C40.3878,12.9025 40.1018,12.6165 40.1018,12.2635 C40.1018,11.9115 40.3878,11.6255 40.7398,11.6255 L99.5588,11.6255 C99.9118,11.6255 100.1978,11.9115 100.1978,12.2635 C100.1978,12.6165 99.9118,12.9025 99.5588,12.9025" id="Fill-100" fill="#FFFFFF"></path>
                </g>
            </g>
            <g id="lower-bubble" mask="url(#mask-2)" sketch:type="MSShapeGroup">
                <g transform="translate(206.000000, 116.000000)">
                    <path d="M12.2065,28.8997 L98.8925,28.8997 C104.8465,28.8997 109.6725,24.0737 109.6725,18.1197 L109.6725,11.9117 C109.6725,5.9587 104.8465,1.1327 98.8925,1.1327 L12.2065,1.1327 C6.2525,1.1327 1.4265,5.9587 1.4265,11.9117 L1.4265,18.1197 C1.4265,24.0737 6.2525,28.8997 12.2065,28.8997" id="Fill-91" fill="#107A89"></path>
                    <path d="M10.6039,1.7707 C5.8959,1.7707 2.0649,5.6017 2.0649,10.3097 L2.0649,19.7227 C2.0649,24.4307 5.8959,28.2617 10.6039,28.2617 L100.4949,28.2617 C105.2029,28.2617 109.0339,24.4307 109.0339,19.7227 L109.0339,10.3097 C109.0339,5.6017 105.2029,1.7707 100.4949,1.7707 L10.6039,1.7707 Z M100.4949,29.5387 L10.6039,29.5387 C5.1919,29.5387 0.7879,25.1347 0.7879,19.7227 L0.7879,10.3097 C0.7879,4.8977 5.1919,0.4937 10.6039,0.4937 L100.4949,0.4937 C105.9069,0.4937 110.3109,4.8977 110.3109,10.3097 L110.3109,19.7227 C110.3109,25.1347 105.9069,29.5387 100.4949,29.5387 L100.4949,29.5387 Z" id="Fill-92" fill="#FFFFFF"></path>
                    <path d="M100.5591,9.067 L26.0961,9.067" id="Fill-101" fill="#ECECEC"></path>
                    <path d="M100.5588,9.7054 L26.0968,9.7054 C25.7438,9.7054 25.4578,9.4194 25.4578,9.0674 C25.4578,8.7144 25.7438,8.4284 26.0968,8.4284 L100.5588,8.4284 C100.9118,8.4284 101.1978,8.7144 101.1978,9.0674 C101.1978,9.4194 100.9118,9.7054 100.5588,9.7054" id="Fill-102" fill="#FFFFFF"></path>
                    <path d="M100.5591,21.4641 L57.9291,21.4641" id="Fill-103" fill="#ECECEC"></path>
                    <path d="M100.5588,22.1028 L57.9288,22.1028 C57.5768,22.1028 57.2908,21.8168 57.2908,21.4648 C57.2908,21.1118 57.5768,20.8258 57.9288,20.8258 L100.5588,20.8258 C100.9118,20.8258 101.1978,21.1118 101.1978,21.4648 C101.1978,21.8168 100.9118,22.1028 100.5588,22.1028" id="Fill-104" fill="#FFFFFF"></path>
                    <path d="M100.5591,15.0161 L15.3001,15.0161" id="Fill-105" fill="#ECECEC"></path>
                    <path d="M100.5588,15.6547 L15.3008,15.6547 C14.9478,15.6547 14.6618,15.3687 14.6618,15.0167 C14.6618,14.6637 14.9478,14.3777 15.3008,14.3777 L100.5588,14.3777 C100.9118,14.3777 101.1978,14.6637 101.1978,15.0167 C101.1978,15.3687 100.9118,15.6547 100.5588,15.6547" id="Fill-106" fill="#FFFFFF"></path>
                </g>
            </g>
            <g id="middle-bubble" mask="url(#mask-2)" sketch:type="MSShapeGroup">
                <g transform="translate(125.000000, 79.000000)">
                    <path d="M11.7114,33.9568 L98.3974,33.9568 C104.3514,33.9568 109.1774,29.1308 109.1774,23.1768 L109.1774,11.5178 C109.1774,5.5648 104.3514,0.7378 98.3974,0.7378 L11.7114,0.7378 C5.7574,0.7378 0.9314,5.5648 0.9314,11.5178 L0.9314,23.1768 C0.9314,29.1308 5.7574,33.9568 11.7114,33.9568" id="Fill-95" fill="#ECECEC"></path>
                    <path d="M10.1083,1.3763 C5.4003,1.3763 1.5703,5.2073 1.5703,9.9153 L1.5703,24.7793 C1.5703,29.4873 5.4003,33.3183 10.1083,33.3183 L100.0003,33.3183 C104.7083,33.3183 108.5393,29.4873 108.5393,24.7793 L108.5393,9.9153 C108.5393,5.2073 104.7083,1.3763 100.0003,1.3763 L10.1083,1.3763 Z M100.0003,34.5953 L10.1083,34.5953 C4.6963,34.5953 0.2933,30.1913 0.2933,24.7793 L0.2933,9.9153 C0.2933,4.5033 4.6963,0.0993 10.1083,0.0993 L100.0003,0.0993 C105.4123,0.0993 109.8163,4.5033 109.8163,9.9153 L109.8163,24.7793 C109.8163,30.1913 105.4123,34.5953 100.0003,34.5953 L100.0003,34.5953 Z" id="Fill-96" fill="#FFFFFF"></path>
                    <path d="M84.6793,7.8453 L10.2163,7.8453" id="Fill-107" fill="#ECECEC"></path>
                    <path d="M84.6794,8.4837 L10.2164,8.4837 C9.8634,8.4837 9.5774,8.1977 9.5774,7.8457 C9.5774,7.4927 9.8634,7.2067 10.2164,7.2067 L84.6794,7.2067 C85.0314,7.2067 85.3174,7.4927 85.3174,7.8457 C85.3174,8.1977 85.0314,8.4837 84.6794,8.4837" id="Fill-108" fill="#FFFFFF"></path>
                    <path d="M98.854,13.7943 L10.216,13.7943" id="Fill-109" fill="#ECECEC"></path>
                    <path d="M98.8544,14.433 L10.2164,14.433 C9.8644,14.433 9.5784,14.147 9.5784,13.795 C9.5784,13.442 9.8644,13.156 10.2164,13.156 L98.8544,13.156 C99.2064,13.156 99.4924,13.442 99.4924,13.795 C99.4924,14.147 99.2064,14.433 98.8544,14.433" id="Fill-110" fill="#FFFFFF"></path>
                    <path d="M84.6793,19.7118 L10.2163,19.7118" id="Fill-111" fill="#ECECEC"></path>
                    <path d="M84.6794,20.3499 L10.2164,20.3499 C9.8634,20.3499 9.5774,20.0639 9.5774,19.7119 C9.5774,19.3589 9.8634,19.0729 10.2164,19.0729 L84.6794,19.0729 C85.0314,19.0729 85.3174,19.3589 85.3174,19.7119 C85.3174,20.0639 85.0314,20.3499 84.6794,20.3499" id="Fill-112" fill="#FFFFFF"></path>
                    <path d="M92.0582,25.6608 L10.2162,25.6608" id="Fill-113" fill="#ECECEC"></path>
                    <path d="M92.0579,26.2993 L10.2169,26.2993 C9.8639,26.2993 9.5779,26.0133 9.5779,25.6613 C9.5779,25.3083 9.8639,25.0223 10.2169,25.0223 L92.0579,25.0223 C92.4109,25.0223 92.6969,25.3083 92.6969,25.6613 C92.6969,26.0133 92.4109,26.2993 92.0579,26.2993" id="Fill-114" fill="#FFFFFF"></path>
                </g>
            </g>
            <path d="M99.8342,221.7183 L96.9952,270.3193 L83.2082,269.5133 L86.5092,219.8513 C87.2242,209.9283 91.9762,205.5303 95.3562,203.7633 C99.7402,201.4713 103.4972,199.6613 103.4972,199.6613" id="Fill-115" fill="#CDCDCD" sketch:type="MSShapeGroup" mask="url(#mask-2)"></path>
            <path d="M96.9948,271.1703 C96.9778,271.1703 96.9618,271.1693 96.9448,271.1683 L83.1578,270.3633 C82.9318,270.3493 82.7198,270.2463 82.5698,270.0773 C82.4198,269.9063 82.3438,269.6833 82.3588,269.4573 L85.6598,219.7943 C86.4368,209.0143 91.8208,204.6513 94.9618,203.0093 C99.3078,200.7373 103.0908,198.9133 103.1288,198.8943 C103.5528,198.6913 104.0608,198.8693 104.2648,199.2933 C104.4688,199.7163 104.2908,200.2253 103.8668,200.4293 C103.8298,200.4473 100.0708,202.2603 95.7498,204.5183 C92.9248,205.9953 88.0758,209.9603 87.3588,219.9123 L84.1138,268.7133 L96.1938,269.4193 L98.9838,221.6683 C99.0118,221.1993 99.4028,220.8543 99.8838,220.8683 C100.3528,220.8963 100.7108,221.2983 100.6838,221.7683 L97.8448,270.3693 C97.8308,270.5943 97.7298,270.8053 97.5608,270.9553 C97.4048,271.0943 97.2028,271.1703 96.9948,271.1703" id="Fill-116" fill="#FFFFFF" sketch:type="MSShapeGroup" mask="url(#mask-2)"></path>
        </g>
    </g>
</svg>